%TF.GenerationSoftware,KiCad,Pcbnew,6.0.8-f2edbf62ab~116~ubuntu22.04.1*%
%TF.CreationDate,2022-10-18T02:38:11+05:30*%
%TF.ProjectId,mushak_pcb,6d757368-616b-45f7-9063-622e6b696361,rev?*%
%TF.SameCoordinates,Original*%
%TF.FileFunction,Drillmap*%
%TF.FilePolarity,Positive*%
%FSLAX45Y45*%
G04 Gerber Fmt 4.5, Leading zero omitted, Abs format (unit mm)*
G04 Created by KiCad (PCBNEW 6.0.8-f2edbf62ab~116~ubuntu22.04.1) date 2022-10-18 02:38:11*
%MOMM*%
%LPD*%
G01*
G04 APERTURE LIST*
%ADD10C,0.100000*%
%ADD11C,0.200000*%
%ADD12C,0.020000*%
%ADD13C,0.030000*%
%ADD14C,0.050000*%
G04 APERTURE END LIST*
D10*
X19400000Y-9100000D02*
X19550000Y-9100000D01*
X19400000Y-8600000D02*
X19400000Y-8200000D01*
X20405000Y-8380000D02*
X20575000Y-8380000D01*
X19545000Y-9990000D02*
X19755000Y-9990000D01*
X19550000Y-10937181D02*
X19550000Y-11132181D01*
X20405000Y-10622500D02*
X20405000Y-10659681D01*
X20352500Y-11652500D02*
X19735000Y-11652500D01*
X19550000Y-9430000D02*
X19755000Y-9430000D01*
X20355000Y-10622500D02*
X20355000Y-10659681D01*
X20480000Y-9580000D02*
X20480000Y-9517500D01*
X19400000Y-10837500D02*
X19550000Y-10837181D01*
X19000000Y-11700000D02*
X18200000Y-11700000D01*
X16800000Y-8100000D02*
X18000000Y-8100000D01*
X20535000Y-10832181D02*
X20535000Y-11022181D01*
X19400000Y-10300000D02*
X19400000Y-9800000D01*
X20535000Y-11022181D02*
X20585000Y-11022181D01*
X19400000Y-8100000D02*
X19652500Y-8100000D01*
X20355000Y-11219681D02*
X20355000Y-11237500D01*
X20585000Y-10275000D02*
X20585000Y-10165000D01*
X19755000Y-9990000D02*
X19755000Y-10102500D01*
X20585000Y-9130000D02*
X20585000Y-9020000D01*
X20535000Y-8220000D02*
X20535000Y-7920000D01*
X16675000Y-11615000D02*
X16675000Y-11420000D01*
X20405000Y-8880000D02*
X20405000Y-8957500D01*
X20585000Y-8320000D02*
X20585000Y-8220000D01*
X20475000Y-9020000D02*
X20475000Y-8970000D01*
X19400000Y-10837500D02*
X19400000Y-10400000D01*
X19805000Y-10659681D02*
X20355000Y-10659681D01*
X18200000Y-7700000D02*
G75*
G03*
X18125000Y-7775000I0J-75000D01*
G01*
X20590000Y-9990000D02*
X20590000Y-9880000D01*
X20475000Y-10722181D02*
X20475000Y-10659681D01*
X20585000Y-10832181D02*
X20535000Y-10832181D01*
X20405000Y-10102500D02*
X20475000Y-10102500D01*
X20535000Y-7920000D02*
X20585000Y-7920000D01*
X18125000Y-7975000D02*
X18125000Y-7775000D01*
X19000000Y-11699996D02*
G75*
G03*
X19400000Y-11337181I0J401906D01*
G01*
X19400000Y-9197500D02*
X19550000Y-9197500D01*
X19805000Y-8320000D02*
X19805000Y-8380000D01*
X19545000Y-10575000D02*
X19755000Y-10575000D01*
X18125000Y-11425000D02*
G75*
G03*
X18000000Y-11300000I-125000J0D01*
G01*
X19652500Y-8880000D02*
X19755000Y-8880000D01*
X20480000Y-9990000D02*
X20590000Y-9990000D01*
X20405000Y-9517500D02*
X20480000Y-9517500D01*
X20475000Y-10102500D02*
X20475000Y-10120000D01*
X20355000Y-8880000D02*
X19805000Y-8880000D01*
X20590000Y-9580000D02*
X20480000Y-9580000D01*
X19755000Y-8880000D02*
X19755000Y-8957500D01*
X20535000Y-10465000D02*
X20535000Y-10275000D01*
X20585000Y-7920000D02*
X20585000Y-7820000D01*
X19400000Y-8100000D02*
G75*
G03*
X19000000Y-7700000I-400000J0D01*
G01*
X19735000Y-11355000D02*
X19735000Y-11337181D01*
X20585000Y-10465000D02*
X20535000Y-10465000D01*
X19400000Y-11237181D02*
X19735000Y-11237181D01*
X20405000Y-10575000D02*
X20405000Y-10622500D01*
X20352500Y-11695000D02*
X20435000Y-11695000D01*
X20585000Y-9020000D02*
X20475000Y-9020000D01*
X18000000Y-8100000D02*
G75*
G03*
X18125000Y-7975000I0J125000D01*
G01*
X19545000Y-9800000D02*
X19545000Y-9990000D01*
X19805000Y-11237500D02*
X20355000Y-11237500D01*
X19755000Y-11132181D02*
X19755000Y-11219681D01*
X19400000Y-9700000D02*
X19545000Y-9700000D01*
X19652500Y-8380000D02*
X19652500Y-8600000D01*
X19755000Y-11237181D02*
X19735000Y-11237181D01*
X20405000Y-11132181D02*
X20585000Y-11132181D01*
X20355000Y-10007000D02*
X20355000Y-10102500D01*
X19550000Y-9197500D02*
X19550000Y-9430000D01*
X16675000Y-7975000D02*
X16675000Y-7788033D01*
X19550000Y-10659681D02*
X19755000Y-10659681D01*
X19652500Y-8200000D02*
X19652500Y-8320000D01*
X19400000Y-9700000D02*
X19400000Y-9197500D01*
X20585000Y-10722181D02*
X20475000Y-10722181D01*
X19805000Y-10622500D02*
X19805000Y-10659681D01*
X16590000Y-7713033D02*
G75*
G03*
X16600000Y-11690000I235075J-1987905D01*
G01*
X20535000Y-11295000D02*
X20535000Y-11575000D01*
X20540000Y-9880000D02*
X20540000Y-9690000D01*
X19550000Y-10659681D02*
X19550000Y-10837181D01*
X18125000Y-11625000D02*
G75*
G03*
X18200000Y-11700000I75000J0D01*
G01*
X20435000Y-11195000D02*
X20585000Y-11195000D01*
X20585000Y-7820000D02*
X19652500Y-7820000D01*
X19805000Y-9445000D02*
X19805000Y-9517500D01*
X19805000Y-10102500D02*
X20355000Y-10102500D01*
X20590000Y-9690000D02*
X20590000Y-9580000D01*
X19755000Y-10622500D02*
X19755000Y-10659681D01*
X20405000Y-9990000D02*
X20405000Y-10102500D01*
X20405000Y-9430000D02*
X20585000Y-9430000D01*
X19755000Y-10575000D02*
X19755000Y-10622500D01*
X20355000Y-8320000D02*
X20355000Y-8380000D01*
X20355000Y-9517500D02*
X19805000Y-9517500D01*
X19755000Y-9517500D02*
X19545000Y-9517500D01*
X19400000Y-10937500D02*
X19550000Y-10937181D01*
X20535000Y-9320000D02*
X20585000Y-9320000D01*
X20585000Y-11195000D02*
X20585000Y-11295000D01*
X20585000Y-10575000D02*
X20585000Y-10465000D01*
X20405000Y-9430000D02*
X20405000Y-9517500D01*
X20352500Y-11695000D02*
X20352500Y-11652500D01*
X19400000Y-8200000D02*
X19652500Y-8200000D01*
X20532500Y-8780000D02*
X20532500Y-8480000D01*
X20405000Y-9990000D02*
X20480000Y-9990000D01*
X18200000Y-7700000D02*
X19000000Y-7700000D01*
X20585000Y-11695000D02*
X20435000Y-11695000D01*
X19805000Y-9445000D02*
X20355000Y-9445000D01*
X20405000Y-10575000D02*
X20475000Y-10575000D01*
X19400000Y-9100000D02*
X19400000Y-8700000D01*
X19545000Y-10400000D02*
X19545000Y-10575000D01*
X20575000Y-8880000D02*
X20575000Y-8780000D01*
X20405000Y-8880000D02*
X20575000Y-8880000D01*
X20475000Y-10575000D02*
X20585000Y-10575000D01*
X19735000Y-11355000D02*
X19735000Y-11652500D01*
X19805000Y-10588000D02*
X20355000Y-10588000D01*
X20585000Y-9320000D02*
X20585000Y-9430000D01*
X19755000Y-8957500D02*
X19550000Y-8957500D01*
X19805000Y-11148000D02*
X20355000Y-11148000D01*
X19400000Y-10300000D02*
X19545000Y-10300000D01*
X19652500Y-8320000D02*
X19755000Y-8320000D01*
X20405000Y-8320000D02*
X20405000Y-8380000D01*
X19805000Y-10007000D02*
X20355000Y-10007000D01*
X20405000Y-11177181D02*
X20405000Y-11195000D01*
X19545000Y-10102500D02*
X19545000Y-10300000D01*
X20475000Y-8970000D02*
X20475000Y-8957500D01*
X20535000Y-11575000D02*
X20535000Y-11595000D01*
X20355000Y-8380000D02*
X19805000Y-8380000D01*
X20590000Y-9880000D02*
X20540000Y-9880000D01*
X16600000Y-11690000D02*
G75*
G03*
X16675000Y-11615000I0J75000D01*
G01*
X20535000Y-11595000D02*
X20585000Y-11595000D01*
X20585000Y-11295000D02*
X20535000Y-11295000D01*
X20355000Y-8880000D02*
X20355000Y-8957500D01*
X19400000Y-11337181D02*
X19735000Y-11337181D01*
X20355000Y-11148000D02*
X20355000Y-11219681D01*
X20405000Y-8320000D02*
X20585000Y-8320000D01*
X20355000Y-9445000D02*
X20355000Y-9517500D01*
X19805000Y-10588000D02*
X19805000Y-10622500D01*
X20405000Y-11132181D02*
X20405000Y-11177181D01*
X20585000Y-8220000D02*
X20535000Y-8220000D01*
X20585000Y-11022181D02*
X20585000Y-11132181D01*
X19545000Y-9517500D02*
X19545000Y-9700000D01*
X20405000Y-8957500D02*
X20475000Y-8957500D01*
X20475000Y-10165000D02*
X20475000Y-10120000D01*
X19805000Y-8320000D02*
X20355000Y-8320000D01*
X19400000Y-9800000D02*
X19545000Y-9800000D01*
X19400000Y-8700000D02*
X19652500Y-8700000D01*
X20435000Y-11195000D02*
X20405000Y-11195000D01*
X20405000Y-10659681D02*
X20475000Y-10659681D01*
X19755000Y-11219681D02*
X19755000Y-11237181D01*
X19755000Y-8320000D02*
X19755000Y-8380000D01*
X20585000Y-10165000D02*
X20475000Y-10165000D01*
X18125000Y-11425000D02*
X18125000Y-11625000D01*
X19755000Y-9430000D02*
X19755000Y-9517500D01*
X20535000Y-9130000D02*
X20585000Y-9130000D01*
X20355000Y-10588000D02*
X20355000Y-10622500D01*
X19652500Y-7820000D02*
X19652500Y-8100000D01*
X19550000Y-8957500D02*
X19550000Y-9100000D01*
X20535000Y-9320000D02*
X20535000Y-9130000D01*
X19755000Y-8380000D02*
X19652500Y-8380000D01*
X20532500Y-8780000D02*
X20575000Y-8780000D01*
X19545000Y-10102500D02*
X19755000Y-10102500D01*
X19805000Y-10007000D02*
X19805000Y-10102500D01*
X20575000Y-8380000D02*
X20575000Y-8480000D01*
X16800000Y-11299996D02*
G75*
G03*
X16675000Y-11420000I0J-125104D01*
G01*
X19805000Y-8880000D02*
X19805000Y-8957500D01*
X20532500Y-8480000D02*
X20575000Y-8480000D01*
X20585000Y-11595000D02*
X20585000Y-11695000D01*
X16674995Y-7788033D02*
G75*
G03*
X16590000Y-7713033I-75585J3D01*
G01*
X19400000Y-8600000D02*
X19652500Y-8600000D01*
X16800000Y-11300000D02*
X18000000Y-11300000D01*
X19400000Y-11237181D02*
X19400000Y-10937500D01*
X20540000Y-9690000D02*
X20590000Y-9690000D01*
X19805000Y-11219681D02*
X19805000Y-11148000D01*
X19805000Y-11219681D02*
X19805000Y-11237500D01*
X16675000Y-7975000D02*
G75*
G03*
X16800000Y-8100000I125000J0D01*
G01*
X20535000Y-10275000D02*
X20585000Y-10275000D01*
X19400000Y-10400000D02*
X19545000Y-10400000D01*
X19652500Y-8700000D02*
X19652500Y-8880000D01*
X20355000Y-8957500D02*
X19805000Y-8957500D01*
X19550000Y-11132181D02*
X19755000Y-11132181D01*
X20585000Y-10722181D02*
X20585000Y-10832181D01*
D11*
D12*
X17860000Y-9982500D02*
X17880000Y-10002500D01*
X17880000Y-9982500D02*
X17860000Y-10002500D01*
X18017500Y-9925000D02*
X18037500Y-9945000D01*
X18037500Y-9925000D02*
X18017500Y-9945000D01*
X18082500Y-9925000D02*
X18102500Y-9945000D01*
X18102500Y-9925000D02*
X18082500Y-9945000D01*
X18147500Y-9925000D02*
X18167500Y-9945000D01*
X18167500Y-9925000D02*
X18147500Y-9945000D01*
X18212500Y-9245000D02*
X18232500Y-9265000D01*
X18232500Y-9245000D02*
X18212500Y-9265000D01*
X18212500Y-9307500D02*
X18232500Y-9327500D01*
X18232500Y-9307500D02*
X18212500Y-9327500D01*
X18277500Y-9925000D02*
X18297500Y-9945000D01*
X18297500Y-9925000D02*
X18277500Y-9945000D01*
X18342500Y-9242500D02*
X18362500Y-9262500D01*
X18362500Y-9242500D02*
X18342500Y-9262500D01*
X18342500Y-9307500D02*
X18362500Y-9327500D01*
X18362500Y-9307500D02*
X18342500Y-9327500D01*
X18342500Y-10032500D02*
X18362500Y-10052500D01*
X18362500Y-10032500D02*
X18342500Y-10052500D01*
X18407500Y-9925000D02*
X18427500Y-9945000D01*
X18427500Y-9925000D02*
X18407500Y-9945000D01*
X18547500Y-9857500D02*
X18567500Y-9877500D01*
X18567500Y-9857500D02*
X18547500Y-9877500D01*
X18547500Y-9930000D02*
X18567500Y-9950000D01*
X18567500Y-9930000D02*
X18547500Y-9950000D01*
X18612500Y-9850000D02*
X18632500Y-9870000D01*
X18632500Y-9850000D02*
X18612500Y-9870000D01*
X18612500Y-9910000D02*
X18632500Y-9930000D01*
X18632500Y-9910000D02*
X18612500Y-9930000D01*
D13*
X15077600Y-9317500D02*
G75*
G03*
X15077600Y-9317500I-15000J0D01*
G01*
X15137550Y-9235796D02*
G75*
G03*
X15137550Y-9235796I-15000J0D01*
G01*
X15370000Y-9463000D02*
G75*
G03*
X15370000Y-9463000I-15000J0D01*
G01*
X15385000Y-9045000D02*
G75*
G03*
X15385000Y-9045000I-15000J0D01*
G01*
X15395000Y-8907177D02*
G75*
G03*
X15395000Y-8907177I-15000J0D01*
G01*
X15405000Y-10045000D02*
G75*
G03*
X15405000Y-10045000I-15000J0D01*
G01*
X15440000Y-10400000D02*
G75*
G03*
X15440000Y-10400000I-15000J0D01*
G01*
X15445000Y-9625000D02*
G75*
G03*
X15445000Y-9625000I-15000J0D01*
G01*
X15455000Y-9540000D02*
G75*
G03*
X15455000Y-9540000I-15000J0D01*
G01*
X15505000Y-10335000D02*
G75*
G03*
X15505000Y-10335000I-15000J0D01*
G01*
X15545000Y-8430000D02*
G75*
G03*
X15545000Y-8430000I-15000J0D01*
G01*
X15615000Y-9205000D02*
G75*
G03*
X15615000Y-9205000I-15000J0D01*
G01*
X15685000Y-10260000D02*
G75*
G03*
X15685000Y-10260000I-15000J0D01*
G01*
X15685000Y-10350000D02*
G75*
G03*
X15685000Y-10350000I-15000J0D01*
G01*
X15685000Y-10440000D02*
G75*
G03*
X15685000Y-10440000I-15000J0D01*
G01*
X15715000Y-9200000D02*
G75*
G03*
X15715000Y-9200000I-15000J0D01*
G01*
X15880000Y-10020000D02*
G75*
G03*
X15880000Y-10020000I-15000J0D01*
G01*
X15889680Y-9939680D02*
G75*
G03*
X15889680Y-9939680I-15000J0D01*
G01*
X15912500Y-11045000D02*
G75*
G03*
X15912500Y-11045000I-15000J0D01*
G01*
X15960000Y-9785000D02*
G75*
G03*
X15960000Y-9785000I-15000J0D01*
G01*
X15970000Y-9480000D02*
G75*
G03*
X15970000Y-9480000I-15000J0D01*
G01*
X15970000Y-9710000D02*
G75*
G03*
X15970000Y-9710000I-15000J0D01*
G01*
X15975000Y-9575000D02*
G75*
G03*
X15975000Y-9575000I-15000J0D01*
G01*
X15984171Y-10091163D02*
G75*
G03*
X15984171Y-10091163I-15000J0D01*
G01*
X15985000Y-11045000D02*
G75*
G03*
X15985000Y-11045000I-15000J0D01*
G01*
X16010000Y-8950000D02*
G75*
G03*
X16010000Y-8950000I-15000J0D01*
G01*
X16045000Y-8595000D02*
G75*
G03*
X16045000Y-8595000I-15000J0D01*
G01*
X16045000Y-9340000D02*
G75*
G03*
X16045000Y-9340000I-15000J0D01*
G01*
X16045000Y-10020000D02*
G75*
G03*
X16045000Y-10020000I-15000J0D01*
G01*
X16065000Y-9495000D02*
G75*
G03*
X16065000Y-9495000I-15000J0D01*
G01*
X16145000Y-10095000D02*
G75*
G03*
X16145000Y-10095000I-15000J0D01*
G01*
X16165000Y-9340000D02*
G75*
G03*
X16165000Y-9340000I-15000J0D01*
G01*
X16245000Y-10090000D02*
G75*
G03*
X16245000Y-10090000I-15000J0D01*
G01*
X16255000Y-10770000D02*
G75*
G03*
X16255000Y-10770000I-15000J0D01*
G01*
X16292500Y-8795000D02*
G75*
G03*
X16292500Y-8795000I-15000J0D01*
G01*
X16295000Y-10020000D02*
G75*
G03*
X16295000Y-10020000I-15000J0D01*
G01*
X16327500Y-8437500D02*
G75*
G03*
X16327500Y-8437500I-15000J0D01*
G01*
X16345000Y-9315000D02*
G75*
G03*
X16345000Y-9315000I-15000J0D01*
G01*
X16350000Y-10090000D02*
G75*
G03*
X16350000Y-10090000I-15000J0D01*
G01*
X16350000Y-10815000D02*
G75*
G03*
X16350000Y-10815000I-15000J0D01*
G01*
X16425000Y-10670000D02*
G75*
G03*
X16425000Y-10670000I-15000J0D01*
G01*
X16425000Y-10755000D02*
G75*
G03*
X16425000Y-10755000I-15000J0D01*
G01*
X16495000Y-9620000D02*
G75*
G03*
X16495000Y-9620000I-15000J0D01*
G01*
X16500000Y-9480000D02*
G75*
G03*
X16500000Y-9480000I-15000J0D01*
G01*
X16527500Y-10900000D02*
G75*
G03*
X16527500Y-10900000I-15000J0D01*
G01*
X16540000Y-9984950D02*
G75*
G03*
X16540000Y-9984950I-15000J0D01*
G01*
X16575000Y-9800000D02*
G75*
G03*
X16575000Y-9800000I-15000J0D01*
G01*
X16595000Y-9675000D02*
G75*
G03*
X16595000Y-9675000I-15000J0D01*
G01*
X16610000Y-10035000D02*
G75*
G03*
X16610000Y-10035000I-15000J0D01*
G01*
X16645000Y-9260000D02*
G75*
G03*
X16645000Y-9260000I-15000J0D01*
G01*
X16665000Y-9450000D02*
G75*
G03*
X16665000Y-9450000I-15000J0D01*
G01*
X16715000Y-10035000D02*
G75*
G03*
X16715000Y-10035000I-15000J0D01*
G01*
X16715000Y-10640000D02*
G75*
G03*
X16715000Y-10640000I-15000J0D01*
G01*
X16716541Y-9237885D02*
G75*
G03*
X16716541Y-9237885I-15000J0D01*
G01*
X16775000Y-10480000D02*
G75*
G03*
X16775000Y-10480000I-15000J0D01*
G01*
X16970000Y-10400000D02*
G75*
G03*
X16970000Y-10400000I-15000J0D01*
G01*
X16985000Y-8520000D02*
G75*
G03*
X16985000Y-8520000I-15000J0D01*
G01*
X16985000Y-8740000D02*
G75*
G03*
X16985000Y-8740000I-15000J0D01*
G01*
X17065000Y-9690000D02*
G75*
G03*
X17065000Y-9690000I-15000J0D01*
G01*
X17097500Y-9257500D02*
G75*
G03*
X17097500Y-9257500I-15000J0D01*
G01*
X17140000Y-9670050D02*
G75*
G03*
X17140000Y-9670050I-15000J0D01*
G01*
X17140000Y-10515000D02*
G75*
G03*
X17140000Y-10515000I-15000J0D01*
G01*
X17230000Y-9870000D02*
G75*
G03*
X17230000Y-9870000I-15000J0D01*
G01*
X17270000Y-10405000D02*
G75*
G03*
X17270000Y-10405000I-15000J0D01*
G01*
X17275000Y-8895000D02*
G75*
G03*
X17275000Y-8895000I-15000J0D01*
G01*
X17280000Y-10065000D02*
G75*
G03*
X17280000Y-10065000I-15000J0D01*
G01*
X17323281Y-9319894D02*
G75*
G03*
X17323281Y-9319894I-15000J0D01*
G01*
X17362500Y-10410000D02*
G75*
G03*
X17362500Y-10410000I-15000J0D01*
G01*
X17372500Y-10737500D02*
G75*
G03*
X17372500Y-10737500I-15000J0D01*
G01*
X17435000Y-9265000D02*
G75*
G03*
X17435000Y-9265000I-15000J0D01*
G01*
X17445000Y-10670000D02*
G75*
G03*
X17445000Y-10670000I-15000J0D01*
G01*
X17465000Y-8795000D02*
G75*
G03*
X17465000Y-8795000I-15000J0D01*
G01*
X17550000Y-8495000D02*
G75*
G03*
X17550000Y-8495000I-15000J0D01*
G01*
X17560000Y-10512500D02*
G75*
G03*
X17560000Y-10512500I-15000J0D01*
G01*
X17680000Y-9310000D02*
G75*
G03*
X17680000Y-9310000I-15000J0D01*
G01*
X17804950Y-10222500D02*
G75*
G03*
X17804950Y-10222500I-15000J0D01*
G01*
X17865000Y-9705000D02*
G75*
G03*
X17865000Y-9705000I-15000J0D01*
G01*
X17875000Y-9450000D02*
G75*
G03*
X17875000Y-9450000I-15000J0D01*
G01*
X17877500Y-9602500D02*
G75*
G03*
X17877500Y-9602500I-15000J0D01*
G01*
X17887500Y-9842500D02*
G75*
G03*
X17887500Y-9842500I-15000J0D01*
G01*
X17905000Y-10120000D02*
G75*
G03*
X17905000Y-10120000I-15000J0D01*
G01*
X18055000Y-10190000D02*
G75*
G03*
X18055000Y-10190000I-15000J0D01*
G01*
X18060000Y-9690000D02*
G75*
G03*
X18060000Y-9690000I-15000J0D01*
G01*
X18212500Y-9590000D02*
G75*
G03*
X18212500Y-9590000I-15000J0D01*
G01*
X18212500Y-9790000D02*
G75*
G03*
X18212500Y-9790000I-15000J0D01*
G01*
X18367500Y-9682500D02*
G75*
G03*
X18367500Y-9682500I-15000J0D01*
G01*
X18370000Y-10727500D02*
G75*
G03*
X18370000Y-10727500I-15000J0D01*
G01*
X18405000Y-11290000D02*
G75*
G03*
X18405000Y-11290000I-15000J0D01*
G01*
X18415000Y-7895000D02*
G75*
G03*
X18415000Y-7895000I-15000J0D01*
G01*
X18430000Y-10277500D02*
G75*
G03*
X18430000Y-10277500I-15000J0D01*
G01*
X18450000Y-10655000D02*
G75*
G03*
X18450000Y-10655000I-15000J0D01*
G01*
X18485000Y-10940000D02*
G75*
G03*
X18485000Y-10940000I-15000J0D01*
G01*
X18560000Y-9465000D02*
G75*
G03*
X18560000Y-9465000I-15000J0D01*
G01*
X18610000Y-9215000D02*
G75*
G03*
X18610000Y-9215000I-15000J0D01*
G01*
X18650000Y-9460000D02*
G75*
G03*
X18650000Y-9460000I-15000J0D01*
G01*
X18680000Y-9632500D02*
G75*
G03*
X18680000Y-9632500I-15000J0D01*
G01*
X18710000Y-8880000D02*
G75*
G03*
X18710000Y-8880000I-15000J0D01*
G01*
X18805000Y-10080000D02*
G75*
G03*
X18805000Y-10080000I-15000J0D01*
G01*
X18805000Y-10290000D02*
G75*
G03*
X18805000Y-10290000I-15000J0D01*
G01*
X18805000Y-10500000D02*
G75*
G03*
X18805000Y-10500000I-15000J0D01*
G01*
X18915000Y-8220000D02*
G75*
G03*
X18915000Y-8220000I-15000J0D01*
G01*
X18995000Y-10080000D02*
G75*
G03*
X18995000Y-10080000I-15000J0D01*
G01*
X18995000Y-10290000D02*
G75*
G03*
X18995000Y-10290000I-15000J0D01*
G01*
X18995000Y-10500000D02*
G75*
G03*
X18995000Y-10500000I-15000J0D01*
G01*
X19055000Y-9830000D02*
G75*
G03*
X19055000Y-9830000I-15000J0D01*
G01*
X19185000Y-10080000D02*
G75*
G03*
X19185000Y-10080000I-15000J0D01*
G01*
X19185000Y-10290000D02*
G75*
G03*
X19185000Y-10290000I-15000J0D01*
G01*
X19185000Y-10500000D02*
G75*
G03*
X19185000Y-10500000I-15000J0D01*
G01*
X19695000Y-10478000D02*
G75*
G03*
X19695000Y-10478000I-15000J0D01*
G01*
X19708000Y-9881000D02*
G75*
G03*
X19708000Y-9881000I-15000J0D01*
G01*
X19711000Y-9319000D02*
G75*
G03*
X19711000Y-9319000I-15000J0D01*
G01*
X19850000Y-11077181D02*
G75*
G03*
X19850000Y-11077181I-15000J0D01*
G01*
X19877500Y-8630000D02*
G75*
G03*
X19877500Y-8630000I-15000J0D01*
G01*
X19877500Y-8760000D02*
G75*
G03*
X19877500Y-8760000I-15000J0D01*
G01*
X19882500Y-8132500D02*
G75*
G03*
X19882500Y-8132500I-15000J0D01*
G01*
X19887500Y-8205000D02*
G75*
G03*
X19887500Y-8205000I-15000J0D01*
G01*
X19892500Y-11445000D02*
G75*
G03*
X19892500Y-11445000I-15000J0D01*
G01*
X19957500Y-10175000D02*
G75*
G03*
X19957500Y-10175000I-15000J0D01*
G01*
X19962500Y-9595000D02*
G75*
G03*
X19962500Y-9595000I-15000J0D01*
G01*
X19967500Y-9052500D02*
G75*
G03*
X19967500Y-9052500I-15000J0D01*
G01*
X19967500Y-10742181D02*
G75*
G03*
X19967500Y-10742181I-15000J0D01*
G01*
X20058000Y-10529950D02*
G75*
G03*
X20058000Y-10529950I-15000J0D01*
G01*
X20058344Y-11413834D02*
G75*
G03*
X20058344Y-11413834I-15000J0D01*
G01*
X20069950Y-9788000D02*
G75*
G03*
X20069950Y-9788000I-15000J0D01*
G01*
X20082500Y-10380050D02*
G75*
G03*
X20082500Y-10380050I-15000J0D01*
G01*
X20083865Y-9233050D02*
G75*
G03*
X20083865Y-9233050I-15000J0D01*
G01*
X20085000Y-9945000D02*
G75*
G03*
X20085000Y-9945000I-15000J0D01*
G01*
X20095000Y-9385000D02*
G75*
G03*
X20095000Y-9385000I-15000J0D01*
G01*
X20100000Y-10934731D02*
G75*
G03*
X20100000Y-10934731I-15000J0D01*
G01*
X20100000Y-11087181D02*
G75*
G03*
X20100000Y-11087181I-15000J0D01*
G01*
X20123716Y-11459862D02*
G75*
G03*
X20123716Y-11459862I-15000J0D01*
G01*
X20177500Y-8670000D02*
G75*
G03*
X20177500Y-8670000I-15000J0D01*
G01*
X20200050Y-8147500D02*
G75*
G03*
X20200050Y-8147500I-15000J0D01*
G01*
X20207500Y-8070000D02*
G75*
G03*
X20207500Y-8070000I-15000J0D01*
G01*
X20215000Y-9275000D02*
G75*
G03*
X20215000Y-9275000I-15000J0D01*
G01*
X20215000Y-9815000D02*
G75*
G03*
X20215000Y-9815000I-15000J0D01*
G01*
X20215000Y-10385000D02*
G75*
G03*
X20215000Y-10385000I-15000J0D01*
G01*
X20222500Y-8730000D02*
G75*
G03*
X20222500Y-8730000I-15000J0D01*
G01*
X20225000Y-10957181D02*
G75*
G03*
X20225000Y-10957181I-15000J0D01*
G01*
X20285000Y-9790000D02*
G75*
G03*
X20285000Y-9790000I-15000J0D01*
G01*
X20285000Y-10280000D02*
G75*
G03*
X20285000Y-10280000I-15000J0D01*
G01*
X20287500Y-10360000D02*
G75*
G03*
X20287500Y-10360000I-15000J0D01*
G01*
X20291057Y-9675989D02*
G75*
G03*
X20291057Y-9675989I-15000J0D01*
G01*
X20292500Y-10912181D02*
G75*
G03*
X20292500Y-10912181I-15000J0D01*
G01*
X20293125Y-9122941D02*
G75*
G03*
X20293125Y-9122941I-15000J0D01*
G01*
X20297500Y-9207500D02*
G75*
G03*
X20297500Y-9207500I-15000J0D01*
G01*
X20300000Y-10822181D02*
G75*
G03*
X20300000Y-10822181I-15000J0D01*
G01*
X20487950Y-8515000D02*
G75*
G03*
X20487950Y-8515000I-15000J0D01*
G01*
X20492450Y-7957500D02*
G75*
G03*
X20492450Y-7957500I-15000J0D01*
G01*
X20500000Y-8415000D02*
X20500000Y-8445000D01*
X20485000Y-8430000D02*
X20515000Y-8430000D01*
X20500000Y-8815000D02*
X20500000Y-8845000D01*
X20485000Y-8830000D02*
X20515000Y-8830000D01*
X20505000Y-9060000D02*
X20505000Y-9090000D01*
X20490000Y-9075000D02*
X20520000Y-9075000D01*
X20505000Y-9360000D02*
X20505000Y-9390000D01*
X20490000Y-9375000D02*
X20520000Y-9375000D01*
X20505000Y-10205000D02*
X20505000Y-10235000D01*
X20490000Y-10220000D02*
X20520000Y-10220000D01*
X20505000Y-10505000D02*
X20505000Y-10535000D01*
X20490000Y-10520000D02*
X20520000Y-10520000D01*
X20505000Y-10762181D02*
X20505000Y-10792181D01*
X20490000Y-10777181D02*
X20520000Y-10777181D01*
X20505000Y-11062181D02*
X20505000Y-11092181D01*
X20490000Y-11077181D02*
X20520000Y-11077181D01*
X20507000Y-7855000D02*
X20507000Y-7885000D01*
X20492000Y-7870000D02*
X20522000Y-7870000D01*
X20507000Y-8255000D02*
X20507000Y-8285000D01*
X20492000Y-8270000D02*
X20522000Y-8270000D01*
X20510000Y-9620000D02*
X20510000Y-9650000D01*
X20495000Y-9635000D02*
X20525000Y-9635000D01*
X20510000Y-9920000D02*
X20510000Y-9950000D01*
X20495000Y-9935000D02*
X20525000Y-9935000D01*
X20510000Y-11230000D02*
X20510000Y-11260000D01*
X20495000Y-11245000D02*
X20525000Y-11245000D01*
X20510000Y-11630000D02*
X20510000Y-11660000D01*
X20495000Y-11645000D02*
X20525000Y-11645000D01*
D14*
X18510178Y-10375178D02*
X18510178Y-10339822D01*
X18474822Y-10339822D01*
X18474822Y-10375178D01*
X18510178Y-10375178D01*
X18515178Y-9065178D02*
X18515178Y-9029822D01*
X18479822Y-9029822D01*
X18479822Y-9065178D01*
X18515178Y-9065178D01*
X18515178Y-10530178D02*
X18515178Y-10494822D01*
X18479822Y-10494822D01*
X18479822Y-10530178D01*
X18515178Y-10530178D01*
X18520178Y-8910178D02*
X18520178Y-8874822D01*
X18484822Y-8874822D01*
X18484822Y-8910178D01*
X18520178Y-8910178D01*
D10*
X15075000Y-9550000D02*
X15125000Y-9500000D01*
X15075000Y-9450000D01*
X15025000Y-9500000D01*
X15075000Y-9550000D01*
D11*
X15025000Y-9485000D02*
X15025000Y-9515000D01*
X15125000Y-9485000D02*
X15125000Y-9515000D01*
X15025000Y-9515000D02*
G75*
G03*
X15125000Y-9515000I50000J0D01*
G01*
X15125000Y-9485000D02*
G75*
G03*
X15025000Y-9485000I-50000J0D01*
G01*
D10*
X15075000Y-9950000D02*
X15125000Y-9900000D01*
X15075000Y-9850000D01*
X15025000Y-9900000D01*
X15075000Y-9950000D01*
D11*
X15025000Y-9885000D02*
X15025000Y-9915000D01*
X15125000Y-9885000D02*
X15125000Y-9915000D01*
X15025000Y-9915000D02*
G75*
G03*
X15125000Y-9915000I50000J0D01*
G01*
X15125000Y-9885000D02*
G75*
G03*
X15025000Y-9885000I-50000J0D01*
G01*
D10*
X15170025Y-9010437D02*
X15220025Y-8960437D01*
X15170025Y-8910437D01*
X15120025Y-8960437D01*
X15170025Y-9010437D01*
D11*
X15222043Y-8956069D02*
X15211048Y-8928156D01*
X15129001Y-8992719D02*
X15118006Y-8964806D01*
X15211048Y-8928156D02*
G75*
G03*
X15118006Y-8964806I-46521J-18325D01*
G01*
X15129001Y-8992719D02*
G75*
G03*
X15222043Y-8956069I46521J18325D01*
G01*
D10*
X15170025Y-10489563D02*
X15220025Y-10439563D01*
X15170025Y-10389563D01*
X15120025Y-10439563D01*
X15170025Y-10489563D01*
D11*
X15129001Y-10407281D02*
X15118006Y-10435194D01*
X15222043Y-10443931D02*
X15211048Y-10471844D01*
X15118006Y-10435194D02*
G75*
G03*
X15211048Y-10471844I46521J-18325D01*
G01*
X15222043Y-10443931D02*
G75*
G03*
X15129001Y-10407281I-46521J18325D01*
G01*
D10*
X15279975Y-9289563D02*
X15329975Y-9239563D01*
X15279975Y-9189563D01*
X15229975Y-9239563D01*
X15279975Y-9289563D01*
D11*
X15331994Y-9235194D02*
X15320999Y-9207281D01*
X15238952Y-9271844D02*
X15227957Y-9243931D01*
X15320999Y-9207281D02*
G75*
G03*
X15227957Y-9243931I-46521J-18325D01*
G01*
X15238952Y-9271844D02*
G75*
G03*
X15331994Y-9235194I46521J18325D01*
G01*
D10*
X15279975Y-10210437D02*
X15329975Y-10160437D01*
X15279975Y-10110437D01*
X15229975Y-10160437D01*
X15279975Y-10210437D01*
D11*
X15238952Y-10128156D02*
X15227957Y-10156069D01*
X15331994Y-10164806D02*
X15320999Y-10192719D01*
X15227957Y-10156069D02*
G75*
G03*
X15320999Y-10192719I46521J-18325D01*
G01*
X15331994Y-10164806D02*
G75*
G03*
X15238952Y-10128156I-46521J18325D01*
G01*
D10*
X15377279Y-8623953D02*
X15427279Y-8573953D01*
X15377279Y-8523953D01*
X15327279Y-8573953D01*
X15377279Y-8623953D01*
D11*
X15400733Y-8527317D02*
X15371189Y-8522108D01*
X15383368Y-8625798D02*
X15353824Y-8620589D01*
X15371189Y-8522108D02*
G75*
G03*
X15353824Y-8620589I-8682J-49240D01*
G01*
X15383368Y-8625798D02*
G75*
G03*
X15400733Y-8527317I8682J49240D01*
G01*
D10*
X15382279Y-10876047D02*
X15432279Y-10826047D01*
X15382279Y-10776047D01*
X15332279Y-10826047D01*
X15382279Y-10876047D01*
D11*
X15388368Y-10774202D02*
X15358824Y-10779412D01*
X15405733Y-10872683D02*
X15376189Y-10877892D01*
X15358824Y-10779412D02*
G75*
G03*
X15376189Y-10877892I8682J-49240D01*
G01*
X15405733Y-10872683D02*
G75*
G03*
X15388368Y-10774202I-8682J49240D01*
G01*
D10*
X15672721Y-8676047D02*
X15722721Y-8626047D01*
X15672721Y-8576047D01*
X15622721Y-8626047D01*
X15672721Y-8676047D01*
D11*
X15696176Y-8579412D02*
X15666631Y-8574202D01*
X15678811Y-8677892D02*
X15649267Y-8672683D01*
X15666631Y-8574202D02*
G75*
G03*
X15649267Y-8672683I-8682J-49240D01*
G01*
X15678811Y-8677892D02*
G75*
G03*
X15696176Y-8579412I8682J49240D01*
G01*
D10*
X15677721Y-10823953D02*
X15727721Y-10773953D01*
X15677721Y-10723953D01*
X15627721Y-10773953D01*
X15677721Y-10823953D01*
D11*
X15683811Y-10722108D02*
X15654267Y-10727317D01*
X15701176Y-10820589D02*
X15671631Y-10825798D01*
X15654267Y-10727317D02*
G75*
G03*
X15671631Y-10825798I8682J-49240D01*
G01*
X15701176Y-10820589D02*
G75*
G03*
X15683811Y-10722108I-8682J49240D01*
G01*
D10*
X17200000Y-9250000D02*
X17250000Y-9200000D01*
X17200000Y-9150000D01*
X17150000Y-9200000D01*
X17200000Y-9250000D01*
D11*
X17215000Y-9150000D02*
X17185000Y-9150000D01*
X17215000Y-9250000D02*
X17185000Y-9250000D01*
X17185000Y-9150000D02*
G75*
G03*
X17185000Y-9250000I0J-50000D01*
G01*
X17215000Y-9250000D02*
G75*
G03*
X17215000Y-9150000I0J50000D01*
G01*
D10*
X17200000Y-10250000D02*
X17250000Y-10200000D01*
X17200000Y-10150000D01*
X17150000Y-10200000D01*
X17200000Y-10250000D01*
D11*
X17185000Y-10250000D02*
X17215000Y-10250000D01*
X17185000Y-10150000D02*
X17215000Y-10150000D01*
X17215000Y-10250000D02*
G75*
G03*
X17215000Y-10150000I0J50000D01*
G01*
X17185000Y-10150000D02*
G75*
G03*
X17185000Y-10250000I0J-50000D01*
G01*
D10*
X17600000Y-9250000D02*
X17650000Y-9200000D01*
X17600000Y-9150000D01*
X17550000Y-9200000D01*
X17600000Y-9250000D01*
D11*
X17615000Y-9150000D02*
X17585000Y-9150000D01*
X17615000Y-9250000D02*
X17585000Y-9250000D01*
X17585000Y-9150000D02*
G75*
G03*
X17585000Y-9250000I0J-50000D01*
G01*
X17615000Y-9250000D02*
G75*
G03*
X17615000Y-9150000I0J50000D01*
G01*
D10*
X17600000Y-10250000D02*
X17650000Y-10200000D01*
X17600000Y-10150000D01*
X17550000Y-10200000D01*
X17600000Y-10250000D01*
D11*
X17585000Y-10250000D02*
X17615000Y-10250000D01*
X17585000Y-10150000D02*
X17615000Y-10150000D01*
X17615000Y-10250000D02*
G75*
G03*
X17615000Y-10150000I0J50000D01*
G01*
X17585000Y-10150000D02*
G75*
G03*
X17585000Y-10250000I0J-50000D01*
G01*
D10*
X18825000Y-8590000D02*
X18875000Y-8540000D01*
X18825000Y-8490000D01*
X18775000Y-8540000D01*
X18825000Y-8590000D01*
X19075000Y-8590000D02*
X19125000Y-8540000D01*
X19075000Y-8490000D01*
X19025000Y-8540000D01*
X19075000Y-8590000D01*
D11*
X15075938Y-12015476D02*
X15075938Y-11815476D01*
X15123557Y-11815476D01*
X15152129Y-11825000D01*
X15171176Y-11844048D01*
X15180700Y-11863095D01*
X15190224Y-11901190D01*
X15190224Y-11929762D01*
X15180700Y-11967857D01*
X15171176Y-11986905D01*
X15152129Y-12005952D01*
X15123557Y-12015476D01*
X15075938Y-12015476D01*
X15275938Y-12015476D02*
X15275938Y-11882143D01*
X15275938Y-11920238D02*
X15285462Y-11901190D01*
X15294986Y-11891667D01*
X15314033Y-11882143D01*
X15333081Y-11882143D01*
X15399748Y-12015476D02*
X15399748Y-11882143D01*
X15399748Y-11815476D02*
X15390224Y-11825000D01*
X15399748Y-11834524D01*
X15409271Y-11825000D01*
X15399748Y-11815476D01*
X15399748Y-11834524D01*
X15523557Y-12015476D02*
X15504510Y-12005952D01*
X15494986Y-11986905D01*
X15494986Y-11815476D01*
X15628319Y-12015476D02*
X15609271Y-12005952D01*
X15599748Y-11986905D01*
X15599748Y-11815476D01*
X15856891Y-12015476D02*
X15856891Y-11815476D01*
X15923557Y-11958333D01*
X15990224Y-11815476D01*
X15990224Y-12015476D01*
X16171176Y-12015476D02*
X16171176Y-11910714D01*
X16161652Y-11891667D01*
X16142605Y-11882143D01*
X16104510Y-11882143D01*
X16085462Y-11891667D01*
X16171176Y-12005952D02*
X16152129Y-12015476D01*
X16104510Y-12015476D01*
X16085462Y-12005952D01*
X16075938Y-11986905D01*
X16075938Y-11967857D01*
X16085462Y-11948809D01*
X16104510Y-11939286D01*
X16152129Y-11939286D01*
X16171176Y-11929762D01*
X16266414Y-11882143D02*
X16266414Y-12082143D01*
X16266414Y-11891667D02*
X16285462Y-11882143D01*
X16323557Y-11882143D01*
X16342605Y-11891667D01*
X16352129Y-11901190D01*
X16361652Y-11920238D01*
X16361652Y-11977381D01*
X16352129Y-11996428D01*
X16342605Y-12005952D01*
X16323557Y-12015476D01*
X16285462Y-12015476D01*
X16266414Y-12005952D01*
X16447367Y-11996428D02*
X16456891Y-12005952D01*
X16447367Y-12015476D01*
X16437843Y-12005952D01*
X16447367Y-11996428D01*
X16447367Y-12015476D01*
X16447367Y-11891667D02*
X16456891Y-11901190D01*
X16447367Y-11910714D01*
X16437843Y-11901190D01*
X16447367Y-11891667D01*
X16447367Y-11910714D01*
D12*
X14798319Y-12335000D02*
X14818319Y-12355000D01*
X14818319Y-12335000D02*
X14798319Y-12355000D01*
D11*
X15114033Y-12235476D02*
X15133081Y-12235476D01*
X15152129Y-12245000D01*
X15161652Y-12254524D01*
X15171176Y-12273571D01*
X15180700Y-12311667D01*
X15180700Y-12359286D01*
X15171176Y-12397381D01*
X15161652Y-12416428D01*
X15152129Y-12425952D01*
X15133081Y-12435476D01*
X15114033Y-12435476D01*
X15094986Y-12425952D01*
X15085462Y-12416428D01*
X15075938Y-12397381D01*
X15066414Y-12359286D01*
X15066414Y-12311667D01*
X15075938Y-12273571D01*
X15085462Y-12254524D01*
X15094986Y-12245000D01*
X15114033Y-12235476D01*
X15266414Y-12416428D02*
X15275938Y-12425952D01*
X15266414Y-12435476D01*
X15256891Y-12425952D01*
X15266414Y-12416428D01*
X15266414Y-12435476D01*
X15352129Y-12254524D02*
X15361652Y-12245000D01*
X15380700Y-12235476D01*
X15428319Y-12235476D01*
X15447367Y-12245000D01*
X15456891Y-12254524D01*
X15466414Y-12273571D01*
X15466414Y-12292619D01*
X15456891Y-12321190D01*
X15342605Y-12435476D01*
X15466414Y-12435476D01*
X15590224Y-12235476D02*
X15609271Y-12235476D01*
X15628319Y-12245000D01*
X15637843Y-12254524D01*
X15647367Y-12273571D01*
X15656891Y-12311667D01*
X15656891Y-12359286D01*
X15647367Y-12397381D01*
X15637843Y-12416428D01*
X15628319Y-12425952D01*
X15609271Y-12435476D01*
X15590224Y-12435476D01*
X15571176Y-12425952D01*
X15561652Y-12416428D01*
X15552129Y-12397381D01*
X15542605Y-12359286D01*
X15542605Y-12311667D01*
X15552129Y-12273571D01*
X15561652Y-12254524D01*
X15571176Y-12245000D01*
X15590224Y-12235476D01*
X15780700Y-12235476D02*
X15799748Y-12235476D01*
X15818795Y-12245000D01*
X15828319Y-12254524D01*
X15837843Y-12273571D01*
X15847367Y-12311667D01*
X15847367Y-12359286D01*
X15837843Y-12397381D01*
X15828319Y-12416428D01*
X15818795Y-12425952D01*
X15799748Y-12435476D01*
X15780700Y-12435476D01*
X15761652Y-12425952D01*
X15752129Y-12416428D01*
X15742605Y-12397381D01*
X15733081Y-12359286D01*
X15733081Y-12311667D01*
X15742605Y-12273571D01*
X15752129Y-12254524D01*
X15761652Y-12245000D01*
X15780700Y-12235476D01*
X15933081Y-12435476D02*
X15933081Y-12302143D01*
X15933081Y-12321190D02*
X15942605Y-12311667D01*
X15961652Y-12302143D01*
X15990224Y-12302143D01*
X16009271Y-12311667D01*
X16018795Y-12330714D01*
X16018795Y-12435476D01*
X16018795Y-12330714D02*
X16028319Y-12311667D01*
X16047367Y-12302143D01*
X16075938Y-12302143D01*
X16094986Y-12311667D01*
X16104510Y-12330714D01*
X16104510Y-12435476D01*
X16199748Y-12435476D02*
X16199748Y-12302143D01*
X16199748Y-12321190D02*
X16209271Y-12311667D01*
X16228319Y-12302143D01*
X16256891Y-12302143D01*
X16275938Y-12311667D01*
X16285462Y-12330714D01*
X16285462Y-12435476D01*
X16285462Y-12330714D02*
X16294986Y-12311667D01*
X16314033Y-12302143D01*
X16342605Y-12302143D01*
X16361652Y-12311667D01*
X16371176Y-12330714D01*
X16371176Y-12435476D01*
X16761652Y-12225952D02*
X16590224Y-12483095D01*
X17018795Y-12235476D02*
X17037843Y-12235476D01*
X17056891Y-12245000D01*
X17066414Y-12254524D01*
X17075938Y-12273571D01*
X17085462Y-12311667D01*
X17085462Y-12359286D01*
X17075938Y-12397381D01*
X17066414Y-12416428D01*
X17056891Y-12425952D01*
X17037843Y-12435476D01*
X17018795Y-12435476D01*
X16999748Y-12425952D01*
X16990224Y-12416428D01*
X16980700Y-12397381D01*
X16971176Y-12359286D01*
X16971176Y-12311667D01*
X16980700Y-12273571D01*
X16990224Y-12254524D01*
X16999748Y-12245000D01*
X17018795Y-12235476D01*
X17171176Y-12416428D02*
X17180700Y-12425952D01*
X17171176Y-12435476D01*
X17161653Y-12425952D01*
X17171176Y-12416428D01*
X17171176Y-12435476D01*
X17304510Y-12235476D02*
X17323557Y-12235476D01*
X17342605Y-12245000D01*
X17352129Y-12254524D01*
X17361653Y-12273571D01*
X17371176Y-12311667D01*
X17371176Y-12359286D01*
X17361653Y-12397381D01*
X17352129Y-12416428D01*
X17342605Y-12425952D01*
X17323557Y-12435476D01*
X17304510Y-12435476D01*
X17285462Y-12425952D01*
X17275938Y-12416428D01*
X17266414Y-12397381D01*
X17256891Y-12359286D01*
X17256891Y-12311667D01*
X17266414Y-12273571D01*
X17275938Y-12254524D01*
X17285462Y-12245000D01*
X17304510Y-12235476D01*
X17494986Y-12235476D02*
X17514033Y-12235476D01*
X17533081Y-12245000D01*
X17542605Y-12254524D01*
X17552129Y-12273571D01*
X17561653Y-12311667D01*
X17561653Y-12359286D01*
X17552129Y-12397381D01*
X17542605Y-12416428D01*
X17533081Y-12425952D01*
X17514033Y-12435476D01*
X17494986Y-12435476D01*
X17475938Y-12425952D01*
X17466414Y-12416428D01*
X17456891Y-12397381D01*
X17447367Y-12359286D01*
X17447367Y-12311667D01*
X17456891Y-12273571D01*
X17466414Y-12254524D01*
X17475938Y-12245000D01*
X17494986Y-12235476D01*
X17628319Y-12235476D02*
X17761653Y-12235476D01*
X17675938Y-12435476D01*
X17847367Y-12435476D02*
X17885462Y-12435476D01*
X17904510Y-12425952D01*
X17914033Y-12416428D01*
X17933081Y-12387857D01*
X17942605Y-12349762D01*
X17942605Y-12273571D01*
X17933081Y-12254524D01*
X17923557Y-12245000D01*
X17904510Y-12235476D01*
X17866414Y-12235476D01*
X17847367Y-12245000D01*
X17837843Y-12254524D01*
X17828319Y-12273571D01*
X17828319Y-12321190D01*
X17837843Y-12340238D01*
X17847367Y-12349762D01*
X17866414Y-12359286D01*
X17904510Y-12359286D01*
X17923557Y-12349762D01*
X17933081Y-12340238D01*
X17942605Y-12321190D01*
X18018795Y-12235476D02*
X18018795Y-12273571D01*
X18094986Y-12235476D02*
X18094986Y-12273571D01*
X18390224Y-12511667D02*
X18380700Y-12502143D01*
X18361653Y-12473571D01*
X18352129Y-12454524D01*
X18342605Y-12425952D01*
X18333081Y-12378333D01*
X18333081Y-12340238D01*
X18342605Y-12292619D01*
X18352129Y-12264048D01*
X18361653Y-12245000D01*
X18380700Y-12216428D01*
X18390224Y-12206905D01*
X18571176Y-12435476D02*
X18456891Y-12435476D01*
X18514033Y-12435476D02*
X18514033Y-12235476D01*
X18494986Y-12264048D01*
X18475938Y-12283095D01*
X18456891Y-12292619D01*
X18752129Y-12235476D02*
X18656891Y-12235476D01*
X18647367Y-12330714D01*
X18656891Y-12321190D01*
X18675938Y-12311667D01*
X18723557Y-12311667D01*
X18742605Y-12321190D01*
X18752129Y-12330714D01*
X18761653Y-12349762D01*
X18761653Y-12397381D01*
X18752129Y-12416428D01*
X18742605Y-12425952D01*
X18723557Y-12435476D01*
X18675938Y-12435476D01*
X18656891Y-12425952D01*
X18647367Y-12416428D01*
X18999748Y-12435476D02*
X18999748Y-12235476D01*
X19085462Y-12435476D02*
X19085462Y-12330714D01*
X19075938Y-12311667D01*
X19056891Y-12302143D01*
X19028319Y-12302143D01*
X19009272Y-12311667D01*
X18999748Y-12321190D01*
X19209272Y-12435476D02*
X19190224Y-12425952D01*
X19180700Y-12416428D01*
X19171176Y-12397381D01*
X19171176Y-12340238D01*
X19180700Y-12321190D01*
X19190224Y-12311667D01*
X19209272Y-12302143D01*
X19237843Y-12302143D01*
X19256891Y-12311667D01*
X19266414Y-12321190D01*
X19275938Y-12340238D01*
X19275938Y-12397381D01*
X19266414Y-12416428D01*
X19256891Y-12425952D01*
X19237843Y-12435476D01*
X19209272Y-12435476D01*
X19390224Y-12435476D02*
X19371176Y-12425952D01*
X19361653Y-12406905D01*
X19361653Y-12235476D01*
X19542605Y-12425952D02*
X19523557Y-12435476D01*
X19485462Y-12435476D01*
X19466414Y-12425952D01*
X19456891Y-12406905D01*
X19456891Y-12330714D01*
X19466414Y-12311667D01*
X19485462Y-12302143D01*
X19523557Y-12302143D01*
X19542605Y-12311667D01*
X19552129Y-12330714D01*
X19552129Y-12349762D01*
X19456891Y-12368809D01*
X19628319Y-12425952D02*
X19647367Y-12435476D01*
X19685462Y-12435476D01*
X19704510Y-12425952D01*
X19714033Y-12406905D01*
X19714033Y-12397381D01*
X19704510Y-12378333D01*
X19685462Y-12368809D01*
X19656891Y-12368809D01*
X19637843Y-12359286D01*
X19628319Y-12340238D01*
X19628319Y-12330714D01*
X19637843Y-12311667D01*
X19656891Y-12302143D01*
X19685462Y-12302143D01*
X19704510Y-12311667D01*
X19780700Y-12511667D02*
X19790224Y-12502143D01*
X19809272Y-12473571D01*
X19818795Y-12454524D01*
X19828319Y-12425952D01*
X19837843Y-12378333D01*
X19837843Y-12340238D01*
X19828319Y-12292619D01*
X19818795Y-12264048D01*
X19809272Y-12245000D01*
X19790224Y-12216428D01*
X19780700Y-12206905D01*
D13*
X14818319Y-12609000D02*
G75*
G03*
X14818319Y-12609000I-15000J0D01*
G01*
D11*
X15114033Y-12499476D02*
X15133081Y-12499476D01*
X15152129Y-12509000D01*
X15161652Y-12518524D01*
X15171176Y-12537571D01*
X15180700Y-12575667D01*
X15180700Y-12623286D01*
X15171176Y-12661381D01*
X15161652Y-12680428D01*
X15152129Y-12689952D01*
X15133081Y-12699476D01*
X15114033Y-12699476D01*
X15094986Y-12689952D01*
X15085462Y-12680428D01*
X15075938Y-12661381D01*
X15066414Y-12623286D01*
X15066414Y-12575667D01*
X15075938Y-12537571D01*
X15085462Y-12518524D01*
X15094986Y-12509000D01*
X15114033Y-12499476D01*
X15266414Y-12680428D02*
X15275938Y-12689952D01*
X15266414Y-12699476D01*
X15256891Y-12689952D01*
X15266414Y-12680428D01*
X15266414Y-12699476D01*
X15342605Y-12499476D02*
X15466414Y-12499476D01*
X15399748Y-12575667D01*
X15428319Y-12575667D01*
X15447367Y-12585190D01*
X15456891Y-12594714D01*
X15466414Y-12613762D01*
X15466414Y-12661381D01*
X15456891Y-12680428D01*
X15447367Y-12689952D01*
X15428319Y-12699476D01*
X15371176Y-12699476D01*
X15352129Y-12689952D01*
X15342605Y-12680428D01*
X15590224Y-12499476D02*
X15609271Y-12499476D01*
X15628319Y-12509000D01*
X15637843Y-12518524D01*
X15647367Y-12537571D01*
X15656891Y-12575667D01*
X15656891Y-12623286D01*
X15647367Y-12661381D01*
X15637843Y-12680428D01*
X15628319Y-12689952D01*
X15609271Y-12699476D01*
X15590224Y-12699476D01*
X15571176Y-12689952D01*
X15561652Y-12680428D01*
X15552129Y-12661381D01*
X15542605Y-12623286D01*
X15542605Y-12575667D01*
X15552129Y-12537571D01*
X15561652Y-12518524D01*
X15571176Y-12509000D01*
X15590224Y-12499476D01*
X15780700Y-12499476D02*
X15799748Y-12499476D01*
X15818795Y-12509000D01*
X15828319Y-12518524D01*
X15837843Y-12537571D01*
X15847367Y-12575667D01*
X15847367Y-12623286D01*
X15837843Y-12661381D01*
X15828319Y-12680428D01*
X15818795Y-12689952D01*
X15799748Y-12699476D01*
X15780700Y-12699476D01*
X15761652Y-12689952D01*
X15752129Y-12680428D01*
X15742605Y-12661381D01*
X15733081Y-12623286D01*
X15733081Y-12575667D01*
X15742605Y-12537571D01*
X15752129Y-12518524D01*
X15761652Y-12509000D01*
X15780700Y-12499476D01*
X15933081Y-12699476D02*
X15933081Y-12566143D01*
X15933081Y-12585190D02*
X15942605Y-12575667D01*
X15961652Y-12566143D01*
X15990224Y-12566143D01*
X16009271Y-12575667D01*
X16018795Y-12594714D01*
X16018795Y-12699476D01*
X16018795Y-12594714D02*
X16028319Y-12575667D01*
X16047367Y-12566143D01*
X16075938Y-12566143D01*
X16094986Y-12575667D01*
X16104510Y-12594714D01*
X16104510Y-12699476D01*
X16199748Y-12699476D02*
X16199748Y-12566143D01*
X16199748Y-12585190D02*
X16209271Y-12575667D01*
X16228319Y-12566143D01*
X16256891Y-12566143D01*
X16275938Y-12575667D01*
X16285462Y-12594714D01*
X16285462Y-12699476D01*
X16285462Y-12594714D02*
X16294986Y-12575667D01*
X16314033Y-12566143D01*
X16342605Y-12566143D01*
X16361652Y-12575667D01*
X16371176Y-12594714D01*
X16371176Y-12699476D01*
X16761652Y-12489952D02*
X16590224Y-12747095D01*
X17018795Y-12499476D02*
X17037843Y-12499476D01*
X17056891Y-12509000D01*
X17066414Y-12518524D01*
X17075938Y-12537571D01*
X17085462Y-12575667D01*
X17085462Y-12623286D01*
X17075938Y-12661381D01*
X17066414Y-12680428D01*
X17056891Y-12689952D01*
X17037843Y-12699476D01*
X17018795Y-12699476D01*
X16999748Y-12689952D01*
X16990224Y-12680428D01*
X16980700Y-12661381D01*
X16971176Y-12623286D01*
X16971176Y-12575667D01*
X16980700Y-12537571D01*
X16990224Y-12518524D01*
X16999748Y-12509000D01*
X17018795Y-12499476D01*
X17171176Y-12680428D02*
X17180700Y-12689952D01*
X17171176Y-12699476D01*
X17161653Y-12689952D01*
X17171176Y-12680428D01*
X17171176Y-12699476D01*
X17304510Y-12499476D02*
X17323557Y-12499476D01*
X17342605Y-12509000D01*
X17352129Y-12518524D01*
X17361653Y-12537571D01*
X17371176Y-12575667D01*
X17371176Y-12623286D01*
X17361653Y-12661381D01*
X17352129Y-12680428D01*
X17342605Y-12689952D01*
X17323557Y-12699476D01*
X17304510Y-12699476D01*
X17285462Y-12689952D01*
X17275938Y-12680428D01*
X17266414Y-12661381D01*
X17256891Y-12623286D01*
X17256891Y-12575667D01*
X17266414Y-12537571D01*
X17275938Y-12518524D01*
X17285462Y-12509000D01*
X17304510Y-12499476D01*
X17561653Y-12699476D02*
X17447367Y-12699476D01*
X17504510Y-12699476D02*
X17504510Y-12499476D01*
X17485462Y-12528048D01*
X17466414Y-12547095D01*
X17447367Y-12556619D01*
X17752129Y-12699476D02*
X17637843Y-12699476D01*
X17694986Y-12699476D02*
X17694986Y-12499476D01*
X17675938Y-12528048D01*
X17656891Y-12547095D01*
X17637843Y-12556619D01*
X17866414Y-12585190D02*
X17847367Y-12575667D01*
X17837843Y-12566143D01*
X17828319Y-12547095D01*
X17828319Y-12537571D01*
X17837843Y-12518524D01*
X17847367Y-12509000D01*
X17866414Y-12499476D01*
X17904510Y-12499476D01*
X17923557Y-12509000D01*
X17933081Y-12518524D01*
X17942605Y-12537571D01*
X17942605Y-12547095D01*
X17933081Y-12566143D01*
X17923557Y-12575667D01*
X17904510Y-12585190D01*
X17866414Y-12585190D01*
X17847367Y-12594714D01*
X17837843Y-12604238D01*
X17828319Y-12623286D01*
X17828319Y-12661381D01*
X17837843Y-12680428D01*
X17847367Y-12689952D01*
X17866414Y-12699476D01*
X17904510Y-12699476D01*
X17923557Y-12689952D01*
X17933081Y-12680428D01*
X17942605Y-12661381D01*
X17942605Y-12623286D01*
X17933081Y-12604238D01*
X17923557Y-12594714D01*
X17904510Y-12585190D01*
X18018795Y-12499476D02*
X18018795Y-12537571D01*
X18094986Y-12499476D02*
X18094986Y-12537571D01*
X18390224Y-12775667D02*
X18380700Y-12766143D01*
X18361653Y-12737571D01*
X18352129Y-12718524D01*
X18342605Y-12689952D01*
X18333081Y-12642333D01*
X18333081Y-12604238D01*
X18342605Y-12556619D01*
X18352129Y-12528048D01*
X18361653Y-12509000D01*
X18380700Y-12480428D01*
X18390224Y-12470905D01*
X18571176Y-12699476D02*
X18456891Y-12699476D01*
X18514033Y-12699476D02*
X18514033Y-12499476D01*
X18494986Y-12528048D01*
X18475938Y-12547095D01*
X18456891Y-12556619D01*
X18742605Y-12566143D02*
X18742605Y-12699476D01*
X18694986Y-12489952D02*
X18647367Y-12632809D01*
X18771176Y-12632809D01*
X18856891Y-12699476D02*
X18894986Y-12699476D01*
X18914033Y-12689952D01*
X18923557Y-12680428D01*
X18942605Y-12651857D01*
X18952129Y-12613762D01*
X18952129Y-12537571D01*
X18942605Y-12518524D01*
X18933081Y-12509000D01*
X18914033Y-12499476D01*
X18875938Y-12499476D01*
X18856891Y-12509000D01*
X18847367Y-12518524D01*
X18837843Y-12537571D01*
X18837843Y-12585190D01*
X18847367Y-12604238D01*
X18856891Y-12613762D01*
X18875938Y-12623286D01*
X18914033Y-12623286D01*
X18933081Y-12613762D01*
X18942605Y-12604238D01*
X18952129Y-12585190D01*
X19190224Y-12699476D02*
X19190224Y-12499476D01*
X19275938Y-12699476D02*
X19275938Y-12594714D01*
X19266414Y-12575667D01*
X19247367Y-12566143D01*
X19218795Y-12566143D01*
X19199748Y-12575667D01*
X19190224Y-12585190D01*
X19399748Y-12699476D02*
X19380700Y-12689952D01*
X19371176Y-12680428D01*
X19361653Y-12661381D01*
X19361653Y-12604238D01*
X19371176Y-12585190D01*
X19380700Y-12575667D01*
X19399748Y-12566143D01*
X19428319Y-12566143D01*
X19447367Y-12575667D01*
X19456891Y-12585190D01*
X19466414Y-12604238D01*
X19466414Y-12661381D01*
X19456891Y-12680428D01*
X19447367Y-12689952D01*
X19428319Y-12699476D01*
X19399748Y-12699476D01*
X19580700Y-12699476D02*
X19561653Y-12689952D01*
X19552129Y-12670905D01*
X19552129Y-12499476D01*
X19733081Y-12689952D02*
X19714033Y-12699476D01*
X19675938Y-12699476D01*
X19656891Y-12689952D01*
X19647367Y-12670905D01*
X19647367Y-12594714D01*
X19656891Y-12575667D01*
X19675938Y-12566143D01*
X19714033Y-12566143D01*
X19733081Y-12575667D01*
X19742605Y-12594714D01*
X19742605Y-12613762D01*
X19647367Y-12632809D01*
X19818795Y-12689952D02*
X19837843Y-12699476D01*
X19875938Y-12699476D01*
X19894986Y-12689952D01*
X19904510Y-12670905D01*
X19904510Y-12661381D01*
X19894986Y-12642333D01*
X19875938Y-12632809D01*
X19847367Y-12632809D01*
X19828319Y-12623286D01*
X19818795Y-12604238D01*
X19818795Y-12594714D01*
X19828319Y-12575667D01*
X19847367Y-12566143D01*
X19875938Y-12566143D01*
X19894986Y-12575667D01*
X19971176Y-12775667D02*
X19980700Y-12766143D01*
X19999748Y-12737571D01*
X20009272Y-12718524D01*
X20018795Y-12689952D01*
X20028319Y-12642333D01*
X20028319Y-12604238D01*
X20018795Y-12556619D01*
X20009272Y-12528048D01*
X19999748Y-12509000D01*
X19980700Y-12480428D01*
X19971176Y-12470905D01*
D13*
X14803319Y-12858000D02*
X14803319Y-12888000D01*
X14788319Y-12873000D02*
X14818319Y-12873000D01*
D11*
X15114033Y-12763476D02*
X15133081Y-12763476D01*
X15152129Y-12773000D01*
X15161652Y-12782524D01*
X15171176Y-12801571D01*
X15180700Y-12839667D01*
X15180700Y-12887286D01*
X15171176Y-12925381D01*
X15161652Y-12944428D01*
X15152129Y-12953952D01*
X15133081Y-12963476D01*
X15114033Y-12963476D01*
X15094986Y-12953952D01*
X15085462Y-12944428D01*
X15075938Y-12925381D01*
X15066414Y-12887286D01*
X15066414Y-12839667D01*
X15075938Y-12801571D01*
X15085462Y-12782524D01*
X15094986Y-12773000D01*
X15114033Y-12763476D01*
X15266414Y-12944428D02*
X15275938Y-12953952D01*
X15266414Y-12963476D01*
X15256891Y-12953952D01*
X15266414Y-12944428D01*
X15266414Y-12963476D01*
X15342605Y-12763476D02*
X15466414Y-12763476D01*
X15399748Y-12839667D01*
X15428319Y-12839667D01*
X15447367Y-12849190D01*
X15456891Y-12858714D01*
X15466414Y-12877762D01*
X15466414Y-12925381D01*
X15456891Y-12944428D01*
X15447367Y-12953952D01*
X15428319Y-12963476D01*
X15371176Y-12963476D01*
X15352129Y-12953952D01*
X15342605Y-12944428D01*
X15590224Y-12763476D02*
X15609271Y-12763476D01*
X15628319Y-12773000D01*
X15637843Y-12782524D01*
X15647367Y-12801571D01*
X15656891Y-12839667D01*
X15656891Y-12887286D01*
X15647367Y-12925381D01*
X15637843Y-12944428D01*
X15628319Y-12953952D01*
X15609271Y-12963476D01*
X15590224Y-12963476D01*
X15571176Y-12953952D01*
X15561652Y-12944428D01*
X15552129Y-12925381D01*
X15542605Y-12887286D01*
X15542605Y-12839667D01*
X15552129Y-12801571D01*
X15561652Y-12782524D01*
X15571176Y-12773000D01*
X15590224Y-12763476D01*
X15780700Y-12763476D02*
X15799748Y-12763476D01*
X15818795Y-12773000D01*
X15828319Y-12782524D01*
X15837843Y-12801571D01*
X15847367Y-12839667D01*
X15847367Y-12887286D01*
X15837843Y-12925381D01*
X15828319Y-12944428D01*
X15818795Y-12953952D01*
X15799748Y-12963476D01*
X15780700Y-12963476D01*
X15761652Y-12953952D01*
X15752129Y-12944428D01*
X15742605Y-12925381D01*
X15733081Y-12887286D01*
X15733081Y-12839667D01*
X15742605Y-12801571D01*
X15752129Y-12782524D01*
X15761652Y-12773000D01*
X15780700Y-12763476D01*
X15933081Y-12963476D02*
X15933081Y-12830143D01*
X15933081Y-12849190D02*
X15942605Y-12839667D01*
X15961652Y-12830143D01*
X15990224Y-12830143D01*
X16009271Y-12839667D01*
X16018795Y-12858714D01*
X16018795Y-12963476D01*
X16018795Y-12858714D02*
X16028319Y-12839667D01*
X16047367Y-12830143D01*
X16075938Y-12830143D01*
X16094986Y-12839667D01*
X16104510Y-12858714D01*
X16104510Y-12963476D01*
X16199748Y-12963476D02*
X16199748Y-12830143D01*
X16199748Y-12849190D02*
X16209271Y-12839667D01*
X16228319Y-12830143D01*
X16256891Y-12830143D01*
X16275938Y-12839667D01*
X16285462Y-12858714D01*
X16285462Y-12963476D01*
X16285462Y-12858714D02*
X16294986Y-12839667D01*
X16314033Y-12830143D01*
X16342605Y-12830143D01*
X16361652Y-12839667D01*
X16371176Y-12858714D01*
X16371176Y-12963476D01*
X16761652Y-12753952D02*
X16590224Y-13011095D01*
X17018795Y-12763476D02*
X17037843Y-12763476D01*
X17056891Y-12773000D01*
X17066414Y-12782524D01*
X17075938Y-12801571D01*
X17085462Y-12839667D01*
X17085462Y-12887286D01*
X17075938Y-12925381D01*
X17066414Y-12944428D01*
X17056891Y-12953952D01*
X17037843Y-12963476D01*
X17018795Y-12963476D01*
X16999748Y-12953952D01*
X16990224Y-12944428D01*
X16980700Y-12925381D01*
X16971176Y-12887286D01*
X16971176Y-12839667D01*
X16980700Y-12801571D01*
X16990224Y-12782524D01*
X16999748Y-12773000D01*
X17018795Y-12763476D01*
X17171176Y-12944428D02*
X17180700Y-12953952D01*
X17171176Y-12963476D01*
X17161653Y-12953952D01*
X17171176Y-12944428D01*
X17171176Y-12963476D01*
X17304510Y-12763476D02*
X17323557Y-12763476D01*
X17342605Y-12773000D01*
X17352129Y-12782524D01*
X17361653Y-12801571D01*
X17371176Y-12839667D01*
X17371176Y-12887286D01*
X17361653Y-12925381D01*
X17352129Y-12944428D01*
X17342605Y-12953952D01*
X17323557Y-12963476D01*
X17304510Y-12963476D01*
X17285462Y-12953952D01*
X17275938Y-12944428D01*
X17266414Y-12925381D01*
X17256891Y-12887286D01*
X17256891Y-12839667D01*
X17266414Y-12801571D01*
X17275938Y-12782524D01*
X17285462Y-12773000D01*
X17304510Y-12763476D01*
X17561653Y-12963476D02*
X17447367Y-12963476D01*
X17504510Y-12963476D02*
X17504510Y-12763476D01*
X17485462Y-12792048D01*
X17466414Y-12811095D01*
X17447367Y-12820619D01*
X17752129Y-12963476D02*
X17637843Y-12963476D01*
X17694986Y-12963476D02*
X17694986Y-12763476D01*
X17675938Y-12792048D01*
X17656891Y-12811095D01*
X17637843Y-12820619D01*
X17866414Y-12849190D02*
X17847367Y-12839667D01*
X17837843Y-12830143D01*
X17828319Y-12811095D01*
X17828319Y-12801571D01*
X17837843Y-12782524D01*
X17847367Y-12773000D01*
X17866414Y-12763476D01*
X17904510Y-12763476D01*
X17923557Y-12773000D01*
X17933081Y-12782524D01*
X17942605Y-12801571D01*
X17942605Y-12811095D01*
X17933081Y-12830143D01*
X17923557Y-12839667D01*
X17904510Y-12849190D01*
X17866414Y-12849190D01*
X17847367Y-12858714D01*
X17837843Y-12868238D01*
X17828319Y-12887286D01*
X17828319Y-12925381D01*
X17837843Y-12944428D01*
X17847367Y-12953952D01*
X17866414Y-12963476D01*
X17904510Y-12963476D01*
X17923557Y-12953952D01*
X17933081Y-12944428D01*
X17942605Y-12925381D01*
X17942605Y-12887286D01*
X17933081Y-12868238D01*
X17923557Y-12858714D01*
X17904510Y-12849190D01*
X18018795Y-12763476D02*
X18018795Y-12801571D01*
X18094986Y-12763476D02*
X18094986Y-12801571D01*
X18390224Y-13039667D02*
X18380700Y-13030143D01*
X18361653Y-13001571D01*
X18352129Y-12982524D01*
X18342605Y-12953952D01*
X18333081Y-12906333D01*
X18333081Y-12868238D01*
X18342605Y-12820619D01*
X18352129Y-12792048D01*
X18361653Y-12773000D01*
X18380700Y-12744428D01*
X18390224Y-12734905D01*
X18571176Y-12963476D02*
X18456891Y-12963476D01*
X18514033Y-12963476D02*
X18514033Y-12763476D01*
X18494986Y-12792048D01*
X18475938Y-12811095D01*
X18456891Y-12820619D01*
X18742605Y-12830143D02*
X18742605Y-12963476D01*
X18694986Y-12753952D02*
X18647367Y-12896809D01*
X18771176Y-12896809D01*
X18999748Y-12963476D02*
X18999748Y-12763476D01*
X19085462Y-12963476D02*
X19085462Y-12858714D01*
X19075938Y-12839667D01*
X19056891Y-12830143D01*
X19028319Y-12830143D01*
X19009272Y-12839667D01*
X18999748Y-12849190D01*
X19209272Y-12963476D02*
X19190224Y-12953952D01*
X19180700Y-12944428D01*
X19171176Y-12925381D01*
X19171176Y-12868238D01*
X19180700Y-12849190D01*
X19190224Y-12839667D01*
X19209272Y-12830143D01*
X19237843Y-12830143D01*
X19256891Y-12839667D01*
X19266414Y-12849190D01*
X19275938Y-12868238D01*
X19275938Y-12925381D01*
X19266414Y-12944428D01*
X19256891Y-12953952D01*
X19237843Y-12963476D01*
X19209272Y-12963476D01*
X19390224Y-12963476D02*
X19371176Y-12953952D01*
X19361653Y-12934905D01*
X19361653Y-12763476D01*
X19542605Y-12953952D02*
X19523557Y-12963476D01*
X19485462Y-12963476D01*
X19466414Y-12953952D01*
X19456891Y-12934905D01*
X19456891Y-12858714D01*
X19466414Y-12839667D01*
X19485462Y-12830143D01*
X19523557Y-12830143D01*
X19542605Y-12839667D01*
X19552129Y-12858714D01*
X19552129Y-12877762D01*
X19456891Y-12896809D01*
X19628319Y-12953952D02*
X19647367Y-12963476D01*
X19685462Y-12963476D01*
X19704510Y-12953952D01*
X19714033Y-12934905D01*
X19714033Y-12925381D01*
X19704510Y-12906333D01*
X19685462Y-12896809D01*
X19656891Y-12896809D01*
X19637843Y-12887286D01*
X19628319Y-12868238D01*
X19628319Y-12858714D01*
X19637843Y-12839667D01*
X19656891Y-12830143D01*
X19685462Y-12830143D01*
X19704510Y-12839667D01*
X19780700Y-13039667D02*
X19790224Y-13030143D01*
X19809272Y-13001571D01*
X19818795Y-12982524D01*
X19828319Y-12953952D01*
X19837843Y-12906333D01*
X19837843Y-12868238D01*
X19828319Y-12820619D01*
X19818795Y-12792048D01*
X19809272Y-12773000D01*
X19790224Y-12744428D01*
X19780700Y-12734905D01*
D14*
X14810997Y-13154678D02*
X14810997Y-13119322D01*
X14775641Y-13119322D01*
X14775641Y-13154678D01*
X14810997Y-13154678D01*
D11*
X15114033Y-13027476D02*
X15133081Y-13027476D01*
X15152129Y-13037000D01*
X15161652Y-13046524D01*
X15171176Y-13065571D01*
X15180700Y-13103667D01*
X15180700Y-13151286D01*
X15171176Y-13189381D01*
X15161652Y-13208428D01*
X15152129Y-13217952D01*
X15133081Y-13227476D01*
X15114033Y-13227476D01*
X15094986Y-13217952D01*
X15085462Y-13208428D01*
X15075938Y-13189381D01*
X15066414Y-13151286D01*
X15066414Y-13103667D01*
X15075938Y-13065571D01*
X15085462Y-13046524D01*
X15094986Y-13037000D01*
X15114033Y-13027476D01*
X15266414Y-13208428D02*
X15275938Y-13217952D01*
X15266414Y-13227476D01*
X15256891Y-13217952D01*
X15266414Y-13208428D01*
X15266414Y-13227476D01*
X15456891Y-13027476D02*
X15361652Y-13027476D01*
X15352129Y-13122714D01*
X15361652Y-13113190D01*
X15380700Y-13103667D01*
X15428319Y-13103667D01*
X15447367Y-13113190D01*
X15456891Y-13122714D01*
X15466414Y-13141762D01*
X15466414Y-13189381D01*
X15456891Y-13208428D01*
X15447367Y-13217952D01*
X15428319Y-13227476D01*
X15380700Y-13227476D01*
X15361652Y-13217952D01*
X15352129Y-13208428D01*
X15590224Y-13027476D02*
X15609271Y-13027476D01*
X15628319Y-13037000D01*
X15637843Y-13046524D01*
X15647367Y-13065571D01*
X15656891Y-13103667D01*
X15656891Y-13151286D01*
X15647367Y-13189381D01*
X15637843Y-13208428D01*
X15628319Y-13217952D01*
X15609271Y-13227476D01*
X15590224Y-13227476D01*
X15571176Y-13217952D01*
X15561652Y-13208428D01*
X15552129Y-13189381D01*
X15542605Y-13151286D01*
X15542605Y-13103667D01*
X15552129Y-13065571D01*
X15561652Y-13046524D01*
X15571176Y-13037000D01*
X15590224Y-13027476D01*
X15780700Y-13027476D02*
X15799748Y-13027476D01*
X15818795Y-13037000D01*
X15828319Y-13046524D01*
X15837843Y-13065571D01*
X15847367Y-13103667D01*
X15847367Y-13151286D01*
X15837843Y-13189381D01*
X15828319Y-13208428D01*
X15818795Y-13217952D01*
X15799748Y-13227476D01*
X15780700Y-13227476D01*
X15761652Y-13217952D01*
X15752129Y-13208428D01*
X15742605Y-13189381D01*
X15733081Y-13151286D01*
X15733081Y-13103667D01*
X15742605Y-13065571D01*
X15752129Y-13046524D01*
X15761652Y-13037000D01*
X15780700Y-13027476D01*
X15933081Y-13227476D02*
X15933081Y-13094143D01*
X15933081Y-13113190D02*
X15942605Y-13103667D01*
X15961652Y-13094143D01*
X15990224Y-13094143D01*
X16009271Y-13103667D01*
X16018795Y-13122714D01*
X16018795Y-13227476D01*
X16018795Y-13122714D02*
X16028319Y-13103667D01*
X16047367Y-13094143D01*
X16075938Y-13094143D01*
X16094986Y-13103667D01*
X16104510Y-13122714D01*
X16104510Y-13227476D01*
X16199748Y-13227476D02*
X16199748Y-13094143D01*
X16199748Y-13113190D02*
X16209271Y-13103667D01*
X16228319Y-13094143D01*
X16256891Y-13094143D01*
X16275938Y-13103667D01*
X16285462Y-13122714D01*
X16285462Y-13227476D01*
X16285462Y-13122714D02*
X16294986Y-13103667D01*
X16314033Y-13094143D01*
X16342605Y-13094143D01*
X16361652Y-13103667D01*
X16371176Y-13122714D01*
X16371176Y-13227476D01*
X16761652Y-13017952D02*
X16590224Y-13275095D01*
X17018795Y-13027476D02*
X17037843Y-13027476D01*
X17056891Y-13037000D01*
X17066414Y-13046524D01*
X17075938Y-13065571D01*
X17085462Y-13103667D01*
X17085462Y-13151286D01*
X17075938Y-13189381D01*
X17066414Y-13208428D01*
X17056891Y-13217952D01*
X17037843Y-13227476D01*
X17018795Y-13227476D01*
X16999748Y-13217952D01*
X16990224Y-13208428D01*
X16980700Y-13189381D01*
X16971176Y-13151286D01*
X16971176Y-13103667D01*
X16980700Y-13065571D01*
X16990224Y-13046524D01*
X16999748Y-13037000D01*
X17018795Y-13027476D01*
X17171176Y-13208428D02*
X17180700Y-13217952D01*
X17171176Y-13227476D01*
X17161653Y-13217952D01*
X17171176Y-13208428D01*
X17171176Y-13227476D01*
X17304510Y-13027476D02*
X17323557Y-13027476D01*
X17342605Y-13037000D01*
X17352129Y-13046524D01*
X17361653Y-13065571D01*
X17371176Y-13103667D01*
X17371176Y-13151286D01*
X17361653Y-13189381D01*
X17352129Y-13208428D01*
X17342605Y-13217952D01*
X17323557Y-13227476D01*
X17304510Y-13227476D01*
X17285462Y-13217952D01*
X17275938Y-13208428D01*
X17266414Y-13189381D01*
X17256891Y-13151286D01*
X17256891Y-13103667D01*
X17266414Y-13065571D01*
X17275938Y-13046524D01*
X17285462Y-13037000D01*
X17304510Y-13027476D01*
X17561653Y-13227476D02*
X17447367Y-13227476D01*
X17504510Y-13227476D02*
X17504510Y-13027476D01*
X17485462Y-13056048D01*
X17466414Y-13075095D01*
X17447367Y-13084619D01*
X17656891Y-13227476D02*
X17694986Y-13227476D01*
X17714033Y-13217952D01*
X17723557Y-13208428D01*
X17742605Y-13179857D01*
X17752129Y-13141762D01*
X17752129Y-13065571D01*
X17742605Y-13046524D01*
X17733081Y-13037000D01*
X17714033Y-13027476D01*
X17675938Y-13027476D01*
X17656891Y-13037000D01*
X17647367Y-13046524D01*
X17637843Y-13065571D01*
X17637843Y-13113190D01*
X17647367Y-13132238D01*
X17656891Y-13141762D01*
X17675938Y-13151286D01*
X17714033Y-13151286D01*
X17733081Y-13141762D01*
X17742605Y-13132238D01*
X17752129Y-13113190D01*
X17818795Y-13027476D02*
X17952129Y-13027476D01*
X17866414Y-13227476D01*
X18018795Y-13027476D02*
X18018795Y-13065571D01*
X18094986Y-13027476D02*
X18094986Y-13065571D01*
X18390224Y-13303667D02*
X18380700Y-13294143D01*
X18361653Y-13265571D01*
X18352129Y-13246524D01*
X18342605Y-13217952D01*
X18333081Y-13170333D01*
X18333081Y-13132238D01*
X18342605Y-13084619D01*
X18352129Y-13056048D01*
X18361653Y-13037000D01*
X18380700Y-13008428D01*
X18390224Y-12998905D01*
X18552129Y-13094143D02*
X18552129Y-13227476D01*
X18504510Y-13017952D02*
X18456891Y-13160809D01*
X18580700Y-13160809D01*
X18809272Y-13227476D02*
X18809272Y-13027476D01*
X18894986Y-13227476D02*
X18894986Y-13122714D01*
X18885462Y-13103667D01*
X18866414Y-13094143D01*
X18837843Y-13094143D01*
X18818795Y-13103667D01*
X18809272Y-13113190D01*
X19018795Y-13227476D02*
X18999748Y-13217952D01*
X18990224Y-13208428D01*
X18980700Y-13189381D01*
X18980700Y-13132238D01*
X18990224Y-13113190D01*
X18999748Y-13103667D01*
X19018795Y-13094143D01*
X19047367Y-13094143D01*
X19066414Y-13103667D01*
X19075938Y-13113190D01*
X19085462Y-13132238D01*
X19085462Y-13189381D01*
X19075938Y-13208428D01*
X19066414Y-13217952D01*
X19047367Y-13227476D01*
X19018795Y-13227476D01*
X19199748Y-13227476D02*
X19180700Y-13217952D01*
X19171176Y-13198905D01*
X19171176Y-13027476D01*
X19352129Y-13217952D02*
X19333081Y-13227476D01*
X19294986Y-13227476D01*
X19275938Y-13217952D01*
X19266414Y-13198905D01*
X19266414Y-13122714D01*
X19275938Y-13103667D01*
X19294986Y-13094143D01*
X19333081Y-13094143D01*
X19352129Y-13103667D01*
X19361653Y-13122714D01*
X19361653Y-13141762D01*
X19266414Y-13160809D01*
X19437843Y-13217952D02*
X19456891Y-13227476D01*
X19494986Y-13227476D01*
X19514033Y-13217952D01*
X19523557Y-13198905D01*
X19523557Y-13189381D01*
X19514033Y-13170333D01*
X19494986Y-13160809D01*
X19466414Y-13160809D01*
X19447367Y-13151286D01*
X19437843Y-13132238D01*
X19437843Y-13122714D01*
X19447367Y-13103667D01*
X19466414Y-13094143D01*
X19494986Y-13094143D01*
X19514033Y-13103667D01*
X19590224Y-13303667D02*
X19599748Y-13294143D01*
X19618795Y-13265571D01*
X19628319Y-13246524D01*
X19637843Y-13217952D01*
X19647367Y-13170333D01*
X19647367Y-13132238D01*
X19637843Y-13084619D01*
X19628319Y-13056048D01*
X19618795Y-13037000D01*
X19599748Y-13008428D01*
X19590224Y-12998905D01*
D10*
X14768319Y-13451000D02*
X14818319Y-13401000D01*
X14768319Y-13351000D01*
X14718319Y-13401000D01*
X14768319Y-13451000D01*
D11*
X15180700Y-13491476D02*
X15066414Y-13491476D01*
X15123557Y-13491476D02*
X15123557Y-13291476D01*
X15104510Y-13320048D01*
X15085462Y-13339095D01*
X15066414Y-13348619D01*
X15266414Y-13472428D02*
X15275938Y-13481952D01*
X15266414Y-13491476D01*
X15256891Y-13481952D01*
X15266414Y-13472428D01*
X15266414Y-13491476D01*
X15399748Y-13291476D02*
X15418795Y-13291476D01*
X15437843Y-13301000D01*
X15447367Y-13310524D01*
X15456891Y-13329571D01*
X15466414Y-13367667D01*
X15466414Y-13415286D01*
X15456891Y-13453381D01*
X15447367Y-13472428D01*
X15437843Y-13481952D01*
X15418795Y-13491476D01*
X15399748Y-13491476D01*
X15380700Y-13481952D01*
X15371176Y-13472428D01*
X15361652Y-13453381D01*
X15352129Y-13415286D01*
X15352129Y-13367667D01*
X15361652Y-13329571D01*
X15371176Y-13310524D01*
X15380700Y-13301000D01*
X15399748Y-13291476D01*
X15590224Y-13291476D02*
X15609271Y-13291476D01*
X15628319Y-13301000D01*
X15637843Y-13310524D01*
X15647367Y-13329571D01*
X15656891Y-13367667D01*
X15656891Y-13415286D01*
X15647367Y-13453381D01*
X15637843Y-13472428D01*
X15628319Y-13481952D01*
X15609271Y-13491476D01*
X15590224Y-13491476D01*
X15571176Y-13481952D01*
X15561652Y-13472428D01*
X15552129Y-13453381D01*
X15542605Y-13415286D01*
X15542605Y-13367667D01*
X15552129Y-13329571D01*
X15561652Y-13310524D01*
X15571176Y-13301000D01*
X15590224Y-13291476D01*
X15780700Y-13291476D02*
X15799748Y-13291476D01*
X15818795Y-13301000D01*
X15828319Y-13310524D01*
X15837843Y-13329571D01*
X15847367Y-13367667D01*
X15847367Y-13415286D01*
X15837843Y-13453381D01*
X15828319Y-13472428D01*
X15818795Y-13481952D01*
X15799748Y-13491476D01*
X15780700Y-13491476D01*
X15761652Y-13481952D01*
X15752129Y-13472428D01*
X15742605Y-13453381D01*
X15733081Y-13415286D01*
X15733081Y-13367667D01*
X15742605Y-13329571D01*
X15752129Y-13310524D01*
X15761652Y-13301000D01*
X15780700Y-13291476D01*
X15933081Y-13491476D02*
X15933081Y-13358143D01*
X15933081Y-13377190D02*
X15942605Y-13367667D01*
X15961652Y-13358143D01*
X15990224Y-13358143D01*
X16009271Y-13367667D01*
X16018795Y-13386714D01*
X16018795Y-13491476D01*
X16018795Y-13386714D02*
X16028319Y-13367667D01*
X16047367Y-13358143D01*
X16075938Y-13358143D01*
X16094986Y-13367667D01*
X16104510Y-13386714D01*
X16104510Y-13491476D01*
X16199748Y-13491476D02*
X16199748Y-13358143D01*
X16199748Y-13377190D02*
X16209271Y-13367667D01*
X16228319Y-13358143D01*
X16256891Y-13358143D01*
X16275938Y-13367667D01*
X16285462Y-13386714D01*
X16285462Y-13491476D01*
X16285462Y-13386714D02*
X16294986Y-13367667D01*
X16314033Y-13358143D01*
X16342605Y-13358143D01*
X16361652Y-13367667D01*
X16371176Y-13386714D01*
X16371176Y-13491476D01*
X16761652Y-13281952D02*
X16590224Y-13539095D01*
X17018795Y-13291476D02*
X17037843Y-13291476D01*
X17056891Y-13301000D01*
X17066414Y-13310524D01*
X17075938Y-13329571D01*
X17085462Y-13367667D01*
X17085462Y-13415286D01*
X17075938Y-13453381D01*
X17066414Y-13472428D01*
X17056891Y-13481952D01*
X17037843Y-13491476D01*
X17018795Y-13491476D01*
X16999748Y-13481952D01*
X16990224Y-13472428D01*
X16980700Y-13453381D01*
X16971176Y-13415286D01*
X16971176Y-13367667D01*
X16980700Y-13329571D01*
X16990224Y-13310524D01*
X16999748Y-13301000D01*
X17018795Y-13291476D01*
X17171176Y-13472428D02*
X17180700Y-13481952D01*
X17171176Y-13491476D01*
X17161653Y-13481952D01*
X17171176Y-13472428D01*
X17171176Y-13491476D01*
X17304510Y-13291476D02*
X17323557Y-13291476D01*
X17342605Y-13301000D01*
X17352129Y-13310524D01*
X17361653Y-13329571D01*
X17371176Y-13367667D01*
X17371176Y-13415286D01*
X17361653Y-13453381D01*
X17352129Y-13472428D01*
X17342605Y-13481952D01*
X17323557Y-13491476D01*
X17304510Y-13491476D01*
X17285462Y-13481952D01*
X17275938Y-13472428D01*
X17266414Y-13453381D01*
X17256891Y-13415286D01*
X17256891Y-13367667D01*
X17266414Y-13329571D01*
X17275938Y-13310524D01*
X17285462Y-13301000D01*
X17304510Y-13291476D01*
X17437843Y-13291476D02*
X17561653Y-13291476D01*
X17494986Y-13367667D01*
X17523557Y-13367667D01*
X17542605Y-13377190D01*
X17552129Y-13386714D01*
X17561653Y-13405762D01*
X17561653Y-13453381D01*
X17552129Y-13472428D01*
X17542605Y-13481952D01*
X17523557Y-13491476D01*
X17466414Y-13491476D01*
X17447367Y-13481952D01*
X17437843Y-13472428D01*
X17656891Y-13491476D02*
X17694986Y-13491476D01*
X17714033Y-13481952D01*
X17723557Y-13472428D01*
X17742605Y-13443857D01*
X17752129Y-13405762D01*
X17752129Y-13329571D01*
X17742605Y-13310524D01*
X17733081Y-13301000D01*
X17714033Y-13291476D01*
X17675938Y-13291476D01*
X17656891Y-13301000D01*
X17647367Y-13310524D01*
X17637843Y-13329571D01*
X17637843Y-13377190D01*
X17647367Y-13396238D01*
X17656891Y-13405762D01*
X17675938Y-13415286D01*
X17714033Y-13415286D01*
X17733081Y-13405762D01*
X17742605Y-13396238D01*
X17752129Y-13377190D01*
X17923557Y-13358143D02*
X17923557Y-13491476D01*
X17875938Y-13281952D02*
X17828319Y-13424809D01*
X17952129Y-13424809D01*
X18018795Y-13291476D02*
X18018795Y-13329571D01*
X18094986Y-13291476D02*
X18094986Y-13329571D01*
X18390224Y-13567667D02*
X18380700Y-13558143D01*
X18361653Y-13529571D01*
X18352129Y-13510524D01*
X18342605Y-13481952D01*
X18333081Y-13434333D01*
X18333081Y-13396238D01*
X18342605Y-13348619D01*
X18352129Y-13320048D01*
X18361653Y-13301000D01*
X18380700Y-13272428D01*
X18390224Y-13262905D01*
X18456891Y-13310524D02*
X18466414Y-13301000D01*
X18485462Y-13291476D01*
X18533081Y-13291476D01*
X18552129Y-13301000D01*
X18561653Y-13310524D01*
X18571176Y-13329571D01*
X18571176Y-13348619D01*
X18561653Y-13377190D01*
X18447367Y-13491476D01*
X18571176Y-13491476D01*
X18809272Y-13491476D02*
X18809272Y-13291476D01*
X18894986Y-13491476D02*
X18894986Y-13386714D01*
X18885462Y-13367667D01*
X18866414Y-13358143D01*
X18837843Y-13358143D01*
X18818795Y-13367667D01*
X18809272Y-13377190D01*
X19018795Y-13491476D02*
X18999748Y-13481952D01*
X18990224Y-13472428D01*
X18980700Y-13453381D01*
X18980700Y-13396238D01*
X18990224Y-13377190D01*
X18999748Y-13367667D01*
X19018795Y-13358143D01*
X19047367Y-13358143D01*
X19066414Y-13367667D01*
X19075938Y-13377190D01*
X19085462Y-13396238D01*
X19085462Y-13453381D01*
X19075938Y-13472428D01*
X19066414Y-13481952D01*
X19047367Y-13491476D01*
X19018795Y-13491476D01*
X19199748Y-13491476D02*
X19180700Y-13481952D01*
X19171176Y-13462905D01*
X19171176Y-13291476D01*
X19352129Y-13481952D02*
X19333081Y-13491476D01*
X19294986Y-13491476D01*
X19275938Y-13481952D01*
X19266414Y-13462905D01*
X19266414Y-13386714D01*
X19275938Y-13367667D01*
X19294986Y-13358143D01*
X19333081Y-13358143D01*
X19352129Y-13367667D01*
X19361653Y-13386714D01*
X19361653Y-13405762D01*
X19266414Y-13424809D01*
X19437843Y-13481952D02*
X19456891Y-13491476D01*
X19494986Y-13491476D01*
X19514033Y-13481952D01*
X19523557Y-13462905D01*
X19523557Y-13453381D01*
X19514033Y-13434333D01*
X19494986Y-13424809D01*
X19466414Y-13424809D01*
X19447367Y-13415286D01*
X19437843Y-13396238D01*
X19437843Y-13386714D01*
X19447367Y-13367667D01*
X19466414Y-13358143D01*
X19494986Y-13358143D01*
X19514033Y-13367667D01*
X19761653Y-13415286D02*
X19914033Y-13415286D01*
X19837843Y-13491476D02*
X19837843Y-13339095D01*
X20266414Y-13491476D02*
X20152129Y-13491476D01*
X20209272Y-13491476D02*
X20209272Y-13291476D01*
X20190224Y-13320048D01*
X20171176Y-13339095D01*
X20152129Y-13348619D01*
X20437843Y-13358143D02*
X20437843Y-13491476D01*
X20390224Y-13281952D02*
X20342605Y-13424809D01*
X20466414Y-13424809D01*
X20685462Y-13481952D02*
X20704510Y-13491476D01*
X20742605Y-13491476D01*
X20761653Y-13481952D01*
X20771176Y-13462905D01*
X20771176Y-13453381D01*
X20761653Y-13434333D01*
X20742605Y-13424809D01*
X20714033Y-13424809D01*
X20694986Y-13415286D01*
X20685462Y-13396238D01*
X20685462Y-13386714D01*
X20694986Y-13367667D01*
X20714033Y-13358143D01*
X20742605Y-13358143D01*
X20761653Y-13367667D01*
X20885462Y-13491476D02*
X20866414Y-13481952D01*
X20856891Y-13462905D01*
X20856891Y-13291476D01*
X20990224Y-13491476D02*
X20971176Y-13481952D01*
X20961653Y-13472428D01*
X20952129Y-13453381D01*
X20952129Y-13396238D01*
X20961653Y-13377190D01*
X20971176Y-13367667D01*
X20990224Y-13358143D01*
X21018795Y-13358143D01*
X21037843Y-13367667D01*
X21047367Y-13377190D01*
X21056891Y-13396238D01*
X21056891Y-13453381D01*
X21047367Y-13472428D01*
X21037843Y-13481952D01*
X21018795Y-13491476D01*
X20990224Y-13491476D01*
X21114033Y-13358143D02*
X21190224Y-13358143D01*
X21142605Y-13291476D02*
X21142605Y-13462905D01*
X21152129Y-13481952D01*
X21171176Y-13491476D01*
X21190224Y-13491476D01*
X21247367Y-13481952D02*
X21266414Y-13491476D01*
X21304510Y-13491476D01*
X21323557Y-13481952D01*
X21333081Y-13462905D01*
X21333081Y-13453381D01*
X21323557Y-13434333D01*
X21304510Y-13424809D01*
X21275938Y-13424809D01*
X21256891Y-13415286D01*
X21247367Y-13396238D01*
X21247367Y-13386714D01*
X21256891Y-13367667D01*
X21275938Y-13358143D01*
X21304510Y-13358143D01*
X21323557Y-13367667D01*
X21399748Y-13567667D02*
X21409272Y-13558143D01*
X21428319Y-13529571D01*
X21437843Y-13510524D01*
X21447367Y-13481952D01*
X21456891Y-13434333D01*
X21456891Y-13396238D01*
X21447367Y-13348619D01*
X21437843Y-13320048D01*
X21428319Y-13301000D01*
X21409272Y-13272428D01*
X21399748Y-13262905D01*
M02*
