%TF.GenerationSoftware,KiCad,Pcbnew,6.0.8-f2edbf62ab~116~ubuntu22.04.1*%
%TF.CreationDate,2022-10-18T02:36:36+05:30*%
%TF.ProjectId,mushak_pcb,6d757368-616b-45f7-9063-622e6b696361,rev?*%
%TF.SameCoordinates,Original*%
%TF.FileFunction,Drillmap*%
%TF.FilePolarity,Positive*%
%FSLAX45Y45*%
G04 Gerber Fmt 4.5, Leading zero omitted, Abs format (unit mm)*
G04 Created by KiCad (PCBNEW 6.0.8-f2edbf62ab~116~ubuntu22.04.1) date 2022-10-18 02:36:36*
%MOMM*%
%LPD*%
G01*
G04 APERTURE LIST*
%ADD10C,0.100000*%
%ADD11C,0.200000*%
G04 APERTURE END LIST*
D10*
X19400000Y-9100000D02*
X19550000Y-9100000D01*
X19400000Y-8600000D02*
X19400000Y-8200000D01*
X20405000Y-8380000D02*
X20575000Y-8380000D01*
X19545000Y-9990000D02*
X19755000Y-9990000D01*
X19550000Y-10937181D02*
X19550000Y-11132181D01*
X20405000Y-10622500D02*
X20405000Y-10659681D01*
X20352500Y-11652500D02*
X19735000Y-11652500D01*
X19550000Y-9430000D02*
X19755000Y-9430000D01*
X20355000Y-10622500D02*
X20355000Y-10659681D01*
X20480000Y-9580000D02*
X20480000Y-9517500D01*
X19400000Y-10837500D02*
X19550000Y-10837181D01*
X19000000Y-11700000D02*
X18200000Y-11700000D01*
X16800000Y-8100000D02*
X18000000Y-8100000D01*
X20535000Y-10832181D02*
X20535000Y-11022181D01*
X19400000Y-10300000D02*
X19400000Y-9800000D01*
X20535000Y-11022181D02*
X20585000Y-11022181D01*
X19400000Y-8100000D02*
X19652500Y-8100000D01*
X20355000Y-11219681D02*
X20355000Y-11237500D01*
X20585000Y-10275000D02*
X20585000Y-10165000D01*
X19755000Y-9990000D02*
X19755000Y-10102500D01*
X20585000Y-9130000D02*
X20585000Y-9020000D01*
X20535000Y-8220000D02*
X20535000Y-7920000D01*
X16675000Y-11615000D02*
X16675000Y-11420000D01*
X20405000Y-8880000D02*
X20405000Y-8957500D01*
X20585000Y-8320000D02*
X20585000Y-8220000D01*
X20475000Y-9020000D02*
X20475000Y-8970000D01*
X19400000Y-10837500D02*
X19400000Y-10400000D01*
X19805000Y-10659681D02*
X20355000Y-10659681D01*
X18200000Y-7700000D02*
G75*
G03*
X18125000Y-7775000I0J-75000D01*
G01*
X20590000Y-9990000D02*
X20590000Y-9880000D01*
X20475000Y-10722181D02*
X20475000Y-10659681D01*
X20585000Y-10832181D02*
X20535000Y-10832181D01*
X20405000Y-10102500D02*
X20475000Y-10102500D01*
X20535000Y-7920000D02*
X20585000Y-7920000D01*
X18125000Y-7975000D02*
X18125000Y-7775000D01*
X19000000Y-11699996D02*
G75*
G03*
X19400000Y-11337181I0J401906D01*
G01*
X19400000Y-9197500D02*
X19550000Y-9197500D01*
X19805000Y-8320000D02*
X19805000Y-8380000D01*
X19545000Y-10575000D02*
X19755000Y-10575000D01*
X18125000Y-11425000D02*
G75*
G03*
X18000000Y-11300000I-125000J0D01*
G01*
X19652500Y-8880000D02*
X19755000Y-8880000D01*
X20480000Y-9990000D02*
X20590000Y-9990000D01*
X20405000Y-9517500D02*
X20480000Y-9517500D01*
X20475000Y-10102500D02*
X20475000Y-10120000D01*
X20355000Y-8880000D02*
X19805000Y-8880000D01*
X20590000Y-9580000D02*
X20480000Y-9580000D01*
X19755000Y-8880000D02*
X19755000Y-8957500D01*
X20535000Y-10465000D02*
X20535000Y-10275000D01*
X20585000Y-7920000D02*
X20585000Y-7820000D01*
X19400000Y-8100000D02*
G75*
G03*
X19000000Y-7700000I-400000J0D01*
G01*
X19735000Y-11355000D02*
X19735000Y-11337181D01*
X20585000Y-10465000D02*
X20535000Y-10465000D01*
X19400000Y-11237181D02*
X19735000Y-11237181D01*
X20405000Y-10575000D02*
X20405000Y-10622500D01*
X20352500Y-11695000D02*
X20435000Y-11695000D01*
X20585000Y-9020000D02*
X20475000Y-9020000D01*
X18000000Y-8100000D02*
G75*
G03*
X18125000Y-7975000I0J125000D01*
G01*
X19545000Y-9800000D02*
X19545000Y-9990000D01*
X19805000Y-11237500D02*
X20355000Y-11237500D01*
X19755000Y-11132181D02*
X19755000Y-11219681D01*
X19400000Y-9700000D02*
X19545000Y-9700000D01*
X19652500Y-8380000D02*
X19652500Y-8600000D01*
X19755000Y-11237181D02*
X19735000Y-11237181D01*
X20405000Y-11132181D02*
X20585000Y-11132181D01*
X20355000Y-10007000D02*
X20355000Y-10102500D01*
X19550000Y-9197500D02*
X19550000Y-9430000D01*
X16675000Y-7975000D02*
X16675000Y-7788033D01*
X19550000Y-10659681D02*
X19755000Y-10659681D01*
X19652500Y-8200000D02*
X19652500Y-8320000D01*
X19400000Y-9700000D02*
X19400000Y-9197500D01*
X20585000Y-10722181D02*
X20475000Y-10722181D01*
X19805000Y-10622500D02*
X19805000Y-10659681D01*
X16590000Y-7713033D02*
G75*
G03*
X16600000Y-11690000I235075J-1987905D01*
G01*
X20535000Y-11295000D02*
X20535000Y-11575000D01*
X20540000Y-9880000D02*
X20540000Y-9690000D01*
X19550000Y-10659681D02*
X19550000Y-10837181D01*
X18125000Y-11625000D02*
G75*
G03*
X18200000Y-11700000I75000J0D01*
G01*
X20435000Y-11195000D02*
X20585000Y-11195000D01*
X20585000Y-7820000D02*
X19652500Y-7820000D01*
X19805000Y-9445000D02*
X19805000Y-9517500D01*
X19805000Y-10102500D02*
X20355000Y-10102500D01*
X20590000Y-9690000D02*
X20590000Y-9580000D01*
X19755000Y-10622500D02*
X19755000Y-10659681D01*
X20405000Y-9990000D02*
X20405000Y-10102500D01*
X20405000Y-9430000D02*
X20585000Y-9430000D01*
X19755000Y-10575000D02*
X19755000Y-10622500D01*
X20355000Y-8320000D02*
X20355000Y-8380000D01*
X20355000Y-9517500D02*
X19805000Y-9517500D01*
X19755000Y-9517500D02*
X19545000Y-9517500D01*
X19400000Y-10937500D02*
X19550000Y-10937181D01*
X20535000Y-9320000D02*
X20585000Y-9320000D01*
X20585000Y-11195000D02*
X20585000Y-11295000D01*
X20585000Y-10575000D02*
X20585000Y-10465000D01*
X20405000Y-9430000D02*
X20405000Y-9517500D01*
X20352500Y-11695000D02*
X20352500Y-11652500D01*
X19400000Y-8200000D02*
X19652500Y-8200000D01*
X20532500Y-8780000D02*
X20532500Y-8480000D01*
X20405000Y-9990000D02*
X20480000Y-9990000D01*
X18200000Y-7700000D02*
X19000000Y-7700000D01*
X20585000Y-11695000D02*
X20435000Y-11695000D01*
X19805000Y-9445000D02*
X20355000Y-9445000D01*
X20405000Y-10575000D02*
X20475000Y-10575000D01*
X19400000Y-9100000D02*
X19400000Y-8700000D01*
X19545000Y-10400000D02*
X19545000Y-10575000D01*
X20575000Y-8880000D02*
X20575000Y-8780000D01*
X20405000Y-8880000D02*
X20575000Y-8880000D01*
X20475000Y-10575000D02*
X20585000Y-10575000D01*
X19735000Y-11355000D02*
X19735000Y-11652500D01*
X19805000Y-10588000D02*
X20355000Y-10588000D01*
X20585000Y-9320000D02*
X20585000Y-9430000D01*
X19755000Y-8957500D02*
X19550000Y-8957500D01*
X19805000Y-11148000D02*
X20355000Y-11148000D01*
X19400000Y-10300000D02*
X19545000Y-10300000D01*
X19652500Y-8320000D02*
X19755000Y-8320000D01*
X20405000Y-8320000D02*
X20405000Y-8380000D01*
X19805000Y-10007000D02*
X20355000Y-10007000D01*
X20405000Y-11177181D02*
X20405000Y-11195000D01*
X19545000Y-10102500D02*
X19545000Y-10300000D01*
X20475000Y-8970000D02*
X20475000Y-8957500D01*
X20535000Y-11575000D02*
X20535000Y-11595000D01*
X20355000Y-8380000D02*
X19805000Y-8380000D01*
X20590000Y-9880000D02*
X20540000Y-9880000D01*
X16600000Y-11690000D02*
G75*
G03*
X16675000Y-11615000I0J75000D01*
G01*
X20535000Y-11595000D02*
X20585000Y-11595000D01*
X20585000Y-11295000D02*
X20535000Y-11295000D01*
X20355000Y-8880000D02*
X20355000Y-8957500D01*
X19400000Y-11337181D02*
X19735000Y-11337181D01*
X20355000Y-11148000D02*
X20355000Y-11219681D01*
X20405000Y-8320000D02*
X20585000Y-8320000D01*
X20355000Y-9445000D02*
X20355000Y-9517500D01*
X19805000Y-10588000D02*
X19805000Y-10622500D01*
X20405000Y-11132181D02*
X20405000Y-11177181D01*
X20585000Y-8220000D02*
X20535000Y-8220000D01*
X20585000Y-11022181D02*
X20585000Y-11132181D01*
X19545000Y-9517500D02*
X19545000Y-9700000D01*
X20405000Y-8957500D02*
X20475000Y-8957500D01*
X20475000Y-10165000D02*
X20475000Y-10120000D01*
X19805000Y-8320000D02*
X20355000Y-8320000D01*
X19400000Y-9800000D02*
X19545000Y-9800000D01*
X19400000Y-8700000D02*
X19652500Y-8700000D01*
X20435000Y-11195000D02*
X20405000Y-11195000D01*
X20405000Y-10659681D02*
X20475000Y-10659681D01*
X19755000Y-11219681D02*
X19755000Y-11237181D01*
X19755000Y-8320000D02*
X19755000Y-8380000D01*
X20585000Y-10165000D02*
X20475000Y-10165000D01*
X18125000Y-11425000D02*
X18125000Y-11625000D01*
X19755000Y-9430000D02*
X19755000Y-9517500D01*
X20535000Y-9130000D02*
X20585000Y-9130000D01*
X20355000Y-10588000D02*
X20355000Y-10622500D01*
X19652500Y-7820000D02*
X19652500Y-8100000D01*
X19550000Y-8957500D02*
X19550000Y-9100000D01*
X20535000Y-9320000D02*
X20535000Y-9130000D01*
X19755000Y-8380000D02*
X19652500Y-8380000D01*
X20532500Y-8780000D02*
X20575000Y-8780000D01*
X19545000Y-10102500D02*
X19755000Y-10102500D01*
X19805000Y-10007000D02*
X19805000Y-10102500D01*
X20575000Y-8380000D02*
X20575000Y-8480000D01*
X16800000Y-11299996D02*
G75*
G03*
X16675000Y-11420000I0J-125104D01*
G01*
X19805000Y-8880000D02*
X19805000Y-8957500D01*
X20532500Y-8480000D02*
X20575000Y-8480000D01*
X20585000Y-11595000D02*
X20585000Y-11695000D01*
X16674995Y-7788033D02*
G75*
G03*
X16590000Y-7713033I-75585J3D01*
G01*
X19400000Y-8600000D02*
X19652500Y-8600000D01*
X16800000Y-11300000D02*
X18000000Y-11300000D01*
X19400000Y-11237181D02*
X19400000Y-10937500D01*
X20540000Y-9690000D02*
X20590000Y-9690000D01*
X19805000Y-11219681D02*
X19805000Y-11148000D01*
X19805000Y-11219681D02*
X19805000Y-11237500D01*
X16675000Y-7975000D02*
G75*
G03*
X16800000Y-8100000I125000J0D01*
G01*
X20535000Y-10275000D02*
X20585000Y-10275000D01*
X19400000Y-10400000D02*
X19545000Y-10400000D01*
X19652500Y-8700000D02*
X19652500Y-8880000D01*
X20355000Y-8957500D02*
X19805000Y-8957500D01*
X19550000Y-11132181D02*
X19755000Y-11132181D01*
X20585000Y-10722181D02*
X20585000Y-10832181D01*
D11*
X15075938Y-12015476D02*
X15075938Y-11815476D01*
X15123557Y-11815476D01*
X15152129Y-11825000D01*
X15171176Y-11844048D01*
X15180700Y-11863095D01*
X15190224Y-11901190D01*
X15190224Y-11929762D01*
X15180700Y-11967857D01*
X15171176Y-11986905D01*
X15152129Y-12005952D01*
X15123557Y-12015476D01*
X15075938Y-12015476D01*
X15275938Y-12015476D02*
X15275938Y-11882143D01*
X15275938Y-11920238D02*
X15285462Y-11901190D01*
X15294986Y-11891667D01*
X15314033Y-11882143D01*
X15333081Y-11882143D01*
X15399748Y-12015476D02*
X15399748Y-11882143D01*
X15399748Y-11815476D02*
X15390224Y-11825000D01*
X15399748Y-11834524D01*
X15409271Y-11825000D01*
X15399748Y-11815476D01*
X15399748Y-11834524D01*
X15523557Y-12015476D02*
X15504510Y-12005952D01*
X15494986Y-11986905D01*
X15494986Y-11815476D01*
X15628319Y-12015476D02*
X15609271Y-12005952D01*
X15599748Y-11986905D01*
X15599748Y-11815476D01*
X15856891Y-12015476D02*
X15856891Y-11815476D01*
X15923557Y-11958333D01*
X15990224Y-11815476D01*
X15990224Y-12015476D01*
X16171176Y-12015476D02*
X16171176Y-11910714D01*
X16161652Y-11891667D01*
X16142605Y-11882143D01*
X16104510Y-11882143D01*
X16085462Y-11891667D01*
X16171176Y-12005952D02*
X16152129Y-12015476D01*
X16104510Y-12015476D01*
X16085462Y-12005952D01*
X16075938Y-11986905D01*
X16075938Y-11967857D01*
X16085462Y-11948809D01*
X16104510Y-11939286D01*
X16152129Y-11939286D01*
X16171176Y-11929762D01*
X16266414Y-11882143D02*
X16266414Y-12082143D01*
X16266414Y-11891667D02*
X16285462Y-11882143D01*
X16323557Y-11882143D01*
X16342605Y-11891667D01*
X16352129Y-11901190D01*
X16361652Y-11920238D01*
X16361652Y-11977381D01*
X16352129Y-11996428D01*
X16342605Y-12005952D01*
X16323557Y-12015476D01*
X16285462Y-12015476D01*
X16266414Y-12005952D01*
X16447367Y-11996428D02*
X16456891Y-12005952D01*
X16447367Y-12015476D01*
X16437843Y-12005952D01*
X16447367Y-11996428D01*
X16447367Y-12015476D01*
X16447367Y-11891667D02*
X16456891Y-11901190D01*
X16447367Y-11910714D01*
X16437843Y-11901190D01*
X16447367Y-11891667D01*
X16447367Y-11910714D01*
M02*
