%TF.GenerationSoftware,KiCad,Pcbnew,6.0.7-f9a2dced07~116~ubuntu20.04.1*%
%TF.CreationDate,2022-09-18T10:29:52+05:30*%
%TF.ProjectId,mushak_pcb,6d757368-616b-45f7-9063-622e6b696361,rev?*%
%TF.SameCoordinates,Original*%
%TF.FileFunction,Soldermask,Bot*%
%TF.FilePolarity,Negative*%
%FSLAX46Y46*%
G04 Gerber Fmt 4.6, Leading zero omitted, Abs format (unit mm)*
G04 Created by KiCad (PCBNEW 6.0.7-f9a2dced07~116~ubuntu20.04.1) date 2022-09-18 10:29:52*
%MOMM*%
%LPD*%
G01*
G04 APERTURE LIST*
G04 Aperture macros list*
%AMRoundRect*
0 Rectangle with rounded corners*
0 $1 Rounding radius*
0 $2 $3 $4 $5 $6 $7 $8 $9 X,Y pos of 4 corners*
0 Add a 4 corners polygon primitive as box body*
4,1,4,$2,$3,$4,$5,$6,$7,$8,$9,$2,$3,0*
0 Add four circle primitives for the rounded corners*
1,1,$1+$1,$2,$3*
1,1,$1+$1,$4,$5*
1,1,$1+$1,$6,$7*
1,1,$1+$1,$8,$9*
0 Add four rect primitives between the rounded corners*
20,1,$1+$1,$2,$3,$4,$5,0*
20,1,$1+$1,$4,$5,$6,$7,0*
20,1,$1+$1,$6,$7,$8,$9,0*
20,1,$1+$1,$8,$9,$2,$3,0*%
%AMHorizOval*
0 Thick line with rounded ends*
0 $1 width*
0 $2 $3 position (X,Y) of the first rounded end (center of the circle)*
0 $4 $5 position (X,Y) of the second rounded end (center of the circle)*
0 Add line between two ends*
20,1,$1,$2,$3,$4,$5,0*
0 Add two circle primitives to create the rounded ends*
1,1,$1,$2,$3*
1,1,$1,$4,$5*%
G04 Aperture macros list end*
%ADD10RoundRect,0.140000X-0.170000X0.140000X-0.170000X-0.140000X0.170000X-0.140000X0.170000X0.140000X0*%
%ADD11RoundRect,0.225000X0.250000X-0.225000X0.250000X0.225000X-0.250000X0.225000X-0.250000X-0.225000X0*%
%ADD12R,1.000000X1.000000*%
%ADD13O,1.600000X1.300000*%
%ADD14R,0.800000X0.400000*%
%ADD15HorizOval,1.300000X-0.147721X0.026047X0.147721X-0.026047X0*%
%ADD16RoundRect,0.250000X-0.600000X-0.750000X0.600000X-0.750000X0.600000X0.750000X-0.600000X0.750000X0*%
%ADD17O,1.700000X2.000000*%
%ADD18O,1.300000X1.600000*%
%ADD19C,1.000000*%
%ADD20HorizOval,1.300000X-0.054975X0.139563X0.054975X-0.139563X0*%
%ADD21HorizOval,1.300000X-0.147721X-0.026047X0.147721X0.026047X0*%
%ADD22HorizOval,1.300000X-0.054975X-0.139563X0.054975X0.139563X0*%
%ADD23RoundRect,0.135000X0.185000X-0.135000X0.185000X0.135000X-0.185000X0.135000X-0.185000X-0.135000X0*%
%ADD24RoundRect,0.135000X-0.135000X-0.185000X0.135000X-0.185000X0.135000X0.185000X-0.135000X0.185000X0*%
%ADD25R,0.900000X1.400000*%
%ADD26RoundRect,0.225000X-0.225000X-0.250000X0.225000X-0.250000X0.225000X0.250000X-0.225000X0.250000X0*%
%ADD27RoundRect,0.140000X0.170000X-0.140000X0.170000X0.140000X-0.170000X0.140000X-0.170000X-0.140000X0*%
G04 APERTURE END LIST*
D10*
%TO.C,C41*%
X200825000Y-81595000D03*
X200825000Y-82555000D03*
%TD*%
D11*
%TO.C,C23*%
X199600000Y-87725000D03*
X199600000Y-86175000D03*
%TD*%
%TO.C,C22*%
X199550000Y-82275000D03*
X199550000Y-80725000D03*
%TD*%
D12*
%TO.C,J4*%
X205250000Y-88300000D03*
X205250000Y-84300000D03*
%TD*%
D13*
%TO.C,J11*%
X176000000Y-92000000D03*
X172000000Y-92000000D03*
%TD*%
D12*
%TO.C,J8*%
X205350000Y-99350000D03*
D14*
X204950000Y-97850000D03*
D12*
X205350000Y-96350000D03*
%TD*%
D15*
%TO.C,J16*%
X153772788Y-85739528D03*
X156727212Y-86260472D03*
%TD*%
D12*
%TO.C,J7*%
X205300000Y-110400000D03*
D14*
X204900000Y-108900000D03*
D12*
X205300000Y-107400000D03*
%TD*%
D13*
%TO.C,J13*%
X172000000Y-102000000D03*
X176000000Y-102000000D03*
%TD*%
D12*
%TO.C,J6*%
X205300000Y-105200000D03*
D14*
X204900000Y-103700000D03*
D12*
X205300000Y-102200000D03*
%TD*%
D16*
%TO.C,J2*%
X188250000Y-85400000D03*
D17*
X190750000Y-85400000D03*
%TD*%
D12*
%TO.C,J17*%
X205350000Y-115900000D03*
X205350000Y-111900000D03*
%TD*%
D18*
%TO.C,J15*%
X150750000Y-95000000D03*
X150750000Y-99000000D03*
%TD*%
D12*
%TO.C,J5*%
X205370000Y-82700000D03*
X205370000Y-78700000D03*
%TD*%
D19*
%TO.C,M1*%
X184925000Y-103575000D03*
X184975000Y-105125000D03*
%TD*%
D20*
%TO.C,J14*%
X151700248Y-89604374D03*
X152799752Y-92395626D03*
%TD*%
D21*
%TO.C,J10*%
X153822788Y-108260472D03*
X156777212Y-107739528D03*
%TD*%
D12*
%TO.C,J9*%
X205300000Y-93750000D03*
D14*
X204900000Y-92250000D03*
D12*
X205300000Y-90750000D03*
%TD*%
D22*
%TO.C,J12*%
X151700248Y-104395626D03*
X152799752Y-101604374D03*
%TD*%
D23*
%TO.C,R6*%
X203500000Y-104210000D03*
X203500000Y-103190000D03*
%TD*%
D24*
%TO.C,R10*%
X200590000Y-78975000D03*
X201610000Y-78975000D03*
%TD*%
D25*
%TO.C,D4*%
X196602500Y-97550000D03*
X199302500Y-97550000D03*
%TD*%
D11*
%TO.C,C29*%
X204050000Y-114675000D03*
X204050000Y-113125000D03*
%TD*%
D10*
%TO.C,C40*%
X200825000Y-87045000D03*
X200825000Y-88005000D03*
%TD*%
D26*
%TO.C,C38*%
X202175000Y-96000000D03*
X203725000Y-96000000D03*
%TD*%
D25*
%TO.C,D2*%
X196550000Y-103400000D03*
X199250000Y-103400000D03*
%TD*%
D24*
%TO.C,R9*%
X200590000Y-80000000D03*
X201610000Y-80000000D03*
%TD*%
%TO.C,R5*%
X200665000Y-84700000D03*
X201685000Y-84700000D03*
%TD*%
D25*
%TO.C,D5*%
X196650000Y-91950000D03*
X199350000Y-91950000D03*
%TD*%
D23*
%TO.C,R13*%
X203550000Y-98310000D03*
X203550000Y-97290000D03*
%TD*%
%TO.C,R22*%
X203600000Y-92760000D03*
X203600000Y-91740000D03*
%TD*%
D25*
%TO.C,D3*%
X196652500Y-108600000D03*
X199352500Y-108600000D03*
%TD*%
D27*
%TO.C,C30*%
X202050000Y-114380000D03*
X202050000Y-113420000D03*
%TD*%
D23*
%TO.C,R11*%
X203550000Y-109410000D03*
X203550000Y-108390000D03*
%TD*%
D26*
%TO.C,C34*%
X202125000Y-101900000D03*
X203675000Y-101900000D03*
%TD*%
%TO.C,C39*%
X202225000Y-90450000D03*
X203775000Y-90450000D03*
%TD*%
D19*
%TO.C,M2*%
X184975000Y-90475000D03*
X185025000Y-88925000D03*
%TD*%
D24*
%TO.C,R8*%
X200665000Y-85725000D03*
X201685000Y-85725000D03*
%TD*%
D26*
%TO.C,C35*%
X202175000Y-107100000D03*
X203725000Y-107100000D03*
%TD*%
M02*
