%TF.GenerationSoftware,KiCad,Pcbnew,6.0.7-f9a2dced07~116~ubuntu20.04.1*%
%TF.CreationDate,2022-09-18T10:29:57+05:30*%
%TF.ProjectId,mushak_pcb,6d757368-616b-45f7-9063-622e6b696361,rev?*%
%TF.SameCoordinates,Original*%
%TF.FileFunction,Drillmap*%
%TF.FilePolarity,Positive*%
%FSLAX45Y45*%
G04 Gerber Fmt 4.5, Leading zero omitted, Abs format (unit mm)*
G04 Created by KiCad (PCBNEW 6.0.7-f9a2dced07~116~ubuntu20.04.1) date 2022-09-18 10:29:57*
%MOMM*%
%LPD*%
G01*
G04 APERTURE LIST*
%ADD10C,0.100000*%
%ADD11C,0.200000*%
%ADD12C,0.030000*%
%ADD13C,0.050000*%
%ADD14C,0.090000*%
G04 APERTURE END LIST*
D10*
X19400000Y-9100000D02*
X19550000Y-9100000D01*
X19400000Y-8600000D02*
X19400000Y-8200000D01*
X20405000Y-8380000D02*
X20575000Y-8380000D01*
X19545000Y-9990000D02*
X19755000Y-9990000D01*
X19550000Y-10900000D02*
X19550000Y-11095000D01*
X20485000Y-11580000D02*
X19735000Y-11580000D01*
X19550000Y-9430000D02*
X19755000Y-9430000D01*
X20480000Y-9580000D02*
X20480000Y-9525000D01*
X19400000Y-10800000D02*
X19550000Y-10800000D01*
X19000000Y-11700000D02*
X18200000Y-11700000D01*
X16800000Y-8100000D02*
X18000000Y-8100000D01*
X20535000Y-10795000D02*
X20535000Y-10985000D01*
X19400000Y-10300000D02*
X19400000Y-9800000D01*
X20535000Y-10985000D02*
X20585000Y-10985000D01*
X19400000Y-8100000D02*
X19665000Y-8100000D01*
X19735000Y-11200000D02*
X19755000Y-11200000D01*
X20585000Y-10275000D02*
X20585000Y-10165000D01*
X19755000Y-9990000D02*
X19755000Y-10115000D01*
X20585000Y-9130000D02*
X20585000Y-9020000D01*
X20535000Y-8220000D02*
X20535000Y-7920000D01*
X16675000Y-11615000D02*
X16675000Y-11420000D01*
X20405000Y-8880000D02*
X20405000Y-8965000D01*
X20585000Y-8320000D02*
X20585000Y-8220000D01*
X20475000Y-9020000D02*
X20475000Y-8970000D01*
X19400000Y-10800000D02*
X19400000Y-10400000D01*
X19805000Y-10635000D02*
X20355000Y-10635000D01*
X18200000Y-7700000D02*
G75*
G03*
X18125000Y-7775000I0J-75000D01*
G01*
X20590000Y-9990000D02*
X20590000Y-9880000D01*
X20475000Y-10685000D02*
X20475000Y-10635000D01*
X20585000Y-10795000D02*
X20535000Y-10795000D01*
X20405000Y-10115000D02*
X20475000Y-10115000D01*
X20535000Y-7920000D02*
X20585000Y-7920000D01*
X18125000Y-7975000D02*
X18125000Y-7775000D01*
X19000000Y-11700000D02*
G75*
G03*
X19400000Y-11300000I0J400000D01*
G01*
X19400000Y-9197500D02*
X19550000Y-9197500D01*
X19805000Y-8320000D02*
X19805000Y-8380000D01*
X19545000Y-10575000D02*
X19755000Y-10575000D01*
X18125000Y-11425000D02*
G75*
G03*
X18000000Y-11300000I-125000J0D01*
G01*
X19665000Y-8880000D02*
X19755000Y-8880000D01*
X20480000Y-9990000D02*
X20590000Y-9990000D01*
X20405000Y-9525000D02*
X20480000Y-9525000D01*
X20475000Y-10115000D02*
X20475000Y-10120000D01*
X20355000Y-8880000D02*
X19805000Y-8880000D01*
X20590000Y-9580000D02*
X20480000Y-9580000D01*
X19755000Y-8880000D02*
X19755000Y-8965000D01*
X20535000Y-10465000D02*
X20535000Y-10275000D01*
X20585000Y-7920000D02*
X20585000Y-7820000D01*
X19400000Y-8100000D02*
G75*
G03*
X19000000Y-7700000I-400000J0D01*
G01*
X20585000Y-10465000D02*
X20535000Y-10465000D01*
X19400000Y-11200000D02*
X19735000Y-11200000D01*
X20405000Y-10575000D02*
X20405000Y-10635000D01*
X20585000Y-9020000D02*
X20475000Y-9020000D01*
X18000000Y-8100000D02*
G75*
G03*
X18125000Y-7975000I0J125000D01*
G01*
X19545000Y-9800000D02*
X19545000Y-9990000D01*
X19805000Y-11200000D02*
X20355000Y-11200000D01*
X19755000Y-11095000D02*
X19755000Y-11200000D01*
X19400000Y-9700000D02*
X19545000Y-9700000D01*
X19665000Y-8380000D02*
X19665000Y-8600000D01*
X20405000Y-11095000D02*
X20585000Y-11095000D01*
X20355000Y-9990000D02*
X20355000Y-10115000D01*
X19550000Y-9197500D02*
X19550000Y-9430000D01*
X16675000Y-7975000D02*
X16675000Y-7788033D01*
X19550000Y-10635000D02*
X19755000Y-10635000D01*
X19665000Y-8200000D02*
X19665000Y-8320000D01*
X19400000Y-9700000D02*
X19400000Y-9197500D01*
X20585000Y-10685000D02*
X20475000Y-10685000D01*
X20485000Y-11200000D02*
X20485000Y-11140000D01*
X16590000Y-7713033D02*
G75*
G03*
X16600000Y-11690000I235075J-1987905D01*
G01*
X20535000Y-11240000D02*
X20535000Y-11520000D01*
X20540000Y-9880000D02*
X20540000Y-9690000D01*
X19550000Y-10635000D02*
X19550000Y-10800000D01*
X18125000Y-11625000D02*
G75*
G03*
X18200000Y-11700000I75000J0D01*
G01*
X20485000Y-11140000D02*
X20585000Y-11140000D01*
X20585000Y-7820000D02*
X19665000Y-7820000D01*
X19805000Y-9430000D02*
X19805000Y-9525000D01*
X19805000Y-10115000D02*
X20355000Y-10115000D01*
X20590000Y-9690000D02*
X20590000Y-9580000D01*
X20405000Y-9990000D02*
X20405000Y-10115000D01*
X20405000Y-9430000D02*
X20585000Y-9430000D01*
X19755000Y-10575000D02*
X19755000Y-10635000D01*
X20355000Y-8320000D02*
X20355000Y-8380000D01*
X20355000Y-9525000D02*
X19805000Y-9525000D01*
X19755000Y-9525000D02*
X19545000Y-9525000D01*
X19400000Y-10900000D02*
X19550000Y-10900000D01*
X20535000Y-9320000D02*
X20585000Y-9320000D01*
X20585000Y-11140000D02*
X20585000Y-11240000D01*
X20585000Y-10575000D02*
X20585000Y-10465000D01*
X20405000Y-9430000D02*
X20405000Y-9525000D01*
X20485000Y-11640000D02*
X20485000Y-11580000D01*
X19400000Y-8200000D02*
X19665000Y-8200000D01*
X20525000Y-8770000D02*
X20525000Y-8480000D01*
X20405000Y-9990000D02*
X20480000Y-9990000D01*
X18200000Y-7700000D02*
X19000000Y-7700000D01*
X20585000Y-11640000D02*
X20485000Y-11640000D01*
X19805000Y-9430000D02*
X20355000Y-9430000D01*
X20405000Y-10575000D02*
X20475000Y-10575000D01*
X19400000Y-9100000D02*
X19400000Y-8700000D01*
X19545000Y-10400000D02*
X19545000Y-10575000D01*
X20575000Y-8880000D02*
X20575000Y-8780000D01*
X20405000Y-8880000D02*
X20575000Y-8880000D01*
X20475000Y-10575000D02*
X20585000Y-10575000D01*
X19735000Y-11300000D02*
X19735000Y-11580000D01*
X19805000Y-10575000D02*
X20355000Y-10575000D01*
X20585000Y-9320000D02*
X20585000Y-9430000D01*
X19755000Y-8965000D02*
X19550000Y-8965000D01*
X19805000Y-11095000D02*
X20355000Y-11095000D01*
X19400000Y-10300000D02*
X19545000Y-10300000D01*
X19665000Y-8320000D02*
X19755000Y-8320000D01*
X20405000Y-8320000D02*
X20405000Y-8380000D01*
X19805000Y-9990000D02*
X20355000Y-9990000D01*
X19545000Y-10115000D02*
X19545000Y-10300000D01*
X20475000Y-8970000D02*
X20475000Y-8965000D01*
X20535000Y-11520000D02*
X20535000Y-11540000D01*
X20355000Y-8380000D02*
X19805000Y-8380000D01*
X19805000Y-11095000D02*
X19805000Y-11200000D01*
X20590000Y-9880000D02*
X20540000Y-9880000D01*
X16600000Y-11690000D02*
G75*
G03*
X16675000Y-11615000I0J75000D01*
G01*
X20535000Y-11540000D02*
X20585000Y-11540000D01*
X20585000Y-11240000D02*
X20535000Y-11240000D01*
X20405000Y-11200000D02*
X20485000Y-11200000D01*
X20355000Y-8880000D02*
X20355000Y-8965000D01*
X19400000Y-11300000D02*
X19735000Y-11300000D01*
X20355000Y-11095000D02*
X20355000Y-11200000D01*
X20405000Y-8320000D02*
X20585000Y-8320000D01*
X20355000Y-9430000D02*
X20355000Y-9525000D01*
X19805000Y-10575000D02*
X19805000Y-10635000D01*
X20405000Y-11095000D02*
X20405000Y-11200000D01*
X20585000Y-8220000D02*
X20535000Y-8220000D01*
X20585000Y-10985000D02*
X20585000Y-11095000D01*
X19545000Y-9525000D02*
X19545000Y-9700000D01*
X20405000Y-8965000D02*
X20475000Y-8965000D01*
X20475000Y-10165000D02*
X20475000Y-10120000D01*
X19805000Y-8320000D02*
X20355000Y-8320000D01*
X19400000Y-9800000D02*
X19545000Y-9800000D01*
X19400000Y-8700000D02*
X19665000Y-8700000D01*
X20405000Y-10635000D02*
X20475000Y-10635000D01*
X20525000Y-8770000D02*
X20525000Y-8780000D01*
X19755000Y-8320000D02*
X19755000Y-8380000D01*
X20585000Y-10165000D02*
X20475000Y-10165000D01*
X18125000Y-11425000D02*
X18125000Y-11625000D01*
X19755000Y-9430000D02*
X19755000Y-9525000D01*
X20535000Y-9130000D02*
X20585000Y-9130000D01*
X20355000Y-10575000D02*
X20355000Y-10635000D01*
X19665000Y-7820000D02*
X19665000Y-8100000D01*
X19550000Y-8965000D02*
X19550000Y-9100000D01*
X20535000Y-9320000D02*
X20535000Y-9130000D01*
X19755000Y-8380000D02*
X19665000Y-8380000D01*
X20525000Y-8780000D02*
X20575000Y-8780000D01*
X19545000Y-10115000D02*
X19755000Y-10115000D01*
X19805000Y-9990000D02*
X19805000Y-10115000D01*
X20575000Y-8380000D02*
X20575000Y-8480000D01*
X16800000Y-11299996D02*
G75*
G03*
X16675000Y-11420000I0J-125104D01*
G01*
X19805000Y-8880000D02*
X19805000Y-8965000D01*
X20525000Y-8480000D02*
X20575000Y-8480000D01*
X20585000Y-11540000D02*
X20585000Y-11640000D01*
X16674995Y-7788033D02*
G75*
G03*
X16590000Y-7713033I-75585J3D01*
G01*
X19400000Y-8600000D02*
X19665000Y-8600000D01*
X16800000Y-11300000D02*
X18000000Y-11300000D01*
X19400000Y-11200000D02*
X19400000Y-10900000D01*
X20540000Y-9690000D02*
X20590000Y-9690000D01*
X16675000Y-7975000D02*
G75*
G03*
X16800000Y-8100000I125000J0D01*
G01*
X20535000Y-10275000D02*
X20585000Y-10275000D01*
X19400000Y-10400000D02*
X19545000Y-10400000D01*
X19665000Y-8700000D02*
X19665000Y-8880000D01*
X20355000Y-8965000D02*
X19805000Y-8965000D01*
X19550000Y-11095000D02*
X19755000Y-11095000D01*
X20585000Y-10685000D02*
X20585000Y-10795000D01*
D11*
D12*
X15004950Y-9267500D02*
X15034950Y-9297500D01*
X15034950Y-9267500D02*
X15004950Y-9297500D01*
X15084340Y-9255984D02*
X15114340Y-9285984D01*
X15114340Y-9255984D02*
X15084340Y-9285984D01*
X15340000Y-9448000D02*
X15370000Y-9478000D01*
X15370000Y-9448000D02*
X15340000Y-9478000D01*
X15355000Y-9030000D02*
X15385000Y-9060000D01*
X15385000Y-9030000D02*
X15355000Y-9060000D01*
X15365000Y-8892177D02*
X15395000Y-8922177D01*
X15395000Y-8892177D02*
X15365000Y-8922177D01*
X15375000Y-10030000D02*
X15405000Y-10060000D01*
X15405000Y-10030000D02*
X15375000Y-10060000D01*
X15410000Y-10385000D02*
X15440000Y-10415000D01*
X15440000Y-10385000D02*
X15410000Y-10415000D01*
X15415000Y-9610000D02*
X15445000Y-9640000D01*
X15445000Y-9610000D02*
X15415000Y-9640000D01*
X15425000Y-9525000D02*
X15455000Y-9555000D01*
X15455000Y-9525000D02*
X15425000Y-9555000D01*
X15475000Y-10320000D02*
X15505000Y-10350000D01*
X15505000Y-10320000D02*
X15475000Y-10350000D01*
X15515000Y-8415000D02*
X15545000Y-8445000D01*
X15545000Y-8415000D02*
X15515000Y-8445000D01*
X15585000Y-9190000D02*
X15615000Y-9220000D01*
X15615000Y-9190000D02*
X15585000Y-9220000D01*
X15655000Y-10245000D02*
X15685000Y-10275000D01*
X15685000Y-10245000D02*
X15655000Y-10275000D01*
X15655000Y-10335000D02*
X15685000Y-10365000D01*
X15685000Y-10335000D02*
X15655000Y-10365000D01*
X15655000Y-10425000D02*
X15685000Y-10455000D01*
X15685000Y-10425000D02*
X15655000Y-10455000D01*
X15685000Y-9185000D02*
X15715000Y-9215000D01*
X15715000Y-9185000D02*
X15685000Y-9215000D01*
X15850000Y-10005000D02*
X15880000Y-10035000D01*
X15880000Y-10005000D02*
X15850000Y-10035000D01*
X15859680Y-9924680D02*
X15889680Y-9954680D01*
X15889680Y-9924680D02*
X15859680Y-9954680D01*
X15930000Y-9770000D02*
X15960000Y-9800000D01*
X15960000Y-9770000D02*
X15930000Y-9800000D01*
X15940000Y-9465000D02*
X15970000Y-9495000D01*
X15970000Y-9465000D02*
X15940000Y-9495000D01*
X15940000Y-9695000D02*
X15970000Y-9725000D01*
X15970000Y-9695000D02*
X15940000Y-9725000D01*
X15945000Y-9560000D02*
X15975000Y-9590000D01*
X15975000Y-9560000D02*
X15945000Y-9590000D01*
X15954171Y-10076163D02*
X15984171Y-10106163D01*
X15984171Y-10076163D02*
X15954171Y-10106163D01*
X15955000Y-11030000D02*
X15985000Y-11060000D01*
X15985000Y-11030000D02*
X15955000Y-11060000D01*
X15980000Y-8935000D02*
X16010000Y-8965000D01*
X16010000Y-8935000D02*
X15980000Y-8965000D01*
X16015000Y-8580000D02*
X16045000Y-8610000D01*
X16045000Y-8580000D02*
X16015000Y-8610000D01*
X16015000Y-9325000D02*
X16045000Y-9355000D01*
X16045000Y-9325000D02*
X16015000Y-9355000D01*
X16015000Y-10005000D02*
X16045000Y-10035000D01*
X16045000Y-10005000D02*
X16015000Y-10035000D01*
X16035000Y-9480000D02*
X16065000Y-9510000D01*
X16065000Y-9480000D02*
X16035000Y-9510000D01*
X16105000Y-11092500D02*
X16135000Y-11122500D01*
X16135000Y-11092500D02*
X16105000Y-11122500D01*
X16115000Y-10080000D02*
X16145000Y-10110000D01*
X16145000Y-10080000D02*
X16115000Y-10110000D01*
X16135000Y-9325000D02*
X16165000Y-9355000D01*
X16165000Y-9325000D02*
X16135000Y-9355000D01*
X16215000Y-10075000D02*
X16245000Y-10105000D01*
X16245000Y-10075000D02*
X16215000Y-10105000D01*
X16225000Y-10755000D02*
X16255000Y-10785000D01*
X16255000Y-10755000D02*
X16225000Y-10785000D01*
X16265000Y-10005000D02*
X16295000Y-10035000D01*
X16295000Y-10005000D02*
X16265000Y-10035000D01*
X16315000Y-8435000D02*
X16345000Y-8465000D01*
X16345000Y-8435000D02*
X16315000Y-8465000D01*
X16315000Y-9300000D02*
X16345000Y-9330000D01*
X16345000Y-9300000D02*
X16315000Y-9330000D01*
X16320000Y-10075000D02*
X16350000Y-10105000D01*
X16350000Y-10075000D02*
X16320000Y-10105000D01*
X16320000Y-10800000D02*
X16350000Y-10830000D01*
X16350000Y-10800000D02*
X16320000Y-10830000D01*
X16375000Y-8875000D02*
X16405000Y-8905000D01*
X16405000Y-8875000D02*
X16375000Y-8905000D01*
X16395000Y-10655000D02*
X16425000Y-10685000D01*
X16425000Y-10655000D02*
X16395000Y-10685000D01*
X16395000Y-10740000D02*
X16425000Y-10770000D01*
X16425000Y-10740000D02*
X16395000Y-10770000D01*
X16465000Y-9605000D02*
X16495000Y-9635000D01*
X16495000Y-9605000D02*
X16465000Y-9635000D01*
X16470000Y-9465000D02*
X16500000Y-9495000D01*
X16500000Y-9465000D02*
X16470000Y-9495000D01*
X16497500Y-10885000D02*
X16527500Y-10915000D01*
X16527500Y-10885000D02*
X16497500Y-10915000D01*
X16510000Y-9969950D02*
X16540000Y-9999950D01*
X16540000Y-9969950D02*
X16510000Y-9999950D01*
X16545000Y-9785000D02*
X16575000Y-9815000D01*
X16575000Y-9785000D02*
X16545000Y-9815000D01*
X16565000Y-9660000D02*
X16595000Y-9690000D01*
X16595000Y-9660000D02*
X16565000Y-9690000D01*
X16580000Y-10020000D02*
X16610000Y-10050000D01*
X16610000Y-10020000D02*
X16580000Y-10050000D01*
X16615000Y-9245000D02*
X16645000Y-9275000D01*
X16645000Y-9245000D02*
X16615000Y-9275000D01*
X16635000Y-9435000D02*
X16665000Y-9465000D01*
X16665000Y-9435000D02*
X16635000Y-9465000D01*
X16685000Y-10020000D02*
X16715000Y-10050000D01*
X16715000Y-10020000D02*
X16685000Y-10050000D01*
X16685000Y-10625000D02*
X16715000Y-10655000D01*
X16715000Y-10625000D02*
X16685000Y-10655000D01*
X16686541Y-9222885D02*
X16716541Y-9252885D01*
X16716541Y-9222885D02*
X16686541Y-9252885D01*
X16745000Y-10465000D02*
X16775000Y-10495000D01*
X16775000Y-10465000D02*
X16745000Y-10495000D01*
X16865000Y-8415000D02*
X16895000Y-8445000D01*
X16895000Y-8415000D02*
X16865000Y-8445000D01*
X16940000Y-10385000D02*
X16970000Y-10415000D01*
X16970000Y-10385000D02*
X16940000Y-10415000D01*
X16955000Y-8505000D02*
X16985000Y-8535000D01*
X16985000Y-8505000D02*
X16955000Y-8535000D01*
X16955000Y-8725000D02*
X16985000Y-8755000D01*
X16985000Y-8725000D02*
X16955000Y-8755000D01*
X17035000Y-9675000D02*
X17065000Y-9705000D01*
X17065000Y-9675000D02*
X17035000Y-9705000D01*
X17083000Y-9315000D02*
X17113000Y-9345000D01*
X17113000Y-9315000D02*
X17083000Y-9345000D01*
X17110000Y-9655050D02*
X17140000Y-9685050D01*
X17140000Y-9655050D02*
X17110000Y-9685050D01*
X17110000Y-10500000D02*
X17140000Y-10530000D01*
X17140000Y-10500000D02*
X17110000Y-10530000D01*
X17200000Y-9855000D02*
X17230000Y-9885000D01*
X17230000Y-9855000D02*
X17200000Y-9885000D01*
X17240000Y-10390000D02*
X17270000Y-10420000D01*
X17270000Y-10390000D02*
X17240000Y-10420000D01*
X17245000Y-8880000D02*
X17275000Y-8910000D01*
X17275000Y-8880000D02*
X17245000Y-8910000D01*
X17250000Y-10050000D02*
X17280000Y-10080000D01*
X17280000Y-10050000D02*
X17250000Y-10080000D01*
X17335000Y-9405000D02*
X17365000Y-9435000D01*
X17365000Y-9405000D02*
X17335000Y-9435000D01*
X17405000Y-9250000D02*
X17435000Y-9280000D01*
X17435000Y-9250000D02*
X17405000Y-9280000D01*
X17435000Y-8780000D02*
X17465000Y-8810000D01*
X17465000Y-8780000D02*
X17435000Y-8810000D01*
X17435000Y-10310000D02*
X17465000Y-10340000D01*
X17465000Y-10310000D02*
X17435000Y-10340000D01*
X17520000Y-8480000D02*
X17550000Y-8510000D01*
X17550000Y-8480000D02*
X17520000Y-8510000D01*
X17600000Y-10520000D02*
X17630000Y-10550000D01*
X17630000Y-10520000D02*
X17600000Y-10550000D01*
X17650000Y-9295000D02*
X17680000Y-9325000D01*
X17680000Y-9295000D02*
X17650000Y-9325000D01*
X17875000Y-10105000D02*
X17905000Y-10135000D01*
X17905000Y-10105000D02*
X17875000Y-10135000D01*
X17895000Y-9620000D02*
X17925000Y-9650000D01*
X17925000Y-9620000D02*
X17895000Y-9650000D01*
X17930000Y-9745000D02*
X17960000Y-9775000D01*
X17960000Y-9745000D02*
X17930000Y-9775000D01*
X18010000Y-9849950D02*
X18040000Y-9879950D01*
X18040000Y-9849950D02*
X18010000Y-9879950D01*
X18025000Y-9685000D02*
X18055000Y-9715000D01*
X18055000Y-9685000D02*
X18025000Y-9715000D01*
X18025000Y-10175000D02*
X18055000Y-10205000D01*
X18055000Y-10175000D02*
X18025000Y-10205000D01*
X18075000Y-9550000D02*
X18105000Y-9580000D01*
X18105000Y-9550000D02*
X18075000Y-9580000D01*
X18189680Y-9690320D02*
X18219680Y-9720320D01*
X18219680Y-9690320D02*
X18189680Y-9720320D01*
X18235000Y-9825000D02*
X18265000Y-9855000D01*
X18265000Y-9825000D02*
X18235000Y-9855000D01*
X18270000Y-9535000D02*
X18300000Y-9565000D01*
X18300000Y-9535000D02*
X18270000Y-9565000D01*
X18315000Y-10720000D02*
X18345000Y-10750000D01*
X18345000Y-10720000D02*
X18315000Y-10750000D01*
X18375000Y-11275000D02*
X18405000Y-11305000D01*
X18405000Y-11275000D02*
X18375000Y-11305000D01*
X18385000Y-7880000D02*
X18415000Y-7910000D01*
X18415000Y-7880000D02*
X18385000Y-7910000D01*
X18397450Y-9545000D02*
X18427450Y-9575000D01*
X18427450Y-9545000D02*
X18397450Y-9575000D01*
X18435000Y-9635000D02*
X18465000Y-9665000D01*
X18465000Y-9635000D02*
X18435000Y-9665000D01*
X18445000Y-9244950D02*
X18475000Y-9274950D01*
X18475000Y-9244950D02*
X18445000Y-9274950D01*
X18455000Y-10925000D02*
X18485000Y-10955000D01*
X18485000Y-10925000D02*
X18455000Y-10955000D01*
X18462500Y-10175000D02*
X18492500Y-10205000D01*
X18492500Y-10175000D02*
X18462500Y-10205000D01*
X18525000Y-10650000D02*
X18555000Y-10680000D01*
X18555000Y-10650000D02*
X18525000Y-10680000D01*
X18620000Y-9445000D02*
X18650000Y-9475000D01*
X18650000Y-9445000D02*
X18620000Y-9475000D01*
X18680000Y-8865000D02*
X18710000Y-8895000D01*
X18710000Y-8865000D02*
X18680000Y-8895000D01*
X18775000Y-10065000D02*
X18805000Y-10095000D01*
X18805000Y-10065000D02*
X18775000Y-10095000D01*
X18775000Y-10275000D02*
X18805000Y-10305000D01*
X18805000Y-10275000D02*
X18775000Y-10305000D01*
X18775000Y-10485000D02*
X18805000Y-10515000D01*
X18805000Y-10485000D02*
X18775000Y-10515000D01*
X18885000Y-8205000D02*
X18915000Y-8235000D01*
X18915000Y-8205000D02*
X18885000Y-8235000D01*
X18965000Y-10065000D02*
X18995000Y-10095000D01*
X18995000Y-10065000D02*
X18965000Y-10095000D01*
X18965000Y-10275000D02*
X18995000Y-10305000D01*
X18995000Y-10275000D02*
X18965000Y-10305000D01*
X18965000Y-10485000D02*
X18995000Y-10515000D01*
X18995000Y-10485000D02*
X18965000Y-10515000D01*
X19025000Y-9815000D02*
X19055000Y-9845000D01*
X19055000Y-9815000D02*
X19025000Y-9845000D01*
X19155000Y-10065000D02*
X19185000Y-10095000D01*
X19185000Y-10065000D02*
X19155000Y-10095000D01*
X19155000Y-10275000D02*
X19185000Y-10305000D01*
X19185000Y-10275000D02*
X19155000Y-10305000D01*
X19155000Y-10485000D02*
X19185000Y-10515000D01*
X19185000Y-10485000D02*
X19155000Y-10515000D01*
X19820000Y-11025000D02*
X19850000Y-11055000D01*
X19850000Y-11025000D02*
X19820000Y-11055000D01*
X19830000Y-9925000D02*
X19860000Y-9955000D01*
X19860000Y-9925000D02*
X19830000Y-9955000D01*
X19835000Y-10505000D02*
X19865000Y-10535000D01*
X19865000Y-10505000D02*
X19835000Y-10535000D01*
X19847500Y-8615000D02*
X19877500Y-8645000D01*
X19877500Y-8615000D02*
X19847500Y-8645000D01*
X19847500Y-8745000D02*
X19877500Y-8775000D01*
X19877500Y-8745000D02*
X19847500Y-8775000D01*
X19852500Y-8117500D02*
X19882500Y-8147500D01*
X19882500Y-8117500D02*
X19852500Y-8147500D01*
X19857500Y-8190000D02*
X19887500Y-8220000D01*
X19887500Y-8190000D02*
X19857500Y-8220000D01*
X19890000Y-11365000D02*
X19920000Y-11395000D01*
X19920000Y-11365000D02*
X19890000Y-11395000D01*
X19895000Y-9365000D02*
X19925000Y-9395000D01*
X19925000Y-9365000D02*
X19895000Y-9395000D01*
X20028344Y-11343834D02*
X20058344Y-11373834D01*
X20058344Y-11343834D02*
X20028344Y-11373834D01*
X20035000Y-10165000D02*
X20065000Y-10195000D01*
X20065000Y-10165000D02*
X20035000Y-10195000D01*
X20035000Y-10515000D02*
X20065000Y-10545000D01*
X20065000Y-10515000D02*
X20035000Y-10545000D01*
X20037500Y-9580000D02*
X20067500Y-9610000D01*
X20067500Y-9580000D02*
X20037500Y-9610000D01*
X20037500Y-10685000D02*
X20067500Y-10715000D01*
X20067500Y-10685000D02*
X20037500Y-10715000D01*
X20042500Y-9020000D02*
X20072500Y-9050000D01*
X20072500Y-9020000D02*
X20042500Y-9050000D01*
X20055000Y-9930000D02*
X20085000Y-9960000D01*
X20085000Y-9930000D02*
X20055000Y-9960000D01*
X20060000Y-10295000D02*
X20090000Y-10325000D01*
X20090000Y-10295000D02*
X20060000Y-10325000D01*
X20065000Y-9370000D02*
X20095000Y-9400000D01*
X20095000Y-9370000D02*
X20065000Y-9400000D01*
X20065050Y-9710000D02*
X20095050Y-9740000D01*
X20095050Y-9710000D02*
X20065050Y-9740000D01*
X20070000Y-9150000D02*
X20100000Y-9180000D01*
X20100000Y-9150000D02*
X20070000Y-9180000D01*
X20070000Y-10815000D02*
X20100000Y-10845000D01*
X20100000Y-10815000D02*
X20070000Y-10845000D01*
X20070000Y-11035000D02*
X20100000Y-11065000D01*
X20100000Y-11035000D02*
X20070000Y-11065000D01*
X20093716Y-11389862D02*
X20123716Y-11419862D01*
X20123716Y-11389862D02*
X20093716Y-11419862D01*
X20147500Y-8655000D02*
X20177500Y-8685000D01*
X20177500Y-8655000D02*
X20147500Y-8685000D01*
X20170050Y-8132500D02*
X20200050Y-8162500D01*
X20200050Y-8132500D02*
X20170050Y-8162500D01*
X20177500Y-8055000D02*
X20207500Y-8085000D01*
X20207500Y-8055000D02*
X20177500Y-8085000D01*
X20185000Y-9260000D02*
X20215000Y-9290000D01*
X20215000Y-9260000D02*
X20185000Y-9290000D01*
X20185000Y-9800000D02*
X20215000Y-9830000D01*
X20215000Y-9800000D02*
X20185000Y-9830000D01*
X20185000Y-10370000D02*
X20215000Y-10400000D01*
X20215000Y-10370000D02*
X20185000Y-10400000D01*
X20192500Y-8715000D02*
X20222500Y-8745000D01*
X20222500Y-8715000D02*
X20192500Y-8745000D01*
X20195000Y-10905000D02*
X20225000Y-10935000D01*
X20225000Y-10905000D02*
X20195000Y-10935000D01*
X20260000Y-10260000D02*
X20290000Y-10290000D01*
X20290000Y-10260000D02*
X20260000Y-10290000D01*
X20263341Y-9659295D02*
X20293341Y-9689295D01*
X20293341Y-9659295D02*
X20263341Y-9689295D01*
X20270000Y-10770000D02*
X20300000Y-10800000D01*
X20300000Y-10770000D02*
X20270000Y-10800000D01*
X20271490Y-9101676D02*
X20301490Y-9131676D01*
X20301490Y-9101676D02*
X20271490Y-9131676D01*
X20335000Y-10308950D02*
X20365000Y-10338950D01*
X20365000Y-10308950D02*
X20335000Y-10338950D01*
X20340000Y-9714000D02*
X20370000Y-9744000D01*
X20370000Y-9714000D02*
X20340000Y-9744000D01*
X20340000Y-10827000D02*
X20370000Y-10857000D01*
X20370000Y-10827000D02*
X20340000Y-10857000D01*
X20345000Y-9162000D02*
X20375000Y-9192000D01*
X20375000Y-9162000D02*
X20345000Y-9192000D01*
X20540000Y-8430000D02*
G75*
G03*
X20540000Y-8430000I-15000J0D01*
G01*
X20540000Y-8830000D02*
G75*
G03*
X20540000Y-8830000I-15000J0D01*
G01*
X20545000Y-9075000D02*
G75*
G03*
X20545000Y-9075000I-15000J0D01*
G01*
X20545000Y-9375000D02*
G75*
G03*
X20545000Y-9375000I-15000J0D01*
G01*
X20545000Y-10220000D02*
G75*
G03*
X20545000Y-10220000I-15000J0D01*
G01*
X20545000Y-10520000D02*
G75*
G03*
X20545000Y-10520000I-15000J0D01*
G01*
X20545000Y-10740000D02*
G75*
G03*
X20545000Y-10740000I-15000J0D01*
G01*
X20545000Y-11040000D02*
G75*
G03*
X20545000Y-11040000I-15000J0D01*
G01*
X20550000Y-9635000D02*
G75*
G03*
X20550000Y-9635000I-15000J0D01*
G01*
X20550000Y-9935000D02*
G75*
G03*
X20550000Y-9935000I-15000J0D01*
G01*
X20550000Y-11190000D02*
G75*
G03*
X20550000Y-11190000I-15000J0D01*
G01*
X20550000Y-11590000D02*
G75*
G03*
X20550000Y-11590000I-15000J0D01*
G01*
X20552000Y-7870000D02*
G75*
G03*
X20552000Y-7870000I-15000J0D01*
G01*
X20552000Y-8270000D02*
G75*
G03*
X20552000Y-8270000I-15000J0D01*
G01*
D13*
X18492500Y-10332500D02*
X18492500Y-10382500D01*
X18467500Y-10357500D02*
X18517500Y-10357500D01*
X18497500Y-9022500D02*
X18497500Y-9072500D01*
X18472500Y-9047500D02*
X18522500Y-9047500D01*
X18497500Y-10487500D02*
X18497500Y-10537500D01*
X18472500Y-10512500D02*
X18522500Y-10512500D01*
X18502500Y-8867500D02*
X18502500Y-8917500D01*
X18477500Y-8892500D02*
X18527500Y-8892500D01*
D14*
X15106820Y-9531820D02*
X15106820Y-9468180D01*
X15043180Y-9468180D01*
X15043180Y-9531820D01*
X15106820Y-9531820D01*
D11*
X15030000Y-9490000D02*
X15030000Y-9510000D01*
X15120000Y-9490000D02*
X15120000Y-9510000D01*
X15030000Y-9510000D02*
G75*
G03*
X15120000Y-9510000I45000J0D01*
G01*
X15120000Y-9490000D02*
G75*
G03*
X15030000Y-9490000I-45000J0D01*
G01*
D14*
X15106820Y-9931820D02*
X15106820Y-9868180D01*
X15043180Y-9868180D01*
X15043180Y-9931820D01*
X15106820Y-9931820D01*
D11*
X15030000Y-9890000D02*
X15030000Y-9910000D01*
X15120000Y-9890000D02*
X15120000Y-9910000D01*
X15030000Y-9910000D02*
G75*
G03*
X15120000Y-9910000I45000J0D01*
G01*
X15120000Y-9890000D02*
G75*
G03*
X15030000Y-9890000I-45000J0D01*
G01*
D14*
X15201845Y-8992258D02*
X15201845Y-8928617D01*
X15138205Y-8928617D01*
X15138205Y-8992258D01*
X15201845Y-8992258D01*
D11*
X15215559Y-8953249D02*
X15208229Y-8934641D01*
X15131821Y-8986234D02*
X15124491Y-8967626D01*
X15208229Y-8934641D02*
G75*
G03*
X15124491Y-8967626I-41869J-16493D01*
G01*
X15131821Y-8986234D02*
G75*
G03*
X15215559Y-8953249I41869J16493D01*
G01*
D14*
X15201845Y-10471383D02*
X15201845Y-10407743D01*
X15138205Y-10407743D01*
X15138205Y-10471383D01*
X15201845Y-10471383D01*
D11*
X15131821Y-10413766D02*
X15124491Y-10432374D01*
X15215559Y-10446751D02*
X15208229Y-10465359D01*
X15124491Y-10432374D02*
G75*
G03*
X15208229Y-10465359I41869J-16493D01*
G01*
X15215559Y-10446751D02*
G75*
G03*
X15131821Y-10413766I-41869J16493D01*
G01*
D14*
X15311795Y-9271383D02*
X15311795Y-9207743D01*
X15248155Y-9207743D01*
X15248155Y-9271383D01*
X15311795Y-9271383D01*
D11*
X15325509Y-9232374D02*
X15318179Y-9213766D01*
X15241771Y-9265359D02*
X15234441Y-9246751D01*
X15318179Y-9213766D02*
G75*
G03*
X15234441Y-9246751I-41869J-16493D01*
G01*
X15241771Y-9265359D02*
G75*
G03*
X15325509Y-9232374I41869J16493D01*
G01*
D14*
X15311795Y-10192258D02*
X15311795Y-10128617D01*
X15248155Y-10128617D01*
X15248155Y-10192258D01*
X15311795Y-10192258D01*
D11*
X15241771Y-10134641D02*
X15234441Y-10153249D01*
X15325509Y-10167626D02*
X15318179Y-10186234D01*
X15234441Y-10153249D02*
G75*
G03*
X15318179Y-10186234I41869J-16493D01*
G01*
X15325509Y-10167626D02*
G75*
G03*
X15241771Y-10134641I-41869J16493D01*
G01*
D14*
X15409099Y-8605773D02*
X15409099Y-8542133D01*
X15345459Y-8542133D01*
X15345459Y-8605773D01*
X15409099Y-8605773D01*
D11*
X15394941Y-8531373D02*
X15375245Y-8527900D01*
X15379313Y-8620006D02*
X15359617Y-8616533D01*
X15375245Y-8527900D02*
G75*
G03*
X15359616Y-8616533I-7814J-44316D01*
G01*
X15379313Y-8620006D02*
G75*
G03*
X15394941Y-8531373I7814J44316D01*
G01*
D14*
X15414099Y-10857867D02*
X15414099Y-10794227D01*
X15350459Y-10794227D01*
X15350459Y-10857867D01*
X15414099Y-10857867D01*
D11*
X15384313Y-10779994D02*
X15364617Y-10783467D01*
X15399941Y-10868627D02*
X15380245Y-10872100D01*
X15364616Y-10783467D02*
G75*
G03*
X15380245Y-10872100I7814J-44316D01*
G01*
X15399941Y-10868627D02*
G75*
G03*
X15384313Y-10779994I-7814J44316D01*
G01*
D14*
X15704541Y-8657867D02*
X15704541Y-8594227D01*
X15640901Y-8594227D01*
X15640901Y-8657867D01*
X15704541Y-8657867D01*
D11*
X15690383Y-8583467D02*
X15670687Y-8579994D01*
X15674755Y-8672100D02*
X15655059Y-8668627D01*
X15670687Y-8579994D02*
G75*
G03*
X15655059Y-8668627I-7814J-44316D01*
G01*
X15674755Y-8672100D02*
G75*
G03*
X15690383Y-8583467I7814J44316D01*
G01*
D14*
X15709541Y-10805773D02*
X15709541Y-10742133D01*
X15645901Y-10742133D01*
X15645901Y-10805773D01*
X15709541Y-10805773D01*
D11*
X15679755Y-10727900D02*
X15660059Y-10731373D01*
X15695383Y-10816533D02*
X15675687Y-10820006D01*
X15660059Y-10731373D02*
G75*
G03*
X15675687Y-10820006I7814J-44316D01*
G01*
X15695383Y-10816533D02*
G75*
G03*
X15679755Y-10727900I-7814J44316D01*
G01*
D14*
X17231820Y-9231820D02*
X17231820Y-9168180D01*
X17168180Y-9168180D01*
X17168180Y-9231820D01*
X17231820Y-9231820D01*
D11*
X17210000Y-9155000D02*
X17190000Y-9155000D01*
X17210000Y-9245000D02*
X17190000Y-9245000D01*
X17190000Y-9155000D02*
G75*
G03*
X17190000Y-9245000I0J-45000D01*
G01*
X17210000Y-9245000D02*
G75*
G03*
X17210000Y-9155000I0J45000D01*
G01*
D14*
X17231820Y-10231820D02*
X17231820Y-10168180D01*
X17168180Y-10168180D01*
X17168180Y-10231820D01*
X17231820Y-10231820D01*
D11*
X17190000Y-10245000D02*
X17210000Y-10245000D01*
X17190000Y-10155000D02*
X17210000Y-10155000D01*
X17210000Y-10245000D02*
G75*
G03*
X17210000Y-10155000I0J45000D01*
G01*
X17190000Y-10155000D02*
G75*
G03*
X17190000Y-10245000I0J-45000D01*
G01*
D14*
X17631820Y-9231820D02*
X17631820Y-9168180D01*
X17568180Y-9168180D01*
X17568180Y-9231820D01*
X17631820Y-9231820D01*
D11*
X17610000Y-9155000D02*
X17590000Y-9155000D01*
X17610000Y-9245000D02*
X17590000Y-9245000D01*
X17590000Y-9155000D02*
G75*
G03*
X17590000Y-9245000I0J-45000D01*
G01*
X17610000Y-9245000D02*
G75*
G03*
X17610000Y-9155000I0J45000D01*
G01*
D14*
X17631820Y-10231820D02*
X17631820Y-10168180D01*
X17568180Y-10168180D01*
X17568180Y-10231820D01*
X17631820Y-10231820D01*
D11*
X17590000Y-10245000D02*
X17610000Y-10245000D01*
X17590000Y-10155000D02*
X17610000Y-10155000D01*
X17610000Y-10245000D02*
G75*
G03*
X17610000Y-10155000I0J45000D01*
G01*
X17590000Y-10155000D02*
G75*
G03*
X17590000Y-10245000I0J-45000D01*
G01*
D10*
X18825000Y-8590000D02*
X18875000Y-8540000D01*
X18825000Y-8490000D01*
X18775000Y-8540000D01*
X18825000Y-8590000D01*
X19075000Y-8590000D02*
X19125000Y-8540000D01*
X19075000Y-8490000D01*
X19025000Y-8540000D01*
X19075000Y-8590000D01*
D11*
X15075938Y-12015476D02*
X15075938Y-11815476D01*
X15123557Y-11815476D01*
X15152129Y-11825000D01*
X15171176Y-11844048D01*
X15180700Y-11863095D01*
X15190224Y-11901190D01*
X15190224Y-11929762D01*
X15180700Y-11967857D01*
X15171176Y-11986905D01*
X15152129Y-12005952D01*
X15123557Y-12015476D01*
X15075938Y-12015476D01*
X15275938Y-12015476D02*
X15275938Y-11882143D01*
X15275938Y-11920238D02*
X15285462Y-11901190D01*
X15294986Y-11891667D01*
X15314033Y-11882143D01*
X15333081Y-11882143D01*
X15399748Y-12015476D02*
X15399748Y-11882143D01*
X15399748Y-11815476D02*
X15390224Y-11825000D01*
X15399748Y-11834524D01*
X15409271Y-11825000D01*
X15399748Y-11815476D01*
X15399748Y-11834524D01*
X15523557Y-12015476D02*
X15504510Y-12005952D01*
X15494986Y-11986905D01*
X15494986Y-11815476D01*
X15628319Y-12015476D02*
X15609271Y-12005952D01*
X15599748Y-11986905D01*
X15599748Y-11815476D01*
X15856891Y-12015476D02*
X15856891Y-11815476D01*
X15923557Y-11958333D01*
X15990224Y-11815476D01*
X15990224Y-12015476D01*
X16171176Y-12015476D02*
X16171176Y-11910714D01*
X16161652Y-11891667D01*
X16142605Y-11882143D01*
X16104510Y-11882143D01*
X16085462Y-11891667D01*
X16171176Y-12005952D02*
X16152129Y-12015476D01*
X16104510Y-12015476D01*
X16085462Y-12005952D01*
X16075938Y-11986905D01*
X16075938Y-11967857D01*
X16085462Y-11948809D01*
X16104510Y-11939286D01*
X16152129Y-11939286D01*
X16171176Y-11929762D01*
X16266414Y-11882143D02*
X16266414Y-12082143D01*
X16266414Y-11891667D02*
X16285462Y-11882143D01*
X16323557Y-11882143D01*
X16342605Y-11891667D01*
X16352129Y-11901190D01*
X16361652Y-11920238D01*
X16361652Y-11977381D01*
X16352129Y-11996428D01*
X16342605Y-12005952D01*
X16323557Y-12015476D01*
X16285462Y-12015476D01*
X16266414Y-12005952D01*
X16447367Y-11996428D02*
X16456891Y-12005952D01*
X16447367Y-12015476D01*
X16437843Y-12005952D01*
X16447367Y-11996428D01*
X16447367Y-12015476D01*
X16447367Y-11891667D02*
X16456891Y-11901190D01*
X16447367Y-11910714D01*
X16437843Y-11901190D01*
X16447367Y-11891667D01*
X16447367Y-11910714D01*
D12*
X14788319Y-12330000D02*
X14818319Y-12360000D01*
X14818319Y-12330000D02*
X14788319Y-12360000D01*
D11*
X15114033Y-12235476D02*
X15133081Y-12235476D01*
X15152129Y-12245000D01*
X15161652Y-12254524D01*
X15171176Y-12273571D01*
X15180700Y-12311667D01*
X15180700Y-12359286D01*
X15171176Y-12397381D01*
X15161652Y-12416428D01*
X15152129Y-12425952D01*
X15133081Y-12435476D01*
X15114033Y-12435476D01*
X15094986Y-12425952D01*
X15085462Y-12416428D01*
X15075938Y-12397381D01*
X15066414Y-12359286D01*
X15066414Y-12311667D01*
X15075938Y-12273571D01*
X15085462Y-12254524D01*
X15094986Y-12245000D01*
X15114033Y-12235476D01*
X15266414Y-12416428D02*
X15275938Y-12425952D01*
X15266414Y-12435476D01*
X15256891Y-12425952D01*
X15266414Y-12416428D01*
X15266414Y-12435476D01*
X15342605Y-12235476D02*
X15466414Y-12235476D01*
X15399748Y-12311667D01*
X15428319Y-12311667D01*
X15447367Y-12321190D01*
X15456891Y-12330714D01*
X15466414Y-12349762D01*
X15466414Y-12397381D01*
X15456891Y-12416428D01*
X15447367Y-12425952D01*
X15428319Y-12435476D01*
X15371176Y-12435476D01*
X15352129Y-12425952D01*
X15342605Y-12416428D01*
X15590224Y-12235476D02*
X15609271Y-12235476D01*
X15628319Y-12245000D01*
X15637843Y-12254524D01*
X15647367Y-12273571D01*
X15656891Y-12311667D01*
X15656891Y-12359286D01*
X15647367Y-12397381D01*
X15637843Y-12416428D01*
X15628319Y-12425952D01*
X15609271Y-12435476D01*
X15590224Y-12435476D01*
X15571176Y-12425952D01*
X15561652Y-12416428D01*
X15552129Y-12397381D01*
X15542605Y-12359286D01*
X15542605Y-12311667D01*
X15552129Y-12273571D01*
X15561652Y-12254524D01*
X15571176Y-12245000D01*
X15590224Y-12235476D01*
X15780700Y-12235476D02*
X15799748Y-12235476D01*
X15818795Y-12245000D01*
X15828319Y-12254524D01*
X15837843Y-12273571D01*
X15847367Y-12311667D01*
X15847367Y-12359286D01*
X15837843Y-12397381D01*
X15828319Y-12416428D01*
X15818795Y-12425952D01*
X15799748Y-12435476D01*
X15780700Y-12435476D01*
X15761652Y-12425952D01*
X15752129Y-12416428D01*
X15742605Y-12397381D01*
X15733081Y-12359286D01*
X15733081Y-12311667D01*
X15742605Y-12273571D01*
X15752129Y-12254524D01*
X15761652Y-12245000D01*
X15780700Y-12235476D01*
X15933081Y-12435476D02*
X15933081Y-12302143D01*
X15933081Y-12321190D02*
X15942605Y-12311667D01*
X15961652Y-12302143D01*
X15990224Y-12302143D01*
X16009271Y-12311667D01*
X16018795Y-12330714D01*
X16018795Y-12435476D01*
X16018795Y-12330714D02*
X16028319Y-12311667D01*
X16047367Y-12302143D01*
X16075938Y-12302143D01*
X16094986Y-12311667D01*
X16104510Y-12330714D01*
X16104510Y-12435476D01*
X16199748Y-12435476D02*
X16199748Y-12302143D01*
X16199748Y-12321190D02*
X16209271Y-12311667D01*
X16228319Y-12302143D01*
X16256891Y-12302143D01*
X16275938Y-12311667D01*
X16285462Y-12330714D01*
X16285462Y-12435476D01*
X16285462Y-12330714D02*
X16294986Y-12311667D01*
X16314033Y-12302143D01*
X16342605Y-12302143D01*
X16361652Y-12311667D01*
X16371176Y-12330714D01*
X16371176Y-12435476D01*
X16761652Y-12225952D02*
X16590224Y-12483095D01*
X17018795Y-12235476D02*
X17037843Y-12235476D01*
X17056891Y-12245000D01*
X17066414Y-12254524D01*
X17075938Y-12273571D01*
X17085462Y-12311667D01*
X17085462Y-12359286D01*
X17075938Y-12397381D01*
X17066414Y-12416428D01*
X17056891Y-12425952D01*
X17037843Y-12435476D01*
X17018795Y-12435476D01*
X16999748Y-12425952D01*
X16990224Y-12416428D01*
X16980700Y-12397381D01*
X16971176Y-12359286D01*
X16971176Y-12311667D01*
X16980700Y-12273571D01*
X16990224Y-12254524D01*
X16999748Y-12245000D01*
X17018795Y-12235476D01*
X17171176Y-12416428D02*
X17180700Y-12425952D01*
X17171176Y-12435476D01*
X17161653Y-12425952D01*
X17171176Y-12416428D01*
X17171176Y-12435476D01*
X17304510Y-12235476D02*
X17323557Y-12235476D01*
X17342605Y-12245000D01*
X17352129Y-12254524D01*
X17361653Y-12273571D01*
X17371176Y-12311667D01*
X17371176Y-12359286D01*
X17361653Y-12397381D01*
X17352129Y-12416428D01*
X17342605Y-12425952D01*
X17323557Y-12435476D01*
X17304510Y-12435476D01*
X17285462Y-12425952D01*
X17275938Y-12416428D01*
X17266414Y-12397381D01*
X17256891Y-12359286D01*
X17256891Y-12311667D01*
X17266414Y-12273571D01*
X17275938Y-12254524D01*
X17285462Y-12245000D01*
X17304510Y-12235476D01*
X17561653Y-12435476D02*
X17447367Y-12435476D01*
X17504510Y-12435476D02*
X17504510Y-12235476D01*
X17485462Y-12264048D01*
X17466414Y-12283095D01*
X17447367Y-12292619D01*
X17752129Y-12435476D02*
X17637843Y-12435476D01*
X17694986Y-12435476D02*
X17694986Y-12235476D01*
X17675938Y-12264048D01*
X17656891Y-12283095D01*
X17637843Y-12292619D01*
X17866414Y-12321190D02*
X17847367Y-12311667D01*
X17837843Y-12302143D01*
X17828319Y-12283095D01*
X17828319Y-12273571D01*
X17837843Y-12254524D01*
X17847367Y-12245000D01*
X17866414Y-12235476D01*
X17904510Y-12235476D01*
X17923557Y-12245000D01*
X17933081Y-12254524D01*
X17942605Y-12273571D01*
X17942605Y-12283095D01*
X17933081Y-12302143D01*
X17923557Y-12311667D01*
X17904510Y-12321190D01*
X17866414Y-12321190D01*
X17847367Y-12330714D01*
X17837843Y-12340238D01*
X17828319Y-12359286D01*
X17828319Y-12397381D01*
X17837843Y-12416428D01*
X17847367Y-12425952D01*
X17866414Y-12435476D01*
X17904510Y-12435476D01*
X17923557Y-12425952D01*
X17933081Y-12416428D01*
X17942605Y-12397381D01*
X17942605Y-12359286D01*
X17933081Y-12340238D01*
X17923557Y-12330714D01*
X17904510Y-12321190D01*
X18018795Y-12235476D02*
X18018795Y-12273571D01*
X18094986Y-12235476D02*
X18094986Y-12273571D01*
X18390224Y-12511667D02*
X18380700Y-12502143D01*
X18361653Y-12473571D01*
X18352129Y-12454524D01*
X18342605Y-12425952D01*
X18333081Y-12378333D01*
X18333081Y-12340238D01*
X18342605Y-12292619D01*
X18352129Y-12264048D01*
X18361653Y-12245000D01*
X18380700Y-12216428D01*
X18390224Y-12206905D01*
X18571176Y-12435476D02*
X18456891Y-12435476D01*
X18514033Y-12435476D02*
X18514033Y-12235476D01*
X18494986Y-12264048D01*
X18475938Y-12283095D01*
X18456891Y-12292619D01*
X18742605Y-12302143D02*
X18742605Y-12435476D01*
X18694986Y-12225952D02*
X18647367Y-12368809D01*
X18771176Y-12368809D01*
X18942605Y-12235476D02*
X18847367Y-12235476D01*
X18837843Y-12330714D01*
X18847367Y-12321190D01*
X18866414Y-12311667D01*
X18914033Y-12311667D01*
X18933081Y-12321190D01*
X18942605Y-12330714D01*
X18952129Y-12349762D01*
X18952129Y-12397381D01*
X18942605Y-12416428D01*
X18933081Y-12425952D01*
X18914033Y-12435476D01*
X18866414Y-12435476D01*
X18847367Y-12425952D01*
X18837843Y-12416428D01*
X19190224Y-12435476D02*
X19190224Y-12235476D01*
X19275938Y-12435476D02*
X19275938Y-12330714D01*
X19266414Y-12311667D01*
X19247367Y-12302143D01*
X19218795Y-12302143D01*
X19199748Y-12311667D01*
X19190224Y-12321190D01*
X19399748Y-12435476D02*
X19380700Y-12425952D01*
X19371176Y-12416428D01*
X19361653Y-12397381D01*
X19361653Y-12340238D01*
X19371176Y-12321190D01*
X19380700Y-12311667D01*
X19399748Y-12302143D01*
X19428319Y-12302143D01*
X19447367Y-12311667D01*
X19456891Y-12321190D01*
X19466414Y-12340238D01*
X19466414Y-12397381D01*
X19456891Y-12416428D01*
X19447367Y-12425952D01*
X19428319Y-12435476D01*
X19399748Y-12435476D01*
X19580700Y-12435476D02*
X19561653Y-12425952D01*
X19552129Y-12406905D01*
X19552129Y-12235476D01*
X19733081Y-12425952D02*
X19714033Y-12435476D01*
X19675938Y-12435476D01*
X19656891Y-12425952D01*
X19647367Y-12406905D01*
X19647367Y-12330714D01*
X19656891Y-12311667D01*
X19675938Y-12302143D01*
X19714033Y-12302143D01*
X19733081Y-12311667D01*
X19742605Y-12330714D01*
X19742605Y-12349762D01*
X19647367Y-12368809D01*
X19818795Y-12425952D02*
X19837843Y-12435476D01*
X19875938Y-12435476D01*
X19894986Y-12425952D01*
X19904510Y-12406905D01*
X19904510Y-12397381D01*
X19894986Y-12378333D01*
X19875938Y-12368809D01*
X19847367Y-12368809D01*
X19828319Y-12359286D01*
X19818795Y-12340238D01*
X19818795Y-12330714D01*
X19828319Y-12311667D01*
X19847367Y-12302143D01*
X19875938Y-12302143D01*
X19894986Y-12311667D01*
X19971176Y-12511667D02*
X19980700Y-12502143D01*
X19999748Y-12473571D01*
X20009272Y-12454524D01*
X20018795Y-12425952D01*
X20028319Y-12378333D01*
X20028319Y-12340238D01*
X20018795Y-12292619D01*
X20009272Y-12264048D01*
X19999748Y-12245000D01*
X19980700Y-12216428D01*
X19971176Y-12206905D01*
D12*
X14818319Y-12609000D02*
G75*
G03*
X14818319Y-12609000I-15000J0D01*
G01*
D11*
X15114033Y-12499476D02*
X15133081Y-12499476D01*
X15152129Y-12509000D01*
X15161652Y-12518524D01*
X15171176Y-12537571D01*
X15180700Y-12575667D01*
X15180700Y-12623286D01*
X15171176Y-12661381D01*
X15161652Y-12680428D01*
X15152129Y-12689952D01*
X15133081Y-12699476D01*
X15114033Y-12699476D01*
X15094986Y-12689952D01*
X15085462Y-12680428D01*
X15075938Y-12661381D01*
X15066414Y-12623286D01*
X15066414Y-12575667D01*
X15075938Y-12537571D01*
X15085462Y-12518524D01*
X15094986Y-12509000D01*
X15114033Y-12499476D01*
X15266414Y-12680428D02*
X15275938Y-12689952D01*
X15266414Y-12699476D01*
X15256891Y-12689952D01*
X15266414Y-12680428D01*
X15266414Y-12699476D01*
X15342605Y-12499476D02*
X15466414Y-12499476D01*
X15399748Y-12575667D01*
X15428319Y-12575667D01*
X15447367Y-12585190D01*
X15456891Y-12594714D01*
X15466414Y-12613762D01*
X15466414Y-12661381D01*
X15456891Y-12680428D01*
X15447367Y-12689952D01*
X15428319Y-12699476D01*
X15371176Y-12699476D01*
X15352129Y-12689952D01*
X15342605Y-12680428D01*
X15590224Y-12499476D02*
X15609271Y-12499476D01*
X15628319Y-12509000D01*
X15637843Y-12518524D01*
X15647367Y-12537571D01*
X15656891Y-12575667D01*
X15656891Y-12623286D01*
X15647367Y-12661381D01*
X15637843Y-12680428D01*
X15628319Y-12689952D01*
X15609271Y-12699476D01*
X15590224Y-12699476D01*
X15571176Y-12689952D01*
X15561652Y-12680428D01*
X15552129Y-12661381D01*
X15542605Y-12623286D01*
X15542605Y-12575667D01*
X15552129Y-12537571D01*
X15561652Y-12518524D01*
X15571176Y-12509000D01*
X15590224Y-12499476D01*
X15780700Y-12499476D02*
X15799748Y-12499476D01*
X15818795Y-12509000D01*
X15828319Y-12518524D01*
X15837843Y-12537571D01*
X15847367Y-12575667D01*
X15847367Y-12623286D01*
X15837843Y-12661381D01*
X15828319Y-12680428D01*
X15818795Y-12689952D01*
X15799748Y-12699476D01*
X15780700Y-12699476D01*
X15761652Y-12689952D01*
X15752129Y-12680428D01*
X15742605Y-12661381D01*
X15733081Y-12623286D01*
X15733081Y-12575667D01*
X15742605Y-12537571D01*
X15752129Y-12518524D01*
X15761652Y-12509000D01*
X15780700Y-12499476D01*
X15933081Y-12699476D02*
X15933081Y-12566143D01*
X15933081Y-12585190D02*
X15942605Y-12575667D01*
X15961652Y-12566143D01*
X15990224Y-12566143D01*
X16009271Y-12575667D01*
X16018795Y-12594714D01*
X16018795Y-12699476D01*
X16018795Y-12594714D02*
X16028319Y-12575667D01*
X16047367Y-12566143D01*
X16075938Y-12566143D01*
X16094986Y-12575667D01*
X16104510Y-12594714D01*
X16104510Y-12699476D01*
X16199748Y-12699476D02*
X16199748Y-12566143D01*
X16199748Y-12585190D02*
X16209271Y-12575667D01*
X16228319Y-12566143D01*
X16256891Y-12566143D01*
X16275938Y-12575667D01*
X16285462Y-12594714D01*
X16285462Y-12699476D01*
X16285462Y-12594714D02*
X16294986Y-12575667D01*
X16314033Y-12566143D01*
X16342605Y-12566143D01*
X16361652Y-12575667D01*
X16371176Y-12594714D01*
X16371176Y-12699476D01*
X16761652Y-12489952D02*
X16590224Y-12747095D01*
X17018795Y-12499476D02*
X17037843Y-12499476D01*
X17056891Y-12509000D01*
X17066414Y-12518524D01*
X17075938Y-12537571D01*
X17085462Y-12575667D01*
X17085462Y-12623286D01*
X17075938Y-12661381D01*
X17066414Y-12680428D01*
X17056891Y-12689952D01*
X17037843Y-12699476D01*
X17018795Y-12699476D01*
X16999748Y-12689952D01*
X16990224Y-12680428D01*
X16980700Y-12661381D01*
X16971176Y-12623286D01*
X16971176Y-12575667D01*
X16980700Y-12537571D01*
X16990224Y-12518524D01*
X16999748Y-12509000D01*
X17018795Y-12499476D01*
X17171176Y-12680428D02*
X17180700Y-12689952D01*
X17171176Y-12699476D01*
X17161653Y-12689952D01*
X17171176Y-12680428D01*
X17171176Y-12699476D01*
X17304510Y-12499476D02*
X17323557Y-12499476D01*
X17342605Y-12509000D01*
X17352129Y-12518524D01*
X17361653Y-12537571D01*
X17371176Y-12575667D01*
X17371176Y-12623286D01*
X17361653Y-12661381D01*
X17352129Y-12680428D01*
X17342605Y-12689952D01*
X17323557Y-12699476D01*
X17304510Y-12699476D01*
X17285462Y-12689952D01*
X17275938Y-12680428D01*
X17266414Y-12661381D01*
X17256891Y-12623286D01*
X17256891Y-12575667D01*
X17266414Y-12537571D01*
X17275938Y-12518524D01*
X17285462Y-12509000D01*
X17304510Y-12499476D01*
X17561653Y-12699476D02*
X17447367Y-12699476D01*
X17504510Y-12699476D02*
X17504510Y-12499476D01*
X17485462Y-12528048D01*
X17466414Y-12547095D01*
X17447367Y-12556619D01*
X17752129Y-12699476D02*
X17637843Y-12699476D01*
X17694986Y-12699476D02*
X17694986Y-12499476D01*
X17675938Y-12528048D01*
X17656891Y-12547095D01*
X17637843Y-12556619D01*
X17866414Y-12585190D02*
X17847367Y-12575667D01*
X17837843Y-12566143D01*
X17828319Y-12547095D01*
X17828319Y-12537571D01*
X17837843Y-12518524D01*
X17847367Y-12509000D01*
X17866414Y-12499476D01*
X17904510Y-12499476D01*
X17923557Y-12509000D01*
X17933081Y-12518524D01*
X17942605Y-12537571D01*
X17942605Y-12547095D01*
X17933081Y-12566143D01*
X17923557Y-12575667D01*
X17904510Y-12585190D01*
X17866414Y-12585190D01*
X17847367Y-12594714D01*
X17837843Y-12604238D01*
X17828319Y-12623286D01*
X17828319Y-12661381D01*
X17837843Y-12680428D01*
X17847367Y-12689952D01*
X17866414Y-12699476D01*
X17904510Y-12699476D01*
X17923557Y-12689952D01*
X17933081Y-12680428D01*
X17942605Y-12661381D01*
X17942605Y-12623286D01*
X17933081Y-12604238D01*
X17923557Y-12594714D01*
X17904510Y-12585190D01*
X18018795Y-12499476D02*
X18018795Y-12537571D01*
X18094986Y-12499476D02*
X18094986Y-12537571D01*
X18390224Y-12775667D02*
X18380700Y-12766143D01*
X18361653Y-12737571D01*
X18352129Y-12718524D01*
X18342605Y-12689952D01*
X18333081Y-12642333D01*
X18333081Y-12604238D01*
X18342605Y-12556619D01*
X18352129Y-12528048D01*
X18361653Y-12509000D01*
X18380700Y-12480428D01*
X18390224Y-12470905D01*
X18571176Y-12699476D02*
X18456891Y-12699476D01*
X18514033Y-12699476D02*
X18514033Y-12499476D01*
X18494986Y-12528048D01*
X18475938Y-12547095D01*
X18456891Y-12556619D01*
X18742605Y-12566143D02*
X18742605Y-12699476D01*
X18694986Y-12489952D02*
X18647367Y-12632809D01*
X18771176Y-12632809D01*
X18999748Y-12699476D02*
X18999748Y-12499476D01*
X19085462Y-12699476D02*
X19085462Y-12594714D01*
X19075938Y-12575667D01*
X19056891Y-12566143D01*
X19028319Y-12566143D01*
X19009272Y-12575667D01*
X18999748Y-12585190D01*
X19209272Y-12699476D02*
X19190224Y-12689952D01*
X19180700Y-12680428D01*
X19171176Y-12661381D01*
X19171176Y-12604238D01*
X19180700Y-12585190D01*
X19190224Y-12575667D01*
X19209272Y-12566143D01*
X19237843Y-12566143D01*
X19256891Y-12575667D01*
X19266414Y-12585190D01*
X19275938Y-12604238D01*
X19275938Y-12661381D01*
X19266414Y-12680428D01*
X19256891Y-12689952D01*
X19237843Y-12699476D01*
X19209272Y-12699476D01*
X19390224Y-12699476D02*
X19371176Y-12689952D01*
X19361653Y-12670905D01*
X19361653Y-12499476D01*
X19542605Y-12689952D02*
X19523557Y-12699476D01*
X19485462Y-12699476D01*
X19466414Y-12689952D01*
X19456891Y-12670905D01*
X19456891Y-12594714D01*
X19466414Y-12575667D01*
X19485462Y-12566143D01*
X19523557Y-12566143D01*
X19542605Y-12575667D01*
X19552129Y-12594714D01*
X19552129Y-12613762D01*
X19456891Y-12632809D01*
X19628319Y-12689952D02*
X19647367Y-12699476D01*
X19685462Y-12699476D01*
X19704510Y-12689952D01*
X19714033Y-12670905D01*
X19714033Y-12661381D01*
X19704510Y-12642333D01*
X19685462Y-12632809D01*
X19656891Y-12632809D01*
X19637843Y-12623286D01*
X19628319Y-12604238D01*
X19628319Y-12594714D01*
X19637843Y-12575667D01*
X19656891Y-12566143D01*
X19685462Y-12566143D01*
X19704510Y-12575667D01*
X19780700Y-12775667D02*
X19790224Y-12766143D01*
X19809272Y-12737571D01*
X19818795Y-12718524D01*
X19828319Y-12689952D01*
X19837843Y-12642333D01*
X19837843Y-12604238D01*
X19828319Y-12556619D01*
X19818795Y-12528048D01*
X19809272Y-12509000D01*
X19790224Y-12480428D01*
X19780700Y-12470905D01*
D13*
X14793319Y-12848000D02*
X14793319Y-12898000D01*
X14768319Y-12873000D02*
X14818319Y-12873000D01*
D11*
X15114033Y-12763476D02*
X15133081Y-12763476D01*
X15152129Y-12773000D01*
X15161652Y-12782524D01*
X15171176Y-12801571D01*
X15180700Y-12839667D01*
X15180700Y-12887286D01*
X15171176Y-12925381D01*
X15161652Y-12944428D01*
X15152129Y-12953952D01*
X15133081Y-12963476D01*
X15114033Y-12963476D01*
X15094986Y-12953952D01*
X15085462Y-12944428D01*
X15075938Y-12925381D01*
X15066414Y-12887286D01*
X15066414Y-12839667D01*
X15075938Y-12801571D01*
X15085462Y-12782524D01*
X15094986Y-12773000D01*
X15114033Y-12763476D01*
X15266414Y-12944428D02*
X15275938Y-12953952D01*
X15266414Y-12963476D01*
X15256891Y-12953952D01*
X15266414Y-12944428D01*
X15266414Y-12963476D01*
X15456891Y-12763476D02*
X15361652Y-12763476D01*
X15352129Y-12858714D01*
X15361652Y-12849190D01*
X15380700Y-12839667D01*
X15428319Y-12839667D01*
X15447367Y-12849190D01*
X15456891Y-12858714D01*
X15466414Y-12877762D01*
X15466414Y-12925381D01*
X15456891Y-12944428D01*
X15447367Y-12953952D01*
X15428319Y-12963476D01*
X15380700Y-12963476D01*
X15361652Y-12953952D01*
X15352129Y-12944428D01*
X15590224Y-12763476D02*
X15609271Y-12763476D01*
X15628319Y-12773000D01*
X15637843Y-12782524D01*
X15647367Y-12801571D01*
X15656891Y-12839667D01*
X15656891Y-12887286D01*
X15647367Y-12925381D01*
X15637843Y-12944428D01*
X15628319Y-12953952D01*
X15609271Y-12963476D01*
X15590224Y-12963476D01*
X15571176Y-12953952D01*
X15561652Y-12944428D01*
X15552129Y-12925381D01*
X15542605Y-12887286D01*
X15542605Y-12839667D01*
X15552129Y-12801571D01*
X15561652Y-12782524D01*
X15571176Y-12773000D01*
X15590224Y-12763476D01*
X15780700Y-12763476D02*
X15799748Y-12763476D01*
X15818795Y-12773000D01*
X15828319Y-12782524D01*
X15837843Y-12801571D01*
X15847367Y-12839667D01*
X15847367Y-12887286D01*
X15837843Y-12925381D01*
X15828319Y-12944428D01*
X15818795Y-12953952D01*
X15799748Y-12963476D01*
X15780700Y-12963476D01*
X15761652Y-12953952D01*
X15752129Y-12944428D01*
X15742605Y-12925381D01*
X15733081Y-12887286D01*
X15733081Y-12839667D01*
X15742605Y-12801571D01*
X15752129Y-12782524D01*
X15761652Y-12773000D01*
X15780700Y-12763476D01*
X15933081Y-12963476D02*
X15933081Y-12830143D01*
X15933081Y-12849190D02*
X15942605Y-12839667D01*
X15961652Y-12830143D01*
X15990224Y-12830143D01*
X16009271Y-12839667D01*
X16018795Y-12858714D01*
X16018795Y-12963476D01*
X16018795Y-12858714D02*
X16028319Y-12839667D01*
X16047367Y-12830143D01*
X16075938Y-12830143D01*
X16094986Y-12839667D01*
X16104510Y-12858714D01*
X16104510Y-12963476D01*
X16199748Y-12963476D02*
X16199748Y-12830143D01*
X16199748Y-12849190D02*
X16209271Y-12839667D01*
X16228319Y-12830143D01*
X16256891Y-12830143D01*
X16275938Y-12839667D01*
X16285462Y-12858714D01*
X16285462Y-12963476D01*
X16285462Y-12858714D02*
X16294986Y-12839667D01*
X16314033Y-12830143D01*
X16342605Y-12830143D01*
X16361652Y-12839667D01*
X16371176Y-12858714D01*
X16371176Y-12963476D01*
X16761652Y-12753952D02*
X16590224Y-13011095D01*
X17018795Y-12763476D02*
X17037843Y-12763476D01*
X17056891Y-12773000D01*
X17066414Y-12782524D01*
X17075938Y-12801571D01*
X17085462Y-12839667D01*
X17085462Y-12887286D01*
X17075938Y-12925381D01*
X17066414Y-12944428D01*
X17056891Y-12953952D01*
X17037843Y-12963476D01*
X17018795Y-12963476D01*
X16999748Y-12953952D01*
X16990224Y-12944428D01*
X16980700Y-12925381D01*
X16971176Y-12887286D01*
X16971176Y-12839667D01*
X16980700Y-12801571D01*
X16990224Y-12782524D01*
X16999748Y-12773000D01*
X17018795Y-12763476D01*
X17171176Y-12944428D02*
X17180700Y-12953952D01*
X17171176Y-12963476D01*
X17161653Y-12953952D01*
X17171176Y-12944428D01*
X17171176Y-12963476D01*
X17304510Y-12763476D02*
X17323557Y-12763476D01*
X17342605Y-12773000D01*
X17352129Y-12782524D01*
X17361653Y-12801571D01*
X17371176Y-12839667D01*
X17371176Y-12887286D01*
X17361653Y-12925381D01*
X17352129Y-12944428D01*
X17342605Y-12953952D01*
X17323557Y-12963476D01*
X17304510Y-12963476D01*
X17285462Y-12953952D01*
X17275938Y-12944428D01*
X17266414Y-12925381D01*
X17256891Y-12887286D01*
X17256891Y-12839667D01*
X17266414Y-12801571D01*
X17275938Y-12782524D01*
X17285462Y-12773000D01*
X17304510Y-12763476D01*
X17561653Y-12963476D02*
X17447367Y-12963476D01*
X17504510Y-12963476D02*
X17504510Y-12763476D01*
X17485462Y-12792048D01*
X17466414Y-12811095D01*
X17447367Y-12820619D01*
X17656891Y-12963476D02*
X17694986Y-12963476D01*
X17714033Y-12953952D01*
X17723557Y-12944428D01*
X17742605Y-12915857D01*
X17752129Y-12877762D01*
X17752129Y-12801571D01*
X17742605Y-12782524D01*
X17733081Y-12773000D01*
X17714033Y-12763476D01*
X17675938Y-12763476D01*
X17656891Y-12773000D01*
X17647367Y-12782524D01*
X17637843Y-12801571D01*
X17637843Y-12849190D01*
X17647367Y-12868238D01*
X17656891Y-12877762D01*
X17675938Y-12887286D01*
X17714033Y-12887286D01*
X17733081Y-12877762D01*
X17742605Y-12868238D01*
X17752129Y-12849190D01*
X17818795Y-12763476D02*
X17952129Y-12763476D01*
X17866414Y-12963476D01*
X18018795Y-12763476D02*
X18018795Y-12801571D01*
X18094986Y-12763476D02*
X18094986Y-12801571D01*
X18390224Y-13039667D02*
X18380700Y-13030143D01*
X18361653Y-13001571D01*
X18352129Y-12982524D01*
X18342605Y-12953952D01*
X18333081Y-12906333D01*
X18333081Y-12868238D01*
X18342605Y-12820619D01*
X18352129Y-12792048D01*
X18361653Y-12773000D01*
X18380700Y-12744428D01*
X18390224Y-12734905D01*
X18552129Y-12830143D02*
X18552129Y-12963476D01*
X18504510Y-12753952D02*
X18456891Y-12896809D01*
X18580700Y-12896809D01*
X18809272Y-12963476D02*
X18809272Y-12763476D01*
X18894986Y-12963476D02*
X18894986Y-12858714D01*
X18885462Y-12839667D01*
X18866414Y-12830143D01*
X18837843Y-12830143D01*
X18818795Y-12839667D01*
X18809272Y-12849190D01*
X19018795Y-12963476D02*
X18999748Y-12953952D01*
X18990224Y-12944428D01*
X18980700Y-12925381D01*
X18980700Y-12868238D01*
X18990224Y-12849190D01*
X18999748Y-12839667D01*
X19018795Y-12830143D01*
X19047367Y-12830143D01*
X19066414Y-12839667D01*
X19075938Y-12849190D01*
X19085462Y-12868238D01*
X19085462Y-12925381D01*
X19075938Y-12944428D01*
X19066414Y-12953952D01*
X19047367Y-12963476D01*
X19018795Y-12963476D01*
X19199748Y-12963476D02*
X19180700Y-12953952D01*
X19171176Y-12934905D01*
X19171176Y-12763476D01*
X19352129Y-12953952D02*
X19333081Y-12963476D01*
X19294986Y-12963476D01*
X19275938Y-12953952D01*
X19266414Y-12934905D01*
X19266414Y-12858714D01*
X19275938Y-12839667D01*
X19294986Y-12830143D01*
X19333081Y-12830143D01*
X19352129Y-12839667D01*
X19361653Y-12858714D01*
X19361653Y-12877762D01*
X19266414Y-12896809D01*
X19437843Y-12953952D02*
X19456891Y-12963476D01*
X19494986Y-12963476D01*
X19514033Y-12953952D01*
X19523557Y-12934905D01*
X19523557Y-12925381D01*
X19514033Y-12906333D01*
X19494986Y-12896809D01*
X19466414Y-12896809D01*
X19447367Y-12887286D01*
X19437843Y-12868238D01*
X19437843Y-12858714D01*
X19447367Y-12839667D01*
X19466414Y-12830143D01*
X19494986Y-12830143D01*
X19514033Y-12839667D01*
X19590224Y-13039667D02*
X19599748Y-13030143D01*
X19618795Y-13001571D01*
X19628319Y-12982524D01*
X19637843Y-12953952D01*
X19647367Y-12906333D01*
X19647367Y-12868238D01*
X19637843Y-12820619D01*
X19628319Y-12792048D01*
X19618795Y-12773000D01*
X19599748Y-12744428D01*
X19590224Y-12734905D01*
D14*
X14805139Y-13168820D02*
X14805139Y-13105180D01*
X14741499Y-13105180D01*
X14741499Y-13168820D01*
X14805139Y-13168820D01*
D11*
X15114033Y-13027476D02*
X15133081Y-13027476D01*
X15152129Y-13037000D01*
X15161652Y-13046524D01*
X15171176Y-13065571D01*
X15180700Y-13103667D01*
X15180700Y-13151286D01*
X15171176Y-13189381D01*
X15161652Y-13208428D01*
X15152129Y-13217952D01*
X15133081Y-13227476D01*
X15114033Y-13227476D01*
X15094986Y-13217952D01*
X15085462Y-13208428D01*
X15075938Y-13189381D01*
X15066414Y-13151286D01*
X15066414Y-13103667D01*
X15075938Y-13065571D01*
X15085462Y-13046524D01*
X15094986Y-13037000D01*
X15114033Y-13027476D01*
X15266414Y-13208428D02*
X15275938Y-13217952D01*
X15266414Y-13227476D01*
X15256891Y-13217952D01*
X15266414Y-13208428D01*
X15266414Y-13227476D01*
X15371176Y-13227476D02*
X15409271Y-13227476D01*
X15428319Y-13217952D01*
X15437843Y-13208428D01*
X15456891Y-13179857D01*
X15466414Y-13141762D01*
X15466414Y-13065571D01*
X15456891Y-13046524D01*
X15447367Y-13037000D01*
X15428319Y-13027476D01*
X15390224Y-13027476D01*
X15371176Y-13037000D01*
X15361652Y-13046524D01*
X15352129Y-13065571D01*
X15352129Y-13113190D01*
X15361652Y-13132238D01*
X15371176Y-13141762D01*
X15390224Y-13151286D01*
X15428319Y-13151286D01*
X15447367Y-13141762D01*
X15456891Y-13132238D01*
X15466414Y-13113190D01*
X15590224Y-13027476D02*
X15609271Y-13027476D01*
X15628319Y-13037000D01*
X15637843Y-13046524D01*
X15647367Y-13065571D01*
X15656891Y-13103667D01*
X15656891Y-13151286D01*
X15647367Y-13189381D01*
X15637843Y-13208428D01*
X15628319Y-13217952D01*
X15609271Y-13227476D01*
X15590224Y-13227476D01*
X15571176Y-13217952D01*
X15561652Y-13208428D01*
X15552129Y-13189381D01*
X15542605Y-13151286D01*
X15542605Y-13103667D01*
X15552129Y-13065571D01*
X15561652Y-13046524D01*
X15571176Y-13037000D01*
X15590224Y-13027476D01*
X15780700Y-13027476D02*
X15799748Y-13027476D01*
X15818795Y-13037000D01*
X15828319Y-13046524D01*
X15837843Y-13065571D01*
X15847367Y-13103667D01*
X15847367Y-13151286D01*
X15837843Y-13189381D01*
X15828319Y-13208428D01*
X15818795Y-13217952D01*
X15799748Y-13227476D01*
X15780700Y-13227476D01*
X15761652Y-13217952D01*
X15752129Y-13208428D01*
X15742605Y-13189381D01*
X15733081Y-13151286D01*
X15733081Y-13103667D01*
X15742605Y-13065571D01*
X15752129Y-13046524D01*
X15761652Y-13037000D01*
X15780700Y-13027476D01*
X15933081Y-13227476D02*
X15933081Y-13094143D01*
X15933081Y-13113190D02*
X15942605Y-13103667D01*
X15961652Y-13094143D01*
X15990224Y-13094143D01*
X16009271Y-13103667D01*
X16018795Y-13122714D01*
X16018795Y-13227476D01*
X16018795Y-13122714D02*
X16028319Y-13103667D01*
X16047367Y-13094143D01*
X16075938Y-13094143D01*
X16094986Y-13103667D01*
X16104510Y-13122714D01*
X16104510Y-13227476D01*
X16199748Y-13227476D02*
X16199748Y-13094143D01*
X16199748Y-13113190D02*
X16209271Y-13103667D01*
X16228319Y-13094143D01*
X16256891Y-13094143D01*
X16275938Y-13103667D01*
X16285462Y-13122714D01*
X16285462Y-13227476D01*
X16285462Y-13122714D02*
X16294986Y-13103667D01*
X16314033Y-13094143D01*
X16342605Y-13094143D01*
X16361652Y-13103667D01*
X16371176Y-13122714D01*
X16371176Y-13227476D01*
X16761652Y-13017952D02*
X16590224Y-13275095D01*
X17018795Y-13027476D02*
X17037843Y-13027476D01*
X17056891Y-13037000D01*
X17066414Y-13046524D01*
X17075938Y-13065571D01*
X17085462Y-13103667D01*
X17085462Y-13151286D01*
X17075938Y-13189381D01*
X17066414Y-13208428D01*
X17056891Y-13217952D01*
X17037843Y-13227476D01*
X17018795Y-13227476D01*
X16999748Y-13217952D01*
X16990224Y-13208428D01*
X16980700Y-13189381D01*
X16971176Y-13151286D01*
X16971176Y-13103667D01*
X16980700Y-13065571D01*
X16990224Y-13046524D01*
X16999748Y-13037000D01*
X17018795Y-13027476D01*
X17171176Y-13208428D02*
X17180700Y-13217952D01*
X17171176Y-13227476D01*
X17161653Y-13217952D01*
X17171176Y-13208428D01*
X17171176Y-13227476D01*
X17304510Y-13027476D02*
X17323557Y-13027476D01*
X17342605Y-13037000D01*
X17352129Y-13046524D01*
X17361653Y-13065571D01*
X17371176Y-13103667D01*
X17371176Y-13151286D01*
X17361653Y-13189381D01*
X17352129Y-13208428D01*
X17342605Y-13217952D01*
X17323557Y-13227476D01*
X17304510Y-13227476D01*
X17285462Y-13217952D01*
X17275938Y-13208428D01*
X17266414Y-13189381D01*
X17256891Y-13151286D01*
X17256891Y-13103667D01*
X17266414Y-13065571D01*
X17275938Y-13046524D01*
X17285462Y-13037000D01*
X17304510Y-13027476D01*
X17437843Y-13027476D02*
X17561653Y-13027476D01*
X17494986Y-13103667D01*
X17523557Y-13103667D01*
X17542605Y-13113190D01*
X17552129Y-13122714D01*
X17561653Y-13141762D01*
X17561653Y-13189381D01*
X17552129Y-13208428D01*
X17542605Y-13217952D01*
X17523557Y-13227476D01*
X17466414Y-13227476D01*
X17447367Y-13217952D01*
X17437843Y-13208428D01*
X17742605Y-13027476D02*
X17647367Y-13027476D01*
X17637843Y-13122714D01*
X17647367Y-13113190D01*
X17666414Y-13103667D01*
X17714033Y-13103667D01*
X17733081Y-13113190D01*
X17742605Y-13122714D01*
X17752129Y-13141762D01*
X17752129Y-13189381D01*
X17742605Y-13208428D01*
X17733081Y-13217952D01*
X17714033Y-13227476D01*
X17666414Y-13227476D01*
X17647367Y-13217952D01*
X17637843Y-13208428D01*
X17923557Y-13094143D02*
X17923557Y-13227476D01*
X17875938Y-13017952D02*
X17828319Y-13160809D01*
X17952129Y-13160809D01*
X18018795Y-13027476D02*
X18018795Y-13065571D01*
X18094986Y-13027476D02*
X18094986Y-13065571D01*
X18390224Y-13303667D02*
X18380700Y-13294143D01*
X18361653Y-13265571D01*
X18352129Y-13246524D01*
X18342605Y-13217952D01*
X18333081Y-13170333D01*
X18333081Y-13132238D01*
X18342605Y-13084619D01*
X18352129Y-13056048D01*
X18361653Y-13037000D01*
X18380700Y-13008428D01*
X18390224Y-12998905D01*
X18504510Y-13027476D02*
X18523557Y-13027476D01*
X18542605Y-13037000D01*
X18552129Y-13046524D01*
X18561653Y-13065571D01*
X18571176Y-13103667D01*
X18571176Y-13151286D01*
X18561653Y-13189381D01*
X18552129Y-13208428D01*
X18542605Y-13217952D01*
X18523557Y-13227476D01*
X18504510Y-13227476D01*
X18485462Y-13217952D01*
X18475938Y-13208428D01*
X18466414Y-13189381D01*
X18456891Y-13151286D01*
X18456891Y-13103667D01*
X18466414Y-13065571D01*
X18475938Y-13046524D01*
X18485462Y-13037000D01*
X18504510Y-13027476D01*
X18809272Y-13227476D02*
X18809272Y-13027476D01*
X18894986Y-13227476D02*
X18894986Y-13122714D01*
X18885462Y-13103667D01*
X18866414Y-13094143D01*
X18837843Y-13094143D01*
X18818795Y-13103667D01*
X18809272Y-13113190D01*
X19018795Y-13227476D02*
X18999748Y-13217952D01*
X18990224Y-13208428D01*
X18980700Y-13189381D01*
X18980700Y-13132238D01*
X18990224Y-13113190D01*
X18999748Y-13103667D01*
X19018795Y-13094143D01*
X19047367Y-13094143D01*
X19066414Y-13103667D01*
X19075938Y-13113190D01*
X19085462Y-13132238D01*
X19085462Y-13189381D01*
X19075938Y-13208428D01*
X19066414Y-13217952D01*
X19047367Y-13227476D01*
X19018795Y-13227476D01*
X19199748Y-13227476D02*
X19180700Y-13217952D01*
X19171176Y-13198905D01*
X19171176Y-13027476D01*
X19352129Y-13217952D02*
X19333081Y-13227476D01*
X19294986Y-13227476D01*
X19275938Y-13217952D01*
X19266414Y-13198905D01*
X19266414Y-13122714D01*
X19275938Y-13103667D01*
X19294986Y-13094143D01*
X19333081Y-13094143D01*
X19352129Y-13103667D01*
X19361653Y-13122714D01*
X19361653Y-13141762D01*
X19266414Y-13160809D01*
X19437843Y-13217952D02*
X19456891Y-13227476D01*
X19494986Y-13227476D01*
X19514033Y-13217952D01*
X19523557Y-13198905D01*
X19523557Y-13189381D01*
X19514033Y-13170333D01*
X19494986Y-13160809D01*
X19466414Y-13160809D01*
X19447367Y-13151286D01*
X19437843Y-13132238D01*
X19437843Y-13122714D01*
X19447367Y-13103667D01*
X19466414Y-13094143D01*
X19494986Y-13094143D01*
X19514033Y-13103667D01*
X19761653Y-13151286D02*
X19914033Y-13151286D01*
X19837843Y-13227476D02*
X19837843Y-13075095D01*
X20266414Y-13227476D02*
X20152129Y-13227476D01*
X20209272Y-13227476D02*
X20209272Y-13027476D01*
X20190224Y-13056048D01*
X20171176Y-13075095D01*
X20152129Y-13084619D01*
X20437843Y-13094143D02*
X20437843Y-13227476D01*
X20390224Y-13017952D02*
X20342605Y-13160809D01*
X20466414Y-13160809D01*
X20685462Y-13217952D02*
X20704510Y-13227476D01*
X20742605Y-13227476D01*
X20761653Y-13217952D01*
X20771176Y-13198905D01*
X20771176Y-13189381D01*
X20761653Y-13170333D01*
X20742605Y-13160809D01*
X20714033Y-13160809D01*
X20694986Y-13151286D01*
X20685462Y-13132238D01*
X20685462Y-13122714D01*
X20694986Y-13103667D01*
X20714033Y-13094143D01*
X20742605Y-13094143D01*
X20761653Y-13103667D01*
X20885462Y-13227476D02*
X20866414Y-13217952D01*
X20856891Y-13198905D01*
X20856891Y-13027476D01*
X20990224Y-13227476D02*
X20971176Y-13217952D01*
X20961653Y-13208428D01*
X20952129Y-13189381D01*
X20952129Y-13132238D01*
X20961653Y-13113190D01*
X20971176Y-13103667D01*
X20990224Y-13094143D01*
X21018795Y-13094143D01*
X21037843Y-13103667D01*
X21047367Y-13113190D01*
X21056891Y-13132238D01*
X21056891Y-13189381D01*
X21047367Y-13208428D01*
X21037843Y-13217952D01*
X21018795Y-13227476D01*
X20990224Y-13227476D01*
X21114033Y-13094143D02*
X21190224Y-13094143D01*
X21142605Y-13027476D02*
X21142605Y-13198905D01*
X21152129Y-13217952D01*
X21171176Y-13227476D01*
X21190224Y-13227476D01*
X21247367Y-13217952D02*
X21266414Y-13227476D01*
X21304510Y-13227476D01*
X21323557Y-13217952D01*
X21333081Y-13198905D01*
X21333081Y-13189381D01*
X21323557Y-13170333D01*
X21304510Y-13160809D01*
X21275938Y-13160809D01*
X21256891Y-13151286D01*
X21247367Y-13132238D01*
X21247367Y-13122714D01*
X21256891Y-13103667D01*
X21275938Y-13094143D01*
X21304510Y-13094143D01*
X21323557Y-13103667D01*
X21399748Y-13303667D02*
X21409272Y-13294143D01*
X21428319Y-13265571D01*
X21437843Y-13246524D01*
X21447367Y-13217952D01*
X21456891Y-13170333D01*
X21456891Y-13132238D01*
X21447367Y-13084619D01*
X21437843Y-13056048D01*
X21428319Y-13037000D01*
X21409272Y-13008428D01*
X21399748Y-12998905D01*
D10*
X14768319Y-13451000D02*
X14818319Y-13401000D01*
X14768319Y-13351000D01*
X14718319Y-13401000D01*
X14768319Y-13451000D01*
D11*
X15180700Y-13491476D02*
X15066414Y-13491476D01*
X15123557Y-13491476D02*
X15123557Y-13291476D01*
X15104510Y-13320048D01*
X15085462Y-13339095D01*
X15066414Y-13348619D01*
X15266414Y-13472428D02*
X15275938Y-13481952D01*
X15266414Y-13491476D01*
X15256891Y-13481952D01*
X15266414Y-13472428D01*
X15266414Y-13491476D01*
X15399748Y-13291476D02*
X15418795Y-13291476D01*
X15437843Y-13301000D01*
X15447367Y-13310524D01*
X15456891Y-13329571D01*
X15466414Y-13367667D01*
X15466414Y-13415286D01*
X15456891Y-13453381D01*
X15447367Y-13472428D01*
X15437843Y-13481952D01*
X15418795Y-13491476D01*
X15399748Y-13491476D01*
X15380700Y-13481952D01*
X15371176Y-13472428D01*
X15361652Y-13453381D01*
X15352129Y-13415286D01*
X15352129Y-13367667D01*
X15361652Y-13329571D01*
X15371176Y-13310524D01*
X15380700Y-13301000D01*
X15399748Y-13291476D01*
X15590224Y-13291476D02*
X15609271Y-13291476D01*
X15628319Y-13301000D01*
X15637843Y-13310524D01*
X15647367Y-13329571D01*
X15656891Y-13367667D01*
X15656891Y-13415286D01*
X15647367Y-13453381D01*
X15637843Y-13472428D01*
X15628319Y-13481952D01*
X15609271Y-13491476D01*
X15590224Y-13491476D01*
X15571176Y-13481952D01*
X15561652Y-13472428D01*
X15552129Y-13453381D01*
X15542605Y-13415286D01*
X15542605Y-13367667D01*
X15552129Y-13329571D01*
X15561652Y-13310524D01*
X15571176Y-13301000D01*
X15590224Y-13291476D01*
X15780700Y-13291476D02*
X15799748Y-13291476D01*
X15818795Y-13301000D01*
X15828319Y-13310524D01*
X15837843Y-13329571D01*
X15847367Y-13367667D01*
X15847367Y-13415286D01*
X15837843Y-13453381D01*
X15828319Y-13472428D01*
X15818795Y-13481952D01*
X15799748Y-13491476D01*
X15780700Y-13491476D01*
X15761652Y-13481952D01*
X15752129Y-13472428D01*
X15742605Y-13453381D01*
X15733081Y-13415286D01*
X15733081Y-13367667D01*
X15742605Y-13329571D01*
X15752129Y-13310524D01*
X15761652Y-13301000D01*
X15780700Y-13291476D01*
X15933081Y-13491476D02*
X15933081Y-13358143D01*
X15933081Y-13377190D02*
X15942605Y-13367667D01*
X15961652Y-13358143D01*
X15990224Y-13358143D01*
X16009271Y-13367667D01*
X16018795Y-13386714D01*
X16018795Y-13491476D01*
X16018795Y-13386714D02*
X16028319Y-13367667D01*
X16047367Y-13358143D01*
X16075938Y-13358143D01*
X16094986Y-13367667D01*
X16104510Y-13386714D01*
X16104510Y-13491476D01*
X16199748Y-13491476D02*
X16199748Y-13358143D01*
X16199748Y-13377190D02*
X16209271Y-13367667D01*
X16228319Y-13358143D01*
X16256891Y-13358143D01*
X16275938Y-13367667D01*
X16285462Y-13386714D01*
X16285462Y-13491476D01*
X16285462Y-13386714D02*
X16294986Y-13367667D01*
X16314033Y-13358143D01*
X16342605Y-13358143D01*
X16361652Y-13367667D01*
X16371176Y-13386714D01*
X16371176Y-13491476D01*
X16761652Y-13281952D02*
X16590224Y-13539095D01*
X17018795Y-13291476D02*
X17037843Y-13291476D01*
X17056891Y-13301000D01*
X17066414Y-13310524D01*
X17075938Y-13329571D01*
X17085462Y-13367667D01*
X17085462Y-13415286D01*
X17075938Y-13453381D01*
X17066414Y-13472428D01*
X17056891Y-13481952D01*
X17037843Y-13491476D01*
X17018795Y-13491476D01*
X16999748Y-13481952D01*
X16990224Y-13472428D01*
X16980700Y-13453381D01*
X16971176Y-13415286D01*
X16971176Y-13367667D01*
X16980700Y-13329571D01*
X16990224Y-13310524D01*
X16999748Y-13301000D01*
X17018795Y-13291476D01*
X17171176Y-13472428D02*
X17180700Y-13481952D01*
X17171176Y-13491476D01*
X17161653Y-13481952D01*
X17171176Y-13472428D01*
X17171176Y-13491476D01*
X17304510Y-13291476D02*
X17323557Y-13291476D01*
X17342605Y-13301000D01*
X17352129Y-13310524D01*
X17361653Y-13329571D01*
X17371176Y-13367667D01*
X17371176Y-13415286D01*
X17361653Y-13453381D01*
X17352129Y-13472428D01*
X17342605Y-13481952D01*
X17323557Y-13491476D01*
X17304510Y-13491476D01*
X17285462Y-13481952D01*
X17275938Y-13472428D01*
X17266414Y-13453381D01*
X17256891Y-13415286D01*
X17256891Y-13367667D01*
X17266414Y-13329571D01*
X17275938Y-13310524D01*
X17285462Y-13301000D01*
X17304510Y-13291476D01*
X17437843Y-13291476D02*
X17561653Y-13291476D01*
X17494986Y-13367667D01*
X17523557Y-13367667D01*
X17542605Y-13377190D01*
X17552129Y-13386714D01*
X17561653Y-13405762D01*
X17561653Y-13453381D01*
X17552129Y-13472428D01*
X17542605Y-13481952D01*
X17523557Y-13491476D01*
X17466414Y-13491476D01*
X17447367Y-13481952D01*
X17437843Y-13472428D01*
X17656891Y-13491476D02*
X17694986Y-13491476D01*
X17714033Y-13481952D01*
X17723557Y-13472428D01*
X17742605Y-13443857D01*
X17752129Y-13405762D01*
X17752129Y-13329571D01*
X17742605Y-13310524D01*
X17733081Y-13301000D01*
X17714033Y-13291476D01*
X17675938Y-13291476D01*
X17656891Y-13301000D01*
X17647367Y-13310524D01*
X17637843Y-13329571D01*
X17637843Y-13377190D01*
X17647367Y-13396238D01*
X17656891Y-13405762D01*
X17675938Y-13415286D01*
X17714033Y-13415286D01*
X17733081Y-13405762D01*
X17742605Y-13396238D01*
X17752129Y-13377190D01*
X17923557Y-13358143D02*
X17923557Y-13491476D01*
X17875938Y-13281952D02*
X17828319Y-13424809D01*
X17952129Y-13424809D01*
X18018795Y-13291476D02*
X18018795Y-13329571D01*
X18094986Y-13291476D02*
X18094986Y-13329571D01*
X18390224Y-13567667D02*
X18380700Y-13558143D01*
X18361653Y-13529571D01*
X18352129Y-13510524D01*
X18342605Y-13481952D01*
X18333081Y-13434333D01*
X18333081Y-13396238D01*
X18342605Y-13348619D01*
X18352129Y-13320048D01*
X18361653Y-13301000D01*
X18380700Y-13272428D01*
X18390224Y-13262905D01*
X18456891Y-13310524D02*
X18466414Y-13301000D01*
X18485462Y-13291476D01*
X18533081Y-13291476D01*
X18552129Y-13301000D01*
X18561653Y-13310524D01*
X18571176Y-13329571D01*
X18571176Y-13348619D01*
X18561653Y-13377190D01*
X18447367Y-13491476D01*
X18571176Y-13491476D01*
X18809272Y-13491476D02*
X18809272Y-13291476D01*
X18894986Y-13491476D02*
X18894986Y-13386714D01*
X18885462Y-13367667D01*
X18866414Y-13358143D01*
X18837843Y-13358143D01*
X18818795Y-13367667D01*
X18809272Y-13377190D01*
X19018795Y-13491476D02*
X18999748Y-13481952D01*
X18990224Y-13472428D01*
X18980700Y-13453381D01*
X18980700Y-13396238D01*
X18990224Y-13377190D01*
X18999748Y-13367667D01*
X19018795Y-13358143D01*
X19047367Y-13358143D01*
X19066414Y-13367667D01*
X19075938Y-13377190D01*
X19085462Y-13396238D01*
X19085462Y-13453381D01*
X19075938Y-13472428D01*
X19066414Y-13481952D01*
X19047367Y-13491476D01*
X19018795Y-13491476D01*
X19199748Y-13491476D02*
X19180700Y-13481952D01*
X19171176Y-13462905D01*
X19171176Y-13291476D01*
X19352129Y-13481952D02*
X19333081Y-13491476D01*
X19294986Y-13491476D01*
X19275938Y-13481952D01*
X19266414Y-13462905D01*
X19266414Y-13386714D01*
X19275938Y-13367667D01*
X19294986Y-13358143D01*
X19333081Y-13358143D01*
X19352129Y-13367667D01*
X19361653Y-13386714D01*
X19361653Y-13405762D01*
X19266414Y-13424809D01*
X19437843Y-13481952D02*
X19456891Y-13491476D01*
X19494986Y-13491476D01*
X19514033Y-13481952D01*
X19523557Y-13462905D01*
X19523557Y-13453381D01*
X19514033Y-13434333D01*
X19494986Y-13424809D01*
X19466414Y-13424809D01*
X19447367Y-13415286D01*
X19437843Y-13396238D01*
X19437843Y-13386714D01*
X19447367Y-13367667D01*
X19466414Y-13358143D01*
X19494986Y-13358143D01*
X19514033Y-13367667D01*
X19590224Y-13567667D02*
X19599748Y-13558143D01*
X19618795Y-13529571D01*
X19628319Y-13510524D01*
X19637843Y-13481952D01*
X19647367Y-13434333D01*
X19647367Y-13396238D01*
X19637843Y-13348619D01*
X19628319Y-13320048D01*
X19618795Y-13301000D01*
X19599748Y-13272428D01*
X19590224Y-13262905D01*
M02*
