%TF.GenerationSoftware,KiCad,Pcbnew,6.0.7-f9a2dced07~116~ubuntu20.04.1*%
%TF.CreationDate,2022-09-18T10:29:52+05:30*%
%TF.ProjectId,mushak_pcb,6d757368-616b-45f7-9063-622e6b696361,rev?*%
%TF.SameCoordinates,Original*%
%TF.FileFunction,Legend,Bot*%
%TF.FilePolarity,Positive*%
%FSLAX46Y46*%
G04 Gerber Fmt 4.6, Leading zero omitted, Abs format (unit mm)*
G04 Created by KiCad (PCBNEW 6.0.7-f9a2dced07~116~ubuntu20.04.1) date 2022-09-18 10:29:52*
%MOMM*%
%LPD*%
G01*
G04 APERTURE LIST*
%ADD10C,0.100000*%
%ADD11C,0.080000*%
%ADD12C,0.250000*%
%ADD13C,0.150000*%
%ADD14C,0.025000*%
%ADD15C,0.300000*%
%ADD16C,0.120000*%
%ADD17C,0.127000*%
%ADD18C,0.200000*%
G04 APERTURE END LIST*
D10*
X186433333Y-88200000D02*
X186466666Y-88300000D01*
X186466666Y-88466666D01*
X186433333Y-88533333D01*
X186400000Y-88566666D01*
X186333333Y-88600000D01*
X186266666Y-88600000D01*
X186200000Y-88566666D01*
X186166666Y-88533333D01*
X186133333Y-88466666D01*
X186100000Y-88333333D01*
X186066666Y-88266666D01*
X186033333Y-88233333D01*
X185966666Y-88200000D01*
X185900000Y-88200000D01*
X185833333Y-88233333D01*
X185800000Y-88266666D01*
X185766666Y-88333333D01*
X185766666Y-88500000D01*
X185800000Y-88600000D01*
X186466666Y-89000000D02*
X186433333Y-88933333D01*
X186400000Y-88900000D01*
X186333333Y-88866666D01*
X186133333Y-88866666D01*
X186066666Y-88900000D01*
X186033333Y-88933333D01*
X186000000Y-89000000D01*
X186000000Y-89100000D01*
X186033333Y-89166666D01*
X186066666Y-89200000D01*
X186133333Y-89233333D01*
X186333333Y-89233333D01*
X186400000Y-89200000D01*
X186433333Y-89166666D01*
X186466666Y-89100000D01*
X186466666Y-89000000D01*
X186433333Y-89833333D02*
X186466666Y-89766666D01*
X186466666Y-89633333D01*
X186433333Y-89566666D01*
X186400000Y-89533333D01*
X186333333Y-89500000D01*
X186133333Y-89500000D01*
X186066666Y-89533333D01*
X186033333Y-89566666D01*
X186000000Y-89633333D01*
X186000000Y-89766666D01*
X186033333Y-89833333D01*
X186466666Y-90133333D02*
X186000000Y-90133333D01*
X185766666Y-90133333D02*
X185800000Y-90100000D01*
X185833333Y-90133333D01*
X185800000Y-90166666D01*
X185766666Y-90133333D01*
X185833333Y-90133333D01*
X186433333Y-90733333D02*
X186466666Y-90666666D01*
X186466666Y-90533333D01*
X186433333Y-90466666D01*
X186366666Y-90433333D01*
X186100000Y-90433333D01*
X186033333Y-90466666D01*
X186000000Y-90533333D01*
X186000000Y-90666666D01*
X186033333Y-90733333D01*
X186100000Y-90766666D01*
X186166666Y-90766666D01*
X186233333Y-90433333D01*
X186000000Y-90966666D02*
X186000000Y-91233333D01*
X185766666Y-91066666D02*
X186366666Y-91066666D01*
X186433333Y-91100000D01*
X186466666Y-91166666D01*
X186466666Y-91233333D01*
X186000000Y-91400000D02*
X186466666Y-91566666D01*
X186000000Y-91733333D02*
X186466666Y-91566666D01*
X186633333Y-91500000D01*
X186666666Y-91466666D01*
X186700000Y-91400000D01*
X186466666Y-92633333D02*
X186433333Y-92566666D01*
X186400000Y-92533333D01*
X186333333Y-92500000D01*
X186133333Y-92500000D01*
X186066666Y-92533333D01*
X186033333Y-92566666D01*
X186000000Y-92633333D01*
X186000000Y-92733333D01*
X186033333Y-92800000D01*
X186066666Y-92833333D01*
X186133333Y-92866666D01*
X186333333Y-92866666D01*
X186400000Y-92833333D01*
X186433333Y-92800000D01*
X186466666Y-92733333D01*
X186466666Y-92633333D01*
X186000000Y-93066666D02*
X186000000Y-93333333D01*
X186466666Y-93166666D02*
X185866666Y-93166666D01*
X185800000Y-93200000D01*
X185766666Y-93266666D01*
X185766666Y-93333333D01*
X186466666Y-94500000D02*
X186133333Y-94266666D01*
X186466666Y-94100000D02*
X185766666Y-94100000D01*
X185766666Y-94366666D01*
X185800000Y-94433333D01*
X185833333Y-94466666D01*
X185900000Y-94500000D01*
X186000000Y-94500000D01*
X186066666Y-94466666D01*
X186100000Y-94433333D01*
X186133333Y-94366666D01*
X186133333Y-94100000D01*
X186466666Y-94900000D02*
X186433333Y-94833333D01*
X186400000Y-94800000D01*
X186333333Y-94766666D01*
X186133333Y-94766666D01*
X186066666Y-94800000D01*
X186033333Y-94833333D01*
X186000000Y-94900000D01*
X186000000Y-95000000D01*
X186033333Y-95066666D01*
X186066666Y-95100000D01*
X186133333Y-95133333D01*
X186333333Y-95133333D01*
X186400000Y-95100000D01*
X186433333Y-95066666D01*
X186466666Y-95000000D01*
X186466666Y-94900000D01*
X186466666Y-95433333D02*
X185766666Y-95433333D01*
X186033333Y-95433333D02*
X186000000Y-95500000D01*
X186000000Y-95633333D01*
X186033333Y-95700000D01*
X186066666Y-95733333D01*
X186133333Y-95766666D01*
X186333333Y-95766666D01*
X186400000Y-95733333D01*
X186433333Y-95700000D01*
X186466666Y-95633333D01*
X186466666Y-95500000D01*
X186433333Y-95433333D01*
X186466666Y-96166666D02*
X186433333Y-96100000D01*
X186400000Y-96066666D01*
X186333333Y-96033333D01*
X186133333Y-96033333D01*
X186066666Y-96066666D01*
X186033333Y-96100000D01*
X186000000Y-96166666D01*
X186000000Y-96266666D01*
X186033333Y-96333333D01*
X186066666Y-96366666D01*
X186133333Y-96400000D01*
X186333333Y-96400000D01*
X186400000Y-96366666D01*
X186433333Y-96333333D01*
X186466666Y-96266666D01*
X186466666Y-96166666D01*
X186000000Y-96600000D02*
X186000000Y-96866666D01*
X185766666Y-96700000D02*
X186366666Y-96700000D01*
X186433333Y-96733333D01*
X186466666Y-96800000D01*
X186466666Y-96866666D01*
X186466666Y-97100000D02*
X186000000Y-97100000D01*
X185766666Y-97100000D02*
X185800000Y-97066666D01*
X185833333Y-97100000D01*
X185800000Y-97133333D01*
X185766666Y-97100000D01*
X185833333Y-97100000D01*
X186433333Y-97733333D02*
X186466666Y-97666666D01*
X186466666Y-97533333D01*
X186433333Y-97466666D01*
X186400000Y-97433333D01*
X186333333Y-97400000D01*
X186133333Y-97400000D01*
X186066666Y-97433333D01*
X186033333Y-97466666D01*
X186000000Y-97533333D01*
X186000000Y-97666666D01*
X186033333Y-97733333D01*
X186433333Y-98000000D02*
X186466666Y-98066666D01*
X186466666Y-98200000D01*
X186433333Y-98266666D01*
X186366666Y-98300000D01*
X186333333Y-98300000D01*
X186266666Y-98266666D01*
X186233333Y-98200000D01*
X186233333Y-98100000D01*
X186200000Y-98033333D01*
X186133333Y-98000000D01*
X186100000Y-98000000D01*
X186033333Y-98033333D01*
X186000000Y-98100000D01*
X186000000Y-98200000D01*
X186033333Y-98266666D01*
X186466666Y-99433333D02*
X186100000Y-99433333D01*
X186033333Y-99400000D01*
X186000000Y-99333333D01*
X186000000Y-99200000D01*
X186033333Y-99133333D01*
X186433333Y-99433333D02*
X186466666Y-99366666D01*
X186466666Y-99200000D01*
X186433333Y-99133333D01*
X186366666Y-99100000D01*
X186300000Y-99100000D01*
X186233333Y-99133333D01*
X186200000Y-99200000D01*
X186200000Y-99366666D01*
X186166666Y-99433333D01*
X186000000Y-99766666D02*
X186466666Y-99766666D01*
X186066666Y-99766666D02*
X186033333Y-99800000D01*
X186000000Y-99866666D01*
X186000000Y-99966666D01*
X186033333Y-100033333D01*
X186100000Y-100066666D01*
X186466666Y-100066666D01*
X186466666Y-100700000D02*
X185766666Y-100700000D01*
X186433333Y-100700000D02*
X186466666Y-100633333D01*
X186466666Y-100500000D01*
X186433333Y-100433333D01*
X186400000Y-100400000D01*
X186333333Y-100366666D01*
X186133333Y-100366666D01*
X186066666Y-100400000D01*
X186033333Y-100433333D01*
X186000000Y-100500000D01*
X186000000Y-100633333D01*
X186033333Y-100700000D01*
X186266666Y-101533333D02*
X186266666Y-101866666D01*
X186466666Y-101466666D02*
X185766666Y-101700000D01*
X186466666Y-101933333D01*
X186000000Y-102466666D02*
X186466666Y-102466666D01*
X186000000Y-102166666D02*
X186366666Y-102166666D01*
X186433333Y-102200000D01*
X186466666Y-102266666D01*
X186466666Y-102366666D01*
X186433333Y-102433333D01*
X186400000Y-102466666D01*
X186000000Y-102700000D02*
X186000000Y-102966666D01*
X185766666Y-102800000D02*
X186366666Y-102800000D01*
X186433333Y-102833333D01*
X186466666Y-102900000D01*
X186466666Y-102966666D01*
X186466666Y-103300000D02*
X186433333Y-103233333D01*
X186400000Y-103200000D01*
X186333333Y-103166666D01*
X186133333Y-103166666D01*
X186066666Y-103200000D01*
X186033333Y-103233333D01*
X186000000Y-103300000D01*
X186000000Y-103400000D01*
X186033333Y-103466666D01*
X186066666Y-103500000D01*
X186133333Y-103533333D01*
X186333333Y-103533333D01*
X186400000Y-103500000D01*
X186433333Y-103466666D01*
X186466666Y-103400000D01*
X186466666Y-103300000D01*
X186466666Y-103833333D02*
X186000000Y-103833333D01*
X186066666Y-103833333D02*
X186033333Y-103866666D01*
X186000000Y-103933333D01*
X186000000Y-104033333D01*
X186033333Y-104100000D01*
X186100000Y-104133333D01*
X186466666Y-104133333D01*
X186100000Y-104133333D02*
X186033333Y-104166666D01*
X186000000Y-104233333D01*
X186000000Y-104333333D01*
X186033333Y-104400000D01*
X186100000Y-104433333D01*
X186466666Y-104433333D01*
X186466666Y-105066666D02*
X186100000Y-105066666D01*
X186033333Y-105033333D01*
X186000000Y-104966666D01*
X186000000Y-104833333D01*
X186033333Y-104766666D01*
X186433333Y-105066666D02*
X186466666Y-105000000D01*
X186466666Y-104833333D01*
X186433333Y-104766666D01*
X186366666Y-104733333D01*
X186300000Y-104733333D01*
X186233333Y-104766666D01*
X186200000Y-104833333D01*
X186200000Y-105000000D01*
X186166666Y-105066666D01*
X186000000Y-105300000D02*
X186000000Y-105566666D01*
X185766666Y-105400000D02*
X186366666Y-105400000D01*
X186433333Y-105433333D01*
X186466666Y-105500000D01*
X186466666Y-105566666D01*
X186466666Y-105800000D02*
X186000000Y-105800000D01*
X185766666Y-105800000D02*
X185800000Y-105766666D01*
X185833333Y-105800000D01*
X185800000Y-105833333D01*
X185766666Y-105800000D01*
X185833333Y-105800000D01*
X186466666Y-106233333D02*
X186433333Y-106166666D01*
X186400000Y-106133333D01*
X186333333Y-106100000D01*
X186133333Y-106100000D01*
X186066666Y-106133333D01*
X186033333Y-106166666D01*
X186000000Y-106233333D01*
X186000000Y-106333333D01*
X186033333Y-106400000D01*
X186066666Y-106433333D01*
X186133333Y-106466666D01*
X186333333Y-106466666D01*
X186400000Y-106433333D01*
X186433333Y-106400000D01*
X186466666Y-106333333D01*
X186466666Y-106233333D01*
X186000000Y-106766666D02*
X186466666Y-106766666D01*
X186066666Y-106766666D02*
X186033333Y-106800000D01*
X186000000Y-106866666D01*
X186000000Y-106966666D01*
X186033333Y-107033333D01*
X186100000Y-107066666D01*
X186466666Y-107066666D01*
D11*
X191171428Y-89571428D02*
X190571428Y-89571428D01*
X190571428Y-89714285D01*
X190600000Y-89800000D01*
X190657142Y-89857142D01*
X190714285Y-89885714D01*
X190828571Y-89914285D01*
X190914285Y-89914285D01*
X191028571Y-89885714D01*
X191085714Y-89857142D01*
X191142857Y-89800000D01*
X191171428Y-89714285D01*
X191171428Y-89571428D01*
X191142857Y-90400000D02*
X191171428Y-90342857D01*
X191171428Y-90228571D01*
X191142857Y-90171428D01*
X191085714Y-90142857D01*
X190857142Y-90142857D01*
X190800000Y-90171428D01*
X190771428Y-90228571D01*
X190771428Y-90342857D01*
X190800000Y-90400000D01*
X190857142Y-90428571D01*
X190914285Y-90428571D01*
X190971428Y-90142857D01*
X191142857Y-90657142D02*
X191171428Y-90714285D01*
X191171428Y-90828571D01*
X191142857Y-90885714D01*
X191085714Y-90914285D01*
X191057142Y-90914285D01*
X191000000Y-90885714D01*
X190971428Y-90828571D01*
X190971428Y-90742857D01*
X190942857Y-90685714D01*
X190885714Y-90657142D01*
X190857142Y-90657142D01*
X190800000Y-90685714D01*
X190771428Y-90742857D01*
X190771428Y-90828571D01*
X190800000Y-90885714D01*
X191171428Y-91171428D02*
X190771428Y-91171428D01*
X190571428Y-91171428D02*
X190600000Y-91142857D01*
X190628571Y-91171428D01*
X190600000Y-91200000D01*
X190571428Y-91171428D01*
X190628571Y-91171428D01*
X190771428Y-91714285D02*
X191257142Y-91714285D01*
X191314285Y-91685714D01*
X191342857Y-91657142D01*
X191371428Y-91600000D01*
X191371428Y-91514285D01*
X191342857Y-91457142D01*
X191142857Y-91714285D02*
X191171428Y-91657142D01*
X191171428Y-91542857D01*
X191142857Y-91485714D01*
X191114285Y-91457142D01*
X191057142Y-91428571D01*
X190885714Y-91428571D01*
X190828571Y-91457142D01*
X190800000Y-91485714D01*
X190771428Y-91542857D01*
X190771428Y-91657142D01*
X190800000Y-91714285D01*
X190771428Y-92000000D02*
X191171428Y-92000000D01*
X190828571Y-92000000D02*
X190800000Y-92028571D01*
X190771428Y-92085714D01*
X190771428Y-92171428D01*
X190800000Y-92228571D01*
X190857142Y-92257142D01*
X191171428Y-92257142D01*
X191142857Y-92771428D02*
X191171428Y-92714285D01*
X191171428Y-92600000D01*
X191142857Y-92542857D01*
X191085714Y-92514285D01*
X190857142Y-92514285D01*
X190800000Y-92542857D01*
X190771428Y-92600000D01*
X190771428Y-92714285D01*
X190800000Y-92771428D01*
X190857142Y-92800000D01*
X190914285Y-92800000D01*
X190971428Y-92514285D01*
X191171428Y-93314285D02*
X190571428Y-93314285D01*
X191142857Y-93314285D02*
X191171428Y-93257142D01*
X191171428Y-93142857D01*
X191142857Y-93085714D01*
X191114285Y-93057142D01*
X191057142Y-93028571D01*
X190885714Y-93028571D01*
X190828571Y-93057142D01*
X190800000Y-93085714D01*
X190771428Y-93142857D01*
X190771428Y-93257142D01*
X190800000Y-93314285D01*
X191171428Y-94057142D02*
X190571428Y-94057142D01*
X190800000Y-94057142D02*
X190771428Y-94114285D01*
X190771428Y-94228571D01*
X190800000Y-94285714D01*
X190828571Y-94314285D01*
X190885714Y-94342857D01*
X191057142Y-94342857D01*
X191114285Y-94314285D01*
X191142857Y-94285714D01*
X191171428Y-94228571D01*
X191171428Y-94114285D01*
X191142857Y-94057142D01*
X190771428Y-94542857D02*
X191171428Y-94685714D01*
X190771428Y-94828571D02*
X191171428Y-94685714D01*
X191314285Y-94628571D01*
X191342857Y-94600000D01*
X191371428Y-94542857D01*
X190942857Y-95514285D02*
X190942857Y-95971428D01*
X191114285Y-97057142D02*
X191142857Y-97028571D01*
X191171428Y-96942857D01*
X191171428Y-96885714D01*
X191142857Y-96800000D01*
X191085714Y-96742857D01*
X191028571Y-96714285D01*
X190914285Y-96685714D01*
X190828571Y-96685714D01*
X190714285Y-96714285D01*
X190657142Y-96742857D01*
X190600000Y-96800000D01*
X190571428Y-96885714D01*
X190571428Y-96942857D01*
X190600000Y-97028571D01*
X190628571Y-97057142D01*
X191171428Y-97314285D02*
X190571428Y-97314285D01*
X191171428Y-97571428D02*
X190857142Y-97571428D01*
X190800000Y-97542857D01*
X190771428Y-97485714D01*
X190771428Y-97400000D01*
X190800000Y-97342857D01*
X190828571Y-97314285D01*
X191171428Y-97857142D02*
X190771428Y-97857142D01*
X190571428Y-97857142D02*
X190600000Y-97828571D01*
X190628571Y-97857142D01*
X190600000Y-97885714D01*
X190571428Y-97857142D01*
X190628571Y-97857142D01*
X190771428Y-98142857D02*
X191171428Y-98142857D01*
X190828571Y-98142857D02*
X190800000Y-98171428D01*
X190771428Y-98228571D01*
X190771428Y-98314285D01*
X190800000Y-98371428D01*
X190857142Y-98400000D01*
X191171428Y-98400000D01*
X191171428Y-98685714D02*
X190771428Y-98685714D01*
X190828571Y-98685714D02*
X190800000Y-98714285D01*
X190771428Y-98771428D01*
X190771428Y-98857142D01*
X190800000Y-98914285D01*
X190857142Y-98942857D01*
X191171428Y-98942857D01*
X190857142Y-98942857D02*
X190800000Y-98971428D01*
X190771428Y-99028571D01*
X190771428Y-99114285D01*
X190800000Y-99171428D01*
X190857142Y-99200000D01*
X191171428Y-99200000D01*
X191171428Y-99742857D02*
X190857142Y-99742857D01*
X190800000Y-99714285D01*
X190771428Y-99657142D01*
X190771428Y-99542857D01*
X190800000Y-99485714D01*
X191142857Y-99742857D02*
X191171428Y-99685714D01*
X191171428Y-99542857D01*
X191142857Y-99485714D01*
X191085714Y-99457142D01*
X191028571Y-99457142D01*
X190971428Y-99485714D01*
X190942857Y-99542857D01*
X190942857Y-99685714D01*
X190914285Y-99742857D01*
X190771428Y-99971428D02*
X191171428Y-100114285D01*
X190771428Y-100257142D02*
X191171428Y-100114285D01*
X191314285Y-100057142D01*
X191342857Y-100028571D01*
X191371428Y-99971428D01*
X191171428Y-101228571D02*
X191171428Y-100942857D01*
X190571428Y-100942857D01*
X191171428Y-101514285D02*
X191142857Y-101457142D01*
X191114285Y-101428571D01*
X191057142Y-101400000D01*
X190885714Y-101400000D01*
X190828571Y-101428571D01*
X190800000Y-101457142D01*
X190771428Y-101514285D01*
X190771428Y-101600000D01*
X190800000Y-101657142D01*
X190828571Y-101685714D01*
X190885714Y-101714285D01*
X191057142Y-101714285D01*
X191114285Y-101685714D01*
X191142857Y-101657142D01*
X191171428Y-101600000D01*
X191171428Y-101514285D01*
X190771428Y-101971428D02*
X191171428Y-101971428D01*
X190828571Y-101971428D02*
X190800000Y-102000000D01*
X190771428Y-102057142D01*
X190771428Y-102142857D01*
X190800000Y-102200000D01*
X190857142Y-102228571D01*
X191171428Y-102228571D01*
X191171428Y-102514285D02*
X190571428Y-102514285D01*
X190942857Y-102571428D02*
X191171428Y-102742857D01*
X190771428Y-102742857D02*
X191000000Y-102514285D01*
X191171428Y-103257142D02*
X190857142Y-103257142D01*
X190800000Y-103228571D01*
X190771428Y-103171428D01*
X190771428Y-103057142D01*
X190800000Y-103000000D01*
X191142857Y-103257142D02*
X191171428Y-103200000D01*
X191171428Y-103057142D01*
X191142857Y-103000000D01*
X191085714Y-102971428D01*
X191028571Y-102971428D01*
X190971428Y-103000000D01*
X190942857Y-103057142D01*
X190942857Y-103200000D01*
X190914285Y-103257142D01*
X191171428Y-103542857D02*
X190771428Y-103542857D01*
X190885714Y-103542857D02*
X190828571Y-103571428D01*
X190800000Y-103600000D01*
X190771428Y-103657142D01*
X190771428Y-103714285D01*
D12*
X189054761Y-93788095D02*
X189102380Y-93930952D01*
X189102380Y-94169047D01*
X189054761Y-94264285D01*
X189007142Y-94311904D01*
X188911904Y-94359523D01*
X188816666Y-94359523D01*
X188721428Y-94311904D01*
X188673809Y-94264285D01*
X188626190Y-94169047D01*
X188578571Y-93978571D01*
X188530952Y-93883333D01*
X188483333Y-93835714D01*
X188388095Y-93788095D01*
X188292857Y-93788095D01*
X188197619Y-93835714D01*
X188150000Y-93883333D01*
X188102380Y-93978571D01*
X188102380Y-94216666D01*
X188150000Y-94359523D01*
X189102380Y-95359523D02*
X188626190Y-95026190D01*
X189102380Y-94788095D02*
X188102380Y-94788095D01*
X188102380Y-95169047D01*
X188150000Y-95264285D01*
X188197619Y-95311904D01*
X188292857Y-95359523D01*
X188435714Y-95359523D01*
X188530952Y-95311904D01*
X188578571Y-95264285D01*
X188626190Y-95169047D01*
X188626190Y-94788095D01*
X188816666Y-95740476D02*
X188816666Y-96216666D01*
X189102380Y-95645238D02*
X188102380Y-95978571D01*
X189102380Y-96311904D01*
X188721428Y-96645238D02*
X188721428Y-97407142D01*
X188102380Y-97740476D02*
X189102380Y-98073809D01*
X188102380Y-98407142D01*
X188102380Y-99026190D02*
X188816666Y-99026190D01*
X188959523Y-98978571D01*
X189054761Y-98883333D01*
X189102380Y-98740476D01*
X189102380Y-98645238D01*
X188102380Y-99359523D02*
X188102380Y-99930952D01*
X189102380Y-99645238D02*
X188102380Y-99645238D01*
X189102380Y-100264285D02*
X188102380Y-100264285D01*
D10*
%TO.C,C41*%
X199178571Y-81703571D02*
X199202380Y-81679761D01*
X199226190Y-81608333D01*
X199226190Y-81560714D01*
X199202380Y-81489285D01*
X199154761Y-81441666D01*
X199107142Y-81417857D01*
X199011904Y-81394047D01*
X198940476Y-81394047D01*
X198845238Y-81417857D01*
X198797619Y-81441666D01*
X198750000Y-81489285D01*
X198726190Y-81560714D01*
X198726190Y-81608333D01*
X198750000Y-81679761D01*
X198773809Y-81703571D01*
X198892857Y-82132142D02*
X199226190Y-82132142D01*
X198702380Y-82013095D02*
X199059523Y-81894047D01*
X199059523Y-82203571D01*
X199226190Y-82655952D02*
X199226190Y-82370238D01*
X199226190Y-82513095D02*
X198726190Y-82513095D01*
X198797619Y-82465476D01*
X198845238Y-82417857D01*
X198869047Y-82370238D01*
D13*
%TO.C,C23*%
X201387142Y-86307142D02*
X201434761Y-86259523D01*
X201482380Y-86116666D01*
X201482380Y-86021428D01*
X201434761Y-85878571D01*
X201339523Y-85783333D01*
X201244285Y-85735714D01*
X201053809Y-85688095D01*
X200910952Y-85688095D01*
X200720476Y-85735714D01*
X200625238Y-85783333D01*
X200530000Y-85878571D01*
X200482380Y-86021428D01*
X200482380Y-86116666D01*
X200530000Y-86259523D01*
X200577619Y-86307142D01*
X200577619Y-86688095D02*
X200530000Y-86735714D01*
X200482380Y-86830952D01*
X200482380Y-87069047D01*
X200530000Y-87164285D01*
X200577619Y-87211904D01*
X200672857Y-87259523D01*
X200768095Y-87259523D01*
X200910952Y-87211904D01*
X201482380Y-86640476D01*
X201482380Y-87259523D01*
X200482380Y-87592857D02*
X200482380Y-88211904D01*
X200863333Y-87878571D01*
X200863333Y-88021428D01*
X200910952Y-88116666D01*
X200958571Y-88164285D01*
X201053809Y-88211904D01*
X201291904Y-88211904D01*
X201387142Y-88164285D01*
X201434761Y-88116666D01*
X201482380Y-88021428D01*
X201482380Y-87735714D01*
X201434761Y-87640476D01*
X201387142Y-87592857D01*
%TO.C,C22*%
X201337142Y-80857142D02*
X201384761Y-80809523D01*
X201432380Y-80666666D01*
X201432380Y-80571428D01*
X201384761Y-80428571D01*
X201289523Y-80333333D01*
X201194285Y-80285714D01*
X201003809Y-80238095D01*
X200860952Y-80238095D01*
X200670476Y-80285714D01*
X200575238Y-80333333D01*
X200480000Y-80428571D01*
X200432380Y-80571428D01*
X200432380Y-80666666D01*
X200480000Y-80809523D01*
X200527619Y-80857142D01*
X200527619Y-81238095D02*
X200480000Y-81285714D01*
X200432380Y-81380952D01*
X200432380Y-81619047D01*
X200480000Y-81714285D01*
X200527619Y-81761904D01*
X200622857Y-81809523D01*
X200718095Y-81809523D01*
X200860952Y-81761904D01*
X201432380Y-81190476D01*
X201432380Y-81809523D01*
X200527619Y-82190476D02*
X200480000Y-82238095D01*
X200432380Y-82333333D01*
X200432380Y-82571428D01*
X200480000Y-82666666D01*
X200527619Y-82714285D01*
X200622857Y-82761904D01*
X200718095Y-82761904D01*
X200860952Y-82714285D01*
X201432380Y-82142857D01*
X201432380Y-82761904D01*
D14*
%TO.C,G\u002A\u002A\u002A*%
X174950000Y-96911904D02*
X174945238Y-96902380D01*
X174945238Y-96888095D01*
X174950000Y-96873809D01*
X174959523Y-96864285D01*
X174969047Y-96859523D01*
X174988095Y-96854761D01*
X175002380Y-96854761D01*
X175021428Y-96859523D01*
X175030952Y-96864285D01*
X175040476Y-96873809D01*
X175045238Y-96888095D01*
X175045238Y-96897619D01*
X175040476Y-96911904D01*
X175035714Y-96916666D01*
X175002380Y-96916666D01*
X175002380Y-96897619D01*
X174945238Y-96973809D02*
X174969047Y-96973809D01*
X174959523Y-96950000D02*
X174969047Y-96973809D01*
X174959523Y-96997619D01*
X174988095Y-96959523D02*
X174969047Y-96973809D01*
X174988095Y-96988095D01*
X174945238Y-97050000D02*
X174969047Y-97050000D01*
X174959523Y-97026190D02*
X174969047Y-97050000D01*
X174959523Y-97073809D01*
X174988095Y-97035714D02*
X174969047Y-97050000D01*
X174988095Y-97064285D01*
X174945238Y-97126190D02*
X174969047Y-97126190D01*
X174959523Y-97102380D02*
X174969047Y-97126190D01*
X174959523Y-97150000D01*
X174988095Y-97111904D02*
X174969047Y-97126190D01*
X174988095Y-97140476D01*
D10*
%TO.C,R6*%
X203566666Y-105130952D02*
X203700000Y-104940476D01*
X203795238Y-105130952D02*
X203795238Y-104730952D01*
X203642857Y-104730952D01*
X203604761Y-104750000D01*
X203585714Y-104769047D01*
X203566666Y-104807142D01*
X203566666Y-104864285D01*
X203585714Y-104902380D01*
X203604761Y-104921428D01*
X203642857Y-104940476D01*
X203795238Y-104940476D01*
X203223809Y-104730952D02*
X203300000Y-104730952D01*
X203338095Y-104750000D01*
X203357142Y-104769047D01*
X203395238Y-104826190D01*
X203414285Y-104902380D01*
X203414285Y-105054761D01*
X203395238Y-105092857D01*
X203376190Y-105111904D01*
X203338095Y-105130952D01*
X203261904Y-105130952D01*
X203223809Y-105111904D01*
X203204761Y-105092857D01*
X203185714Y-105054761D01*
X203185714Y-104959523D01*
X203204761Y-104921428D01*
X203223809Y-104902380D01*
X203261904Y-104883333D01*
X203338095Y-104883333D01*
X203376190Y-104902380D01*
X203395238Y-104921428D01*
X203414285Y-104959523D01*
%TO.C,R10*%
X201357142Y-80055952D02*
X201490476Y-79865476D01*
X201585714Y-80055952D02*
X201585714Y-79655952D01*
X201433333Y-79655952D01*
X201395238Y-79675000D01*
X201376190Y-79694047D01*
X201357142Y-79732142D01*
X201357142Y-79789285D01*
X201376190Y-79827380D01*
X201395238Y-79846428D01*
X201433333Y-79865476D01*
X201585714Y-79865476D01*
X200976190Y-80055952D02*
X201204761Y-80055952D01*
X201090476Y-80055952D02*
X201090476Y-79655952D01*
X201128571Y-79713095D01*
X201166666Y-79751190D01*
X201204761Y-79770238D01*
X200728571Y-79655952D02*
X200690476Y-79655952D01*
X200652380Y-79675000D01*
X200633333Y-79694047D01*
X200614285Y-79732142D01*
X200595238Y-79808333D01*
X200595238Y-79903571D01*
X200614285Y-79979761D01*
X200633333Y-80017857D01*
X200652380Y-80036904D01*
X200690476Y-80055952D01*
X200728571Y-80055952D01*
X200766666Y-80036904D01*
X200785714Y-80017857D01*
X200804761Y-79979761D01*
X200823809Y-79903571D01*
X200823809Y-79808333D01*
X200804761Y-79732142D01*
X200785714Y-79694047D01*
X200766666Y-79675000D01*
X200728571Y-79655952D01*
%TO.C,D4*%
X198245238Y-99130952D02*
X198245238Y-98730952D01*
X198150000Y-98730952D01*
X198092857Y-98750000D01*
X198054761Y-98788095D01*
X198035714Y-98826190D01*
X198016666Y-98902380D01*
X198016666Y-98959523D01*
X198035714Y-99035714D01*
X198054761Y-99073809D01*
X198092857Y-99111904D01*
X198150000Y-99130952D01*
X198245238Y-99130952D01*
X197673809Y-98864285D02*
X197673809Y-99130952D01*
X197769047Y-98711904D02*
X197864285Y-98997619D01*
X197616666Y-98997619D01*
%TO.C,C29*%
X203092857Y-113642857D02*
X203111904Y-113623809D01*
X203130952Y-113566666D01*
X203130952Y-113528571D01*
X203111904Y-113471428D01*
X203073809Y-113433333D01*
X203035714Y-113414285D01*
X202959523Y-113395238D01*
X202902380Y-113395238D01*
X202826190Y-113414285D01*
X202788095Y-113433333D01*
X202750000Y-113471428D01*
X202730952Y-113528571D01*
X202730952Y-113566666D01*
X202750000Y-113623809D01*
X202769047Y-113642857D01*
X202769047Y-113795238D02*
X202750000Y-113814285D01*
X202730952Y-113852380D01*
X202730952Y-113947619D01*
X202750000Y-113985714D01*
X202769047Y-114004761D01*
X202807142Y-114023809D01*
X202845238Y-114023809D01*
X202902380Y-114004761D01*
X203130952Y-113776190D01*
X203130952Y-114023809D01*
X203130952Y-114214285D02*
X203130952Y-114290476D01*
X203111904Y-114328571D01*
X203092857Y-114347619D01*
X203035714Y-114385714D01*
X202959523Y-114404761D01*
X202807142Y-114404761D01*
X202769047Y-114385714D01*
X202750000Y-114366666D01*
X202730952Y-114328571D01*
X202730952Y-114252380D01*
X202750000Y-114214285D01*
X202769047Y-114195238D01*
X202807142Y-114176190D01*
X202902380Y-114176190D01*
X202940476Y-114195238D01*
X202959523Y-114214285D01*
X202978571Y-114252380D01*
X202978571Y-114328571D01*
X202959523Y-114366666D01*
X202940476Y-114385714D01*
X202902380Y-114404761D01*
%TO.C,C40*%
X201853571Y-87678571D02*
X201877380Y-87654761D01*
X201901190Y-87583333D01*
X201901190Y-87535714D01*
X201877380Y-87464285D01*
X201829761Y-87416666D01*
X201782142Y-87392857D01*
X201686904Y-87369047D01*
X201615476Y-87369047D01*
X201520238Y-87392857D01*
X201472619Y-87416666D01*
X201425000Y-87464285D01*
X201401190Y-87535714D01*
X201401190Y-87583333D01*
X201425000Y-87654761D01*
X201448809Y-87678571D01*
X201567857Y-88107142D02*
X201901190Y-88107142D01*
X201377380Y-87988095D02*
X201734523Y-87869047D01*
X201734523Y-88178571D01*
X201401190Y-88464285D02*
X201401190Y-88511904D01*
X201425000Y-88559523D01*
X201448809Y-88583333D01*
X201496428Y-88607142D01*
X201591666Y-88630952D01*
X201710714Y-88630952D01*
X201805952Y-88607142D01*
X201853571Y-88583333D01*
X201877380Y-88559523D01*
X201901190Y-88511904D01*
X201901190Y-88464285D01*
X201877380Y-88416666D01*
X201853571Y-88392857D01*
X201805952Y-88369047D01*
X201710714Y-88345238D01*
X201591666Y-88345238D01*
X201496428Y-88369047D01*
X201448809Y-88392857D01*
X201425000Y-88416666D01*
X201401190Y-88464285D01*
%TO.C,C38*%
X201242857Y-95742857D02*
X201261904Y-95723809D01*
X201280952Y-95666666D01*
X201280952Y-95628571D01*
X201261904Y-95571428D01*
X201223809Y-95533333D01*
X201185714Y-95514285D01*
X201109523Y-95495238D01*
X201052380Y-95495238D01*
X200976190Y-95514285D01*
X200938095Y-95533333D01*
X200900000Y-95571428D01*
X200880952Y-95628571D01*
X200880952Y-95666666D01*
X200900000Y-95723809D01*
X200919047Y-95742857D01*
X200880952Y-95876190D02*
X200880952Y-96123809D01*
X201033333Y-95990476D01*
X201033333Y-96047619D01*
X201052380Y-96085714D01*
X201071428Y-96104761D01*
X201109523Y-96123809D01*
X201204761Y-96123809D01*
X201242857Y-96104761D01*
X201261904Y-96085714D01*
X201280952Y-96047619D01*
X201280952Y-95933333D01*
X201261904Y-95895238D01*
X201242857Y-95876190D01*
X201052380Y-96352380D02*
X201033333Y-96314285D01*
X201014285Y-96295238D01*
X200976190Y-96276190D01*
X200957142Y-96276190D01*
X200919047Y-96295238D01*
X200900000Y-96314285D01*
X200880952Y-96352380D01*
X200880952Y-96428571D01*
X200900000Y-96466666D01*
X200919047Y-96485714D01*
X200957142Y-96504761D01*
X200976190Y-96504761D01*
X201014285Y-96485714D01*
X201033333Y-96466666D01*
X201052380Y-96428571D01*
X201052380Y-96352380D01*
X201071428Y-96314285D01*
X201090476Y-96295238D01*
X201128571Y-96276190D01*
X201204761Y-96276190D01*
X201242857Y-96295238D01*
X201261904Y-96314285D01*
X201280952Y-96352380D01*
X201280952Y-96428571D01*
X201261904Y-96466666D01*
X201242857Y-96485714D01*
X201204761Y-96504761D01*
X201128571Y-96504761D01*
X201090476Y-96485714D01*
X201071428Y-96466666D01*
X201052380Y-96428571D01*
%TO.C,D2*%
X198195238Y-105130952D02*
X198195238Y-104730952D01*
X198100000Y-104730952D01*
X198042857Y-104750000D01*
X198004761Y-104788095D01*
X197985714Y-104826190D01*
X197966666Y-104902380D01*
X197966666Y-104959523D01*
X197985714Y-105035714D01*
X198004761Y-105073809D01*
X198042857Y-105111904D01*
X198100000Y-105130952D01*
X198195238Y-105130952D01*
X197814285Y-104769047D02*
X197795238Y-104750000D01*
X197757142Y-104730952D01*
X197661904Y-104730952D01*
X197623809Y-104750000D01*
X197604761Y-104769047D01*
X197585714Y-104807142D01*
X197585714Y-104845238D01*
X197604761Y-104902380D01*
X197833333Y-105130952D01*
X197585714Y-105130952D01*
%TO.C,R9*%
X200983333Y-81126190D02*
X201150000Y-80888095D01*
X201269047Y-81126190D02*
X201269047Y-80626190D01*
X201078571Y-80626190D01*
X201030952Y-80650000D01*
X201007142Y-80673809D01*
X200983333Y-80721428D01*
X200983333Y-80792857D01*
X201007142Y-80840476D01*
X201030952Y-80864285D01*
X201078571Y-80888095D01*
X201269047Y-80888095D01*
X200745238Y-81126190D02*
X200650000Y-81126190D01*
X200602380Y-81102380D01*
X200578571Y-81078571D01*
X200530952Y-81007142D01*
X200507142Y-80911904D01*
X200507142Y-80721428D01*
X200530952Y-80673809D01*
X200554761Y-80650000D01*
X200602380Y-80626190D01*
X200697619Y-80626190D01*
X200745238Y-80650000D01*
X200769047Y-80673809D01*
X200792857Y-80721428D01*
X200792857Y-80840476D01*
X200769047Y-80888095D01*
X200745238Y-80911904D01*
X200697619Y-80935714D01*
X200602380Y-80935714D01*
X200554761Y-80911904D01*
X200530952Y-80888095D01*
X200507142Y-80840476D01*
%TO.C,R5*%
X201258333Y-85826190D02*
X201425000Y-85588095D01*
X201544047Y-85826190D02*
X201544047Y-85326190D01*
X201353571Y-85326190D01*
X201305952Y-85350000D01*
X201282142Y-85373809D01*
X201258333Y-85421428D01*
X201258333Y-85492857D01*
X201282142Y-85540476D01*
X201305952Y-85564285D01*
X201353571Y-85588095D01*
X201544047Y-85588095D01*
X200805952Y-85326190D02*
X201044047Y-85326190D01*
X201067857Y-85564285D01*
X201044047Y-85540476D01*
X200996428Y-85516666D01*
X200877380Y-85516666D01*
X200829761Y-85540476D01*
X200805952Y-85564285D01*
X200782142Y-85611904D01*
X200782142Y-85730952D01*
X200805952Y-85778571D01*
X200829761Y-85802380D01*
X200877380Y-85826190D01*
X200996428Y-85826190D01*
X201044047Y-85802380D01*
X201067857Y-85778571D01*
D15*
%TO.C,G\u002A\u002A\u002A*%
X162488000Y-95557428D02*
X162415428Y-95412285D01*
X162415428Y-95194571D01*
X162488000Y-94976857D01*
X162633142Y-94831714D01*
X162778285Y-94759142D01*
X163068571Y-94686571D01*
X163286285Y-94686571D01*
X163576571Y-94759142D01*
X163721714Y-94831714D01*
X163866857Y-94976857D01*
X163939428Y-95194571D01*
X163939428Y-95339714D01*
X163866857Y-95557428D01*
X163794285Y-95630000D01*
X163286285Y-95630000D01*
X163286285Y-95339714D01*
X162415428Y-96500857D02*
X162778285Y-96500857D01*
X162633142Y-96138000D02*
X162778285Y-96500857D01*
X162633142Y-96863714D01*
X163068571Y-96283142D02*
X162778285Y-96500857D01*
X163068571Y-96718571D01*
X162415428Y-97662000D02*
X162778285Y-97662000D01*
X162633142Y-97299142D02*
X162778285Y-97662000D01*
X162633142Y-98024857D01*
X163068571Y-97444285D02*
X162778285Y-97662000D01*
X163068571Y-97879714D01*
X162415428Y-98823142D02*
X162778285Y-98823142D01*
X162633142Y-98460285D02*
X162778285Y-98823142D01*
X162633142Y-99186000D01*
X163068571Y-98605428D02*
X162778285Y-98823142D01*
X163068571Y-99040857D01*
D10*
%TO.C,D5*%
X198295238Y-93530952D02*
X198295238Y-93130952D01*
X198200000Y-93130952D01*
X198142857Y-93150000D01*
X198104761Y-93188095D01*
X198085714Y-93226190D01*
X198066666Y-93302380D01*
X198066666Y-93359523D01*
X198085714Y-93435714D01*
X198104761Y-93473809D01*
X198142857Y-93511904D01*
X198200000Y-93530952D01*
X198295238Y-93530952D01*
X197704761Y-93130952D02*
X197895238Y-93130952D01*
X197914285Y-93321428D01*
X197895238Y-93302380D01*
X197857142Y-93283333D01*
X197761904Y-93283333D01*
X197723809Y-93302380D01*
X197704761Y-93321428D01*
X197685714Y-93359523D01*
X197685714Y-93454761D01*
X197704761Y-93492857D01*
X197723809Y-93511904D01*
X197761904Y-93530952D01*
X197857142Y-93530952D01*
X197895238Y-93511904D01*
X197914285Y-93492857D01*
%TO.C,R13*%
X204630952Y-97542857D02*
X204440476Y-97409523D01*
X204630952Y-97314285D02*
X204230952Y-97314285D01*
X204230952Y-97466666D01*
X204250000Y-97504761D01*
X204269047Y-97523809D01*
X204307142Y-97542857D01*
X204364285Y-97542857D01*
X204402380Y-97523809D01*
X204421428Y-97504761D01*
X204440476Y-97466666D01*
X204440476Y-97314285D01*
X204630952Y-97923809D02*
X204630952Y-97695238D01*
X204630952Y-97809523D02*
X204230952Y-97809523D01*
X204288095Y-97771428D01*
X204326190Y-97733333D01*
X204345238Y-97695238D01*
X204230952Y-98057142D02*
X204230952Y-98304761D01*
X204383333Y-98171428D01*
X204383333Y-98228571D01*
X204402380Y-98266666D01*
X204421428Y-98285714D01*
X204459523Y-98304761D01*
X204554761Y-98304761D01*
X204592857Y-98285714D01*
X204611904Y-98266666D01*
X204630952Y-98228571D01*
X204630952Y-98114285D01*
X204611904Y-98076190D01*
X204592857Y-98057142D01*
%TO.C,R22*%
X203857142Y-93730952D02*
X203990476Y-93540476D01*
X204085714Y-93730952D02*
X204085714Y-93330952D01*
X203933333Y-93330952D01*
X203895238Y-93350000D01*
X203876190Y-93369047D01*
X203857142Y-93407142D01*
X203857142Y-93464285D01*
X203876190Y-93502380D01*
X203895238Y-93521428D01*
X203933333Y-93540476D01*
X204085714Y-93540476D01*
X203704761Y-93369047D02*
X203685714Y-93350000D01*
X203647619Y-93330952D01*
X203552380Y-93330952D01*
X203514285Y-93350000D01*
X203495238Y-93369047D01*
X203476190Y-93407142D01*
X203476190Y-93445238D01*
X203495238Y-93502380D01*
X203723809Y-93730952D01*
X203476190Y-93730952D01*
X203323809Y-93369047D02*
X203304761Y-93350000D01*
X203266666Y-93330952D01*
X203171428Y-93330952D01*
X203133333Y-93350000D01*
X203114285Y-93369047D01*
X203095238Y-93407142D01*
X203095238Y-93445238D01*
X203114285Y-93502380D01*
X203342857Y-93730952D01*
X203095238Y-93730952D01*
%TO.C,D3*%
X198295238Y-110180952D02*
X198295238Y-109780952D01*
X198200000Y-109780952D01*
X198142857Y-109800000D01*
X198104761Y-109838095D01*
X198085714Y-109876190D01*
X198066666Y-109952380D01*
X198066666Y-110009523D01*
X198085714Y-110085714D01*
X198104761Y-110123809D01*
X198142857Y-110161904D01*
X198200000Y-110180952D01*
X198295238Y-110180952D01*
X197933333Y-109780952D02*
X197685714Y-109780952D01*
X197819047Y-109933333D01*
X197761904Y-109933333D01*
X197723809Y-109952380D01*
X197704761Y-109971428D01*
X197685714Y-110009523D01*
X197685714Y-110104761D01*
X197704761Y-110142857D01*
X197723809Y-110161904D01*
X197761904Y-110180952D01*
X197876190Y-110180952D01*
X197914285Y-110161904D01*
X197933333Y-110142857D01*
%TO.C,C30*%
X201392857Y-113642857D02*
X201411904Y-113623809D01*
X201430952Y-113566666D01*
X201430952Y-113528571D01*
X201411904Y-113471428D01*
X201373809Y-113433333D01*
X201335714Y-113414285D01*
X201259523Y-113395238D01*
X201202380Y-113395238D01*
X201126190Y-113414285D01*
X201088095Y-113433333D01*
X201050000Y-113471428D01*
X201030952Y-113528571D01*
X201030952Y-113566666D01*
X201050000Y-113623809D01*
X201069047Y-113642857D01*
X201030952Y-113776190D02*
X201030952Y-114023809D01*
X201183333Y-113890476D01*
X201183333Y-113947619D01*
X201202380Y-113985714D01*
X201221428Y-114004761D01*
X201259523Y-114023809D01*
X201354761Y-114023809D01*
X201392857Y-114004761D01*
X201411904Y-113985714D01*
X201430952Y-113947619D01*
X201430952Y-113833333D01*
X201411904Y-113795238D01*
X201392857Y-113776190D01*
X201030952Y-114271428D02*
X201030952Y-114309523D01*
X201050000Y-114347619D01*
X201069047Y-114366666D01*
X201107142Y-114385714D01*
X201183333Y-114404761D01*
X201278571Y-114404761D01*
X201354761Y-114385714D01*
X201392857Y-114366666D01*
X201411904Y-114347619D01*
X201430952Y-114309523D01*
X201430952Y-114271428D01*
X201411904Y-114233333D01*
X201392857Y-114214285D01*
X201354761Y-114195238D01*
X201278571Y-114176190D01*
X201183333Y-114176190D01*
X201107142Y-114195238D01*
X201069047Y-114214285D01*
X201050000Y-114233333D01*
X201030952Y-114271428D01*
%TO.C,R11*%
X203807142Y-110330952D02*
X203940476Y-110140476D01*
X204035714Y-110330952D02*
X204035714Y-109930952D01*
X203883333Y-109930952D01*
X203845238Y-109950000D01*
X203826190Y-109969047D01*
X203807142Y-110007142D01*
X203807142Y-110064285D01*
X203826190Y-110102380D01*
X203845238Y-110121428D01*
X203883333Y-110140476D01*
X204035714Y-110140476D01*
X203426190Y-110330952D02*
X203654761Y-110330952D01*
X203540476Y-110330952D02*
X203540476Y-109930952D01*
X203578571Y-109988095D01*
X203616666Y-110026190D01*
X203654761Y-110045238D01*
X203045238Y-110330952D02*
X203273809Y-110330952D01*
X203159523Y-110330952D02*
X203159523Y-109930952D01*
X203197619Y-109988095D01*
X203235714Y-110026190D01*
X203273809Y-110045238D01*
%TO.C,C34*%
X201142857Y-101642857D02*
X201161904Y-101623809D01*
X201180952Y-101566666D01*
X201180952Y-101528571D01*
X201161904Y-101471428D01*
X201123809Y-101433333D01*
X201085714Y-101414285D01*
X201009523Y-101395238D01*
X200952380Y-101395238D01*
X200876190Y-101414285D01*
X200838095Y-101433333D01*
X200800000Y-101471428D01*
X200780952Y-101528571D01*
X200780952Y-101566666D01*
X200800000Y-101623809D01*
X200819047Y-101642857D01*
X200780952Y-101776190D02*
X200780952Y-102023809D01*
X200933333Y-101890476D01*
X200933333Y-101947619D01*
X200952380Y-101985714D01*
X200971428Y-102004761D01*
X201009523Y-102023809D01*
X201104761Y-102023809D01*
X201142857Y-102004761D01*
X201161904Y-101985714D01*
X201180952Y-101947619D01*
X201180952Y-101833333D01*
X201161904Y-101795238D01*
X201142857Y-101776190D01*
X200914285Y-102366666D02*
X201180952Y-102366666D01*
X200761904Y-102271428D02*
X201047619Y-102176190D01*
X201047619Y-102423809D01*
%TO.C,C39*%
X201292857Y-90192857D02*
X201311904Y-90173809D01*
X201330952Y-90116666D01*
X201330952Y-90078571D01*
X201311904Y-90021428D01*
X201273809Y-89983333D01*
X201235714Y-89964285D01*
X201159523Y-89945238D01*
X201102380Y-89945238D01*
X201026190Y-89964285D01*
X200988095Y-89983333D01*
X200950000Y-90021428D01*
X200930952Y-90078571D01*
X200930952Y-90116666D01*
X200950000Y-90173809D01*
X200969047Y-90192857D01*
X200930952Y-90326190D02*
X200930952Y-90573809D01*
X201083333Y-90440476D01*
X201083333Y-90497619D01*
X201102380Y-90535714D01*
X201121428Y-90554761D01*
X201159523Y-90573809D01*
X201254761Y-90573809D01*
X201292857Y-90554761D01*
X201311904Y-90535714D01*
X201330952Y-90497619D01*
X201330952Y-90383333D01*
X201311904Y-90345238D01*
X201292857Y-90326190D01*
X201330952Y-90764285D02*
X201330952Y-90840476D01*
X201311904Y-90878571D01*
X201292857Y-90897619D01*
X201235714Y-90935714D01*
X201159523Y-90954761D01*
X201007142Y-90954761D01*
X200969047Y-90935714D01*
X200950000Y-90916666D01*
X200930952Y-90878571D01*
X200930952Y-90802380D01*
X200950000Y-90764285D01*
X200969047Y-90745238D01*
X201007142Y-90726190D01*
X201102380Y-90726190D01*
X201140476Y-90745238D01*
X201159523Y-90764285D01*
X201178571Y-90802380D01*
X201178571Y-90878571D01*
X201159523Y-90916666D01*
X201140476Y-90935714D01*
X201102380Y-90954761D01*
%TO.C,R8*%
X201218333Y-85051190D02*
X201385000Y-84813095D01*
X201504047Y-85051190D02*
X201504047Y-84551190D01*
X201313571Y-84551190D01*
X201265952Y-84575000D01*
X201242142Y-84598809D01*
X201218333Y-84646428D01*
X201218333Y-84717857D01*
X201242142Y-84765476D01*
X201265952Y-84789285D01*
X201313571Y-84813095D01*
X201504047Y-84813095D01*
X200932619Y-84765476D02*
X200980238Y-84741666D01*
X201004047Y-84717857D01*
X201027857Y-84670238D01*
X201027857Y-84646428D01*
X201004047Y-84598809D01*
X200980238Y-84575000D01*
X200932619Y-84551190D01*
X200837380Y-84551190D01*
X200789761Y-84575000D01*
X200765952Y-84598809D01*
X200742142Y-84646428D01*
X200742142Y-84670238D01*
X200765952Y-84717857D01*
X200789761Y-84741666D01*
X200837380Y-84765476D01*
X200932619Y-84765476D01*
X200980238Y-84789285D01*
X201004047Y-84813095D01*
X201027857Y-84860714D01*
X201027857Y-84955952D01*
X201004047Y-85003571D01*
X200980238Y-85027380D01*
X200932619Y-85051190D01*
X200837380Y-85051190D01*
X200789761Y-85027380D01*
X200765952Y-85003571D01*
X200742142Y-84955952D01*
X200742142Y-84860714D01*
X200765952Y-84813095D01*
X200789761Y-84789285D01*
X200837380Y-84765476D01*
%TO.C,C35*%
X201242857Y-106792857D02*
X201261904Y-106773809D01*
X201280952Y-106716666D01*
X201280952Y-106678571D01*
X201261904Y-106621428D01*
X201223809Y-106583333D01*
X201185714Y-106564285D01*
X201109523Y-106545238D01*
X201052380Y-106545238D01*
X200976190Y-106564285D01*
X200938095Y-106583333D01*
X200900000Y-106621428D01*
X200880952Y-106678571D01*
X200880952Y-106716666D01*
X200900000Y-106773809D01*
X200919047Y-106792857D01*
X200880952Y-106926190D02*
X200880952Y-107173809D01*
X201033333Y-107040476D01*
X201033333Y-107097619D01*
X201052380Y-107135714D01*
X201071428Y-107154761D01*
X201109523Y-107173809D01*
X201204761Y-107173809D01*
X201242857Y-107154761D01*
X201261904Y-107135714D01*
X201280952Y-107097619D01*
X201280952Y-106983333D01*
X201261904Y-106945238D01*
X201242857Y-106926190D01*
X200880952Y-107535714D02*
X200880952Y-107345238D01*
X201071428Y-107326190D01*
X201052380Y-107345238D01*
X201033333Y-107383333D01*
X201033333Y-107478571D01*
X201052380Y-107516666D01*
X201071428Y-107535714D01*
X201109523Y-107554761D01*
X201204761Y-107554761D01*
X201242857Y-107535714D01*
X201261904Y-107516666D01*
X201280952Y-107478571D01*
X201280952Y-107383333D01*
X201261904Y-107345238D01*
X201242857Y-107326190D01*
D16*
%TO.C,C41*%
X200465000Y-81967164D02*
X200465000Y-82182836D01*
X201185000Y-81967164D02*
X201185000Y-82182836D01*
%TO.C,C23*%
X199090000Y-87090580D02*
X199090000Y-86809420D01*
X200110000Y-87090580D02*
X200110000Y-86809420D01*
%TO.C,C22*%
X199040000Y-81640580D02*
X199040000Y-81359420D01*
X200060000Y-81640580D02*
X200060000Y-81359420D01*
%TO.C,G\u002A\u002A\u002A*%
G36*
X179408401Y-97307531D02*
G01*
X179420782Y-97311281D01*
X179442652Y-97316269D01*
X179471517Y-97321872D01*
X179505820Y-97327853D01*
X179544002Y-97333972D01*
X179584507Y-97339990D01*
X179625776Y-97345666D01*
X179666252Y-97350763D01*
X179704378Y-97355040D01*
X179738596Y-97358258D01*
X179779870Y-97361651D01*
X179779870Y-97379969D01*
X179779746Y-97383675D01*
X179778153Y-97391908D01*
X179773883Y-97400980D01*
X179765885Y-97412497D01*
X179753107Y-97428065D01*
X179734499Y-97449291D01*
X179689127Y-97500295D01*
X179490191Y-97500295D01*
X179444954Y-97449015D01*
X179399718Y-97397735D01*
X179399682Y-97350922D01*
X179399766Y-97332515D01*
X179400335Y-97317582D01*
X179401736Y-97309573D01*
X179404311Y-97306789D01*
X179408401Y-97307531D01*
G37*
G36*
X179295255Y-92839152D02*
G01*
X179377070Y-92839467D01*
X179450402Y-92839801D01*
X179515927Y-92840175D01*
X179574322Y-92840610D01*
X179626260Y-92841126D01*
X179672419Y-92841744D01*
X179713472Y-92842486D01*
X179750097Y-92843372D01*
X179782969Y-92844422D01*
X179812762Y-92845658D01*
X179840154Y-92847101D01*
X179865818Y-92848771D01*
X179890432Y-92850690D01*
X179914670Y-92852878D01*
X179939207Y-92855356D01*
X179964720Y-92858144D01*
X179991885Y-92861265D01*
X180021375Y-92864738D01*
X180037517Y-92866740D01*
X180073910Y-92871834D01*
X180110215Y-92877618D01*
X180144459Y-92883728D01*
X180174673Y-92889803D01*
X180198886Y-92895478D01*
X180215127Y-92900391D01*
X180221141Y-92902404D01*
X180237778Y-92907047D01*
X180259334Y-92912364D01*
X180282667Y-92917559D01*
X180338604Y-92931074D01*
X180410888Y-92952820D01*
X180487182Y-92979913D01*
X180565638Y-93011597D01*
X180590359Y-93022745D01*
X180644404Y-93047118D01*
X180721631Y-93085723D01*
X180795470Y-93126657D01*
X180817599Y-93139759D01*
X180903868Y-93194220D01*
X180984923Y-93251331D01*
X181062929Y-93312775D01*
X181140058Y-93380239D01*
X181218475Y-93455407D01*
X181239490Y-93476639D01*
X181270366Y-93508680D01*
X181300832Y-93541186D01*
X181329186Y-93572309D01*
X181353727Y-93600198D01*
X181372752Y-93623006D01*
X181384201Y-93637569D01*
X181415375Y-93679079D01*
X181448755Y-93725775D01*
X181482605Y-93775094D01*
X181515187Y-93824475D01*
X181544763Y-93871357D01*
X181569595Y-93913177D01*
X181596306Y-93961606D01*
X181659110Y-94089353D01*
X181713732Y-94221837D01*
X181759814Y-94357931D01*
X181797002Y-94496511D01*
X181824936Y-94636450D01*
X181843262Y-94776623D01*
X181844696Y-94791564D01*
X181847414Y-94819713D01*
X181849851Y-94844727D01*
X181851783Y-94864329D01*
X181852988Y-94876246D01*
X181853049Y-94876852D01*
X181853983Y-94893621D01*
X181854434Y-94918597D01*
X181854446Y-94950085D01*
X181854061Y-94986386D01*
X181853324Y-95025805D01*
X181852276Y-95066644D01*
X181850962Y-95107206D01*
X181849425Y-95145794D01*
X181847708Y-95180712D01*
X181845854Y-95210262D01*
X181843906Y-95232746D01*
X181838235Y-95280790D01*
X181814426Y-95428110D01*
X181781284Y-95571907D01*
X181738742Y-95712404D01*
X181686735Y-95849827D01*
X181625197Y-95984400D01*
X181614235Y-96006144D01*
X181543055Y-96135240D01*
X181464922Y-96257235D01*
X181379600Y-96372429D01*
X181286853Y-96481122D01*
X181186444Y-96583614D01*
X181078137Y-96680207D01*
X181016737Y-96729376D01*
X180906194Y-96808581D01*
X180790057Y-96880777D01*
X180669482Y-96945365D01*
X180545622Y-97001746D01*
X180419634Y-97049321D01*
X180292673Y-97087491D01*
X180277985Y-97091349D01*
X180257787Y-97096695D01*
X180242238Y-97100860D01*
X180233857Y-97103173D01*
X180233366Y-97103291D01*
X180231795Y-97103071D01*
X180230441Y-97101365D01*
X180229290Y-97097517D01*
X180228331Y-97090873D01*
X180227549Y-97080777D01*
X180226931Y-97066573D01*
X180226466Y-97047607D01*
X180226138Y-97023223D01*
X180225936Y-96992765D01*
X180225847Y-96955578D01*
X180225857Y-96911008D01*
X180225953Y-96858397D01*
X180226123Y-96797091D01*
X180226352Y-96726435D01*
X180227635Y-96347114D01*
X180529063Y-96345825D01*
X180830491Y-96344535D01*
X180830491Y-95824306D01*
X179779870Y-95824306D01*
X179779870Y-97155092D01*
X179733593Y-97154989D01*
X179718394Y-97154785D01*
X179678255Y-97153132D01*
X179632520Y-97150040D01*
X179583789Y-97145772D01*
X179534661Y-97140594D01*
X179487737Y-97134768D01*
X179445617Y-97128560D01*
X179410902Y-97122232D01*
X179399646Y-97119880D01*
X179399646Y-95824306D01*
X178954383Y-95824306D01*
X178954383Y-96402147D01*
X178954377Y-96439056D01*
X178954331Y-96512886D01*
X178954241Y-96583566D01*
X178954109Y-96650473D01*
X178953940Y-96712982D01*
X178953736Y-96770472D01*
X178953500Y-96822319D01*
X178953235Y-96867899D01*
X178952944Y-96906589D01*
X178952631Y-96937766D01*
X178952297Y-96960807D01*
X178951947Y-96975089D01*
X178951583Y-96979988D01*
X178946002Y-96977966D01*
X178932984Y-96971979D01*
X178914155Y-96962814D01*
X178891059Y-96951261D01*
X178865237Y-96938113D01*
X178838234Y-96924162D01*
X178811592Y-96910199D01*
X178786854Y-96897016D01*
X178765563Y-96885406D01*
X178749262Y-96876159D01*
X178683969Y-96836154D01*
X178567085Y-96755645D01*
X178455654Y-96667137D01*
X178350199Y-96571189D01*
X178251242Y-96468361D01*
X178159303Y-96359209D01*
X178074905Y-96244295D01*
X177998569Y-96124175D01*
X177930817Y-95999409D01*
X177929807Y-95997384D01*
X177900472Y-95936967D01*
X177874673Y-95880287D01*
X177851322Y-95824631D01*
X177829327Y-95767288D01*
X177807601Y-95705546D01*
X177785052Y-95636695D01*
X177761178Y-95561651D01*
X177759774Y-94598582D01*
X177759720Y-94560509D01*
X177759585Y-94438417D01*
X177759573Y-94418476D01*
X178954148Y-94418476D01*
X178956884Y-95001320D01*
X178978824Y-95056352D01*
X178985981Y-95074336D01*
X178996861Y-95101770D01*
X179007042Y-95127540D01*
X179015016Y-95147834D01*
X179016387Y-95151167D01*
X179026217Y-95170601D01*
X179039934Y-95193210D01*
X179056075Y-95217011D01*
X179073179Y-95240018D01*
X179089784Y-95260247D01*
X179104427Y-95275713D01*
X179115647Y-95284431D01*
X179116498Y-95284889D01*
X179126011Y-95290582D01*
X179141571Y-95300371D01*
X179161219Y-95313012D01*
X179182999Y-95327259D01*
X179239013Y-95364201D01*
X179370610Y-95362867D01*
X179502206Y-95361532D01*
X179503500Y-95096002D01*
X179503601Y-95072761D01*
X179503725Y-95023396D01*
X179503721Y-94977491D01*
X179503596Y-94935982D01*
X179503358Y-94899803D01*
X179503014Y-94869890D01*
X179502571Y-94847177D01*
X179502035Y-94832600D01*
X179501416Y-94827094D01*
X179497351Y-94825679D01*
X179485524Y-94824263D01*
X179469371Y-94823715D01*
X179464963Y-94823710D01*
X179454308Y-94823319D01*
X179445531Y-94821514D01*
X179437306Y-94817207D01*
X179428306Y-94809309D01*
X179417204Y-94796731D01*
X179402673Y-94778387D01*
X179383386Y-94753186D01*
X179354619Y-94715461D01*
X179354619Y-94418476D01*
X179694586Y-94418476D01*
X179695954Y-94709898D01*
X179697321Y-95001320D01*
X179710579Y-95033839D01*
X179717957Y-95052191D01*
X179728054Y-95077825D01*
X179737139Y-95101379D01*
X179737586Y-95102555D01*
X179749612Y-95133581D01*
X179759614Y-95157499D01*
X179768785Y-95176586D01*
X179778316Y-95193119D01*
X179789400Y-95209375D01*
X179803229Y-95227634D01*
X179814382Y-95241936D01*
X179824051Y-95253892D01*
X179832852Y-95263624D01*
X179842316Y-95272429D01*
X179853977Y-95281602D01*
X179869365Y-95292440D01*
X179890013Y-95306239D01*
X179917451Y-95324295D01*
X179977487Y-95363785D01*
X180264035Y-95363909D01*
X180550584Y-95364034D01*
X180621747Y-95317322D01*
X180622959Y-95316526D01*
X180650134Y-95298423D01*
X180670716Y-95283903D01*
X180686569Y-95271378D01*
X180699557Y-95259262D01*
X180711544Y-95245966D01*
X180724393Y-95229905D01*
X180733626Y-95217759D01*
X180745559Y-95200911D01*
X180755834Y-95184292D01*
X180765438Y-95165964D01*
X180775359Y-95143991D01*
X180786582Y-95116438D01*
X180800096Y-95081367D01*
X180807761Y-95061344D01*
X180816375Y-95039219D01*
X180823548Y-95021195D01*
X180828242Y-95009905D01*
X180829341Y-95006801D01*
X180830754Y-95000134D01*
X180831942Y-94990286D01*
X180832922Y-94976498D01*
X180833713Y-94958012D01*
X180834332Y-94934069D01*
X180834799Y-94903913D01*
X180835130Y-94866783D01*
X180835344Y-94821923D01*
X180835459Y-94768573D01*
X180835494Y-94705976D01*
X180835494Y-94418476D01*
X180435257Y-94418476D01*
X180435257Y-94714653D01*
X180393983Y-94769173D01*
X180352708Y-94823693D01*
X180264247Y-94823704D01*
X180175785Y-94823715D01*
X180164375Y-94807455D01*
X180161773Y-94803821D01*
X180151648Y-94790192D01*
X180138334Y-94772709D01*
X180124011Y-94754245D01*
X180095056Y-94717294D01*
X180095056Y-94418476D01*
X179694586Y-94418476D01*
X179354619Y-94418476D01*
X178954148Y-94418476D01*
X177759573Y-94418476D01*
X177759514Y-94323533D01*
X177759504Y-94216072D01*
X177759557Y-94116249D01*
X177759623Y-94063266D01*
X178954383Y-94063266D01*
X179354619Y-94063266D01*
X179354619Y-93734494D01*
X179390125Y-93687505D01*
X179402902Y-93670504D01*
X179417380Y-93651734D01*
X179429209Y-93638673D01*
X179440495Y-93630291D01*
X179453345Y-93625562D01*
X179469869Y-93623457D01*
X179492172Y-93622947D01*
X179522363Y-93623006D01*
X179536046Y-93623054D01*
X179561919Y-93623422D01*
X179583658Y-93624093D01*
X179599305Y-93624996D01*
X179606905Y-93626060D01*
X179607444Y-93626330D01*
X179614145Y-93632343D01*
X179625218Y-93644517D01*
X179639253Y-93661241D01*
X179654842Y-93680901D01*
X179694586Y-93732385D01*
X179694820Y-93732688D01*
X179694820Y-94063266D01*
X180095056Y-94063266D01*
X180094738Y-93759336D01*
X180094595Y-93623006D01*
X180285077Y-93623006D01*
X180314184Y-93623006D01*
X180326759Y-93623552D01*
X180342159Y-93625823D01*
X180351479Y-93629259D01*
X180351607Y-93629360D01*
X180357881Y-93635898D01*
X180368593Y-93648616D01*
X180382276Y-93665719D01*
X180397462Y-93685416D01*
X180435257Y-93735318D01*
X180435257Y-94063266D01*
X180835494Y-94063266D01*
X180835048Y-93759336D01*
X180834603Y-93455407D01*
X180809817Y-93392870D01*
X180809288Y-93391534D01*
X180799024Y-93365414D01*
X180789211Y-93340088D01*
X180780938Y-93318388D01*
X180775296Y-93303145D01*
X180772061Y-93294486D01*
X180766511Y-93281785D01*
X180759502Y-93268947D01*
X180749843Y-93254049D01*
X180736341Y-93235167D01*
X180717803Y-93210377D01*
X180707356Y-93197651D01*
X180691115Y-93181654D01*
X180670344Y-93165251D01*
X180642781Y-93146516D01*
X180590359Y-93112558D01*
X180439015Y-93113882D01*
X180287670Y-93115206D01*
X180286373Y-93369106D01*
X180285077Y-93623006D01*
X180094595Y-93623006D01*
X180094419Y-93455407D01*
X180071889Y-93397873D01*
X180063302Y-93375806D01*
X180053833Y-93351168D01*
X180045766Y-93329867D01*
X180040238Y-93314888D01*
X180020126Y-93269914D01*
X179989830Y-93224416D01*
X179950905Y-93183413D01*
X179903006Y-93146483D01*
X179852413Y-93112722D01*
X179525237Y-93112713D01*
X179198062Y-93112704D01*
X179170028Y-93130855D01*
X179164247Y-93134604D01*
X179137636Y-93152219D01*
X179117326Y-93166649D01*
X179101400Y-93179563D01*
X179087940Y-93192628D01*
X179075030Y-93207509D01*
X179060753Y-93225875D01*
X179053197Y-93236034D01*
X179042346Y-93251617D01*
X179032964Y-93267008D01*
X179024084Y-93284131D01*
X179014741Y-93304909D01*
X179003968Y-93331266D01*
X178990799Y-93365124D01*
X178954383Y-93459950D01*
X178954383Y-94063266D01*
X177759623Y-94063266D01*
X177759671Y-94024280D01*
X177759845Y-93940380D01*
X177760078Y-93864764D01*
X177760371Y-93797647D01*
X177760721Y-93739245D01*
X177761129Y-93689773D01*
X177761593Y-93649445D01*
X177762113Y-93618477D01*
X177762688Y-93597085D01*
X177763317Y-93585484D01*
X177765873Y-93563395D01*
X177780688Y-93484568D01*
X177803947Y-93405496D01*
X177834805Y-93328369D01*
X177872420Y-93255380D01*
X177915950Y-93188719D01*
X177966520Y-93126186D01*
X178030867Y-93060910D01*
X178101084Y-93003307D01*
X178176567Y-92953725D01*
X178256716Y-92912507D01*
X178340927Y-92880001D01*
X178428598Y-92856552D01*
X178519126Y-92842505D01*
X178521207Y-92842309D01*
X178535517Y-92841372D01*
X178556056Y-92840558D01*
X178583165Y-92839864D01*
X178617189Y-92839290D01*
X178658471Y-92838833D01*
X178707354Y-92838491D01*
X178764183Y-92838263D01*
X178829299Y-92838146D01*
X178903047Y-92838138D01*
X178954148Y-92838199D01*
X178985770Y-92838237D01*
X179077812Y-92838443D01*
X179179516Y-92838751D01*
X179198062Y-92838814D01*
X179204283Y-92838835D01*
X179295255Y-92839152D01*
G37*
G36*
X180830491Y-97500295D02*
G01*
X180315524Y-97500295D01*
X180270328Y-97449365D01*
X180260461Y-97438183D01*
X180244931Y-97420010D01*
X180234688Y-97406700D01*
X180228677Y-97396625D01*
X180225843Y-97388162D01*
X180225133Y-97379683D01*
X180225133Y-97360933D01*
X180253900Y-97357852D01*
X180284134Y-97354552D01*
X180348069Y-97347040D01*
X180404725Y-97339473D01*
X180456005Y-97331518D01*
X180503810Y-97322841D01*
X180550040Y-97313109D01*
X180596597Y-97301987D01*
X180645381Y-97289143D01*
X180682071Y-97278755D01*
X180815161Y-97234798D01*
X180943615Y-97182198D01*
X181067797Y-97120763D01*
X181188069Y-97050303D01*
X181304795Y-96970625D01*
X181418338Y-96881538D01*
X181425819Y-96875166D01*
X181449843Y-96853786D01*
X181478958Y-96826872D01*
X181511878Y-96795692D01*
X181547315Y-96761513D01*
X181583980Y-96725600D01*
X181620587Y-96689222D01*
X181655848Y-96653645D01*
X181688474Y-96620136D01*
X181717179Y-96589962D01*
X181740675Y-96564390D01*
X181759497Y-96543000D01*
X181823782Y-96464496D01*
X181886251Y-96380069D01*
X181944678Y-96292835D01*
X181996838Y-96205910D01*
X182024495Y-96154647D01*
X182069878Y-96060430D01*
X182111395Y-95961222D01*
X182148425Y-95858940D01*
X182180346Y-95755503D01*
X182206538Y-95652827D01*
X182226380Y-95552832D01*
X182239249Y-95457435D01*
X182239445Y-95455476D01*
X182241199Y-95440254D01*
X182243167Y-95433194D01*
X182246355Y-95432649D01*
X182251770Y-95436975D01*
X182251867Y-95437065D01*
X182252589Y-95437880D01*
X182253273Y-95439113D01*
X182253920Y-95441022D01*
X182254531Y-95443867D01*
X182255107Y-95447907D01*
X182255649Y-95453400D01*
X182256158Y-95460607D01*
X182256634Y-95469785D01*
X182257079Y-95481195D01*
X182257493Y-95495096D01*
X182257877Y-95511746D01*
X182258232Y-95531405D01*
X182258559Y-95554332D01*
X182258859Y-95580786D01*
X182259133Y-95611027D01*
X182259380Y-95645312D01*
X182259604Y-95683903D01*
X182259803Y-95727057D01*
X182259979Y-95775034D01*
X182260134Y-95828092D01*
X182260267Y-95886493D01*
X182260379Y-95950493D01*
X182260473Y-96020353D01*
X182260547Y-96096331D01*
X182260604Y-96178688D01*
X182260644Y-96267681D01*
X182260667Y-96363570D01*
X182260676Y-96466615D01*
X182260670Y-96577074D01*
X182260651Y-96695206D01*
X182260619Y-96821271D01*
X182260575Y-96955528D01*
X182260521Y-97098236D01*
X182260456Y-97249654D01*
X182260382Y-97410042D01*
X182260300Y-97579658D01*
X182260211Y-97758761D01*
X182260114Y-97947611D01*
X182258834Y-100449537D01*
X182247389Y-100498809D01*
X182229363Y-100566455D01*
X182199719Y-100649724D01*
X182162878Y-100727229D01*
X182118247Y-100800180D01*
X182065230Y-100869785D01*
X182053593Y-100883371D01*
X181991999Y-100946998D01*
X181925359Y-101002439D01*
X181852610Y-101050599D01*
X181826066Y-101065742D01*
X181755777Y-101100797D01*
X181685471Y-101128005D01*
X181612298Y-101148368D01*
X181533406Y-101162890D01*
X181531233Y-101163200D01*
X181524493Y-101164101D01*
X181517292Y-101164941D01*
X181509276Y-101165721D01*
X181500091Y-101166444D01*
X181489384Y-101167113D01*
X181476802Y-101167728D01*
X181461990Y-101168293D01*
X181444596Y-101168809D01*
X181424266Y-101169279D01*
X181400647Y-101169705D01*
X181373384Y-101170089D01*
X181342125Y-101170433D01*
X181306516Y-101170740D01*
X181266204Y-101171012D01*
X181220835Y-101171250D01*
X181170055Y-101171458D01*
X181113511Y-101171637D01*
X181050849Y-101171789D01*
X180981717Y-101171917D01*
X180905760Y-101172023D01*
X180822626Y-101172109D01*
X180731959Y-101172178D01*
X180633408Y-101172230D01*
X180526619Y-101172270D01*
X180411237Y-101172298D01*
X180286910Y-101172317D01*
X180153284Y-101172329D01*
X180010006Y-101172337D01*
X179994001Y-101172338D01*
X179851991Y-101172343D01*
X179719595Y-101172343D01*
X179596457Y-101172338D01*
X179482224Y-101172323D01*
X179376541Y-101172298D01*
X179279055Y-101172259D01*
X179189410Y-101172204D01*
X179107254Y-101172132D01*
X179032230Y-101172039D01*
X178963986Y-101171923D01*
X178902167Y-101171782D01*
X178846418Y-101171614D01*
X178796386Y-101171417D01*
X178751715Y-101171187D01*
X178712053Y-101170923D01*
X178677044Y-101170623D01*
X178646335Y-101170283D01*
X178619571Y-101169902D01*
X178596397Y-101169478D01*
X178576460Y-101169007D01*
X178559406Y-101168489D01*
X178544879Y-101167920D01*
X178532526Y-101167298D01*
X178521993Y-101166620D01*
X178512925Y-101165885D01*
X178504969Y-101165091D01*
X178497769Y-101164234D01*
X178490971Y-101163312D01*
X178484222Y-101162324D01*
X178461054Y-101158590D01*
X178373897Y-101139179D01*
X178291706Y-101111778D01*
X178213343Y-101075886D01*
X178137672Y-101031000D01*
X178063556Y-100976619D01*
X178036934Y-100953960D01*
X177984293Y-100901806D01*
X177934457Y-100842746D01*
X177889099Y-100778852D01*
X177849890Y-100712192D01*
X177831906Y-100675125D01*
X177808144Y-100615710D01*
X177788141Y-100552842D01*
X177772977Y-100490054D01*
X177763736Y-100430879D01*
X177763451Y-100424893D01*
X177763114Y-100408938D01*
X177762791Y-100383837D01*
X177762483Y-100349958D01*
X177762188Y-100307670D01*
X177761908Y-100257342D01*
X177761642Y-100199340D01*
X177761390Y-100134035D01*
X177761152Y-100061793D01*
X177760928Y-99982984D01*
X177760922Y-99980547D01*
X178949380Y-99980547D01*
X179128235Y-100082297D01*
X179192556Y-100118876D01*
X179258728Y-100156475D01*
X179316838Y-100189451D01*
X179367215Y-100217992D01*
X179410191Y-100242285D01*
X179446098Y-100262517D01*
X179475266Y-100278875D01*
X179498028Y-100291547D01*
X179514714Y-100300720D01*
X179516475Y-100301679D01*
X179532808Y-100310703D01*
X179545608Y-100317988D01*
X179552236Y-100322033D01*
X179554972Y-100323684D01*
X179565745Y-100329923D01*
X179583874Y-100340316D01*
X179608559Y-100354407D01*
X179639002Y-100371743D01*
X179674404Y-100391868D01*
X179713967Y-100414328D01*
X179756893Y-100438669D01*
X179802383Y-100464436D01*
X179828386Y-100479162D01*
X179874602Y-100505365D01*
X179918840Y-100530483D01*
X179960139Y-100553966D01*
X179997536Y-100575267D01*
X180030070Y-100593838D01*
X180056779Y-100609131D01*
X180076700Y-100620596D01*
X180088872Y-100627688D01*
X180099703Y-100634059D01*
X180115818Y-100643371D01*
X180127281Y-100649775D01*
X180132126Y-100652157D01*
X180132996Y-100652555D01*
X180140860Y-100656801D01*
X180156116Y-100665274D01*
X180177841Y-100677452D01*
X180205108Y-100692816D01*
X180236992Y-100710843D01*
X180272568Y-100731014D01*
X180310912Y-100752807D01*
X180351745Y-100776030D01*
X180396626Y-100801530D01*
X180441424Y-100826960D01*
X180484417Y-100851343D01*
X180523883Y-100873703D01*
X180558100Y-100893062D01*
X180585346Y-100908445D01*
X180598812Y-100916044D01*
X180626155Y-100931528D01*
X180650057Y-100945139D01*
X180669197Y-100956119D01*
X180682253Y-100963712D01*
X180687906Y-100967162D01*
X180688684Y-100967697D01*
X180696851Y-100972580D01*
X180710772Y-100980439D01*
X180727930Y-100989849D01*
X180749017Y-101001337D01*
X180771116Y-101013497D01*
X180789216Y-101023572D01*
X180815482Y-101038339D01*
X180815448Y-100743938D01*
X180815415Y-100449537D01*
X180781678Y-100430730D01*
X180761915Y-100419661D01*
X180741534Y-100408162D01*
X180725429Y-100398990D01*
X180723627Y-100397958D01*
X180712442Y-100391583D01*
X180693753Y-100380953D01*
X180668475Y-100366588D01*
X180637523Y-100349009D01*
X180601812Y-100328734D01*
X180562258Y-100306283D01*
X180519776Y-100282177D01*
X180475281Y-100256934D01*
X180446532Y-100240625D01*
X180394344Y-100211015D01*
X180336209Y-100178024D01*
X180273822Y-100142616D01*
X180208880Y-100105754D01*
X180143078Y-100068400D01*
X180078113Y-100031517D01*
X180015680Y-99996067D01*
X179957475Y-99963014D01*
X179943708Y-99955196D01*
X179892436Y-99926099D01*
X179842447Y-99897758D01*
X179794669Y-99870697D01*
X179750028Y-99845440D01*
X179709452Y-99822510D01*
X179673866Y-99802431D01*
X179644197Y-99785728D01*
X179621373Y-99772923D01*
X179606320Y-99764541D01*
X179599794Y-99760917D01*
X179577823Y-99748404D01*
X179559316Y-99737397D01*
X179546055Y-99728976D01*
X179539822Y-99724222D01*
X179538965Y-99722990D01*
X179539199Y-99717986D01*
X179546045Y-99711618D01*
X179560782Y-99702565D01*
X179566425Y-99699366D01*
X179582151Y-99690450D01*
X179596523Y-99682305D01*
X179610979Y-99674117D01*
X179626958Y-99665072D01*
X179645896Y-99654356D01*
X179669231Y-99641156D01*
X179698401Y-99624658D01*
X179734844Y-99604049D01*
X179762013Y-99588677D01*
X179803974Y-99564915D01*
X179853233Y-99537003D01*
X179909003Y-99505386D01*
X179970497Y-99470513D01*
X180036927Y-99432829D01*
X180107509Y-99392780D01*
X180181453Y-99350813D01*
X180257974Y-99307375D01*
X180336285Y-99262911D01*
X180415599Y-99217870D01*
X180495130Y-99172696D01*
X180574089Y-99127836D01*
X180815482Y-98990677D01*
X180815482Y-98697718D01*
X180815481Y-98680732D01*
X180815455Y-98621616D01*
X180815379Y-98571575D01*
X180815230Y-98529872D01*
X180814987Y-98495768D01*
X180814630Y-98468526D01*
X180814136Y-98447408D01*
X180813485Y-98431675D01*
X180812655Y-98420590D01*
X180811625Y-98413415D01*
X180810373Y-98409412D01*
X180808878Y-98407842D01*
X180807120Y-98407969D01*
X180801656Y-98410773D01*
X180788274Y-98418077D01*
X180767939Y-98429354D01*
X180741546Y-98444103D01*
X180709986Y-98461824D01*
X180674153Y-98482016D01*
X180634942Y-98504179D01*
X180593244Y-98527812D01*
X180555588Y-98549180D01*
X180514972Y-98572222D01*
X180477204Y-98593643D01*
X180443258Y-98612889D01*
X180414110Y-98629408D01*
X180390737Y-98642647D01*
X180374113Y-98652052D01*
X180365216Y-98657070D01*
X180359883Y-98660078D01*
X180342643Y-98669906D01*
X180321607Y-98681998D01*
X180300177Y-98694400D01*
X180293577Y-98698223D01*
X180268871Y-98712379D01*
X180243709Y-98726608D01*
X180222632Y-98738336D01*
X180222188Y-98738579D01*
X180214620Y-98742754D01*
X180205737Y-98747691D01*
X180194971Y-98753714D01*
X180181755Y-98761143D01*
X180165520Y-98770300D01*
X180145699Y-98781508D01*
X180121724Y-98795088D01*
X180093026Y-98811362D01*
X180059039Y-98830652D01*
X180019194Y-98853280D01*
X179972923Y-98879567D01*
X179919658Y-98909837D01*
X179858832Y-98944409D01*
X179789876Y-98983607D01*
X179771935Y-98993801D01*
X179736539Y-99013886D01*
X179703228Y-99032753D01*
X179673324Y-99049656D01*
X179648149Y-99063848D01*
X179629025Y-99074582D01*
X179617274Y-99081111D01*
X179602796Y-99089144D01*
X179579910Y-99102106D01*
X179559740Y-99113798D01*
X179558882Y-99114302D01*
X179549058Y-99119964D01*
X179531667Y-99129908D01*
X179507683Y-99143582D01*
X179478078Y-99160433D01*
X179443825Y-99179910D01*
X179405897Y-99201461D01*
X179365267Y-99224533D01*
X179322909Y-99248575D01*
X179279794Y-99273035D01*
X179236897Y-99297360D01*
X179195189Y-99320999D01*
X179155645Y-99343399D01*
X179119237Y-99364009D01*
X179086938Y-99382276D01*
X179059720Y-99397650D01*
X179038558Y-99409576D01*
X179024424Y-99417504D01*
X179021272Y-99419264D01*
X178996593Y-99433178D01*
X178979134Y-99443372D01*
X178967451Y-99450755D01*
X178960099Y-99456235D01*
X178955633Y-99460717D01*
X178955528Y-99460856D01*
X178954070Y-99465194D01*
X178952842Y-99474219D01*
X178951829Y-99488595D01*
X178951015Y-99508987D01*
X178950384Y-99536060D01*
X178949921Y-99570479D01*
X178949610Y-99612908D01*
X178949435Y-99664013D01*
X178949380Y-99724458D01*
X178949380Y-99980547D01*
X177760922Y-99980547D01*
X177760718Y-99897975D01*
X177760522Y-99807135D01*
X177760339Y-99710833D01*
X177760170Y-99609436D01*
X177760015Y-99503312D01*
X177759874Y-99392831D01*
X177759747Y-99278360D01*
X177759633Y-99160268D01*
X177759532Y-99038923D01*
X177759446Y-98914693D01*
X177759372Y-98787947D01*
X177759313Y-98659053D01*
X177759266Y-98528379D01*
X177759233Y-98396294D01*
X177759214Y-98263165D01*
X177759207Y-98129362D01*
X177759214Y-97995252D01*
X177759234Y-97861203D01*
X177759268Y-97727585D01*
X177759314Y-97594765D01*
X177759374Y-97463112D01*
X177759446Y-97332993D01*
X177759532Y-97204778D01*
X177759631Y-97078835D01*
X177759742Y-96955531D01*
X177759867Y-96835236D01*
X177760004Y-96718317D01*
X177760154Y-96605142D01*
X177760317Y-96496081D01*
X177760493Y-96391501D01*
X177760682Y-96291771D01*
X177760883Y-96197259D01*
X177761096Y-96108333D01*
X177761323Y-96025361D01*
X177761561Y-95948713D01*
X177761813Y-95878756D01*
X177762076Y-95815858D01*
X177762352Y-95760388D01*
X177762641Y-95712714D01*
X177762942Y-95673204D01*
X177763255Y-95642227D01*
X177763580Y-95620151D01*
X177763918Y-95607345D01*
X177764268Y-95604176D01*
X177789308Y-95713803D01*
X177829514Y-95851043D01*
X177878709Y-95984506D01*
X177936681Y-96113681D01*
X178003217Y-96238057D01*
X178078102Y-96357120D01*
X178097554Y-96385310D01*
X178124246Y-96422394D01*
X178151453Y-96458101D01*
X178180168Y-96493581D01*
X178211384Y-96529981D01*
X178246094Y-96568451D01*
X178285289Y-96610139D01*
X178329962Y-96656194D01*
X178381107Y-96707764D01*
X178398174Y-96724768D01*
X178462562Y-96787590D01*
X178522404Y-96843566D01*
X178578880Y-96893611D01*
X178633169Y-96938641D01*
X178686450Y-96979570D01*
X178739902Y-97017314D01*
X178794705Y-97052787D01*
X178852037Y-97086905D01*
X178913077Y-97120582D01*
X178954321Y-97142584D01*
X178954383Y-97654982D01*
X178995657Y-97748447D01*
X178998045Y-97753851D01*
X179011957Y-97784988D01*
X179023169Y-97809004D01*
X179032738Y-97827712D01*
X179041725Y-97842927D01*
X179051185Y-97856462D01*
X179062179Y-97870132D01*
X179075764Y-97885749D01*
X179087756Y-97899102D01*
X179100526Y-97912406D01*
X179112889Y-97923618D01*
X179126683Y-97934116D01*
X179143745Y-97945277D01*
X179165915Y-97958477D01*
X179195030Y-97975094D01*
X179275464Y-98020603D01*
X179739885Y-98020603D01*
X179819828Y-97974997D01*
X179841476Y-97962574D01*
X179865577Y-97948302D01*
X179884218Y-97936337D01*
X179899333Y-97925223D01*
X179912857Y-97913507D01*
X179926723Y-97899732D01*
X179942868Y-97882443D01*
X179947916Y-97876959D01*
X179965022Y-97858842D01*
X179977499Y-97846833D01*
X179986863Y-97839736D01*
X179994626Y-97836355D01*
X180002303Y-97835493D01*
X180002406Y-97835494D01*
X180009050Y-97835931D01*
X180015386Y-97837897D01*
X180022560Y-97842395D01*
X180031718Y-97850429D01*
X180044005Y-97863003D01*
X180060566Y-97881120D01*
X180082549Y-97905782D01*
X180084417Y-97907871D01*
X180094935Y-97918758D01*
X180106229Y-97928416D01*
X180120331Y-97938292D01*
X180139277Y-97949830D01*
X180165098Y-97964478D01*
X180167662Y-97965910D01*
X180184249Y-97975255D01*
X180204855Y-97986952D01*
X180225625Y-97998814D01*
X180263639Y-98020603D01*
X180830491Y-98020603D01*
X180830491Y-97500295D01*
G37*
%TO.C,R6*%
X203120000Y-103853641D02*
X203120000Y-103546359D01*
X203880000Y-103853641D02*
X203880000Y-103546359D01*
%TO.C,R10*%
X200946359Y-79355000D02*
X201253641Y-79355000D01*
X200946359Y-78595000D02*
X201253641Y-78595000D01*
D17*
%TO.C,D4*%
X197252500Y-96150000D02*
X197205500Y-96550000D01*
X198532500Y-97000000D02*
X197372500Y-97000000D01*
X198699500Y-96550000D02*
X198652500Y-96150000D01*
X197372500Y-98100000D02*
X198532500Y-98100000D01*
X197952500Y-95450000D02*
G75*
G03*
X197252500Y-96150000I-1J-699999D01*
G01*
X198652500Y-96150000D02*
G75*
G03*
X197952500Y-95450000I-700000J0D01*
G01*
D18*
X195672500Y-97550000D02*
G75*
G03*
X195672500Y-97550000I-100000J0D01*
G01*
D16*
%TO.C,C29*%
X204560000Y-114040580D02*
X204560000Y-113759420D01*
X203540000Y-114040580D02*
X203540000Y-113759420D01*
%TO.C,C40*%
X200465000Y-87417164D02*
X200465000Y-87632836D01*
X201185000Y-87417164D02*
X201185000Y-87632836D01*
%TO.C,C38*%
X202809420Y-95490000D02*
X203090580Y-95490000D01*
X202809420Y-96510000D02*
X203090580Y-96510000D01*
D17*
%TO.C,D2*%
X198647000Y-102400000D02*
X198600000Y-102000000D01*
X198480000Y-102850000D02*
X197320000Y-102850000D01*
X197320000Y-103950000D02*
X198480000Y-103950000D01*
X197200000Y-102000000D02*
X197153000Y-102400000D01*
X197900000Y-101300000D02*
G75*
G03*
X197200000Y-102000000I-1J-699999D01*
G01*
X198600000Y-102000000D02*
G75*
G03*
X197900000Y-101300000I-700000J0D01*
G01*
D18*
X195620000Y-103400000D02*
G75*
G03*
X195620000Y-103400000I-100000J0D01*
G01*
D16*
%TO.C,R9*%
X200946359Y-79620000D02*
X201253641Y-79620000D01*
X200946359Y-80380000D02*
X201253641Y-80380000D01*
%TO.C,R5*%
X201021359Y-84320000D02*
X201328641Y-84320000D01*
X201021359Y-85080000D02*
X201328641Y-85080000D01*
%TO.C,G\u002A\u002A\u002A*%
G36*
X166153811Y-91083333D02*
G01*
X166137122Y-91100000D01*
X166120434Y-91083333D01*
X166137122Y-91066666D01*
X166153811Y-91083333D01*
G37*
G36*
X166454205Y-93050000D02*
G01*
X166437516Y-93066666D01*
X166420828Y-93050000D01*
X166437516Y-93033333D01*
X166454205Y-93050000D01*
G37*
G36*
X165853417Y-91683333D02*
G01*
X165836728Y-91700000D01*
X165820039Y-91683333D01*
X165836728Y-91666666D01*
X165853417Y-91683333D01*
G37*
G36*
X169989707Y-95115981D02*
G01*
X170056466Y-95175343D01*
X170086750Y-95208333D01*
X170094364Y-95217806D01*
X170143190Y-95233333D01*
X170167345Y-95235890D01*
X170208966Y-95274801D01*
X170203630Y-95360881D01*
X170203132Y-95362767D01*
X170182353Y-95413493D01*
X170147603Y-95427872D01*
X170085614Y-95404852D01*
X169983121Y-95343380D01*
X169947966Y-95320330D01*
X169743988Y-95150000D01*
X169892050Y-95150000D01*
X169908738Y-95166666D01*
X169925427Y-95150000D01*
X169908738Y-95133333D01*
X169892050Y-95150000D01*
X169743988Y-95150000D01*
X169718932Y-95129077D01*
X169541810Y-94897735D01*
X169412605Y-94621245D01*
X169387746Y-94581530D01*
X169347503Y-94594881D01*
X169313584Y-94605301D01*
X169211187Y-94615461D01*
X169043317Y-94621918D01*
X168810641Y-94624651D01*
X168513821Y-94623635D01*
X168374217Y-94622576D01*
X168146026Y-94622049D01*
X167973957Y-94623864D01*
X167850975Y-94628346D01*
X167770044Y-94635822D01*
X167724131Y-94646618D01*
X167706200Y-94661059D01*
X167700631Y-94695639D01*
X167694697Y-94787039D01*
X167690653Y-94916886D01*
X167689159Y-95069392D01*
X167689303Y-95173056D01*
X167691217Y-95297797D01*
X167697329Y-95374555D01*
X167710072Y-95414970D01*
X167731877Y-95430682D01*
X167765175Y-95433333D01*
X167827086Y-95422732D01*
X167827918Y-95422350D01*
X167912358Y-95383551D01*
X167974098Y-95353265D01*
X168081401Y-95315895D01*
X168206627Y-95282097D01*
X168322908Y-95257382D01*
X168384507Y-95250725D01*
X168417741Y-95247133D01*
X168502832Y-95255301D01*
X168606928Y-95281869D01*
X168742928Y-95334698D01*
X168922593Y-95456404D01*
X169058182Y-95618804D01*
X169140185Y-95812439D01*
X169163603Y-95920859D01*
X169171651Y-96036532D01*
X169153912Y-96145772D01*
X169116408Y-96302707D01*
X169097840Y-96418435D01*
X169102094Y-96481911D01*
X169128792Y-96498412D01*
X169211178Y-96492489D01*
X169296073Y-96511378D01*
X169324639Y-96564485D01*
X169324631Y-96566094D01*
X169321321Y-96586119D01*
X169306580Y-96601425D01*
X169272505Y-96612692D01*
X169211193Y-96620595D01*
X169114740Y-96625813D01*
X168975243Y-96629024D01*
X168784798Y-96630904D01*
X168535503Y-96632131D01*
X168393310Y-96632986D01*
X168182529Y-96635375D01*
X167999944Y-96638811D01*
X167855195Y-96643049D01*
X167757922Y-96647842D01*
X167717763Y-96652945D01*
X167710507Y-96686202D01*
X167703583Y-96777830D01*
X167697701Y-96918729D01*
X167693146Y-97099964D01*
X167690203Y-97312602D01*
X167689159Y-97547706D01*
X167689159Y-98424812D01*
X167828494Y-98447064D01*
X167839684Y-98448781D01*
X167958278Y-98453370D01*
X168019763Y-98423559D01*
X168024443Y-98358952D01*
X167972624Y-98259152D01*
X167904187Y-98104187D01*
X167898962Y-98024627D01*
X168067042Y-98024627D01*
X168121964Y-98197850D01*
X168134973Y-98223101D01*
X168191610Y-98320892D01*
X168248976Y-98382520D01*
X168306636Y-98408616D01*
X168323560Y-98416276D01*
X168431852Y-98430450D01*
X168590342Y-98433333D01*
X168610390Y-98433307D01*
X168765905Y-98428969D01*
X168871616Y-98411937D01*
X168942717Y-98374670D01*
X168994405Y-98309629D01*
X169041875Y-98209274D01*
X169061379Y-98145754D01*
X169082692Y-98020601D01*
X169090958Y-97887595D01*
X169089618Y-97834934D01*
X169060771Y-97677082D01*
X168989141Y-97560314D01*
X168867897Y-97471903D01*
X168784876Y-97443952D01*
X168640801Y-97433875D01*
X168487710Y-97455106D01*
X168353488Y-97505809D01*
X168266923Y-97563473D01*
X168142887Y-97697379D01*
X168075138Y-97854450D01*
X168067042Y-98024627D01*
X167898962Y-98024627D01*
X167893060Y-97934774D01*
X167935499Y-97762508D01*
X168027202Y-97598161D01*
X168163868Y-97452506D01*
X168341194Y-97336314D01*
X168369468Y-97322577D01*
X168471076Y-97283866D01*
X168573124Y-97269814D01*
X168640801Y-97272416D01*
X168708045Y-97275002D01*
X168730275Y-97276843D01*
X168848002Y-97291832D01*
X168933901Y-97320426D01*
X169013381Y-97374684D01*
X169111850Y-97466666D01*
X169148351Y-97505258D01*
X169214358Y-97604867D01*
X169248292Y-97724573D01*
X169257884Y-97886611D01*
X169241929Y-98048251D01*
X169174229Y-98233753D01*
X169090573Y-98398623D01*
X169182573Y-98420574D01*
X169256456Y-98443403D01*
X169328480Y-98491191D01*
X169336728Y-98549948D01*
X169336204Y-98551203D01*
X169308420Y-98572034D01*
X169241352Y-98585718D01*
X169125881Y-98593348D01*
X168952887Y-98596019D01*
X168936824Y-98596086D01*
X168732360Y-98603337D01*
X168579241Y-98625697D01*
X168463726Y-98668073D01*
X168372075Y-98735370D01*
X168290545Y-98832495D01*
X168233713Y-98948424D01*
X168236455Y-99067443D01*
X168305533Y-99185330D01*
X168355298Y-99235593D01*
X168412106Y-99266947D01*
X168494561Y-99284169D01*
X168623217Y-99294310D01*
X168748850Y-99295491D01*
X168903482Y-99278859D01*
X169023146Y-99244065D01*
X169092458Y-99194384D01*
X169122659Y-99175762D01*
X169192481Y-99159158D01*
X169257831Y-99166778D01*
X169284260Y-99218367D01*
X169281266Y-99255754D01*
X169240754Y-99305042D01*
X169147285Y-99359993D01*
X169117159Y-99374488D01*
X168904602Y-99448632D01*
X168696081Y-99476582D01*
X168501965Y-99460284D01*
X168332624Y-99401683D01*
X168198426Y-99302724D01*
X168109741Y-99165352D01*
X168087646Y-99106801D01*
X168062686Y-99000672D01*
X168074790Y-98912845D01*
X168125134Y-98816666D01*
X168178945Y-98729523D01*
X168211454Y-98662594D01*
X168211813Y-98650000D01*
X168289947Y-98650000D01*
X168306636Y-98666666D01*
X168323325Y-98650000D01*
X168306636Y-98633333D01*
X168289947Y-98650000D01*
X168211813Y-98650000D01*
X168212571Y-98623424D01*
X168186335Y-98597547D01*
X168138651Y-98587065D01*
X168044482Y-98584125D01*
X167929405Y-98589089D01*
X167817008Y-98600875D01*
X167730880Y-98618403D01*
X167727664Y-98619947D01*
X167712581Y-98649061D01*
X167701647Y-98717940D01*
X167694404Y-98833299D01*
X167690394Y-99001854D01*
X167689159Y-99230319D01*
X167688625Y-99354217D01*
X167684891Y-99554950D01*
X167677893Y-99708934D01*
X167667992Y-99809541D01*
X167655546Y-99850145D01*
X167638783Y-99854772D01*
X167605540Y-99827112D01*
X167605378Y-99826504D01*
X167603093Y-99783254D01*
X167600751Y-99678012D01*
X167598383Y-99515137D01*
X167596018Y-99298988D01*
X167593684Y-99033923D01*
X167591413Y-98724302D01*
X167589233Y-98374484D01*
X167587175Y-97988828D01*
X167585267Y-97571692D01*
X167583539Y-97127436D01*
X167582021Y-96660417D01*
X167580743Y-96174997D01*
X167580696Y-96154634D01*
X167689024Y-96154634D01*
X167691178Y-96289673D01*
X167699568Y-96395855D01*
X167714703Y-96454655D01*
X167721407Y-96459514D01*
X167781108Y-96472525D01*
X167889092Y-96482625D01*
X168031475Y-96489710D01*
X168194375Y-96493677D01*
X168363909Y-96494419D01*
X168526194Y-96491833D01*
X168667348Y-96485814D01*
X168773487Y-96476258D01*
X168830729Y-96463060D01*
X168831890Y-96462436D01*
X168882758Y-96420333D01*
X168886677Y-96369915D01*
X168840172Y-96306404D01*
X168739770Y-96225024D01*
X168581997Y-96120997D01*
X168501351Y-96070118D01*
X168341802Y-95966636D01*
X168190956Y-95865640D01*
X168072996Y-95783179D01*
X167999952Y-95731261D01*
X167897914Y-95667220D01*
X167827918Y-95641463D01*
X167777856Y-95650706D01*
X167735621Y-95691666D01*
X167732614Y-95696425D01*
X167714901Y-95761633D01*
X167701393Y-95872088D01*
X167692598Y-96009263D01*
X167689024Y-96154634D01*
X167580696Y-96154634D01*
X167580686Y-96150328D01*
X167579413Y-95584077D01*
X167579339Y-95546730D01*
X168022930Y-95546730D01*
X168023035Y-95547832D01*
X168052330Y-95583377D01*
X168126247Y-95646138D01*
X168234061Y-95727574D01*
X168365046Y-95819145D01*
X168373505Y-95824859D01*
X168504343Y-95914643D01*
X168612803Y-95991610D01*
X168687810Y-96047736D01*
X168718287Y-96075000D01*
X168726793Y-96085066D01*
X168776697Y-96100000D01*
X168797094Y-96102929D01*
X168823982Y-96129767D01*
X168824589Y-96136302D01*
X168858039Y-96172189D01*
X168919904Y-96183432D01*
X168978409Y-96163160D01*
X169010535Y-96107903D01*
X169021525Y-96004248D01*
X169004615Y-95877284D01*
X168960646Y-95746702D01*
X168904528Y-95649732D01*
X168774087Y-95525289D01*
X168600104Y-95450274D01*
X168384507Y-95425764D01*
X168354398Y-95426651D01*
X168237666Y-95441899D01*
X168130940Y-95471201D01*
X168053075Y-95508248D01*
X168022930Y-95546730D01*
X167579339Y-95546730D01*
X167578412Y-95080661D01*
X167577734Y-94636398D01*
X167577589Y-94450000D01*
X167705848Y-94450000D01*
X168306636Y-94450000D01*
X168311343Y-94333333D01*
X168308685Y-94221297D01*
X168294654Y-94101131D01*
X168288085Y-94068313D01*
X168269934Y-94019464D01*
X168232772Y-93987496D01*
X168161150Y-93962261D01*
X168039619Y-93933613D01*
X167910491Y-93904843D01*
X167805179Y-93887347D01*
X167743924Y-93896496D01*
X167714860Y-93940576D01*
X167706123Y-94027871D01*
X167705848Y-94166666D01*
X167705848Y-94450000D01*
X167577589Y-94450000D01*
X167577431Y-94247608D01*
X167577552Y-93910611D01*
X167578150Y-93621725D01*
X167579276Y-93377269D01*
X167580979Y-93173564D01*
X167583312Y-93006929D01*
X167586325Y-92873682D01*
X167590069Y-92770144D01*
X167594596Y-92692632D01*
X167599956Y-92637468D01*
X167606200Y-92600969D01*
X167613380Y-92579456D01*
X167621546Y-92569248D01*
X167630749Y-92566663D01*
X167639347Y-92567201D01*
X167658739Y-92577210D01*
X167672360Y-92607099D01*
X167681211Y-92666224D01*
X167686294Y-92763943D01*
X167688610Y-92909611D01*
X167689159Y-93112585D01*
X167689828Y-93263338D01*
X167693758Y-93448476D01*
X167701608Y-93577352D01*
X167713831Y-93656266D01*
X167730880Y-93691519D01*
X167782570Y-93714838D01*
X167805179Y-93721822D01*
X167879070Y-93744646D01*
X167999193Y-93774325D01*
X168037229Y-93782620D01*
X168142350Y-93803266D01*
X168203285Y-93807510D01*
X168236352Y-93794716D01*
X168257866Y-93764249D01*
X168275186Y-93720244D01*
X168280711Y-93686864D01*
X168459660Y-93686864D01*
X168483228Y-93758906D01*
X168546035Y-93793646D01*
X168589281Y-93796224D01*
X168727047Y-93773989D01*
X168869748Y-93717122D01*
X168987843Y-93636154D01*
X169046721Y-93572992D01*
X169082267Y-93495998D01*
X169090999Y-93387394D01*
X169080185Y-93283274D01*
X169031715Y-93191828D01*
X168943575Y-93153891D01*
X168814939Y-93168811D01*
X168744470Y-93199224D01*
X168651531Y-93272593D01*
X168571268Y-93370386D01*
X168508994Y-93480259D01*
X168470020Y-93589867D01*
X168459660Y-93686864D01*
X168280711Y-93686864D01*
X168289947Y-93631058D01*
X168294006Y-93577876D01*
X168312599Y-93485954D01*
X168340126Y-93398694D01*
X168369755Y-93336428D01*
X168394652Y-93319489D01*
X168406177Y-93322190D01*
X168405501Y-93292057D01*
X168404605Y-93289510D01*
X168415755Y-93225892D01*
X168473902Y-93149508D01*
X168564516Y-93071208D01*
X168673065Y-93001845D01*
X168785019Y-92952269D01*
X168885849Y-92933333D01*
X168928450Y-92936263D01*
X168943575Y-92941900D01*
X169057979Y-92984535D01*
X169162394Y-93083152D01*
X169232141Y-93220507D01*
X169257664Y-93384994D01*
X169239349Y-93533938D01*
X169165387Y-93695449D01*
X169039398Y-93821634D01*
X168866450Y-93907778D01*
X168651607Y-93949165D01*
X168631029Y-93951008D01*
X168533112Y-93975798D01*
X168478438Y-94031195D01*
X168461567Y-94127331D01*
X168477061Y-94274337D01*
X168506899Y-94450000D01*
X169408081Y-94450000D01*
X169424770Y-94333333D01*
X169453870Y-94219311D01*
X169500434Y-94108897D01*
X169590289Y-93998244D01*
X169715078Y-93926785D01*
X169854738Y-93902860D01*
X169993717Y-93926336D01*
X170116460Y-93997078D01*
X170207415Y-94114955D01*
X170239236Y-94194452D01*
X170254007Y-94336776D01*
X170207240Y-94459249D01*
X170176390Y-94496902D01*
X170109157Y-94530709D01*
X170029466Y-94503117D01*
X170012916Y-94490691D01*
X170003597Y-94456299D01*
X170037810Y-94396210D01*
X170041611Y-94390672D01*
X170085356Y-94287798D01*
X170082465Y-94194264D01*
X170037472Y-94126265D01*
X169954910Y-94100000D01*
X169924457Y-94094474D01*
X169882315Y-94058333D01*
X169862402Y-94033382D01*
X169822792Y-94058333D01*
X169794932Y-94078281D01*
X169724129Y-94100000D01*
X169683191Y-94113313D01*
X169629410Y-94179579D01*
X169592517Y-94288813D01*
X169578818Y-94426830D01*
X169596081Y-94559214D01*
X169665418Y-94740855D01*
X169778298Y-94914783D01*
X169908738Y-95046288D01*
X169924462Y-95062140D01*
X169989707Y-95115981D01*
G37*
G36*
X166371730Y-93102383D02*
G01*
X166369317Y-93116833D01*
X166320696Y-93150000D01*
X166255143Y-93182332D01*
X166203876Y-93197637D01*
X166202909Y-93197616D01*
X166205322Y-93183166D01*
X166253942Y-93150000D01*
X166319496Y-93117667D01*
X166370762Y-93102362D01*
X166371730Y-93102383D01*
G37*
G36*
X165667537Y-90204988D02*
G01*
X165677491Y-90220138D01*
X165665683Y-90226744D01*
X165613518Y-90222770D01*
X165598069Y-90210772D01*
X165633684Y-90202631D01*
X165667537Y-90204988D01*
G37*
G36*
X165518172Y-90244100D02*
G01*
X165487094Y-90266374D01*
X165411931Y-90297644D01*
X165394286Y-90303515D01*
X165341505Y-90315416D01*
X165336833Y-90304652D01*
X165371080Y-90282030D01*
X165444547Y-90251500D01*
X165499746Y-90238487D01*
X165518172Y-90244100D01*
G37*
G36*
X167121748Y-91100000D02*
G01*
X167136507Y-91128841D01*
X167152268Y-91200000D01*
X167144512Y-91220902D01*
X167121748Y-91183333D01*
X167112267Y-91160131D01*
X167093558Y-91098054D01*
X167096718Y-91073820D01*
X167121748Y-91100000D01*
G37*
G36*
X165261529Y-90370802D02*
G01*
X165236987Y-90389823D01*
X165201679Y-90393562D01*
X165201973Y-90378549D01*
X165242844Y-90352143D01*
X165249177Y-90349770D01*
X165282621Y-90342776D01*
X165261529Y-90370802D01*
G37*
G36*
X165686531Y-91450000D02*
G01*
X165669842Y-91466666D01*
X165653154Y-91450000D01*
X165669842Y-91433333D01*
X165686531Y-91450000D01*
G37*
G36*
X165770955Y-91702405D02*
G01*
X165775537Y-91722222D01*
X165770645Y-91726211D01*
X165731034Y-91722222D01*
X165725812Y-91712196D01*
X165753285Y-91700000D01*
X165770955Y-91702405D01*
G37*
G36*
X165901177Y-90171655D02*
G01*
X165911131Y-90186805D01*
X165899323Y-90193410D01*
X165847158Y-90189437D01*
X165831709Y-90177438D01*
X165867324Y-90169298D01*
X165901177Y-90171655D01*
G37*
G36*
X165719908Y-91346065D02*
G01*
X165718406Y-91351926D01*
X165686531Y-91383333D01*
X165674714Y-91389542D01*
X165653154Y-91387267D01*
X165654656Y-91381407D01*
X165686531Y-91350000D01*
X165698348Y-91343791D01*
X165719908Y-91346065D01*
G37*
G36*
X166821353Y-92746065D02*
G01*
X166819852Y-92751926D01*
X166787976Y-92783333D01*
X166776159Y-92789542D01*
X166754599Y-92787267D01*
X166756101Y-92781407D01*
X166787976Y-92750000D01*
X166799794Y-92743791D01*
X166821353Y-92746065D01*
G37*
G36*
X167121748Y-92216666D02*
G01*
X167105059Y-92233333D01*
X167088371Y-92216666D01*
X167105059Y-92200000D01*
X167121748Y-92216666D01*
G37*
G36*
X165534028Y-92238321D02*
G01*
X165543983Y-92253472D01*
X165532174Y-92260077D01*
X165480010Y-92256103D01*
X165464561Y-92244105D01*
X165500175Y-92235964D01*
X165534028Y-92238321D01*
G37*
G36*
X167188502Y-91983333D02*
G01*
X167171813Y-92000000D01*
X167155125Y-91983333D01*
X167171813Y-91966666D01*
X167188502Y-91983333D01*
G37*
G36*
X166988239Y-92500000D02*
G01*
X166985830Y-92517646D01*
X166965988Y-92522222D01*
X166961993Y-92517336D01*
X166965988Y-92477777D01*
X166976027Y-92472562D01*
X166988239Y-92500000D01*
G37*
G36*
X165003281Y-91969072D02*
G01*
X165007862Y-91988888D01*
X165002970Y-91992878D01*
X164963360Y-91988888D01*
X164958138Y-91978862D01*
X164985611Y-91966666D01*
X165003281Y-91969072D01*
G37*
G36*
X164843755Y-90879328D02*
G01*
X164818725Y-90950000D01*
X164797735Y-90986600D01*
X164788205Y-90966666D01*
X164791051Y-90937824D01*
X164818725Y-90866666D01*
X164828206Y-90853184D01*
X164846915Y-90842866D01*
X164843755Y-90879328D01*
G37*
G36*
X164918857Y-91866666D02*
G01*
X164916448Y-91884313D01*
X164896605Y-91888888D01*
X164892611Y-91884003D01*
X164896605Y-91844444D01*
X164906645Y-91839229D01*
X164918857Y-91866666D01*
G37*
G36*
X165203544Y-92135738D02*
G01*
X165208125Y-92155555D01*
X165203233Y-92159544D01*
X165163622Y-92155555D01*
X165158401Y-92145529D01*
X165185874Y-92133333D01*
X165203544Y-92135738D01*
G37*
G36*
X164827861Y-91723433D02*
G01*
X164852102Y-91768633D01*
X164850340Y-91787327D01*
X164832924Y-91795187D01*
X164805990Y-91748268D01*
X164800141Y-91722267D01*
X164819108Y-91716902D01*
X164827861Y-91723433D01*
G37*
G36*
X164918857Y-90733333D02*
G01*
X164916448Y-90750979D01*
X164896605Y-90755555D01*
X164892611Y-90750669D01*
X164896605Y-90711111D01*
X164906645Y-90705896D01*
X164918857Y-90733333D01*
G37*
G36*
X166538629Y-93002405D02*
G01*
X166543211Y-93022222D01*
X166538319Y-93026211D01*
X166498708Y-93022222D01*
X166493486Y-93012196D01*
X166520959Y-93000000D01*
X166538629Y-93002405D01*
G37*
G36*
X166134817Y-90204988D02*
G01*
X166144771Y-90220138D01*
X166132963Y-90226744D01*
X166080798Y-90222770D01*
X166065349Y-90210772D01*
X166100964Y-90202631D01*
X166134817Y-90204988D01*
G37*
G36*
X166068842Y-92102568D02*
G01*
X166070368Y-92133333D01*
X166063547Y-92142341D01*
X166016363Y-92166666D01*
X166005139Y-92164098D01*
X166003614Y-92133333D01*
X166010434Y-92124325D01*
X166057619Y-92100000D01*
X166068842Y-92102568D01*
G37*
G36*
X167215372Y-91650000D02*
G01*
X167215418Y-91657893D01*
X167210943Y-91710075D01*
X167199986Y-91708967D01*
X167193863Y-91681578D01*
X167198749Y-91608967D01*
X167200401Y-91603236D01*
X167210559Y-91598301D01*
X167215372Y-91650000D01*
G37*
G36*
X167155125Y-92100000D02*
G01*
X167152716Y-92117646D01*
X167132873Y-92122222D01*
X167128879Y-92117336D01*
X167132873Y-92077777D01*
X167142913Y-92072562D01*
X167155125Y-92100000D01*
G37*
G36*
X158474735Y-99509198D02*
G01*
X158537148Y-99540000D01*
X158570297Y-99592283D01*
X158565084Y-99671750D01*
X158500696Y-99742394D01*
X158464398Y-99763824D01*
X158406925Y-99774450D01*
X158333810Y-99745163D01*
X158293679Y-99718413D01*
X158247840Y-99648585D01*
X158255568Y-99577472D01*
X158311510Y-99522226D01*
X158410315Y-99500000D01*
X158474735Y-99509198D01*
G37*
G36*
X165770955Y-92235738D02*
G01*
X165775537Y-92255555D01*
X165770645Y-92259544D01*
X165731034Y-92255555D01*
X165725812Y-92245529D01*
X165753285Y-92233333D01*
X165770955Y-92235738D01*
G37*
G36*
X166682688Y-90480150D02*
G01*
X166689482Y-90484578D01*
X166720222Y-90517514D01*
X166706503Y-90533333D01*
X166698996Y-90530353D01*
X166667969Y-90494849D01*
X166659848Y-90476221D01*
X166682688Y-90480150D01*
G37*
G36*
X166888108Y-90683333D02*
G01*
X166871419Y-90700000D01*
X166854731Y-90683333D01*
X166871419Y-90666666D01*
X166888108Y-90683333D01*
G37*
G36*
X165932708Y-92209909D02*
G01*
X165928515Y-92222076D01*
X165913407Y-92226478D01*
X165845072Y-92222076D01*
X165839410Y-92210501D01*
X165886794Y-92205263D01*
X165932708Y-92209909D01*
G37*
G36*
X166320696Y-91316666D02*
G01*
X166304008Y-91333333D01*
X166287319Y-91316666D01*
X166304008Y-91300000D01*
X166320696Y-91316666D01*
G37*
G36*
X166346313Y-91475339D02*
G01*
X166348404Y-91550000D01*
X166348427Y-91563676D01*
X166334300Y-91681210D01*
X166301999Y-91783333D01*
X166293119Y-91800992D01*
X166271813Y-91836023D01*
X166273612Y-91816666D01*
X166281333Y-91787597D01*
X166300778Y-91694858D01*
X166320017Y-91583333D01*
X166333348Y-91498937D01*
X166342230Y-91457220D01*
X166346313Y-91475339D01*
G37*
G36*
X166821353Y-90616666D02*
G01*
X166804665Y-90633333D01*
X166787976Y-90616666D01*
X166804665Y-90600000D01*
X166821353Y-90616666D01*
G37*
G36*
X166215408Y-91146816D02*
G01*
X166230235Y-91157106D01*
X166253942Y-91185300D01*
X166253617Y-91189960D01*
X166234296Y-91197301D01*
X166200689Y-91161516D01*
X166192568Y-91142888D01*
X166215408Y-91146816D01*
G37*
G36*
X166621091Y-92931366D02*
G01*
X166619808Y-92941041D01*
X166587713Y-92966666D01*
X166580160Y-92966284D01*
X166554336Y-92951967D01*
X166555872Y-92946620D01*
X166587713Y-92916666D01*
X166600643Y-92911458D01*
X166621091Y-92931366D01*
G37*
G36*
X166502980Y-90354117D02*
G01*
X166529691Y-90367769D01*
X166541591Y-90390506D01*
X166520360Y-90392819D01*
X166465053Y-90370735D01*
X166426958Y-90342986D01*
X166439603Y-90335232D01*
X166502980Y-90354117D01*
G37*
G36*
X166888108Y-92650000D02*
G01*
X166871419Y-92666666D01*
X166854731Y-92650000D01*
X166871419Y-92633333D01*
X166888108Y-92650000D01*
G37*
G36*
X166187188Y-91983333D02*
G01*
X166170499Y-92000000D01*
X166153811Y-91983333D01*
X166170499Y-91966666D01*
X166187188Y-91983333D01*
G37*
G36*
X166153811Y-92050000D02*
G01*
X166137122Y-92066666D01*
X166120434Y-92050000D01*
X166137122Y-92033333D01*
X166153811Y-92050000D01*
G37*
G36*
X165085742Y-90516666D02*
G01*
X165069054Y-90533333D01*
X165052365Y-90516666D01*
X165069054Y-90500000D01*
X165085742Y-90516666D01*
G37*
G36*
X167069536Y-92343104D02*
G01*
X167052891Y-92374212D01*
X167028062Y-92384215D01*
X167024488Y-92368148D01*
X167050852Y-92324444D01*
X167055248Y-92320137D01*
X167079698Y-92304161D01*
X167069536Y-92343104D01*
G37*
G36*
X165452891Y-91616666D02*
G01*
X165436202Y-91633333D01*
X165419514Y-91616666D01*
X165436202Y-91600000D01*
X165452891Y-91616666D01*
G37*
G36*
X166297103Y-90252143D02*
G01*
X166328252Y-90268766D01*
X166338268Y-90293562D01*
X166322180Y-90297132D01*
X166278419Y-90270802D01*
X166274106Y-90266412D01*
X166258109Y-90241994D01*
X166297103Y-90252143D01*
G37*
G36*
X165085742Y-92050000D02*
G01*
X165069054Y-92066666D01*
X165052365Y-92050000D01*
X165069054Y-92033333D01*
X165085742Y-92050000D01*
G37*
G36*
X165921759Y-91428707D02*
G01*
X165917067Y-91487851D01*
X165904374Y-91552884D01*
X165886329Y-91600000D01*
X165876108Y-91613286D01*
X165865793Y-91603709D01*
X165874946Y-91533333D01*
X165877602Y-91519242D01*
X165894905Y-91441739D01*
X165908277Y-91402777D01*
X165915801Y-91399256D01*
X165921759Y-91428707D01*
G37*
G36*
X166954862Y-90766666D02*
G01*
X166973575Y-90796862D01*
X166984882Y-90828399D01*
X166954862Y-90816666D01*
X166945772Y-90809531D01*
X166921996Y-90756366D01*
X166928068Y-90741040D01*
X166954862Y-90766666D01*
G37*
G36*
X165452891Y-91150000D02*
G01*
X165436202Y-91166666D01*
X165419514Y-91150000D01*
X165436202Y-91133333D01*
X165452891Y-91150000D01*
G37*
G36*
X165530719Y-91680816D02*
G01*
X165566895Y-91690848D01*
X165630851Y-91702631D01*
X165650667Y-91706532D01*
X165629378Y-91721657D01*
X165595343Y-91724108D01*
X165529247Y-91699842D01*
X165503651Y-91683243D01*
X165488496Y-91669173D01*
X165530719Y-91680816D01*
G37*
G36*
X165619777Y-90983333D02*
G01*
X165603088Y-91000000D01*
X165586399Y-90983333D01*
X165603088Y-90966666D01*
X165619777Y-90983333D01*
G37*
G36*
X166687845Y-92866666D02*
G01*
X166685436Y-92884313D01*
X166665593Y-92888888D01*
X166661599Y-92884003D01*
X166665593Y-92844444D01*
X166675633Y-92839229D01*
X166687845Y-92866666D01*
G37*
G36*
X165022596Y-90581716D02*
G01*
X165005215Y-90617218D01*
X164964201Y-90647196D01*
X164953618Y-90651123D01*
X164927247Y-90653567D01*
X164951600Y-90617429D01*
X164977622Y-90588780D01*
X165006386Y-90566666D01*
X165022596Y-90581716D01*
G37*
G36*
X165546277Y-91000547D02*
G01*
X165546503Y-91022264D01*
X165494612Y-91070918D01*
X165470429Y-91089539D01*
X165453144Y-91097816D01*
X165482011Y-91058333D01*
X165512559Y-91022779D01*
X165540421Y-91000000D01*
X165546277Y-91000547D01*
G37*
G36*
X167054993Y-90916666D02*
G01*
X167038305Y-90933333D01*
X167021616Y-90916666D01*
X167038305Y-90900000D01*
X167054993Y-90916666D01*
G37*
G36*
X166018082Y-90981962D02*
G01*
X166040076Y-90997640D01*
X166049204Y-91020031D01*
X166002174Y-91011502D01*
X165977839Y-90998984D01*
X165966576Y-90975877D01*
X165974397Y-90971716D01*
X166018082Y-90981962D01*
G37*
G36*
X158869042Y-94174648D02*
G01*
X159114828Y-94321833D01*
X159371840Y-94533333D01*
X159400179Y-94562304D01*
X159468590Y-94645212D01*
X159542571Y-94746629D01*
X159610215Y-94848987D01*
X159659611Y-94934717D01*
X159678852Y-94986251D01*
X159690707Y-95029268D01*
X159723132Y-95101005D01*
X159742565Y-95143908D01*
X159787221Y-95294226D01*
X159820367Y-95483428D01*
X159839091Y-95691701D01*
X159840480Y-95899233D01*
X159838684Y-95950135D01*
X159840312Y-96090318D01*
X159858446Y-96170560D01*
X159898364Y-96195551D01*
X159965342Y-96169982D01*
X160064655Y-96098545D01*
X160303169Y-95894240D01*
X160554337Y-95640743D01*
X160766267Y-95382610D01*
X160927068Y-95133152D01*
X160928892Y-95129817D01*
X160987610Y-95028231D01*
X161062669Y-94906085D01*
X161145551Y-94776291D01*
X161227741Y-94651761D01*
X161300721Y-94545409D01*
X161355975Y-94470148D01*
X161384986Y-94438888D01*
X161390887Y-94435948D01*
X161414258Y-94393685D01*
X161416481Y-94382199D01*
X161452546Y-94317169D01*
X161527529Y-94215917D01*
X161634689Y-94086385D01*
X161767282Y-93936512D01*
X161918567Y-93774240D01*
X162081800Y-93607508D01*
X162219012Y-93482697D01*
X162415232Y-93327664D01*
X162633984Y-93173307D01*
X162857817Y-93031225D01*
X163069282Y-92913018D01*
X163250930Y-92830288D01*
X163434838Y-92763082D01*
X163688800Y-92682907D01*
X163916398Y-92630330D01*
X164136540Y-92601318D01*
X164368134Y-92591832D01*
X164520905Y-92595580D01*
X164888826Y-92642603D01*
X165230782Y-92741135D01*
X165538412Y-92888322D01*
X165803351Y-93081313D01*
X165805841Y-93083530D01*
X165935564Y-93181560D01*
X166042412Y-93226585D01*
X166121001Y-93216316D01*
X166137872Y-93215732D01*
X166116324Y-93260852D01*
X166101598Y-93286858D01*
X166096465Y-93336533D01*
X166141882Y-93389340D01*
X166182350Y-93429316D01*
X166271522Y-93530472D01*
X166375876Y-93659801D01*
X166481796Y-93800193D01*
X166575668Y-93934535D01*
X166682506Y-94107043D01*
X166779720Y-94298711D01*
X166854035Y-94497225D01*
X166908337Y-94714443D01*
X166945507Y-94962219D01*
X166968431Y-95252410D01*
X166979991Y-95596872D01*
X166981337Y-95682047D01*
X166982286Y-95912296D01*
X166978362Y-96084869D01*
X166969672Y-96196820D01*
X166956325Y-96245205D01*
X166931764Y-96300654D01*
X166921485Y-96385725D01*
X166918664Y-96424047D01*
X166902073Y-96529753D01*
X166873924Y-96668357D01*
X166838042Y-96819961D01*
X166814796Y-96913685D01*
X166783778Y-97047028D01*
X166762500Y-97149380D01*
X166754599Y-97204002D01*
X166775057Y-97256300D01*
X166847639Y-97289479D01*
X166978171Y-97300000D01*
X166993702Y-97299985D01*
X167036682Y-97301859D01*
X167064955Y-97312486D01*
X167076999Y-97339423D01*
X167071289Y-97390230D01*
X167046302Y-97472466D01*
X167000515Y-97593689D01*
X166932404Y-97761458D01*
X166840446Y-97983333D01*
X166791223Y-98102236D01*
X166711469Y-98296190D01*
X166637851Y-98476711D01*
X166576892Y-98627768D01*
X166535120Y-98733333D01*
X166489873Y-98847854D01*
X166441226Y-98966494D01*
X166405012Y-99050000D01*
X166373137Y-99122593D01*
X166311019Y-99275555D01*
X166241879Y-99455646D01*
X166173958Y-99640728D01*
X166115495Y-99808660D01*
X166074733Y-99937305D01*
X166054705Y-99999755D01*
X165995777Y-100121330D01*
X165932261Y-100181970D01*
X165869131Y-100185117D01*
X165811362Y-100134216D01*
X165763928Y-100032711D01*
X165731802Y-99884047D01*
X165719960Y-99691666D01*
X165719732Y-99661126D01*
X165714315Y-99545255D01*
X165703160Y-99463984D01*
X165688236Y-99433333D01*
X165674060Y-99444932D01*
X165642740Y-99507295D01*
X165605888Y-99610198D01*
X165568742Y-99738341D01*
X165536540Y-99876427D01*
X165533429Y-99889998D01*
X165491986Y-99968497D01*
X165429751Y-99991877D01*
X165359606Y-99954456D01*
X165353991Y-99947862D01*
X165327507Y-99879969D01*
X165313377Y-99780568D01*
X165312129Y-99673806D01*
X165324294Y-99583830D01*
X165350401Y-99534788D01*
X165376123Y-99503157D01*
X165400669Y-99434699D01*
X165409183Y-99364014D01*
X165395120Y-99322211D01*
X165373956Y-99323978D01*
X165313194Y-99357934D01*
X165234497Y-99420048D01*
X165195756Y-99453192D01*
X165073008Y-99548908D01*
X164952857Y-99632483D01*
X164912743Y-99656218D01*
X164752475Y-99727060D01*
X164567287Y-99781417D01*
X164374188Y-99816796D01*
X164190191Y-99830706D01*
X164032305Y-99820654D01*
X163917543Y-99784149D01*
X163850319Y-99746293D01*
X163785481Y-99711764D01*
X163690839Y-99648770D01*
X163561901Y-99508827D01*
X163449114Y-99321017D01*
X163360127Y-99096408D01*
X163351091Y-99064109D01*
X163322923Y-98901425D01*
X163306713Y-98696708D01*
X163302444Y-98468749D01*
X163310103Y-98236340D01*
X163329674Y-98018270D01*
X163361141Y-97833333D01*
X163377018Y-97767245D01*
X163498758Y-97382283D01*
X163658600Y-97050750D01*
X163857592Y-96770800D01*
X164096786Y-96540592D01*
X164159201Y-96500194D01*
X164291223Y-96438804D01*
X164444159Y-96386377D01*
X164590700Y-96353272D01*
X164628859Y-96346941D01*
X164735687Y-96314825D01*
X164790381Y-96263254D01*
X164804114Y-96183333D01*
X164799416Y-96153364D01*
X164774365Y-96130114D01*
X164713640Y-96120829D01*
X164601774Y-96120723D01*
X164434609Y-96129944D01*
X164295730Y-96156571D01*
X164171514Y-96208466D01*
X164035433Y-96293732D01*
X163847002Y-96440259D01*
X163642699Y-96648665D01*
X163469053Y-96892134D01*
X163321609Y-97178254D01*
X163195914Y-97514617D01*
X163087511Y-97908811D01*
X163076444Y-97971991D01*
X163063361Y-98108536D01*
X163054850Y-98279101D01*
X163050975Y-98466937D01*
X163051799Y-98655291D01*
X163057388Y-98827415D01*
X163067805Y-98966557D01*
X163083114Y-99055966D01*
X163084700Y-99061229D01*
X163118560Y-99174487D01*
X163153245Y-99291666D01*
X163159760Y-99312104D01*
X163208760Y-99429170D01*
X163270065Y-99540951D01*
X163291342Y-99575031D01*
X163333410Y-99650660D01*
X163350131Y-99694400D01*
X163349989Y-99695582D01*
X163315631Y-99715941D01*
X163232065Y-99738813D01*
X163115543Y-99761425D01*
X162982318Y-99781008D01*
X162848644Y-99794790D01*
X162730772Y-99800000D01*
X162672884Y-99798074D01*
X162550491Y-99787575D01*
X162406891Y-99770039D01*
X162256677Y-99747862D01*
X162114442Y-99723437D01*
X161994779Y-99699161D01*
X161912280Y-99677427D01*
X161881537Y-99660630D01*
X161868849Y-99644716D01*
X161814330Y-99633333D01*
X161773275Y-99629408D01*
X161689166Y-99603775D01*
X161644304Y-99581203D01*
X161550651Y-99534398D01*
X161424665Y-99471599D01*
X161280749Y-99399992D01*
X161155799Y-99336235D01*
X161012558Y-99259198D01*
X160894917Y-99191664D01*
X160820180Y-99143277D01*
X160795017Y-99125539D01*
X160719679Y-99084936D01*
X160669830Y-99076207D01*
X160664648Y-99079995D01*
X160639547Y-99131504D01*
X160612328Y-99228005D01*
X160588033Y-99352468D01*
X160583244Y-99381455D01*
X160558829Y-99505032D01*
X160533870Y-99599610D01*
X160513087Y-99646654D01*
X160499715Y-99664254D01*
X160478956Y-99731666D01*
X160459600Y-99791934D01*
X160412943Y-99866666D01*
X160347674Y-99950000D01*
X160346931Y-99873672D01*
X160338344Y-99812616D01*
X160283624Y-99678662D01*
X160184700Y-99526939D01*
X160048921Y-99369871D01*
X159937012Y-99268926D01*
X159827132Y-99206771D01*
X159740999Y-99205086D01*
X159679940Y-99264251D01*
X159676648Y-99270839D01*
X159662016Y-99342305D01*
X159675893Y-99405874D01*
X159712796Y-99433333D01*
X159723494Y-99435591D01*
X159780032Y-99473082D01*
X159856250Y-99544570D01*
X159937527Y-99634257D01*
X160009245Y-99726345D01*
X160056783Y-99805037D01*
X160097680Y-99918918D01*
X160106674Y-100065974D01*
X160060987Y-100225385D01*
X160024094Y-100296222D01*
X159899839Y-100445719D01*
X159718429Y-100590801D01*
X159486374Y-100727368D01*
X159210184Y-100851323D01*
X158896370Y-100958565D01*
X158878723Y-100964048D01*
X158803913Y-101002725D01*
X158792234Y-101054599D01*
X158840587Y-101129152D01*
X158863128Y-101161914D01*
X158883532Y-101265226D01*
X158848297Y-101381771D01*
X158760147Y-101499026D01*
X158759567Y-101499604D01*
X158707248Y-101544003D01*
X158648688Y-101569306D01*
X158563749Y-101580689D01*
X158432290Y-101583333D01*
X158392254Y-101583233D01*
X158277602Y-101579501D01*
X158203965Y-101565988D01*
X158151049Y-101536773D01*
X158098559Y-101485931D01*
X158063829Y-101445318D01*
X157993782Y-101316666D01*
X158677332Y-101316666D01*
X158694021Y-101333333D01*
X158710710Y-101316666D01*
X158694021Y-101300000D01*
X158677332Y-101316666D01*
X157993782Y-101316666D01*
X157990319Y-101310305D01*
X157982124Y-101177636D01*
X157985095Y-101166706D01*
X158028598Y-101123820D01*
X158126926Y-101100000D01*
X158215787Y-101081838D01*
X158265456Y-101042490D01*
X158299979Y-100961358D01*
X158309930Y-100926982D01*
X158321045Y-100785022D01*
X158279483Y-100646053D01*
X158182203Y-100505366D01*
X158026163Y-100358251D01*
X157808324Y-100200000D01*
X157572245Y-100021348D01*
X157340299Y-99793546D01*
X157152074Y-99547933D01*
X157018847Y-99297401D01*
X157005405Y-99253789D01*
X157748482Y-99253789D01*
X157772726Y-99368399D01*
X157843427Y-99541560D01*
X157938362Y-99684700D01*
X158045384Y-99779338D01*
X158062565Y-99788921D01*
X158171457Y-99833829D01*
X158292261Y-99864963D01*
X158400884Y-99877425D01*
X158473236Y-99866318D01*
X158475724Y-99865011D01*
X158545849Y-99832162D01*
X158636575Y-99793849D01*
X158667255Y-99778362D01*
X158694021Y-99757415D01*
X158757228Y-99707948D01*
X158835508Y-99616666D01*
X158889258Y-99520641D01*
X158920496Y-99411930D01*
X158933731Y-99266666D01*
X158923206Y-99074684D01*
X158863151Y-98894289D01*
X158748870Y-98749397D01*
X158577201Y-98634401D01*
X158441772Y-98594430D01*
X158281649Y-98596038D01*
X158123894Y-98637492D01*
X157988523Y-98713393D01*
X157895551Y-98818339D01*
X157869916Y-98859972D01*
X157836449Y-98900801D01*
X157826929Y-98914420D01*
X157800720Y-98978550D01*
X157771889Y-99072914D01*
X157754947Y-99145960D01*
X157748482Y-99253789D01*
X157005405Y-99253789D01*
X156994565Y-99218618D01*
X156968029Y-99053423D01*
X156955193Y-98852968D01*
X156955807Y-98635485D01*
X156969619Y-98419208D01*
X156996379Y-98222370D01*
X157035836Y-98063204D01*
X157078822Y-97947015D01*
X157123707Y-97843128D01*
X157158709Y-97779871D01*
X157169302Y-97765611D01*
X157202922Y-97703660D01*
X157181644Y-97674169D01*
X157100042Y-97666666D01*
X157048028Y-97664928D01*
X156873400Y-97627706D01*
X156718012Y-97538339D01*
X156575235Y-97391988D01*
X156438435Y-97183813D01*
X156389178Y-97076100D01*
X156344274Y-96878359D01*
X156347786Y-96678835D01*
X156400946Y-96500000D01*
X156474240Y-96403449D01*
X156608372Y-96310032D01*
X156783759Y-96240982D01*
X156957493Y-96208485D01*
X158143298Y-96208485D01*
X158143343Y-96218117D01*
X158157886Y-96366068D01*
X158202917Y-96504643D01*
X158284917Y-96645097D01*
X158410368Y-96798683D01*
X158441772Y-96830550D01*
X158585752Y-96976654D01*
X158702719Y-97084619D01*
X158790317Y-97153856D01*
X158855241Y-97187640D01*
X158908435Y-97193321D01*
X158975442Y-97163825D01*
X159008404Y-97099422D01*
X158996764Y-97022099D01*
X158937911Y-96953139D01*
X158913733Y-96935761D01*
X158776007Y-96817439D01*
X158636786Y-96671187D01*
X158515163Y-96518522D01*
X158430229Y-96380962D01*
X158393709Y-96303571D01*
X158364131Y-96220970D01*
X158360862Y-96156918D01*
X158379851Y-96087841D01*
X158383062Y-96079569D01*
X158442571Y-95984761D01*
X158479073Y-95950000D01*
X158643955Y-95950000D01*
X158660644Y-95966666D01*
X158677332Y-95950000D01*
X158660644Y-95933333D01*
X158643955Y-95950000D01*
X158479073Y-95950000D01*
X158525449Y-95905835D01*
X158637741Y-95846560D01*
X158660644Y-95844283D01*
X158743888Y-95836009D01*
X158824191Y-95886095D01*
X158876594Y-95996285D01*
X158886419Y-96026288D01*
X158942111Y-96106084D01*
X159018036Y-96130642D01*
X159101353Y-96094358D01*
X159108856Y-96087566D01*
X159144483Y-96010993D01*
X159134218Y-95911940D01*
X159084941Y-95805874D01*
X159003533Y-95708265D01*
X158896872Y-95634584D01*
X158764799Y-95585102D01*
X158621195Y-95576147D01*
X158481459Y-95624758D01*
X158331861Y-95733333D01*
X158287273Y-95775388D01*
X158202057Y-95890547D01*
X158156681Y-96028324D01*
X158143298Y-96208485D01*
X156957493Y-96208485D01*
X156987383Y-96202894D01*
X157078081Y-96192887D01*
X157150062Y-96177616D01*
X157180262Y-96154294D01*
X157182874Y-96116660D01*
X157158556Y-95906398D01*
X157151253Y-95733328D01*
X157161288Y-95571539D01*
X157188883Y-95394383D01*
X157199354Y-95340100D01*
X157244243Y-95144169D01*
X157297328Y-94983681D01*
X157368237Y-94833469D01*
X157466597Y-94668367D01*
X157477660Y-94651183D01*
X157635814Y-94444939D01*
X157815143Y-94287746D01*
X158034090Y-94163187D01*
X158169246Y-94110743D01*
X158399230Y-94069927D01*
X158621195Y-94090021D01*
X158631503Y-94090954D01*
X158869042Y-94174648D01*
G37*
G36*
X165365297Y-92209909D02*
G01*
X165361104Y-92222076D01*
X165345995Y-92226478D01*
X165277661Y-92222076D01*
X165271999Y-92210501D01*
X165319382Y-92205263D01*
X165365297Y-92209909D01*
G37*
G36*
X164739548Y-91219360D02*
G01*
X164741019Y-91316666D01*
X164740880Y-91345145D01*
X164738496Y-91427240D01*
X164733801Y-91455798D01*
X164727612Y-91424256D01*
X164727162Y-91419801D01*
X164722278Y-91301152D01*
X164727882Y-91190923D01*
X164729420Y-91180106D01*
X164735408Y-91171222D01*
X164739548Y-91219360D01*
G37*
G36*
X165347400Y-91300918D02*
G01*
X165363873Y-91338597D01*
X165371882Y-91415084D01*
X165371947Y-91431446D01*
X165364276Y-91495756D01*
X165346849Y-91513018D01*
X165342303Y-91509033D01*
X165325434Y-91461814D01*
X165319938Y-91391580D01*
X165326152Y-91327838D01*
X165344415Y-91300098D01*
X165347400Y-91300918D01*
G37*
D17*
%TO.C,D5*%
X197420000Y-92500000D02*
X198580000Y-92500000D01*
X198580000Y-91400000D02*
X197420000Y-91400000D01*
X198747000Y-90950000D02*
X198700000Y-90550000D01*
X197300000Y-90550000D02*
X197253000Y-90950000D01*
X198700000Y-90550000D02*
G75*
G03*
X198000000Y-89850000I-700000J0D01*
G01*
X198000000Y-89850000D02*
G75*
G03*
X197300000Y-90550000I-1J-699999D01*
G01*
D18*
X195720000Y-91950000D02*
G75*
G03*
X195720000Y-91950000I-100000J0D01*
G01*
D16*
%TO.C,R13*%
X203170000Y-97953641D02*
X203170000Y-97646359D01*
X203930000Y-97953641D02*
X203930000Y-97646359D01*
%TO.C,R22*%
X203980000Y-92403641D02*
X203980000Y-92096359D01*
X203220000Y-92403641D02*
X203220000Y-92096359D01*
D17*
%TO.C,D3*%
X197302500Y-107200000D02*
X197255500Y-107600000D01*
X198749500Y-107600000D02*
X198702500Y-107200000D01*
X197422500Y-109150000D02*
X198582500Y-109150000D01*
X198582500Y-108050000D02*
X197422500Y-108050000D01*
X198702500Y-107200000D02*
G75*
G03*
X198002500Y-106500000I-700000J0D01*
G01*
X198002500Y-106500000D02*
G75*
G03*
X197302500Y-107200000I-1J-699999D01*
G01*
D18*
X195722500Y-108600000D02*
G75*
G03*
X195722500Y-108600000I-100000J0D01*
G01*
D16*
%TO.C,C30*%
X201690000Y-114007836D02*
X201690000Y-113792164D01*
X202410000Y-114007836D02*
X202410000Y-113792164D01*
%TO.C,R11*%
X203170000Y-109053641D02*
X203170000Y-108746359D01*
X203930000Y-109053641D02*
X203930000Y-108746359D01*
%TO.C,C34*%
X202759420Y-102410000D02*
X203040580Y-102410000D01*
X202759420Y-101390000D02*
X203040580Y-101390000D01*
%TO.C,C39*%
X202859420Y-90960000D02*
X203140580Y-90960000D01*
X202859420Y-89940000D02*
X203140580Y-89940000D01*
%TO.C,R8*%
X201021359Y-86105000D02*
X201328641Y-86105000D01*
X201021359Y-85345000D02*
X201328641Y-85345000D01*
%TO.C,C35*%
X202809420Y-107610000D02*
X203090580Y-107610000D01*
X202809420Y-106590000D02*
X203090580Y-106590000D01*
%TO.C,G\u002A\u002A\u002A*%
G36*
X164334153Y-104789747D02*
G01*
X164380643Y-104806297D01*
X164386530Y-104820777D01*
X164391017Y-104890833D01*
X164384275Y-104993061D01*
X164373149Y-105086027D01*
X164354418Y-105209185D01*
X164334731Y-105278838D01*
X164310156Y-105306318D01*
X164276763Y-105302954D01*
X164274994Y-105302298D01*
X164200527Y-105287892D01*
X164100382Y-105281933D01*
X164086498Y-105281676D01*
X164009987Y-105268846D01*
X163978781Y-105242622D01*
X163979740Y-105237224D01*
X164022517Y-105216477D01*
X164120351Y-105216812D01*
X164126673Y-105217392D01*
X164233541Y-105214814D01*
X164280435Y-105182065D01*
X164296494Y-105125752D01*
X164278237Y-105080372D01*
X164201120Y-105067943D01*
X164125111Y-105059356D01*
X164049930Y-105032913D01*
X164030307Y-105018783D01*
X164024197Y-104999612D01*
X164072490Y-104992912D01*
X164183333Y-104996460D01*
X164235001Y-104997142D01*
X164286276Y-104979900D01*
X164298950Y-104928916D01*
X164297842Y-104909206D01*
X164271063Y-104866369D01*
X164194326Y-104855042D01*
X164115808Y-104845098D01*
X164067717Y-104819468D01*
X164066364Y-104814592D01*
X164096537Y-104796788D01*
X164167576Y-104786025D01*
X164254956Y-104783334D01*
X164334153Y-104789747D01*
G37*
G36*
X162040119Y-110658801D02*
G01*
X162051776Y-110717681D01*
X162042344Y-110839049D01*
X162017749Y-111024456D01*
X162165294Y-110856836D01*
X162237863Y-110778686D01*
X162306546Y-110714039D01*
X162345390Y-110689216D01*
X162347873Y-110689302D01*
X162368247Y-110704145D01*
X162375962Y-110752890D01*
X162371386Y-110847638D01*
X162354890Y-111000490D01*
X162343412Y-111072980D01*
X162320774Y-111155238D01*
X162297311Y-111187255D01*
X162285838Y-111177326D01*
X162275444Y-111112788D01*
X162280092Y-111000490D01*
X162298018Y-110813726D01*
X162142698Y-110990195D01*
X162065177Y-111071208D01*
X161995701Y-111126460D01*
X161958088Y-111132491D01*
X161957267Y-111131458D01*
X161946264Y-111078249D01*
X161948956Y-110984777D01*
X161962003Y-110873310D01*
X161982067Y-110766119D01*
X162005808Y-110685472D01*
X162029888Y-110653641D01*
X162040119Y-110658801D01*
G37*
G36*
X160626888Y-110282129D02*
G01*
X160678699Y-110335439D01*
X160705952Y-110406639D01*
X160705937Y-110409568D01*
X160691823Y-110467616D01*
X160658491Y-110462571D01*
X160616559Y-110395728D01*
X160609013Y-110380310D01*
X160546783Y-110319062D01*
X160469826Y-110311597D01*
X160394546Y-110350305D01*
X160337347Y-110427575D01*
X160314636Y-110535796D01*
X160316381Y-110557612D01*
X160358010Y-110633841D01*
X160436755Y-110670366D01*
X160528081Y-110653641D01*
X160574262Y-110635339D01*
X160599230Y-110651138D01*
X160584396Y-110680755D01*
X160528081Y-110724790D01*
X160448435Y-110739244D01*
X160349080Y-110708981D01*
X160270713Y-110639422D01*
X160244540Y-110546083D01*
X160261231Y-110429119D01*
X160317218Y-110320484D01*
X160398324Y-110250362D01*
X160507687Y-110231450D01*
X160626888Y-110282129D01*
G37*
G36*
X165322142Y-107958894D02*
G01*
X165312815Y-109284034D01*
X163774230Y-109293305D01*
X162235644Y-109302577D01*
X162235644Y-109052801D01*
X165152731Y-109052801D01*
X165152731Y-106882773D01*
X162235644Y-106882773D01*
X162235644Y-106633754D01*
X165331468Y-106633754D01*
X165322142Y-107958894D01*
G37*
G36*
X162626961Y-107861064D02*
G01*
X162645927Y-107878847D01*
X162633160Y-107922456D01*
X162614788Y-107934798D01*
X162555812Y-107932213D01*
X162536846Y-107914430D01*
X162549613Y-107870821D01*
X162567985Y-107858479D01*
X162626961Y-107861064D01*
G37*
G36*
X162257951Y-107994493D02*
G01*
X162277369Y-108063566D01*
X162282218Y-108088333D01*
X162306692Y-108126477D01*
X162364989Y-108146259D01*
X162475770Y-108156411D01*
X162548273Y-108162581D01*
X162635162Y-108182994D01*
X162662535Y-108216807D01*
X162655027Y-108236511D01*
X162597051Y-108262944D01*
X162475770Y-108277203D01*
X162419518Y-108281029D01*
X162334056Y-108294330D01*
X162292893Y-108321092D01*
X162277369Y-108370047D01*
X162259819Y-108435907D01*
X162234870Y-108448996D01*
X162209643Y-108410415D01*
X162190120Y-108329805D01*
X162182283Y-108216807D01*
X162188970Y-108111887D01*
X162207769Y-108028294D01*
X162232757Y-107985949D01*
X162257951Y-107994493D01*
G37*
G36*
X158431036Y-107255524D02*
G01*
X158529216Y-107311050D01*
X158581521Y-107384208D01*
X158607073Y-107477226D01*
X158605948Y-107497527D01*
X158574344Y-107593581D01*
X158513238Y-107669887D01*
X158441475Y-107700980D01*
X158401058Y-107690178D01*
X158404736Y-107653649D01*
X158464776Y-107602514D01*
X158501785Y-107573154D01*
X158539739Y-107498186D01*
X158525047Y-107421483D01*
X158467929Y-107357421D01*
X158378606Y-107320378D01*
X158267297Y-107324729D01*
X158253853Y-107328216D01*
X158200055Y-107351806D01*
X158182534Y-107397580D01*
X158190140Y-107489328D01*
X158195143Y-107556828D01*
X158185933Y-107618881D01*
X158162358Y-107627388D01*
X158130627Y-107573561D01*
X158109010Y-107459245D01*
X158138620Y-107346248D01*
X158218303Y-107267856D01*
X158339072Y-107238515D01*
X158431036Y-107255524D01*
G37*
G36*
X158797141Y-108912463D02*
G01*
X158837047Y-108950466D01*
X158889758Y-109056131D01*
X158883086Y-109166958D01*
X158820762Y-109265574D01*
X158706515Y-109334602D01*
X158651624Y-109351156D01*
X158576911Y-109351360D01*
X158501212Y-109308146D01*
X158463517Y-109274413D01*
X158406280Y-109170138D01*
X158406653Y-109151541D01*
X158483796Y-109151541D01*
X158518468Y-109221781D01*
X158594131Y-109258984D01*
X158703025Y-109246451D01*
X158707913Y-109244661D01*
X158785102Y-109185603D01*
X158819750Y-109099464D01*
X158808252Y-109010962D01*
X158747005Y-108944813D01*
X158715144Y-108930145D01*
X158652511Y-108927828D01*
X158575950Y-108972969D01*
X158568455Y-108978737D01*
X158497872Y-109064961D01*
X158483796Y-109151541D01*
X158406653Y-109151541D01*
X158408532Y-109057766D01*
X158471995Y-108957941D01*
X158478756Y-108951816D01*
X158593124Y-108873841D01*
X158652511Y-108866536D01*
X158695507Y-108861247D01*
X158797141Y-108912463D01*
G37*
G36*
X158471703Y-106724041D02*
G01*
X158554678Y-106756772D01*
X158660864Y-106811870D01*
X158753653Y-106867285D01*
X158827704Y-106916600D01*
X158856092Y-106942795D01*
X158842010Y-106984739D01*
X158801931Y-107060355D01*
X158750367Y-107143595D01*
X158702039Y-107210851D01*
X158671671Y-107238515D01*
X158669346Y-107238482D01*
X158645362Y-107223941D01*
X158658640Y-107175273D01*
X158712073Y-107081218D01*
X158727937Y-107055405D01*
X158760840Y-106992554D01*
X158755999Y-106957916D01*
X158713672Y-106926526D01*
X158672597Y-106907250D01*
X158631258Y-106921537D01*
X158583215Y-106990193D01*
X158576616Y-107001113D01*
X158527703Y-107068629D01*
X158492680Y-107096218D01*
X158468306Y-107085643D01*
X158475447Y-107043698D01*
X158517200Y-106955733D01*
X158542728Y-106901732D01*
X158549687Y-106850456D01*
X158518120Y-106811611D01*
X158483296Y-106794690D01*
X158444005Y-106818181D01*
X158391065Y-106896915D01*
X158370924Y-106928755D01*
X158319904Y-106990518D01*
X158285209Y-107006235D01*
X158280639Y-106986087D01*
X158300236Y-106923177D01*
X158340403Y-106842037D01*
X158388831Y-106766453D01*
X158433212Y-106720210D01*
X158471703Y-106724041D01*
G37*
G36*
X164797597Y-107864644D02*
G01*
X164839018Y-107825782D01*
X164869468Y-107845431D01*
X164877723Y-107879892D01*
X164838893Y-107937927D01*
X164816757Y-107955263D01*
X164800949Y-107979098D01*
X164848256Y-107984443D01*
X164887180Y-107986040D01*
X164896198Y-107998640D01*
X164848256Y-108037804D01*
X164828005Y-108051837D01*
X164746032Y-108086087D01*
X164681105Y-108083062D01*
X164654692Y-108042266D01*
X164653327Y-108038936D01*
X164725840Y-108038936D01*
X164743627Y-108056723D01*
X164761415Y-108038936D01*
X164743627Y-108021148D01*
X164725840Y-108038936D01*
X164653327Y-108038936D01*
X164642979Y-108013685D01*
X164583543Y-108010841D01*
X164540551Y-108014130D01*
X164512395Y-107990418D01*
X164542046Y-107966182D01*
X164618157Y-107963704D01*
X164627357Y-107964675D01*
X164716754Y-107953220D01*
X164743627Y-107926072D01*
X164782135Y-107887169D01*
X164797597Y-107864644D01*
G37*
G36*
X165748935Y-107958894D02*
G01*
X165739706Y-109710924D01*
X162075560Y-109729172D01*
X161968837Y-109853956D01*
X161862115Y-109978740D01*
X161706994Y-109854577D01*
X161703182Y-109851532D01*
X161605342Y-109780851D01*
X161538997Y-109754377D01*
X161486994Y-109765137D01*
X161478577Y-109769534D01*
X161388269Y-109796843D01*
X161301281Y-109774633D01*
X161196336Y-109697986D01*
X161154630Y-109663781D01*
X161074685Y-109619916D01*
X161008333Y-109624337D01*
X160981625Y-109633900D01*
X160815794Y-109654962D01*
X160650999Y-109620595D01*
X160507735Y-109537956D01*
X160406496Y-109414199D01*
X160376521Y-109371050D01*
X160289893Y-109286600D01*
X160182430Y-109210564D01*
X159979932Y-109070559D01*
X159769873Y-108882647D01*
X159579476Y-108670843D01*
X159424056Y-108452287D01*
X159318928Y-108244121D01*
X159300790Y-108202119D01*
X159240318Y-108103918D01*
X159177295Y-108045176D01*
X159109421Y-107995295D01*
X159108803Y-107982905D01*
X159351988Y-107982905D01*
X159408705Y-108021797D01*
X159416630Y-108026419D01*
X159490470Y-108106797D01*
X159551739Y-108240461D01*
X159587897Y-108331567D01*
X159709474Y-108540894D01*
X159874655Y-108742461D01*
X160067129Y-108914920D01*
X160160735Y-108982619D01*
X160232928Y-109029663D01*
X160264742Y-109043404D01*
X160264932Y-109020668D01*
X160251681Y-108945370D01*
X160226503Y-108837841D01*
X160188711Y-108675986D01*
X160119706Y-108187529D01*
X160120370Y-107940755D01*
X160280925Y-107940755D01*
X160300651Y-108284602D01*
X160365856Y-108650881D01*
X160477510Y-109054899D01*
X160508645Y-109144282D01*
X160568012Y-109278963D01*
X160628634Y-109380586D01*
X160683043Y-109437526D01*
X160723770Y-109438159D01*
X160724985Y-109426060D01*
X160711704Y-109359515D01*
X160680989Y-109249821D01*
X160641662Y-109127184D01*
X160741527Y-109127184D01*
X160831473Y-109217130D01*
X160904015Y-109274277D01*
X160973462Y-109289575D01*
X161015137Y-109245836D01*
X161003072Y-109215391D01*
X160946212Y-109176911D01*
X160866036Y-109141737D01*
X160866036Y-107967787D01*
X160909409Y-107967787D01*
X160923149Y-108000657D01*
X160968307Y-108086192D01*
X161039242Y-108212889D01*
X161130067Y-108370259D01*
X161234895Y-108547811D01*
X161328103Y-108705191D01*
X161420663Y-108864130D01*
X161494023Y-108993062D01*
X161542331Y-109081683D01*
X161559734Y-109119691D01*
X161559504Y-109121905D01*
X161531997Y-109165774D01*
X161472608Y-109228972D01*
X161440792Y-109254437D01*
X161363032Y-109287284D01*
X161300680Y-109279836D01*
X161275140Y-109231789D01*
X161269111Y-109214898D01*
X161221779Y-109195098D01*
X161197696Y-109198882D01*
X161170030Y-109234541D01*
X161186812Y-109289242D01*
X161244445Y-109340006D01*
X161285532Y-109355512D01*
X161422776Y-109360221D01*
X161614244Y-109318869D01*
X161659998Y-109316195D01*
X161709398Y-109352192D01*
X161768000Y-109442508D01*
X161802345Y-109496705D01*
X161858501Y-109555373D01*
X161899559Y-109561423D01*
X161913914Y-109515266D01*
X162092599Y-109515266D01*
X165544048Y-109515266D01*
X165544048Y-106384051D01*
X162111134Y-106402521D01*
X162101867Y-107958894D01*
X162092599Y-109515266D01*
X161913914Y-109515266D01*
X161915476Y-109510243D01*
X161907707Y-109490128D01*
X161869021Y-109414691D01*
X161802330Y-109292904D01*
X161712616Y-109133683D01*
X161604866Y-108945944D01*
X161484064Y-108738603D01*
X161402566Y-108599110D01*
X161289759Y-108403874D01*
X161193229Y-108234218D01*
X161117975Y-108099047D01*
X161068999Y-108007268D01*
X161066011Y-108000603D01*
X161500391Y-108000603D01*
X161506397Y-108012879D01*
X161561874Y-108051600D01*
X161631744Y-108047448D01*
X161680438Y-108000452D01*
X161696303Y-107956580D01*
X161692657Y-107919518D01*
X161646884Y-107877370D01*
X161640756Y-107872404D01*
X161589220Y-107851398D01*
X161535297Y-107888043D01*
X161505752Y-107933246D01*
X161500391Y-108000603D01*
X161066011Y-108000603D01*
X161051299Y-107967787D01*
X161059186Y-107946987D01*
X161097940Y-107870865D01*
X161164609Y-107748440D01*
X161254254Y-107588592D01*
X161361935Y-107400202D01*
X161482712Y-107192151D01*
X161566463Y-107048333D01*
X161589220Y-107008838D01*
X161678908Y-106853186D01*
X161774982Y-106684005D01*
X161849735Y-106549615D01*
X161898216Y-106458842D01*
X161915476Y-106420511D01*
X161910014Y-106386326D01*
X161877695Y-106370004D01*
X161825961Y-106406430D01*
X161765960Y-106490393D01*
X161748469Y-106519806D01*
X161684088Y-106599564D01*
X161630882Y-106612940D01*
X161535662Y-106583448D01*
X161399517Y-106565229D01*
X161282028Y-106574928D01*
X161199545Y-106610526D01*
X161168417Y-106670006D01*
X161177692Y-106726814D01*
X161213486Y-106732071D01*
X161283664Y-106679401D01*
X161323644Y-106647543D01*
X161373621Y-106638481D01*
X161446297Y-106671730D01*
X161515464Y-106723824D01*
X161551517Y-106777443D01*
X161540365Y-106816373D01*
X161497826Y-106907886D01*
X161429010Y-107039688D01*
X161339574Y-107200985D01*
X161235176Y-107380982D01*
X161139908Y-107543470D01*
X161047599Y-107704467D01*
X160974547Y-107835815D01*
X160926551Y-107927070D01*
X160909409Y-107967787D01*
X160866036Y-107967787D01*
X160866036Y-106793838D01*
X160946078Y-106758721D01*
X160997112Y-106725949D01*
X161026120Y-106678679D01*
X161013966Y-106649157D01*
X160960731Y-106634996D01*
X160885960Y-106654520D01*
X160812675Y-106704902D01*
X160801809Y-106716395D01*
X160784539Y-106741024D01*
X160770922Y-106776105D01*
X160760525Y-106829223D01*
X160752916Y-106907967D01*
X160747661Y-107019923D01*
X160744328Y-107172679D01*
X160742483Y-107373822D01*
X160741693Y-107630939D01*
X160741527Y-107951617D01*
X160741527Y-109127184D01*
X160641662Y-109127184D01*
X160637090Y-109112926D01*
X160612483Y-109038493D01*
X160495915Y-108611023D01*
X160434091Y-108210904D01*
X160426548Y-107823178D01*
X160472822Y-107432886D01*
X160572451Y-107025070D01*
X160620460Y-106866733D01*
X160665941Y-106720822D01*
X160701483Y-106611146D01*
X160722007Y-106553711D01*
X160728663Y-106535973D01*
X160725095Y-106496342D01*
X160685353Y-106502927D01*
X160623467Y-106555478D01*
X160604757Y-106578870D01*
X160551884Y-106674734D01*
X160496001Y-106821089D01*
X160434780Y-107024586D01*
X160365895Y-107291877D01*
X160305710Y-107604036D01*
X160280925Y-107940755D01*
X160120370Y-107940755D01*
X160120995Y-107708679D01*
X160192559Y-107238515D01*
X160220029Y-107121114D01*
X160247041Y-107010893D01*
X160264672Y-106945028D01*
X160267703Y-106934665D01*
X160270930Y-106894206D01*
X160243175Y-106891466D01*
X160176482Y-106928979D01*
X160062897Y-107009279D01*
X159926646Y-107123441D01*
X159744576Y-107328114D01*
X159603991Y-107553781D01*
X159518586Y-107781022D01*
X159492035Y-107848401D01*
X159457636Y-107878852D01*
X159430332Y-107886297D01*
X159371638Y-107927411D01*
X159354030Y-107947458D01*
X159351988Y-107982905D01*
X159108803Y-107982905D01*
X159106844Y-107943618D01*
X159175323Y-107891382D01*
X159210034Y-107863749D01*
X159275128Y-107774973D01*
X159336173Y-107651662D01*
X159363750Y-107588815D01*
X159513401Y-107335550D01*
X159714612Y-107091851D01*
X159952378Y-106874057D01*
X160211692Y-106698504D01*
X160243175Y-106679353D01*
X160246401Y-106677391D01*
X160327499Y-106613714D01*
X160369312Y-106558463D01*
X160380965Y-106534887D01*
X160437114Y-106462779D01*
X160518213Y-106382553D01*
X160528344Y-106373686D01*
X160600892Y-106315965D01*
X160665254Y-106287039D01*
X160725095Y-106281856D01*
X160747734Y-106279895D01*
X160874634Y-106287522D01*
X160960731Y-106292822D01*
X160989932Y-106294620D01*
X161076562Y-106289611D01*
X161137722Y-106265550D01*
X161197479Y-106217195D01*
X161256765Y-106169513D01*
X161333136Y-106143026D01*
X161440676Y-106148799D01*
X161451431Y-106150224D01*
X161549799Y-106153943D01*
X161629560Y-106127606D01*
X161724735Y-106060658D01*
X161861045Y-105952332D01*
X161877695Y-105970500D01*
X161977675Y-106079598D01*
X162094305Y-106206863D01*
X165758163Y-106206863D01*
X165748935Y-107958894D01*
G37*
G36*
X159923319Y-105424986D02*
G01*
X159944087Y-105446104D01*
X159991709Y-105513714D01*
X160053399Y-105611617D01*
X160103264Y-105699272D01*
X160144923Y-105785025D01*
X160157943Y-105830976D01*
X160152442Y-105840660D01*
X160101803Y-105882920D01*
X160017547Y-105933032D01*
X159977697Y-105953417D01*
X159908565Y-105981501D01*
X159863392Y-105976227D01*
X159814671Y-105938313D01*
X159773771Y-105884375D01*
X159771979Y-105871696D01*
X159846730Y-105871696D01*
X159895611Y-105897050D01*
X159981044Y-105878234D01*
X160033732Y-105851287D01*
X160059195Y-105814816D01*
X160042056Y-105753291D01*
X160013616Y-105718340D01*
X159950712Y-105717612D01*
X159875957Y-105773343D01*
X159847507Y-105815256D01*
X159846730Y-105871696D01*
X159771979Y-105871696D01*
X159763793Y-105813790D01*
X159766681Y-105778161D01*
X159728721Y-105731940D01*
X159691252Y-105706268D01*
X159674866Y-105642245D01*
X159682033Y-105626349D01*
X159758150Y-105626349D01*
X159769834Y-105676291D01*
X159810210Y-105697100D01*
X159883926Y-105675293D01*
X159938311Y-105635552D01*
X159950712Y-105594712D01*
X159954004Y-105583870D01*
X159902774Y-105542758D01*
X159851419Y-105541027D01*
X159792411Y-105574163D01*
X159758150Y-105626349D01*
X159682033Y-105626349D01*
X159709278Y-105565917D01*
X159789916Y-105494988D01*
X159810106Y-105482848D01*
X159851419Y-105459799D01*
X159884303Y-105441453D01*
X159923319Y-105424986D01*
G37*
G36*
X167799304Y-108627840D02*
G01*
X167908420Y-108675139D01*
X167956015Y-108716298D01*
X167997702Y-108802820D01*
X167983376Y-108888080D01*
X167912713Y-108951194D01*
X167869278Y-108966550D01*
X167794109Y-108964778D01*
X167692825Y-108923751D01*
X167681876Y-108918223D01*
X167557908Y-108836173D01*
X167505078Y-108753561D01*
X167505615Y-108751119D01*
X167571779Y-108751119D01*
X167578841Y-108772327D01*
X167632830Y-108822301D01*
X167718230Y-108867850D01*
X167808804Y-108896567D01*
X167878312Y-108896046D01*
X167904891Y-108881315D01*
X167926445Y-108829905D01*
X167891723Y-108767772D01*
X167806245Y-108709224D01*
X167779871Y-108697528D01*
X167672558Y-108671458D01*
X167599047Y-108690063D01*
X167571779Y-108751119D01*
X167505615Y-108751119D01*
X167523380Y-108670378D01*
X167579519Y-108629093D01*
X167672558Y-108613826D01*
X167681320Y-108612388D01*
X167799304Y-108627840D01*
G37*
G36*
X161857491Y-110619957D02*
G01*
X161877208Y-110663933D01*
X161871859Y-110768441D01*
X161841380Y-110936484D01*
X161824366Y-111003474D01*
X161793764Y-111084490D01*
X161766375Y-111116106D01*
X161747474Y-111097440D01*
X161748983Y-111036064D01*
X161754997Y-111008395D01*
X161773636Y-110906586D01*
X161792453Y-110787045D01*
X161802393Y-110730710D01*
X161825431Y-110649841D01*
X161848367Y-110618067D01*
X161857491Y-110619957D01*
G37*
G36*
X162618041Y-107428661D02*
G01*
X162621607Y-107431576D01*
X162643953Y-107485153D01*
X162655607Y-107574314D01*
X162648383Y-107656010D01*
X162601448Y-107727915D01*
X162504643Y-107762641D01*
X162350050Y-107765135D01*
X162286196Y-107759154D01*
X162206580Y-107737889D01*
X162182283Y-107700980D01*
X162186435Y-107683145D01*
X162234024Y-107652796D01*
X162342367Y-107637585D01*
X162350447Y-107637073D01*
X162484382Y-107625006D01*
X162556838Y-107607496D01*
X162577040Y-107580247D01*
X162554212Y-107538968D01*
X162543838Y-107523372D01*
X162537285Y-107465424D01*
X162567176Y-107424942D01*
X162618041Y-107428661D01*
G37*
G36*
X163910971Y-104744485D02*
G01*
X163900409Y-104983693D01*
X163893389Y-105084873D01*
X163873220Y-105194644D01*
X163841626Y-105238845D01*
X163826346Y-105241935D01*
X163807636Y-105219810D01*
X163817772Y-105143851D01*
X163828785Y-105077780D01*
X163814057Y-105040590D01*
X163757066Y-105032913D01*
X163680077Y-105057207D01*
X163592359Y-105140625D01*
X163577454Y-105159607D01*
X163518406Y-105214848D01*
X163476029Y-105225658D01*
X163471236Y-105221212D01*
X163478391Y-105176308D01*
X163533387Y-105104810D01*
X163587544Y-105043325D01*
X163600382Y-105006168D01*
X163569496Y-104984404D01*
X163533549Y-104953248D01*
X163523772Y-104871988D01*
X163587465Y-104871988D01*
X163598002Y-104903792D01*
X163661775Y-104945822D01*
X163768246Y-104961765D01*
X163817105Y-104946630D01*
X163837907Y-104899707D01*
X163816470Y-104846153D01*
X163755100Y-104812204D01*
X163700915Y-104805256D01*
X163616997Y-104819401D01*
X163587465Y-104871988D01*
X163523772Y-104871988D01*
X163522828Y-104864138D01*
X163530261Y-104820281D01*
X163554692Y-104782765D01*
X163612489Y-104764535D01*
X163700915Y-104757111D01*
X163722537Y-104755296D01*
X163910971Y-104744485D01*
G37*
G36*
X162377941Y-104779239D02*
G01*
X162365174Y-104802360D01*
X162308131Y-104819468D01*
X162301965Y-104819532D01*
X162267959Y-104827281D01*
X162251794Y-104858939D01*
X162250332Y-104930087D01*
X162260437Y-105056302D01*
X162262257Y-105077031D01*
X162266064Y-105205848D01*
X162254547Y-105267296D01*
X162233288Y-105261749D01*
X162207871Y-105189583D01*
X162183881Y-105051170D01*
X162172580Y-104970066D01*
X162153487Y-104894777D01*
X162123512Y-104862129D01*
X162073000Y-104855042D01*
X162016988Y-104846494D01*
X161986625Y-104819468D01*
X161996075Y-104800624D01*
X162048880Y-104783502D01*
X162056695Y-104783320D01*
X162139426Y-104775887D01*
X162244538Y-104761060D01*
X162249785Y-104760209D01*
X162345751Y-104754843D01*
X162377941Y-104779239D01*
G37*
G36*
X159971883Y-109980313D02*
G01*
X160043343Y-110050792D01*
X160060683Y-110122375D01*
X160018332Y-110206668D01*
X160008124Y-110219962D01*
X159960370Y-110251932D01*
X159893822Y-110230003D01*
X159844474Y-110195619D01*
X159816597Y-110154351D01*
X159824748Y-110130528D01*
X159864102Y-110123507D01*
X159907448Y-110158702D01*
X159926108Y-110177515D01*
X159969183Y-110159542D01*
X159970168Y-110158528D01*
X159978916Y-110107415D01*
X159940513Y-110047806D01*
X159872925Y-109998359D01*
X159794116Y-109977731D01*
X159734185Y-109990692D01*
X159658907Y-110053386D01*
X159620305Y-110146552D01*
X159632917Y-110245995D01*
X159653247Y-110282424D01*
X159708717Y-110323273D01*
X159806940Y-110334605D01*
X159821254Y-110334750D01*
X159896161Y-110338813D01*
X159911100Y-110353186D01*
X159875961Y-110385108D01*
X159859629Y-110395976D01*
X159766658Y-110415858D01*
X159672676Y-110384025D01*
X159594243Y-110314192D01*
X159547916Y-110220070D01*
X159550255Y-110115373D01*
X159553055Y-110106527D01*
X159622855Y-109981675D01*
X159723795Y-109916502D01*
X159844072Y-109914788D01*
X159971883Y-109980313D01*
G37*
G36*
X163757863Y-110766336D02*
G01*
X163780295Y-110902661D01*
X163788937Y-110971949D01*
X163807357Y-111062417D01*
X163833379Y-111105279D01*
X163873825Y-111116106D01*
X163913491Y-111122537D01*
X163943207Y-111151681D01*
X163923415Y-111174496D01*
X163858718Y-111187255D01*
X163772032Y-111193156D01*
X163663060Y-111209489D01*
X163582651Y-111215719D01*
X163551891Y-111194176D01*
X163569368Y-111168343D01*
X163631933Y-111145261D01*
X163634043Y-111144958D01*
X163676613Y-111132961D01*
X163698408Y-111101491D01*
X163704382Y-111033403D01*
X163699491Y-110911555D01*
X163698492Y-110775547D01*
X163711440Y-110703386D01*
X163733071Y-110700113D01*
X163757863Y-110766336D01*
G37*
G36*
X161128786Y-104985931D02*
G01*
X161163035Y-105058744D01*
X161204842Y-105183552D01*
X161250685Y-105304255D01*
X161297581Y-105371082D01*
X161339476Y-105378354D01*
X161370575Y-105321255D01*
X161388790Y-105276082D01*
X161421586Y-105246359D01*
X161428340Y-105246987D01*
X161452036Y-105278615D01*
X161440292Y-105339503D01*
X161397109Y-105403902D01*
X161357005Y-105439619D01*
X161300550Y-105455312D01*
X161231402Y-105415336D01*
X161189267Y-105358079D01*
X161144729Y-105252833D01*
X161110993Y-105130201D01*
X161097467Y-105018091D01*
X161105722Y-104970703D01*
X161128786Y-104985931D01*
G37*
G36*
X167025959Y-109480823D02*
G01*
X167032632Y-109480885D01*
X167112717Y-109484828D01*
X167132354Y-109498544D01*
X167101600Y-109528350D01*
X167082186Y-109544464D01*
X167066710Y-109576321D01*
X167091281Y-109619889D01*
X167162471Y-109692939D01*
X167201416Y-109733398D01*
X167253442Y-109801401D01*
X167265555Y-109841651D01*
X167259383Y-109850174D01*
X167235684Y-109858785D01*
X167197356Y-109834764D01*
X167134715Y-109770268D01*
X167038075Y-109657455D01*
X166889243Y-109479692D01*
X167025959Y-109480823D01*
G37*
G36*
X166269076Y-107086046D02*
G01*
X166283840Y-107135096D01*
X166283899Y-107219450D01*
X166282828Y-107228523D01*
X166249757Y-107310545D01*
X166193222Y-107345739D01*
X166133995Y-107329847D01*
X166092849Y-107258612D01*
X166069163Y-107197577D01*
X166037552Y-107167367D01*
X166021888Y-107195436D01*
X166029523Y-107265196D01*
X166041120Y-107318007D01*
X166034576Y-107341239D01*
X165994626Y-107314202D01*
X165953135Y-107263565D01*
X165940132Y-107175296D01*
X165988725Y-107096218D01*
X166038510Y-107069866D01*
X166095448Y-107096218D01*
X166123801Y-107126967D01*
X166148809Y-107187410D01*
X166151437Y-107205489D01*
X166189937Y-107259735D01*
X166198541Y-107264074D01*
X166217086Y-107248328D01*
X166208613Y-107172898D01*
X166201748Y-107096013D01*
X166222231Y-107060197D01*
X166269076Y-107086046D01*
G37*
G36*
X162222012Y-107040875D02*
G01*
X162300785Y-107075925D01*
X162430629Y-107139428D01*
X162445888Y-107146978D01*
X162555615Y-107202909D01*
X162633147Y-107245280D01*
X162662535Y-107265426D01*
X162655240Y-107271256D01*
X162601258Y-107299901D01*
X162511032Y-107343488D01*
X162404127Y-107393030D01*
X162300106Y-107439542D01*
X162218531Y-107474039D01*
X162178967Y-107487535D01*
X162172298Y-107481428D01*
X162164496Y-107433598D01*
X162166723Y-107422446D01*
X162209829Y-107370634D01*
X162290553Y-107319549D01*
X162416611Y-107259436D01*
X162290553Y-107194764D01*
X162265812Y-107181049D01*
X162193557Y-107125935D01*
X162164496Y-107077582D01*
X162164496Y-107076793D01*
X162166631Y-107044276D01*
X162181549Y-107031314D01*
X162222012Y-107040875D01*
G37*
G36*
X160247909Y-110120687D02*
G01*
X160245065Y-110157461D01*
X160215449Y-110239396D01*
X160164543Y-110350912D01*
X160100876Y-110467819D01*
X160049791Y-110537300D01*
X160018329Y-110549435D01*
X160017557Y-110548559D01*
X160019698Y-110502672D01*
X160050612Y-110419355D01*
X160099488Y-110319018D01*
X160155513Y-110222077D01*
X160207877Y-110148942D01*
X160245766Y-110120028D01*
X160247909Y-110120687D01*
G37*
G36*
X166838397Y-109637093D02*
G01*
X166916747Y-109710650D01*
X166954046Y-109797618D01*
X166936585Y-109880586D01*
X166853507Y-109937706D01*
X166811476Y-109954305D01*
X166796428Y-109974242D01*
X166843825Y-110003192D01*
X166911919Y-110025786D01*
X166977998Y-110007556D01*
X167002591Y-109937093D01*
X167009887Y-109898772D01*
X167040135Y-109890013D01*
X167066916Y-109932148D01*
X167053716Y-109999666D01*
X166999203Y-110059199D01*
X166973503Y-110071985D01*
X166873793Y-110076120D01*
X166770632Y-110024077D01*
X166681882Y-109923495D01*
X166665027Y-109895903D01*
X166628387Y-109823204D01*
X166628352Y-109802282D01*
X166688045Y-109802282D01*
X166735784Y-109871008D01*
X166785569Y-109897361D01*
X166842507Y-109871008D01*
X166871717Y-109842355D01*
X166895868Y-109799860D01*
X166895868Y-109799723D01*
X166866227Y-109747822D01*
X166801236Y-109709584D01*
X166736237Y-109705828D01*
X166695798Y-109737251D01*
X166688045Y-109802282D01*
X166628352Y-109802282D01*
X166628299Y-109771190D01*
X166661977Y-109709990D01*
X166672754Y-109694645D01*
X166736237Y-109644794D01*
X166752851Y-109631748D01*
X166838397Y-109637093D01*
G37*
G36*
X161096152Y-110530143D02*
G01*
X161137705Y-110497036D01*
X161180112Y-110475770D01*
X161197205Y-110479840D01*
X161197352Y-110509435D01*
X161156545Y-110574430D01*
X161070588Y-110682751D01*
X161012249Y-110753848D01*
X160947293Y-110835003D01*
X160911985Y-110881775D01*
X160881695Y-110904557D01*
X160848097Y-110869732D01*
X160819055Y-110770117D01*
X160811002Y-110713802D01*
X160883823Y-110713802D01*
X160885290Y-110769719D01*
X160898366Y-110784807D01*
X160936053Y-110740483D01*
X160974998Y-110681848D01*
X160983456Y-110632913D01*
X160937185Y-110618067D01*
X160901257Y-110637202D01*
X160883823Y-110713802D01*
X160811002Y-110713802D01*
X160796039Y-110609174D01*
X160787110Y-110495402D01*
X160789893Y-110400159D01*
X160809844Y-110369048D01*
X160832356Y-110382813D01*
X160848249Y-110441077D01*
X160868421Y-110499861D01*
X160934069Y-110548700D01*
X160937185Y-110549190D01*
X161019103Y-110562072D01*
X161096152Y-110530143D01*
G37*
G36*
X162686020Y-104839434D02*
G01*
X162748540Y-104951502D01*
X162780478Y-105013593D01*
X162834171Y-105118600D01*
X162861799Y-105178065D01*
X162867208Y-105204747D01*
X162854248Y-105211401D01*
X162826768Y-105210784D01*
X162794684Y-105197450D01*
X162758950Y-105139636D01*
X162740667Y-105102566D01*
X162680505Y-105071770D01*
X162602866Y-105084635D01*
X162527690Y-105135585D01*
X162474923Y-105219043D01*
X162465203Y-105236312D01*
X162432516Y-105239737D01*
X162429988Y-105235295D01*
X162432705Y-105180889D01*
X162454075Y-105086317D01*
X162481198Y-104993990D01*
X162559168Y-104993990D01*
X162574735Y-105026358D01*
X162626961Y-105032913D01*
X162636327Y-105032807D01*
X162685848Y-105021042D01*
X162689254Y-104979861D01*
X162648783Y-104895126D01*
X162601978Y-104810699D01*
X162579381Y-104895126D01*
X162573681Y-104916760D01*
X162559168Y-104993990D01*
X162481198Y-104993990D01*
X162487442Y-104972737D01*
X162526151Y-104861309D01*
X162563548Y-104773193D01*
X162592977Y-104729549D01*
X162597137Y-104728851D01*
X162601978Y-104733217D01*
X162632273Y-104760538D01*
X162686020Y-104839434D01*
G37*
G36*
X168095058Y-107514385D02*
G01*
X168140573Y-107510386D01*
X168136660Y-107535348D01*
X168075766Y-107589771D01*
X168064101Y-107598877D01*
X168014041Y-107663165D01*
X168017899Y-107747422D01*
X168046313Y-107810610D01*
X168109249Y-107843277D01*
X168147090Y-107851893D01*
X168176541Y-107892718D01*
X168166267Y-107906796D01*
X168107517Y-107913443D01*
X168013881Y-107901660D01*
X167905204Y-107876429D01*
X167801325Y-107842733D01*
X167722088Y-107805555D01*
X167687334Y-107769876D01*
X167694491Y-107755219D01*
X167768550Y-107755219D01*
X167808534Y-107776874D01*
X167848970Y-107790608D01*
X167918627Y-107805203D01*
X167947423Y-107793296D01*
X167963268Y-107744472D01*
X167941759Y-107691502D01*
X167903644Y-107687815D01*
X167831666Y-107710606D01*
X167786152Y-107732922D01*
X167768550Y-107755219D01*
X167694491Y-107755219D01*
X167705024Y-107733646D01*
X167777726Y-107673144D01*
X167896283Y-107601673D01*
X167903644Y-107598049D01*
X168007664Y-107546844D01*
X168095058Y-107514385D01*
G37*
G36*
X161887551Y-104933845D02*
G01*
X161956815Y-105042544D01*
X161964269Y-105055345D01*
X162021133Y-105163791D01*
X162051639Y-105242991D01*
X162049738Y-105277639D01*
X162024013Y-105275526D01*
X161979952Y-105233171D01*
X161932406Y-105194243D01*
X161845034Y-105175210D01*
X161830923Y-105175435D01*
X161758889Y-105194139D01*
X161731186Y-105252466D01*
X161715026Y-105301330D01*
X161671617Y-105345610D01*
X161642141Y-105344393D01*
X161642486Y-105295035D01*
X161653689Y-105250553D01*
X161676596Y-105147750D01*
X161702103Y-105024020D01*
X161706483Y-105006233D01*
X161774311Y-105006233D01*
X161784163Y-105072843D01*
X161826541Y-105104062D01*
X161863940Y-105096968D01*
X161874444Y-105056599D01*
X161827672Y-104977458D01*
X161795549Y-104937985D01*
X161778063Y-104939998D01*
X161774311Y-105006233D01*
X161706483Y-105006233D01*
X161724246Y-104934102D01*
X161755853Y-104851700D01*
X161784595Y-104820205D01*
X161786856Y-104820518D01*
X161795549Y-104827926D01*
X161826830Y-104854584D01*
X161887551Y-104933845D01*
G37*
G36*
X166182820Y-108706566D02*
G01*
X166192265Y-108705696D01*
X166266464Y-108721787D01*
X166282828Y-108757806D01*
X166284252Y-108833822D01*
X166282509Y-108847768D01*
X166266207Y-108900635D01*
X166222959Y-108919791D01*
X166131022Y-108917042D01*
X166096993Y-108913796D01*
X165985108Y-108888228D01*
X165939340Y-108843298D01*
X165943611Y-108827498D01*
X166018371Y-108827498D01*
X166023585Y-108831755D01*
X166065803Y-108827498D01*
X166071368Y-108816798D01*
X166042087Y-108803782D01*
X166023254Y-108806349D01*
X166018371Y-108827498D01*
X165943611Y-108827498D01*
X165952335Y-108795222D01*
X166153471Y-108795222D01*
X166173847Y-108843048D01*
X166196595Y-108859886D01*
X166234310Y-108844914D01*
X166239919Y-108829287D01*
X166218171Y-108784890D01*
X166182820Y-108773278D01*
X166153471Y-108795222D01*
X165952335Y-108795222D01*
X165957249Y-108777040D01*
X166001891Y-108743213D01*
X166042087Y-108730672D01*
X166092774Y-108714857D01*
X166182820Y-108706566D01*
G37*
G36*
X164656832Y-107043135D02*
G01*
X164682822Y-107044646D01*
X164779079Y-107055970D01*
X164831044Y-107070355D01*
X164839381Y-107074746D01*
X164882359Y-107108432D01*
X164913119Y-107164055D01*
X164938095Y-107257899D01*
X164963719Y-107406252D01*
X164968304Y-107434795D01*
X164997647Y-107587957D01*
X165030653Y-107723549D01*
X165061014Y-107815062D01*
X165071255Y-107838535D01*
X165094981Y-107907616D01*
X165097719Y-107972465D01*
X165077691Y-108056528D01*
X165033123Y-108183249D01*
X165010559Y-108256415D01*
X164978138Y-108399441D01*
X164955193Y-108546375D01*
X164952374Y-108571823D01*
X164941823Y-108661527D01*
X164926953Y-108732743D01*
X164900340Y-108787688D01*
X164854561Y-108828582D01*
X164782191Y-108857645D01*
X164675808Y-108877094D01*
X164527987Y-108889151D01*
X164331305Y-108896033D01*
X164078337Y-108899960D01*
X163761660Y-108903150D01*
X162733683Y-108913583D01*
X162733683Y-108839356D01*
X162804832Y-108839356D01*
X163125000Y-108839356D01*
X163196487Y-108838595D01*
X163324063Y-108832796D01*
X163412247Y-108822533D01*
X163429185Y-108815722D01*
X163543219Y-108815722D01*
X163547504Y-108819836D01*
X163606020Y-108825748D01*
X163717916Y-108830794D01*
X163872436Y-108834538D01*
X164058823Y-108836547D01*
X164177961Y-108836824D01*
X164352967Y-108835926D01*
X164492828Y-108833559D01*
X164585545Y-108829962D01*
X164619118Y-108825375D01*
X164603499Y-108806329D01*
X164542614Y-108787563D01*
X164429709Y-108771526D01*
X164258410Y-108757349D01*
X164212338Y-108754776D01*
X164690266Y-108754776D01*
X164691320Y-108791760D01*
X164704966Y-108825371D01*
X164743627Y-108803782D01*
X164750820Y-108797664D01*
X164794576Y-108737787D01*
X164773273Y-108685201D01*
X164742664Y-108663676D01*
X164704461Y-108678663D01*
X164690266Y-108754776D01*
X164212338Y-108754776D01*
X164022338Y-108744165D01*
X163979337Y-108742164D01*
X163781923Y-108735345D01*
X163649951Y-108735841D01*
X163578894Y-108743803D01*
X163564223Y-108759382D01*
X163570040Y-108777667D01*
X163543219Y-108815722D01*
X163429185Y-108815722D01*
X163445168Y-108809295D01*
X163440537Y-108791804D01*
X163396402Y-108736075D01*
X163329516Y-108684300D01*
X163269583Y-108661485D01*
X163249896Y-108655285D01*
X163244772Y-108623811D01*
X164583543Y-108623811D01*
X164584910Y-108634137D01*
X164619118Y-108661485D01*
X164627168Y-108661077D01*
X164654692Y-108645797D01*
X164653055Y-108640091D01*
X164619118Y-108608123D01*
X164605337Y-108602565D01*
X164583543Y-108623811D01*
X163244772Y-108623811D01*
X163242924Y-108612458D01*
X163248265Y-108593839D01*
X163228202Y-108533159D01*
X163180651Y-108512571D01*
X163374020Y-108512571D01*
X163374889Y-108515689D01*
X163417775Y-108534784D01*
X163514400Y-108550714D01*
X163649720Y-108560845D01*
X163781923Y-108563255D01*
X163812170Y-108563807D01*
X163983261Y-108560359D01*
X164121078Y-108551099D01*
X164168971Y-108545113D01*
X164197851Y-108537382D01*
X164165020Y-108531611D01*
X164067334Y-108527417D01*
X163901649Y-108524418D01*
X163747127Y-108521039D01*
X163597994Y-108514720D01*
X163486856Y-108506591D01*
X163430290Y-108497595D01*
X163400228Y-108491753D01*
X163374020Y-108512571D01*
X163180651Y-108512571D01*
X163142699Y-108496139D01*
X162993375Y-108483613D01*
X162804832Y-108483613D01*
X162804832Y-108839356D01*
X162733683Y-108839356D01*
X162733683Y-108426501D01*
X163127964Y-108426501D01*
X163152571Y-108430883D01*
X163238378Y-108437931D01*
X163374092Y-108445943D01*
X163400228Y-108447190D01*
X163547790Y-108454233D01*
X163747549Y-108462116D01*
X163881075Y-108467625D01*
X164074441Y-108478766D01*
X164225912Y-108491683D01*
X164325737Y-108505471D01*
X164364169Y-108519229D01*
X164367732Y-108527327D01*
X164408637Y-108554762D01*
X164421636Y-108553195D01*
X164437652Y-108519006D01*
X164424676Y-108489348D01*
X164593741Y-108489348D01*
X164597933Y-108513691D01*
X164605337Y-108524345D01*
X164608915Y-108529494D01*
X164639004Y-108554762D01*
X164643977Y-108554416D01*
X164651812Y-108533823D01*
X164613621Y-108498004D01*
X164593741Y-108489348D01*
X164424676Y-108489348D01*
X164402307Y-108438223D01*
X164400393Y-108435009D01*
X164364325Y-108399268D01*
X164302081Y-108388318D01*
X164192152Y-108398046D01*
X164118327Y-108407121D01*
X164053119Y-108408423D01*
X164031857Y-108389617D01*
X164038247Y-108347551D01*
X164121078Y-108347551D01*
X164128555Y-108372974D01*
X164163767Y-108348431D01*
X164191578Y-108328265D01*
X164270490Y-108305742D01*
X164690266Y-108305742D01*
X164700074Y-108347907D01*
X164752521Y-108378022D01*
X164766360Y-108378441D01*
X164794905Y-108388288D01*
X164761415Y-108422490D01*
X164733513Y-108453079D01*
X164708053Y-108519188D01*
X164711034Y-108539737D01*
X164742664Y-108593555D01*
X164744748Y-108597101D01*
X164795939Y-108635281D01*
X164839263Y-108632409D01*
X164850197Y-108609745D01*
X164870138Y-108531081D01*
X164888314Y-108421359D01*
X164912878Y-108234594D01*
X164801572Y-108234594D01*
X164766336Y-108235704D01*
X164706201Y-108254510D01*
X164690266Y-108305742D01*
X164270490Y-108305742D01*
X164305067Y-108300072D01*
X164334524Y-108270168D01*
X164334497Y-108266294D01*
X164332235Y-108258310D01*
X164417530Y-108258310D01*
X164422744Y-108262568D01*
X164464963Y-108258310D01*
X164595401Y-108258310D01*
X164600615Y-108262568D01*
X164642834Y-108258310D01*
X164648399Y-108247610D01*
X164619118Y-108234594D01*
X164600285Y-108237161D01*
X164595401Y-108258310D01*
X164464963Y-108258310D01*
X164470528Y-108247610D01*
X164441246Y-108234594D01*
X164422414Y-108237161D01*
X164417530Y-108258310D01*
X164332235Y-108258310D01*
X164327033Y-108239951D01*
X164292815Y-108240995D01*
X164212330Y-108269288D01*
X164150693Y-108304234D01*
X164121078Y-108347551D01*
X164038247Y-108347551D01*
X164038602Y-108345217D01*
X164071103Y-108292130D01*
X164145721Y-108247482D01*
X164187377Y-108233036D01*
X164209901Y-108204896D01*
X164177461Y-108178108D01*
X164100043Y-108158668D01*
X163987635Y-108152571D01*
X163921449Y-108152699D01*
X163889494Y-108148273D01*
X163925420Y-108139202D01*
X164008840Y-108117293D01*
X164022042Y-108110084D01*
X164370098Y-108110084D01*
X164387885Y-108127871D01*
X164405672Y-108110084D01*
X164387885Y-108092297D01*
X164370098Y-108110084D01*
X164022042Y-108110084D01*
X164067717Y-108085142D01*
X164066844Y-108066975D01*
X164006987Y-108059927D01*
X163881092Y-108066707D01*
X163658893Y-108085525D01*
X163630438Y-107975714D01*
X163622531Y-107952330D01*
X163658884Y-107952330D01*
X163689650Y-107994468D01*
X163722210Y-108032412D01*
X163751905Y-108056723D01*
X163758147Y-108056139D01*
X163758388Y-108032961D01*
X163703081Y-107981037D01*
X163677306Y-107961164D01*
X163658884Y-107952330D01*
X163622531Y-107952330D01*
X163621743Y-107950000D01*
X163818697Y-107950000D01*
X163819402Y-107962271D01*
X163869527Y-107979408D01*
X163976682Y-107985574D01*
X164042685Y-107983082D01*
X164124637Y-107970192D01*
X164156653Y-107950000D01*
X164149798Y-107939655D01*
X164093408Y-107921580D01*
X163998668Y-107914426D01*
X163954974Y-107915765D01*
X163864776Y-107928386D01*
X163818697Y-107950000D01*
X163621743Y-107950000D01*
X163608120Y-107909708D01*
X163586904Y-107882085D01*
X164308487Y-107882085D01*
X164312060Y-107919551D01*
X164327033Y-107926443D01*
X164336677Y-107930882D01*
X164339554Y-107929018D01*
X164368985Y-107878503D01*
X164341908Y-107830054D01*
X164324253Y-107833251D01*
X164308487Y-107882085D01*
X163586904Y-107882085D01*
X163569238Y-107859085D01*
X163532955Y-107874557D01*
X163507496Y-107957350D01*
X163499686Y-108056627D01*
X163519497Y-108137497D01*
X163575250Y-108163445D01*
X163604939Y-108166201D01*
X163701808Y-108199069D01*
X163799790Y-108256898D01*
X163875885Y-108324273D01*
X163907088Y-108385784D01*
X163881165Y-108395275D01*
X163797181Y-108404187D01*
X163668847Y-108410236D01*
X163510387Y-108412465D01*
X163368323Y-108413412D01*
X163239643Y-108416392D01*
X163155006Y-108420921D01*
X163127964Y-108426501D01*
X162733683Y-108426501D01*
X162733683Y-108252381D01*
X162840406Y-108252381D01*
X162842038Y-108300222D01*
X162854765Y-108380669D01*
X162875980Y-108412465D01*
X162886612Y-108405119D01*
X162904489Y-108347851D01*
X162911555Y-108252381D01*
X162909922Y-108204540D01*
X162897196Y-108124093D01*
X162875980Y-108092297D01*
X162865349Y-108099642D01*
X162847472Y-108156911D01*
X162840406Y-108252381D01*
X162733683Y-108252381D01*
X162733683Y-107741301D01*
X162805141Y-107741301D01*
X162805381Y-107831345D01*
X162809441Y-107933912D01*
X162822287Y-107990641D01*
X162848776Y-108017349D01*
X162875980Y-108024911D01*
X162893767Y-108029855D01*
X162922897Y-108034405D01*
X162971304Y-108023115D01*
X162982703Y-107962854D01*
X162983294Y-107941853D01*
X162993375Y-107912647D01*
X162997609Y-107900381D01*
X163045356Y-107882616D01*
X163145328Y-107878852D01*
X163197515Y-107878513D01*
X163265358Y-107873148D01*
X163279083Y-107856194D01*
X163250357Y-107821255D01*
X163217390Y-107781860D01*
X163207150Y-107749269D01*
X163209958Y-107746874D01*
X163257469Y-107747568D01*
X163314454Y-107784085D01*
X163350081Y-107837413D01*
X163350117Y-107837550D01*
X163362818Y-107859753D01*
X163365565Y-107841178D01*
X163800910Y-107841178D01*
X163802277Y-107851504D01*
X163836485Y-107878852D01*
X163844535Y-107878444D01*
X163872059Y-107863164D01*
X163870422Y-107857457D01*
X163836485Y-107825490D01*
X163822704Y-107819932D01*
X163800910Y-107841178D01*
X163365565Y-107841178D01*
X163369893Y-107811913D01*
X163371356Y-107790742D01*
X163385709Y-107749869D01*
X163430374Y-107738112D01*
X163525210Y-107747196D01*
X163558745Y-107751512D01*
X163569238Y-107752379D01*
X163629840Y-107757383D01*
X163643323Y-107747178D01*
X163617300Y-107724697D01*
X163777194Y-107724697D01*
X163782408Y-107728954D01*
X163822704Y-107724891D01*
X163824626Y-107724697D01*
X163830192Y-107713996D01*
X163824703Y-107711556D01*
X163894270Y-107711556D01*
X163898739Y-107724541D01*
X163914842Y-107729239D01*
X163987675Y-107724541D01*
X163993709Y-107712188D01*
X163943207Y-107706597D01*
X163894270Y-107711556D01*
X163824703Y-107711556D01*
X163800910Y-107700980D01*
X163782077Y-107703548D01*
X163777194Y-107724697D01*
X163617300Y-107724697D01*
X163608905Y-107717445D01*
X163559861Y-107690424D01*
X163511076Y-107686432D01*
X163500999Y-107690510D01*
X163480742Y-107667506D01*
X163492392Y-107646391D01*
X163548085Y-107629832D01*
X163549943Y-107629562D01*
X164087834Y-107629562D01*
X164129972Y-107598795D01*
X164143745Y-107587705D01*
X164148871Y-107582400D01*
X164346382Y-107582400D01*
X164351596Y-107586657D01*
X164387885Y-107582998D01*
X164393814Y-107582400D01*
X164399380Y-107571700D01*
X164370098Y-107558683D01*
X164351265Y-107561251D01*
X164346382Y-107582400D01*
X164148871Y-107582400D01*
X164189444Y-107540414D01*
X164178796Y-107523109D01*
X164160425Y-107536095D01*
X164116541Y-107585364D01*
X164096668Y-107611140D01*
X164087834Y-107629562D01*
X163549943Y-107629562D01*
X163570188Y-107626620D01*
X163632133Y-107580310D01*
X163657624Y-107505322D01*
X163765336Y-107505322D01*
X163783123Y-107523109D01*
X163800910Y-107505322D01*
X163783123Y-107487535D01*
X163765336Y-107505322D01*
X163657624Y-107505322D01*
X163658613Y-107502413D01*
X163657451Y-107501023D01*
X163613694Y-107494176D01*
X163519350Y-107489357D01*
X163391807Y-107487535D01*
X163361207Y-107487583D01*
X163236013Y-107490334D01*
X163164627Y-107499944D01*
X163132478Y-107520059D01*
X163125000Y-107554328D01*
X163119405Y-107591409D01*
X163086107Y-107651478D01*
X163040099Y-107682866D01*
X163001558Y-107667134D01*
X162995419Y-107653997D01*
X162995778Y-107647619D01*
X163018277Y-107647619D01*
X163036064Y-107665406D01*
X163053851Y-107647619D01*
X163036064Y-107629832D01*
X163018277Y-107647619D01*
X162995778Y-107647619D01*
X162998612Y-107597296D01*
X163003157Y-107585636D01*
X162980889Y-107552150D01*
X162961268Y-107537532D01*
X162962386Y-107490801D01*
X162989417Y-107454278D01*
X164379561Y-107454278D01*
X164407516Y-107507544D01*
X164436283Y-107564680D01*
X164412124Y-107632721D01*
X164397479Y-107658294D01*
X164396059Y-107686937D01*
X164438637Y-107698891D01*
X164538774Y-107701525D01*
X164596965Y-107703459D01*
X164662234Y-107713170D01*
X164672479Y-107728206D01*
X164652163Y-107751881D01*
X164625229Y-107821919D01*
X164620652Y-107852887D01*
X164629190Y-107869237D01*
X164672238Y-107830813D01*
X164695983Y-107808840D01*
X164751533Y-107775151D01*
X164774789Y-107787277D01*
X164753159Y-107843277D01*
X164709162Y-107886214D01*
X164624491Y-107914426D01*
X164592694Y-107913028D01*
X164555756Y-107891051D01*
X164562577Y-107825490D01*
X164571460Y-107774840D01*
X164550970Y-107743084D01*
X164477197Y-107736555D01*
X164413879Y-107739313D01*
X164390032Y-107758195D01*
X164413928Y-107807703D01*
X164440080Y-107873802D01*
X164416237Y-107946303D01*
X164399515Y-108016272D01*
X164441246Y-108072887D01*
X164445620Y-108078821D01*
X164553846Y-108125518D01*
X164593741Y-108132225D01*
X164619118Y-108136491D01*
X164719899Y-108153434D01*
X164744204Y-108155622D01*
X164853217Y-108162684D01*
X164912878Y-108154815D01*
X164916245Y-108154371D01*
X164954535Y-108123559D01*
X164989334Y-108063130D01*
X164995649Y-108050826D01*
X165030724Y-107978208D01*
X165043916Y-107942873D01*
X165039018Y-107930849D01*
X165008610Y-107876464D01*
X164968408Y-107812202D01*
X164939286Y-107772129D01*
X164933233Y-107765130D01*
X164923839Y-107742392D01*
X164917722Y-107695825D01*
X164913314Y-107609661D01*
X164909048Y-107468131D01*
X164899501Y-107344875D01*
X164871461Y-107255116D01*
X164816393Y-107183537D01*
X164811571Y-107178821D01*
X164730648Y-107120324D01*
X164656832Y-107096218D01*
X164584589Y-107096218D01*
X164655082Y-107211835D01*
X164694116Y-107286031D01*
X164723961Y-107389560D01*
X164712065Y-107460937D01*
X164658284Y-107487535D01*
X164620860Y-107475641D01*
X164557676Y-107414622D01*
X164504586Y-107324091D01*
X164475041Y-107229418D01*
X164482491Y-107155971D01*
X164496814Y-107110736D01*
X164459685Y-107096218D01*
X164447792Y-107096967D01*
X164393544Y-107130964D01*
X164381369Y-107196225D01*
X164417868Y-107265957D01*
X164442235Y-107291979D01*
X164456147Y-107333821D01*
X164417823Y-107387041D01*
X164405506Y-107401156D01*
X164379561Y-107454278D01*
X162989417Y-107454278D01*
X163001366Y-107438133D01*
X163008477Y-107434174D01*
X163231723Y-107434174D01*
X163249510Y-107451961D01*
X163266325Y-107435146D01*
X163409425Y-107435146D01*
X163436274Y-107442121D01*
X163542765Y-107448008D01*
X163658884Y-107442528D01*
X163667507Y-107442121D01*
X163674466Y-107441198D01*
X163693140Y-107434399D01*
X163649624Y-107429594D01*
X163551891Y-107427773D01*
X163537259Y-107427803D01*
X163445744Y-107430043D01*
X163409425Y-107435146D01*
X163266325Y-107435146D01*
X163267297Y-107434174D01*
X163249510Y-107416387D01*
X163231723Y-107434174D01*
X163008477Y-107434174D01*
X163036064Y-107418815D01*
X163065206Y-107402591D01*
X163097553Y-107397149D01*
X163197964Y-107388967D01*
X163249510Y-107386805D01*
X163338210Y-107383084D01*
X163498529Y-107380507D01*
X163551891Y-107380121D01*
X163567998Y-107380005D01*
X163718405Y-107375344D01*
X163783123Y-107368006D01*
X163820116Y-107363812D01*
X163825839Y-107362080D01*
X163959329Y-107362080D01*
X163968649Y-107375821D01*
X163998668Y-107377442D01*
X164041036Y-107379731D01*
X164052808Y-107379760D01*
X164134613Y-107371970D01*
X164153502Y-107351996D01*
X164105452Y-107323358D01*
X164065785Y-107318817D01*
X163989836Y-107341179D01*
X163959329Y-107362080D01*
X163825839Y-107362080D01*
X163889571Y-107342792D01*
X163943207Y-107309664D01*
X163967864Y-107290790D01*
X164043638Y-107247275D01*
X164065785Y-107250038D01*
X164104657Y-107254887D01*
X164178796Y-107313820D01*
X164179230Y-107314165D01*
X164250588Y-107361193D01*
X164314927Y-107368642D01*
X164341111Y-107354865D01*
X164341908Y-107353410D01*
X164368390Y-107305049D01*
X164331425Y-107254387D01*
X164312903Y-107229679D01*
X164310307Y-107163352D01*
X164312954Y-107150374D01*
X164309167Y-107131116D01*
X164286765Y-107117057D01*
X164236993Y-107107382D01*
X164151095Y-107101276D01*
X164020315Y-107097923D01*
X163835898Y-107096509D01*
X163589090Y-107096218D01*
X162850316Y-107096218D01*
X162827883Y-107282983D01*
X162816849Y-107409596D01*
X162808463Y-107576343D01*
X162805141Y-107741301D01*
X162733683Y-107741301D01*
X162733683Y-107025070D01*
X163589090Y-107025516D01*
X163738655Y-107025594D01*
X163748112Y-107025600D01*
X164074918Y-107026862D01*
X164336079Y-107030311D01*
X164370098Y-107031303D01*
X164536935Y-107036166D01*
X164656832Y-107043135D01*
G37*
G36*
X163446234Y-110730148D02*
G01*
X163467546Y-110763674D01*
X163477978Y-110840232D01*
X163480742Y-110973810D01*
X163480742Y-110974051D01*
X163476026Y-111101739D01*
X163463417Y-111189926D01*
X163445168Y-111222829D01*
X163430806Y-111206325D01*
X163415525Y-111136319D01*
X163409594Y-111030080D01*
X163408077Y-110955341D01*
X163400252Y-110847247D01*
X163388001Y-110781061D01*
X163383396Y-110746006D01*
X163423575Y-110724790D01*
X163446234Y-110730148D01*
G37*
G36*
X158589491Y-108341649D02*
G01*
X158580421Y-108359261D01*
X158521082Y-108393935D01*
X158423132Y-108432268D01*
X158238639Y-108493547D01*
X158458430Y-108561019D01*
X158565222Y-108597736D01*
X158646949Y-108634011D01*
X158678221Y-108659509D01*
X158677724Y-108662594D01*
X158639493Y-108694196D01*
X158555807Y-108731589D01*
X158448488Y-108768080D01*
X158339360Y-108796977D01*
X158250247Y-108811590D01*
X158202973Y-108805228D01*
X158197759Y-108793245D01*
X158233822Y-108761330D01*
X158334545Y-108726648D01*
X158390158Y-108710524D01*
X158469275Y-108681619D01*
X158500350Y-108660832D01*
X158487402Y-108649491D01*
X158422936Y-108623295D01*
X158322559Y-108593795D01*
X158301649Y-108588272D01*
X158178115Y-108545428D01*
X158115753Y-108502065D01*
X158119432Y-108461357D01*
X158163329Y-108437935D01*
X158251276Y-108407459D01*
X158359917Y-108376976D01*
X158467201Y-108352103D01*
X158551076Y-108338455D01*
X158589491Y-108341649D01*
G37*
G36*
X163413968Y-107579230D02*
G01*
X163412022Y-107609968D01*
X163354815Y-107651356D01*
X163311497Y-107673123D01*
X163248854Y-107697787D01*
X163244249Y-107682893D01*
X163296624Y-107628017D01*
X163362866Y-107583412D01*
X163412704Y-107578393D01*
X163413968Y-107579230D01*
G37*
G36*
X160445992Y-105430991D02*
G01*
X160536658Y-105523342D01*
X160610571Y-105609439D01*
X160634368Y-105658000D01*
X160610924Y-105673249D01*
X160580575Y-105659577D01*
X160521844Y-105614244D01*
X160463760Y-105582337D01*
X160377459Y-105586680D01*
X160307738Y-105638266D01*
X160279062Y-105725848D01*
X160270146Y-105785079D01*
X160243487Y-105815546D01*
X160234125Y-105805532D01*
X160220421Y-105743532D01*
X160211537Y-105642756D01*
X160207890Y-105524067D01*
X160209897Y-105408329D01*
X160215446Y-105345199D01*
X160279062Y-105345199D01*
X160279062Y-105452532D01*
X160280957Y-105499784D01*
X160299901Y-105542881D01*
X160350210Y-105541260D01*
X160392051Y-105529334D01*
X160420175Y-105517910D01*
X160420131Y-105517783D01*
X160398258Y-105489230D01*
X160349027Y-105429182D01*
X160279062Y-105345199D01*
X160215446Y-105345199D01*
X160217977Y-105316405D01*
X160232546Y-105269158D01*
X160235502Y-105267700D01*
X160277653Y-105286702D01*
X160279062Y-105287794D01*
X160352490Y-105344676D01*
X160445992Y-105430991D01*
G37*
G36*
X162623861Y-108392762D02*
G01*
X162636621Y-108402414D01*
X162662535Y-108448039D01*
X162651282Y-108481599D01*
X162601695Y-108507546D01*
X162545598Y-108487629D01*
X162537604Y-108477870D01*
X162533209Y-108426245D01*
X162569608Y-108388606D01*
X162623861Y-108392762D01*
G37*
G36*
X166291106Y-106880824D02*
G01*
X166290124Y-106914452D01*
X166277685Y-106993482D01*
X166255532Y-107025070D01*
X166232135Y-107002989D01*
X166219958Y-106936134D01*
X166211126Y-106877643D01*
X166184384Y-106847199D01*
X166163707Y-106860540D01*
X166148809Y-106918347D01*
X166142139Y-106959701D01*
X166113235Y-106989496D01*
X166092559Y-106976154D01*
X166077661Y-106918347D01*
X166070990Y-106876994D01*
X166042087Y-106847199D01*
X166018690Y-106869279D01*
X166006513Y-106936134D01*
X165997142Y-106994640D01*
X165968791Y-107025070D01*
X165963209Y-107023756D01*
X165943682Y-106980763D01*
X165942110Y-106891667D01*
X165948876Y-106827506D01*
X165969004Y-106778047D01*
X166020073Y-106756706D01*
X166122129Y-106747421D01*
X166291106Y-106736578D01*
X166291106Y-106880824D01*
G37*
G36*
X165988426Y-108989086D02*
G01*
X166006513Y-109038820D01*
X166015338Y-109071279D01*
X166063179Y-109074243D01*
X166114195Y-109056939D01*
X166205476Y-109031006D01*
X166230001Y-109025528D01*
X166284128Y-109024536D01*
X166283378Y-109047786D01*
X166233291Y-109086736D01*
X166139409Y-109132843D01*
X166111396Y-109144320D01*
X166011747Y-109181675D01*
X165959252Y-109186995D01*
X165938821Y-109156992D01*
X165935364Y-109088375D01*
X165935367Y-109087048D01*
X165945961Y-109012566D01*
X165970938Y-108981653D01*
X165988426Y-108989086D01*
G37*
G36*
X162787304Y-110739476D02*
G01*
X162792591Y-110743005D01*
X162862298Y-110816164D01*
X162864188Y-110888773D01*
X162801137Y-110953971D01*
X162676021Y-111004898D01*
X162605715Y-111034097D01*
X162564066Y-111073559D01*
X162563013Y-111098997D01*
X162600119Y-111134163D01*
X162668224Y-111143098D01*
X162741860Y-111119256D01*
X162790760Y-111097059D01*
X162834921Y-111098763D01*
X162834771Y-111125375D01*
X162793188Y-111168236D01*
X162727939Y-111206361D01*
X162662535Y-111222829D01*
X162657589Y-111222744D01*
X162571119Y-111195769D01*
X162507185Y-111135611D01*
X162489689Y-111064207D01*
X162498554Y-111033546D01*
X162529185Y-110993521D01*
X162594378Y-110954810D01*
X162710623Y-110905574D01*
X162754157Y-110886386D01*
X162788016Y-110854193D01*
X162768522Y-110812839D01*
X162706345Y-110769508D01*
X162624021Y-110768952D01*
X162560248Y-110822323D01*
X162559436Y-110823756D01*
X162518453Y-110861422D01*
X162490453Y-110842496D01*
X162496533Y-110780746D01*
X162514273Y-110751805D01*
X162589131Y-110708901D01*
X162689101Y-110703519D01*
X162787304Y-110739476D01*
G37*
G36*
X167985277Y-108305785D02*
G01*
X168016621Y-108330337D01*
X168012144Y-108407345D01*
X168009690Y-108420516D01*
X168011587Y-108496462D01*
X168057501Y-108536239D01*
X168088584Y-108552166D01*
X168083834Y-108570792D01*
X168016457Y-108594090D01*
X167938542Y-108607225D01*
X167897857Y-108589649D01*
X167892674Y-108582209D01*
X167837936Y-108554561D01*
X167746666Y-108532371D01*
X167717011Y-108526888D01*
X167638744Y-108503184D01*
X167607353Y-108477803D01*
X167608056Y-108474527D01*
X167638459Y-108448039D01*
X167785224Y-108448039D01*
X167796859Y-108467966D01*
X167852566Y-108483613D01*
X167892024Y-108474662D01*
X167941905Y-108426291D01*
X167947251Y-108388157D01*
X167907228Y-108390717D01*
X167877441Y-108400731D01*
X167817889Y-108412465D01*
X167810160Y-108413478D01*
X167785224Y-108448039D01*
X167638459Y-108448039D01*
X167645887Y-108441567D01*
X167725050Y-108397783D01*
X167822786Y-108353600D01*
X167916336Y-108319444D01*
X167947251Y-108313084D01*
X167982942Y-108305742D01*
X167985277Y-108305785D01*
G37*
G36*
X159496429Y-109657563D02*
G01*
X159501650Y-109662931D01*
X159559462Y-109769109D01*
X159552086Y-109885653D01*
X159480258Y-109997135D01*
X159387032Y-110060292D01*
X159274787Y-110079706D01*
X159172608Y-110049307D01*
X159098267Y-109974925D01*
X159069538Y-109862390D01*
X159069639Y-109857801D01*
X159140686Y-109857801D01*
X159146000Y-109900733D01*
X159193767Y-109976468D01*
X159273402Y-110010997D01*
X159363098Y-109998771D01*
X159441050Y-109934241D01*
X159467600Y-109890878D01*
X159493887Y-109785371D01*
X159453739Y-109700252D01*
X159419748Y-109675284D01*
X159330007Y-109660162D01*
X159239206Y-109692776D01*
X159168910Y-109762274D01*
X159140686Y-109857801D01*
X159069639Y-109857801D01*
X159069827Y-109849306D01*
X159103257Y-109728793D01*
X159180031Y-109641014D01*
X159282751Y-109594317D01*
X159330007Y-109595478D01*
X159394017Y-109597051D01*
X159496429Y-109657563D01*
G37*
G36*
X166077661Y-108211293D02*
G01*
X166077662Y-108211592D01*
X166102800Y-108256436D01*
X166184384Y-108270168D01*
X166185711Y-108270171D01*
X166260194Y-108280764D01*
X166291106Y-108305742D01*
X166279103Y-108318557D01*
X166214701Y-108334918D01*
X166113235Y-108341317D01*
X166011500Y-108337245D01*
X165948817Y-108318580D01*
X165948596Y-108280116D01*
X166006513Y-108216807D01*
X166042670Y-108185578D01*
X166071708Y-108174210D01*
X166077661Y-108211293D01*
G37*
G36*
X159602524Y-105889137D02*
G01*
X159617647Y-105899859D01*
X159714602Y-105974972D01*
X159778340Y-106035634D01*
X159795717Y-106069570D01*
X159764351Y-106077331D01*
X159702844Y-106049416D01*
X159670297Y-106028629D01*
X159614741Y-106017701D01*
X159545395Y-106052930D01*
X159485541Y-106112263D01*
X159481824Y-106189090D01*
X159486623Y-106244918D01*
X159466358Y-106292397D01*
X159447348Y-106284424D01*
X159418197Y-106221279D01*
X159389878Y-106109513D01*
X159371710Y-106020120D01*
X159349324Y-105916038D01*
X159425280Y-105916038D01*
X159426857Y-105946586D01*
X159454505Y-106006209D01*
X159517694Y-106004947D01*
X159553389Y-105985575D01*
X159558730Y-105946828D01*
X159496429Y-105894951D01*
X159471595Y-105880214D01*
X159433666Y-105872095D01*
X159425280Y-105916038D01*
X159349324Y-105916038D01*
X159348344Y-105911482D01*
X159332447Y-105845221D01*
X159330432Y-105783360D01*
X159375060Y-105767913D01*
X159433666Y-105790627D01*
X159466238Y-105803251D01*
X159602524Y-105889137D01*
G37*
G36*
X164678847Y-110615521D02*
G01*
X164705991Y-110715896D01*
X164712827Y-110753858D01*
X164738189Y-110872297D01*
X164765259Y-110938564D01*
X164802872Y-110967466D01*
X164859862Y-110973810D01*
X164891998Y-110975168D01*
X164927946Y-110988905D01*
X164905677Y-111013205D01*
X164832806Y-111042813D01*
X164716947Y-111072471D01*
X164674471Y-111080573D01*
X164580430Y-111089249D01*
X164547969Y-111072889D01*
X164562365Y-111048581D01*
X164621130Y-111019165D01*
X164662237Y-110998254D01*
X164677353Y-110955895D01*
X164671543Y-110936635D01*
X164654055Y-110855345D01*
X164635727Y-110747125D01*
X164629912Y-110698008D01*
X164631914Y-110610529D01*
X164651191Y-110581716D01*
X164678847Y-110615521D01*
G37*
G36*
X160590953Y-105174723D02*
G01*
X160632593Y-105244684D01*
X160671088Y-105337479D01*
X160697254Y-105403289D01*
X160747511Y-105486676D01*
X160796453Y-105529278D01*
X160833544Y-105523667D01*
X160848249Y-105462412D01*
X160855266Y-105418561D01*
X160883823Y-105388655D01*
X160896733Y-105391860D01*
X160917568Y-105433509D01*
X160910470Y-105499521D01*
X160876709Y-105559412D01*
X160843376Y-105586311D01*
X160766255Y-105598609D01*
X160690626Y-105540538D01*
X160617014Y-105412644D01*
X160545941Y-105215469D01*
X160539448Y-105191816D01*
X160535152Y-105139292D01*
X160555397Y-105136594D01*
X160590953Y-105174723D01*
G37*
G36*
X159085258Y-106012217D02*
G01*
X159150286Y-106067276D01*
X159232280Y-106153501D01*
X159316223Y-106252392D01*
X159373007Y-106330695D01*
X159386183Y-106372419D01*
X159359700Y-106384734D01*
X159354166Y-106383611D01*
X159308462Y-106349410D01*
X159242335Y-106280253D01*
X159169669Y-106193449D01*
X159104348Y-106106307D01*
X159060257Y-106036135D01*
X159051279Y-106000243D01*
X159085258Y-106012217D01*
G37*
G36*
X165233930Y-110450336D02*
G01*
X165247371Y-110470295D01*
X165201905Y-110498876D01*
X165099763Y-110526711D01*
X165081434Y-110530263D01*
X165000837Y-110554215D01*
X164979460Y-110589429D01*
X165007083Y-110649438D01*
X165010185Y-110653947D01*
X165064302Y-110682066D01*
X165166623Y-110674507D01*
X165186013Y-110671214D01*
X165264230Y-110667395D01*
X165295028Y-110683645D01*
X165293877Y-110688371D01*
X165252613Y-110716531D01*
X165170518Y-110740230D01*
X165137295Y-110747403D01*
X165066260Y-110780170D01*
X165046008Y-110835304D01*
X165047046Y-110857665D01*
X165063192Y-110887802D01*
X165113158Y-110894519D01*
X165214986Y-110882897D01*
X165288734Y-110875349D01*
X165345389Y-110880582D01*
X165340836Y-110900848D01*
X165278537Y-110930784D01*
X165161955Y-110965028D01*
X165011094Y-111001651D01*
X164975692Y-110870176D01*
X164946983Y-110758754D01*
X164918297Y-110620846D01*
X164913026Y-110536950D01*
X164930201Y-110499172D01*
X164943132Y-110493326D01*
X165015145Y-110473489D01*
X165117104Y-110453865D01*
X165159352Y-110448366D01*
X165233930Y-110450336D01*
G37*
G36*
X161417767Y-110519538D02*
G01*
X161444303Y-110526808D01*
X161527800Y-110560509D01*
X161557109Y-110590302D01*
X161529316Y-110606424D01*
X161441507Y-110599112D01*
X161323281Y-110576932D01*
X161278872Y-110775371D01*
X161256317Y-110860047D01*
X161224351Y-110942089D01*
X161196994Y-110973810D01*
X161180348Y-110961511D01*
X161177152Y-110902479D01*
X161196918Y-110789034D01*
X161240398Y-110614978D01*
X161275800Y-110483503D01*
X161417767Y-110519538D01*
G37*
G36*
X162491476Y-108591114D02*
G01*
X162595232Y-108598112D01*
X162647890Y-108614705D01*
X162662535Y-108643697D01*
X162658904Y-108660403D01*
X162626246Y-108682637D01*
X162548812Y-108693921D01*
X162413515Y-108697059D01*
X162335555Y-108696281D01*
X162231798Y-108689283D01*
X162179140Y-108672690D01*
X162164496Y-108643697D01*
X162168126Y-108626992D01*
X162200784Y-108604758D01*
X162278219Y-108593474D01*
X162413515Y-108590336D01*
X162491476Y-108591114D01*
G37*
G36*
X160944148Y-105061872D02*
G01*
X160982123Y-105141962D01*
X161022832Y-105255252D01*
X161057832Y-105365791D01*
X161084383Y-105449770D01*
X161095271Y-105484385D01*
X161094685Y-105486824D01*
X161064983Y-105511133D01*
X161038873Y-105491485D01*
X161000396Y-105419443D01*
X160958260Y-105310667D01*
X160935105Y-105241484D01*
X160900489Y-105130596D01*
X160887379Y-105067600D01*
X160893883Y-105039403D01*
X160918107Y-105032913D01*
X160944148Y-105061872D01*
G37*
G36*
X166198278Y-108453193D02*
G01*
X166204270Y-108453888D01*
X166263881Y-108460803D01*
X166286723Y-108488551D01*
X166284455Y-108547122D01*
X166270202Y-108607537D01*
X166229283Y-108638385D01*
X166140021Y-108647469D01*
X166118278Y-108647551D01*
X166010482Y-108627197D01*
X165949239Y-108577302D01*
X165948305Y-108554762D01*
X166006513Y-108554762D01*
X166007546Y-108563265D01*
X166042087Y-108590336D01*
X166050590Y-108589302D01*
X166077661Y-108554762D01*
X166148809Y-108554762D01*
X166149768Y-108563202D01*
X166182284Y-108590336D01*
X166192265Y-108588979D01*
X166237745Y-108554762D01*
X166241092Y-108536434D01*
X166204270Y-108519188D01*
X166177766Y-108523542D01*
X166148809Y-108554762D01*
X166077661Y-108554762D01*
X166076627Y-108546259D01*
X166042087Y-108519188D01*
X166033584Y-108520221D01*
X166006513Y-108554762D01*
X165948305Y-108554762D01*
X165946301Y-108506423D01*
X165950196Y-108499178D01*
X166011024Y-108467092D01*
X166042087Y-108463649D01*
X166130394Y-108453862D01*
X166198278Y-108453193D01*
G37*
G36*
X165987303Y-107386833D02*
G01*
X166006513Y-107434174D01*
X166009095Y-107449515D01*
X166049866Y-107478724D01*
X166148809Y-107487535D01*
X166180707Y-107488442D01*
X166259547Y-107500833D01*
X166291106Y-107523109D01*
X166287478Y-107531084D01*
X166237916Y-107550794D01*
X166148809Y-107558683D01*
X166107900Y-107559652D01*
X166030010Y-107574941D01*
X166006513Y-107612045D01*
X166002499Y-107636593D01*
X165970938Y-107665406D01*
X165962964Y-107661778D01*
X165943254Y-107612216D01*
X165935364Y-107523109D01*
X165936271Y-107491212D01*
X165948662Y-107412372D01*
X165970938Y-107380812D01*
X165987303Y-107386833D01*
G37*
G36*
X165021558Y-104972592D02*
G01*
X165045219Y-105059988D01*
X165064108Y-105177903D01*
X165089208Y-105394169D01*
X165210850Y-105213541D01*
X165270169Y-105131441D01*
X165331363Y-105060290D01*
X165369133Y-105032913D01*
X165370894Y-105033000D01*
X165378631Y-105060827D01*
X165346552Y-105130841D01*
X165280928Y-105231954D01*
X165188029Y-105353081D01*
X165168266Y-105376385D01*
X165096232Y-105441272D01*
X165051319Y-105442017D01*
X165037610Y-105417274D01*
X165016870Y-105341280D01*
X164999535Y-105237808D01*
X164987505Y-105126347D01*
X164982681Y-105026386D01*
X164986964Y-104957415D01*
X165002255Y-104938923D01*
X165021558Y-104972592D01*
G37*
G36*
X164302300Y-110665168D02*
G01*
X164357061Y-110696901D01*
X164359479Y-110701139D01*
X164384665Y-110769324D01*
X164408430Y-110865879D01*
X164416063Y-110905948D01*
X164434326Y-111029069D01*
X164432228Y-111095938D01*
X164409821Y-111116106D01*
X164401508Y-111114141D01*
X164368969Y-111068102D01*
X164344806Y-110976354D01*
X164335010Y-110859445D01*
X164331780Y-110824326D01*
X164291641Y-110744726D01*
X164220789Y-110712158D01*
X164138469Y-110738468D01*
X164131017Y-110744168D01*
X164097960Y-110786435D01*
X164088614Y-110853785D01*
X164099206Y-110968322D01*
X164106051Y-111035463D01*
X164105656Y-111119694D01*
X164090879Y-111151681D01*
X164064477Y-111135197D01*
X164036111Y-111067099D01*
X164019520Y-110966752D01*
X164016368Y-110856568D01*
X164028321Y-110758957D01*
X164057045Y-110696331D01*
X164118702Y-110666111D01*
X164212055Y-110654884D01*
X164302300Y-110665168D01*
G37*
G36*
X166195478Y-107702056D02*
G01*
X166260817Y-107712164D01*
X166286587Y-107741589D01*
X166291106Y-107800588D01*
X166279329Y-107884419D01*
X166221066Y-107960442D01*
X166113235Y-107985574D01*
X166032629Y-107973326D01*
X165959529Y-107912732D01*
X165942646Y-107834384D01*
X166013102Y-107834384D01*
X166041329Y-107877525D01*
X166122433Y-107907895D01*
X166150710Y-107910324D01*
X166205936Y-107898175D01*
X166219958Y-107845640D01*
X166218242Y-107821886D01*
X166189533Y-107782433D01*
X166110627Y-107772129D01*
X166077912Y-107773047D01*
X166020886Y-107789600D01*
X166013102Y-107834384D01*
X165942646Y-107834384D01*
X165935364Y-107800588D01*
X165937285Y-107754532D01*
X165955335Y-107717943D01*
X166007879Y-107703511D01*
X166110627Y-107701043D01*
X166113235Y-107700980D01*
X166195478Y-107702056D01*
G37*
G36*
X163146511Y-110736539D02*
G01*
X163154714Y-110807804D01*
X163145616Y-110938235D01*
X163142145Y-110969079D01*
X163132602Y-111073862D01*
X163137642Y-111128159D01*
X163162440Y-111148566D01*
X163212169Y-111151681D01*
X163272374Y-111160704D01*
X163302871Y-111187255D01*
X163285430Y-111201895D01*
X163214362Y-111216981D01*
X163107213Y-111222829D01*
X163026691Y-111219658D01*
X162943719Y-111206737D01*
X162911555Y-111187255D01*
X162924896Y-111166578D01*
X162982703Y-111151681D01*
X163019567Y-111145769D01*
X163047106Y-111107830D01*
X163054337Y-111018277D01*
X163054902Y-110984211D01*
X163067902Y-110848833D01*
X163095366Y-110757987D01*
X163133744Y-110724790D01*
X163146511Y-110736539D01*
G37*
G36*
X167835916Y-107144258D02*
G01*
X167910042Y-107120049D01*
X167942665Y-107109394D01*
X168001822Y-107101783D01*
X168030422Y-107123410D01*
X168045498Y-107176261D01*
X168054956Y-107255429D01*
X168056866Y-107363025D01*
X168051353Y-107416916D01*
X168021571Y-107460317D01*
X167945308Y-107469748D01*
X167859794Y-107481774D01*
X167791577Y-107514216D01*
X167763520Y-107536926D01*
X167715890Y-107558683D01*
X167678295Y-107542304D01*
X167620140Y-107463937D01*
X167565330Y-107344688D01*
X167642927Y-107344688D01*
X167644732Y-107363468D01*
X167673334Y-107425985D01*
X167719741Y-107466707D01*
X167761817Y-107463510D01*
X167772407Y-107446577D01*
X167781262Y-107372154D01*
X167762330Y-107284982D01*
X167753959Y-107270880D01*
X167710516Y-107257782D01*
X167664385Y-107286946D01*
X167642927Y-107344688D01*
X167565330Y-107344688D01*
X167553161Y-107318211D01*
X167523917Y-107245003D01*
X167820798Y-107245003D01*
X167841766Y-107319174D01*
X167891223Y-107386947D01*
X167946560Y-107416387D01*
X167952440Y-107415861D01*
X167986789Y-107379444D01*
X167996045Y-107304075D01*
X167976368Y-107215611D01*
X167964505Y-107201552D01*
X167910042Y-107191297D01*
X167849453Y-107208178D01*
X167820798Y-107245003D01*
X167523917Y-107245003D01*
X167492628Y-107166674D01*
X167628115Y-107001329D01*
X167629825Y-106999242D01*
X167701411Y-106909725D01*
X167730641Y-106863398D01*
X167721152Y-106849419D01*
X167676584Y-106856950D01*
X167613385Y-106871849D01*
X167476108Y-106899395D01*
X167387418Y-106905643D01*
X167333037Y-106890472D01*
X167298692Y-106853763D01*
X167287509Y-106832683D01*
X167283532Y-106787287D01*
X167317020Y-106732020D01*
X167396521Y-106648989D01*
X167417292Y-106628641D01*
X167495328Y-106547349D01*
X167527985Y-106494218D01*
X167521048Y-106452404D01*
X167480302Y-106405062D01*
X167477316Y-106402092D01*
X167426408Y-106361835D01*
X167377217Y-106357994D01*
X167312547Y-106395344D01*
X167215199Y-106478658D01*
X167155133Y-106528762D01*
X167084298Y-106575109D01*
X167046332Y-106582629D01*
X167049913Y-106552257D01*
X167095035Y-106492688D01*
X167168164Y-106420794D01*
X167252735Y-106351260D01*
X167332185Y-106298771D01*
X167389948Y-106278011D01*
X167442735Y-106297224D01*
X167517329Y-106356211D01*
X167580632Y-106430556D01*
X167607353Y-106495016D01*
X167600587Y-106512684D01*
X167558878Y-106574443D01*
X167491737Y-106656727D01*
X167376120Y-106788898D01*
X167539330Y-106693539D01*
X167624257Y-106645190D01*
X167701699Y-106607613D01*
X167739607Y-106602844D01*
X167749650Y-106627203D01*
X167743139Y-106639524D01*
X167692240Y-106682724D01*
X167607353Y-106736202D01*
X167563848Y-106761153D01*
X167493018Y-106804686D01*
X167465056Y-106826569D01*
X167478171Y-106827872D01*
X167543041Y-106819719D01*
X167643942Y-106801591D01*
X167765700Y-106783083D01*
X167834944Y-106789460D01*
X167844659Y-106824989D01*
X167798499Y-106891807D01*
X167740566Y-106960545D01*
X167676813Y-107041556D01*
X167661553Y-107062704D01*
X167649880Y-107087857D01*
X167679656Y-107078186D01*
X167760577Y-107032663D01*
X167872264Y-106974113D01*
X167941059Y-106955587D01*
X167963095Y-106980663D01*
X167952014Y-106996274D01*
X167893793Y-107039390D01*
X167802367Y-107092671D01*
X167762768Y-107114147D01*
X167679855Y-107165351D01*
X167662015Y-107189395D01*
X167708789Y-107184768D01*
X167710516Y-107184226D01*
X167819722Y-107149960D01*
X167835916Y-107144258D01*
G37*
G36*
X167370123Y-109173045D02*
G01*
X167393979Y-109147692D01*
X167358333Y-109106162D01*
X167333964Y-109084495D01*
X167331935Y-109032592D01*
X167393908Y-109032592D01*
X167394101Y-109036414D01*
X167427751Y-109095423D01*
X167502192Y-109159016D01*
X167592836Y-109209872D01*
X167675099Y-109230672D01*
X167695679Y-109229376D01*
X167743236Y-109200530D01*
X167734436Y-109141400D01*
X167669608Y-109062085D01*
X167663782Y-109056794D01*
X167573957Y-108997796D01*
X167486483Y-108972754D01*
X167420190Y-108983681D01*
X167393908Y-109032592D01*
X167331935Y-109032592D01*
X167331722Y-109027132D01*
X167393270Y-108946716D01*
X167417225Y-108924414D01*
X167480015Y-108895047D01*
X167486483Y-108896499D01*
X167562247Y-108913512D01*
X167646403Y-108956372D01*
X167740756Y-109025798D01*
X167801945Y-109105765D01*
X167816863Y-109190788D01*
X167782392Y-109257230D01*
X167710233Y-109294661D01*
X167612086Y-109292649D01*
X167499652Y-109240761D01*
X167467367Y-109218585D01*
X167437594Y-109202086D01*
X167451232Y-109225819D01*
X167509524Y-109296852D01*
X167532717Y-109325870D01*
X167586051Y-109404978D01*
X167607353Y-109457519D01*
X167596195Y-109502332D01*
X167534141Y-109562523D01*
X167437418Y-109586415D01*
X167423068Y-109585333D01*
X167335501Y-109548783D01*
X167244777Y-109476138D01*
X167173653Y-109388985D01*
X167144888Y-109308913D01*
X167147697Y-109298658D01*
X167216036Y-109298658D01*
X167221753Y-109327006D01*
X167267812Y-109399748D01*
X167341691Y-109470160D01*
X167421114Y-109519184D01*
X167483806Y-109527761D01*
X167530800Y-109487001D01*
X167516097Y-109419977D01*
X167436429Y-109326263D01*
X167381616Y-109280023D01*
X167297419Y-109236603D01*
X167238330Y-109242326D01*
X167216036Y-109298658D01*
X167147697Y-109298658D01*
X167164632Y-109236845D01*
X167231577Y-109177352D01*
X167297419Y-109171874D01*
X167322570Y-109169782D01*
X167370123Y-109173045D01*
G37*
G36*
X158528346Y-107823841D02*
G01*
X158529951Y-107825548D01*
X158529732Y-107863996D01*
X158482340Y-107899086D01*
X158409315Y-107914426D01*
X158356943Y-107920949D01*
X158328770Y-107956829D01*
X158322479Y-108042792D01*
X158322494Y-108052465D01*
X158327879Y-108131027D01*
X158353134Y-108157264D01*
X158413051Y-108148426D01*
X158480343Y-108138802D01*
X158538141Y-108147028D01*
X158548099Y-108155596D01*
X158552192Y-108201478D01*
X158541199Y-108209666D01*
X158476809Y-108224437D01*
X158376013Y-108232453D01*
X158260266Y-108233817D01*
X158151025Y-108228631D01*
X158069746Y-108216998D01*
X158037885Y-108199020D01*
X158037893Y-108198577D01*
X158069674Y-108173750D01*
X158144608Y-108163445D01*
X158215205Y-108156900D01*
X158245381Y-108122589D01*
X158251330Y-108038936D01*
X158245720Y-107956573D01*
X158216311Y-107921367D01*
X158144608Y-107914426D01*
X158143344Y-107914424D01*
X158068819Y-107905368D01*
X158037885Y-107883996D01*
X158040124Y-107880129D01*
X158086524Y-107863271D01*
X158176306Y-107845798D01*
X158287424Y-107830415D01*
X158397833Y-107819826D01*
X158485489Y-107816733D01*
X158528346Y-107823841D01*
G37*
G36*
X162623861Y-108784079D02*
G01*
X162636621Y-108793730D01*
X162662535Y-108839356D01*
X162651282Y-108872916D01*
X162601695Y-108898863D01*
X162545598Y-108878945D01*
X162537604Y-108869187D01*
X162533209Y-108817561D01*
X162569608Y-108779923D01*
X162623861Y-108784079D01*
G37*
G36*
X164710272Y-104860418D02*
G01*
X164817545Y-104891669D01*
X164828139Y-104895769D01*
X164865182Y-104916461D01*
X164879625Y-104951726D01*
X164873901Y-105019867D01*
X164850444Y-105139187D01*
X164827226Y-105242345D01*
X164802900Y-105333397D01*
X164786413Y-105375515D01*
X164749651Y-105383438D01*
X164668076Y-105374452D01*
X164572272Y-105351875D01*
X164490510Y-105322615D01*
X164451057Y-105293577D01*
X164449743Y-105282126D01*
X164481259Y-105269047D01*
X164570831Y-105283077D01*
X164609018Y-105291139D01*
X164702974Y-105299595D01*
X164749127Y-105273924D01*
X164761415Y-105208685D01*
X164750809Y-105166429D01*
X164693176Y-105139636D01*
X164619810Y-105132018D01*
X164543608Y-105105090D01*
X164512395Y-105068428D01*
X164514228Y-105064095D01*
X164557177Y-105057204D01*
X164639255Y-105069018D01*
X164686075Y-105078223D01*
X164754883Y-105077856D01*
X164786276Y-105045093D01*
X164793042Y-105002381D01*
X164752141Y-104948859D01*
X164644692Y-104920034D01*
X164577142Y-104902101D01*
X164548504Y-104872829D01*
X164558076Y-104859020D01*
X164616689Y-104849038D01*
X164710272Y-104860418D01*
G37*
G36*
X163379129Y-104720964D02*
G01*
X163398264Y-104752030D01*
X163407314Y-104826881D01*
X163409594Y-104959156D01*
X163409032Y-105005575D01*
X163400016Y-105128373D01*
X163383365Y-105195251D01*
X163363460Y-105202575D01*
X163344682Y-105146709D01*
X163331411Y-105024020D01*
X163320658Y-104837255D01*
X163254943Y-105025831D01*
X163223588Y-105104174D01*
X163182153Y-105178098D01*
X163150560Y-105201517D01*
X163131912Y-105184306D01*
X163091950Y-105114782D01*
X163050055Y-105012942D01*
X162988217Y-104837255D01*
X162985460Y-105024020D01*
X162981611Y-105096241D01*
X162967482Y-105178686D01*
X162947129Y-105210784D01*
X162946847Y-105210777D01*
X162928710Y-105176963D01*
X162916211Y-105087892D01*
X162911555Y-104959156D01*
X162913546Y-104829916D01*
X162922028Y-104754047D01*
X162940541Y-104721805D01*
X162972625Y-104719289D01*
X162990283Y-104726949D01*
X163041694Y-104793797D01*
X163090998Y-104921167D01*
X163148302Y-105111284D01*
X163220583Y-104920908D01*
X163253686Y-104844662D01*
X163306196Y-104757301D01*
X163351229Y-104719030D01*
X163379129Y-104720964D01*
G37*
G36*
X158805643Y-106288412D02*
G01*
X158773957Y-106354439D01*
X158761063Y-106379116D01*
X158759690Y-106422104D01*
X158797126Y-106473195D01*
X158882773Y-106549212D01*
X158925785Y-106586238D01*
X159007782Y-106669478D01*
X159034204Y-106722114D01*
X159002745Y-106740476D01*
X158977560Y-106731085D01*
X158925863Y-106685454D01*
X158924134Y-106683405D01*
X158861793Y-106623669D01*
X158777956Y-106557629D01*
X158732510Y-106527602D01*
X158671523Y-106506560D01*
X158622746Y-106528785D01*
X158593245Y-106550965D01*
X158554648Y-106563875D01*
X158553212Y-106533914D01*
X158586626Y-106471922D01*
X158652582Y-106388740D01*
X158672048Y-106367667D01*
X158747072Y-106297179D01*
X158794143Y-106270043D01*
X158805643Y-106288412D01*
G37*
G36*
X168016092Y-107987028D02*
G01*
X168105385Y-107994280D01*
X168151857Y-108008323D01*
X168167658Y-108032471D01*
X168144761Y-108056138D01*
X168061601Y-108065799D01*
X167913225Y-108062581D01*
X167796055Y-108052253D01*
X167710979Y-108036227D01*
X167678501Y-108018113D01*
X167678734Y-108016667D01*
X167715297Y-108001387D01*
X167798646Y-107991045D01*
X167906378Y-107986104D01*
X168016092Y-107987028D01*
G37*
G36*
X163547893Y-105426588D02*
G01*
X163865350Y-105445045D01*
X164134282Y-105474204D01*
X164662312Y-105571130D01*
X165171312Y-105706479D01*
X165642175Y-105875442D01*
X166070404Y-106075319D01*
X166451503Y-106303411D01*
X166780976Y-106557017D01*
X167054328Y-106833439D01*
X167267062Y-107129976D01*
X167414682Y-107443930D01*
X167445889Y-107541007D01*
X167486935Y-107741347D01*
X167499130Y-107967787D01*
X167478523Y-108220355D01*
X167391955Y-108538368D01*
X167241026Y-108842392D01*
X167029215Y-109129846D01*
X166760005Y-109398150D01*
X166436876Y-109644724D01*
X166063308Y-109866990D01*
X165642784Y-110062367D01*
X165178785Y-110228276D01*
X164674790Y-110362137D01*
X164134282Y-110461370D01*
X164020914Y-110475788D01*
X163727493Y-110500141D01*
X163395343Y-110513792D01*
X163046276Y-110516740D01*
X162702107Y-110508986D01*
X162384650Y-110490529D01*
X162115718Y-110461370D01*
X161696761Y-110388190D01*
X161184036Y-110262087D01*
X160710503Y-110103341D01*
X160279643Y-109914532D01*
X159894936Y-109698239D01*
X159559865Y-109457042D01*
X159277910Y-109193521D01*
X159052552Y-108910255D01*
X158887272Y-108609824D01*
X158785551Y-108294808D01*
X158753144Y-107989226D01*
X158898697Y-107989226D01*
X158920883Y-108175876D01*
X158927854Y-108211299D01*
X159030237Y-108530812D01*
X159198466Y-108833054D01*
X159429130Y-109115659D01*
X159718819Y-109376260D01*
X160064121Y-109612490D01*
X160461627Y-109821982D01*
X160907927Y-110002370D01*
X161399609Y-110151287D01*
X161933263Y-110266366D01*
X162075184Y-110290043D01*
X162249670Y-110314045D01*
X162424106Y-110330600D01*
X162616282Y-110340922D01*
X162843984Y-110346224D01*
X163125000Y-110347722D01*
X163210761Y-110347453D01*
X163659299Y-110335255D01*
X164060802Y-110302989D01*
X164434010Y-110248013D01*
X164797668Y-110167684D01*
X165170518Y-110059361D01*
X165618295Y-109895600D01*
X166052363Y-109689502D01*
X166427863Y-109456334D01*
X166742779Y-109197772D01*
X166995096Y-108915492D01*
X167182795Y-108611168D01*
X167303862Y-108286477D01*
X167318270Y-108228281D01*
X167350705Y-108027896D01*
X167345349Y-107841930D01*
X167302106Y-107633828D01*
X167224765Y-107411950D01*
X167057271Y-107108187D01*
X166826532Y-106824207D01*
X166536171Y-106562393D01*
X166189806Y-106325128D01*
X165791060Y-106114794D01*
X165343553Y-105933774D01*
X164850905Y-105784452D01*
X164316737Y-105669208D01*
X163990426Y-105624179D01*
X163581433Y-105592920D01*
X163148067Y-105581793D01*
X162713481Y-105590798D01*
X162300829Y-105619937D01*
X161933263Y-105669208D01*
X161913994Y-105672624D01*
X161379922Y-105789356D01*
X160888383Y-105940009D01*
X160442745Y-106122257D01*
X160046376Y-106333775D01*
X159702647Y-106572235D01*
X159414923Y-106835313D01*
X159186576Y-107120681D01*
X159020972Y-107426014D01*
X158921481Y-107748985D01*
X158909777Y-107815648D01*
X158898697Y-107989226D01*
X158753144Y-107989226D01*
X158750870Y-107967787D01*
X158771477Y-107715219D01*
X158858045Y-107397206D01*
X159008974Y-107093182D01*
X159220785Y-106805729D01*
X159489995Y-106537425D01*
X159813124Y-106290850D01*
X160186692Y-106068584D01*
X160607216Y-105873207D01*
X161071215Y-105707298D01*
X161575210Y-105573437D01*
X162115718Y-105474204D01*
X162229086Y-105459786D01*
X162522507Y-105435433D01*
X162854657Y-105421782D01*
X163148067Y-105419304D01*
X163203724Y-105418834D01*
X163547893Y-105426588D01*
G37*
G36*
X166982934Y-105877696D02*
G01*
X166955449Y-105941586D01*
X166891263Y-106034898D01*
X166868731Y-106063668D01*
X166821279Y-106130559D01*
X166820582Y-106151395D01*
X166869904Y-106127134D01*
X166972508Y-106058733D01*
X167055558Y-106012721D01*
X167123554Y-105993417D01*
X167144926Y-105995974D01*
X167159139Y-106017401D01*
X167148115Y-106073662D01*
X167110802Y-106180182D01*
X167041432Y-106366947D01*
X167159185Y-106233543D01*
X167201767Y-106187141D01*
X167266291Y-106124638D01*
X167302813Y-106100140D01*
X167319281Y-106108389D01*
X167308623Y-106147354D01*
X167258142Y-106224807D01*
X167163853Y-106347855D01*
X167087871Y-106434630D01*
X167020105Y-106485673D01*
X166982860Y-106476081D01*
X166977166Y-106408339D01*
X167004053Y-106284931D01*
X167064552Y-106108344D01*
X167060334Y-106092813D01*
X167011159Y-106110094D01*
X166917761Y-106168464D01*
X166845437Y-106213460D01*
X166753592Y-106255822D01*
X166695726Y-106263426D01*
X166673325Y-106248314D01*
X166671625Y-106217177D01*
X166700772Y-106161946D01*
X166766135Y-106072836D01*
X166873080Y-105940056D01*
X166934749Y-105874400D01*
X166975455Y-105852282D01*
X166982934Y-105877696D01*
G37*
G36*
X159148271Y-109326874D02*
G01*
X159218741Y-109403602D01*
X159247426Y-109459437D01*
X159223021Y-109479692D01*
X159222137Y-109479646D01*
X159180204Y-109455906D01*
X159115671Y-109401753D01*
X159032708Y-109323813D01*
X158877408Y-109476229D01*
X158802463Y-109543211D01*
X158734482Y-109589119D01*
X158699908Y-109592725D01*
X158699363Y-109591666D01*
X158715505Y-109550382D01*
X158774219Y-109479723D01*
X158863421Y-109394350D01*
X159049132Y-109231894D01*
X159148271Y-109326874D01*
G37*
G36*
X163644030Y-104493114D02*
G01*
X163989373Y-104512706D01*
X164304810Y-104546320D01*
X164608099Y-104596203D01*
X164916996Y-104664602D01*
X165249258Y-104753765D01*
X165742089Y-104915335D01*
X166256920Y-105132891D01*
X166727194Y-105385602D01*
X167149296Y-105670364D01*
X167519608Y-105984075D01*
X167834516Y-106323633D01*
X168090403Y-106685935D01*
X168283653Y-107067878D01*
X168410652Y-107466360D01*
X168425131Y-107545099D01*
X168443780Y-107749795D01*
X168446880Y-107985504D01*
X168435287Y-108226947D01*
X168409855Y-108448842D01*
X168371439Y-108625910D01*
X168260869Y-108923769D01*
X168052768Y-109312700D01*
X167782144Y-109677772D01*
X167452351Y-110016658D01*
X167066745Y-110327026D01*
X166628681Y-110606550D01*
X166141514Y-110852899D01*
X165608599Y-111063744D01*
X165033291Y-111236757D01*
X164418946Y-111369608D01*
X164312604Y-111387769D01*
X164156597Y-111410856D01*
X164003586Y-111427664D01*
X163838746Y-111439120D01*
X163647251Y-111446152D01*
X163414278Y-111449691D01*
X163125000Y-111450664D01*
X162935649Y-111450302D01*
X162683523Y-111447823D01*
X162478375Y-111442194D01*
X162305379Y-111432487D01*
X162149710Y-111417773D01*
X161996544Y-111397123D01*
X161831054Y-111369608D01*
X161399048Y-111281511D01*
X160807042Y-111119403D01*
X160257738Y-110918436D01*
X159754283Y-110680806D01*
X159299827Y-110408711D01*
X158897518Y-110104346D01*
X158550504Y-109769908D01*
X158261934Y-109407594D01*
X158034956Y-109019600D01*
X157872719Y-108608123D01*
X157840387Y-108465029D01*
X157814496Y-108242308D01*
X157804784Y-107993295D01*
X157807162Y-107900852D01*
X157869971Y-107900852D01*
X157890557Y-108291173D01*
X157980947Y-108675324D01*
X158140826Y-109051019D01*
X158369880Y-109415972D01*
X158667796Y-109767896D01*
X159037783Y-110109380D01*
X159492568Y-110439106D01*
X159995980Y-110721434D01*
X160544664Y-110955150D01*
X161135264Y-111139042D01*
X161764424Y-111271896D01*
X162428788Y-111352498D01*
X163125000Y-111379635D01*
X163762001Y-111356990D01*
X164429262Y-111280980D01*
X165061610Y-111152613D01*
X165655689Y-110973103D01*
X166208144Y-110743662D01*
X166715619Y-110465505D01*
X167174757Y-110139845D01*
X167582204Y-109767896D01*
X167596748Y-109752737D01*
X167874818Y-109426910D01*
X168087637Y-109097430D01*
X168240555Y-108754548D01*
X168338919Y-108388513D01*
X168379877Y-108036041D01*
X168360497Y-107642225D01*
X168270839Y-107257893D01*
X168111105Y-106883633D01*
X167881493Y-106520033D01*
X167582204Y-106167679D01*
X167212217Y-105826194D01*
X166757432Y-105496468D01*
X166254020Y-105214141D01*
X165705336Y-104980424D01*
X165114736Y-104796532D01*
X164485576Y-104663678D01*
X163821212Y-104583076D01*
X163125000Y-104555939D01*
X162487999Y-104578585D01*
X161820738Y-104654594D01*
X161188390Y-104782961D01*
X160594311Y-104962472D01*
X160041856Y-105191912D01*
X159534381Y-105470069D01*
X159075242Y-105795729D01*
X158667796Y-106167679D01*
X158565201Y-106278604D01*
X158434912Y-106431218D01*
X158322676Y-106575201D01*
X158245026Y-106690124D01*
X158230171Y-106715732D01*
X158039464Y-107110845D01*
X157919501Y-107506648D01*
X157869971Y-107900852D01*
X157807162Y-107900852D01*
X157811251Y-107741886D01*
X157833895Y-107511973D01*
X157872719Y-107327451D01*
X157977666Y-107040950D01*
X158184938Y-106645451D01*
X158454777Y-106274953D01*
X158784035Y-105931650D01*
X159169563Y-105617741D01*
X159608212Y-105335421D01*
X160096834Y-105086887D01*
X160632281Y-104874335D01*
X161211404Y-104699963D01*
X161831054Y-104565966D01*
X161937396Y-104547805D01*
X162093403Y-104524718D01*
X162246414Y-104507911D01*
X162411254Y-104496455D01*
X162602748Y-104489422D01*
X162835722Y-104485883D01*
X163125000Y-104484910D01*
X163251024Y-104485296D01*
X163644030Y-104493114D01*
G37*
%TD*%
M02*
