M48
; DRILL file {KiCad 6.0.7-f9a2dced07~116~ubuntu20.04.1} date Tue Aug 30 23:17:46 2022
; FORMAT={-:-/ absolute / inch / decimal}
; #@! TF.CreationDate,2022-08-30T23:17:46+05:30
; #@! TF.GenerationSoftware,Kicad,Pcbnew,6.0.7-f9a2dced07~116~ubuntu20.04.1
; #@! TF.FileFunction,Plated,1,2,PTH
FMAT,2
INCH
; #@! TA.AperFunction,Plated,PTH,ViaDrill
T1C0.0118
; #@! TA.AperFunction,Plated,PTH,ComponentDrill
T2C0.0118
; #@! TA.AperFunction,Plated,PTH,ComponentDrill
T3C0.0197
; #@! TA.AperFunction,Plated,PTH,ComponentDrill
T4C0.0315
; #@! TA.AperFunction,Plated,PTH,ComponentDrill
T5C0.0394
%
G90
G05
T1
X5.9134Y-3.6545
X5.9446Y-3.65
X6.0453Y-3.7256
X6.0512Y-3.561
X6.0551Y-3.5068
X6.0591Y-3.9547
X6.0728Y-4.0945
X6.0748Y-3.7894
X6.0787Y-3.7559
X6.0984Y-4.0689
X6.1142Y-3.3189
X6.1417Y-3.624
X6.1693Y-4.0394
X6.1693Y-4.0748
X6.1693Y-4.1102
X6.1811Y-3.622
X6.2461Y-3.9449
X6.2499Y-3.9133
X6.2776Y-3.8524
X6.2815Y-3.7323
X6.2815Y-3.8228
X6.2835Y-3.7697
X6.2871Y-3.9729
X6.2874Y-4.3484
X6.2972Y-3.5236
X6.311Y-3.3839
X6.311Y-3.6772
X6.311Y-3.9449
X6.3189Y-3.7382
X6.3465Y-4.373
X6.3504Y-3.9744
X6.3583Y-3.6772
X6.3898Y-3.9724
X6.3937Y-4.2402
X6.4094Y-3.9449
X6.4291Y-3.3268
X6.4291Y-3.6673
X6.4311Y-3.9724
X6.4311Y-4.2579
X6.4528Y-3.5
X6.4606Y-4.2008
X6.4606Y-4.2343
X6.4882Y-3.7874
X6.4902Y-3.7323
X6.5059Y-3.9311
X6.5197Y-3.8583
X6.5276Y-3.8091
X6.5335Y-3.9508
X6.5472Y-3.6457
X6.5551Y-3.7205
X6.5748Y-3.9508
X6.5748Y-4.189
X6.5754Y-3.637
X6.5984Y-4.126
X6.6457Y-3.3189
X6.6752Y-4.0945
X6.6811Y-3.3543
X6.6811Y-3.4409
X6.7126Y-3.815
X6.7315Y-3.6732
X6.7421Y-3.8071
X6.7421Y-4.1398
X6.7776Y-3.8858
X6.7933Y-4.0965
X6.7953Y-3.502
X6.7972Y-3.9626
X6.8307Y-3.7087
X6.8583Y-3.6476
X6.8701Y-3.4626
X6.8701Y-4.065
X6.9035Y-3.3445
X6.935Y-4.1476
X6.9547Y-3.6654
X7.0433Y-3.9843
X7.0512Y-3.7933
X7.065Y-3.8425
X7.0965Y-3.8838
X7.1024Y-3.8189
X7.1024Y-4.0118
X7.122Y-3.7657
X7.1672Y-3.821
X7.185Y-3.874
X7.1988Y-3.7598
X7.2165Y-4.2264
X7.2402Y-4.4449
X7.2441Y-3.1083
X7.249Y-3.7638
X7.2638Y-3.7992
X7.2677Y-3.6456
X7.2717Y-4.3071
X7.2746Y-4.0118
X7.2992Y-4.1988
X7.3366Y-3.7244
X7.3602Y-3.4961
X7.3976Y-3.9685
X7.3976Y-4.0512
X7.3976Y-4.1339
X7.4409Y-3.2362
X7.4724Y-3.9685
X7.4724Y-4.0512
X7.4724Y-4.1339
X7.4961Y-3.8701
X7.5472Y-3.9685
X7.5472Y-4.0512
X7.5472Y-4.1339
X7.7776Y-3.3726
X7.8091Y-4.3465
X7.813Y-3.9134
X7.815Y-4.1417
X7.8285Y-3.4726
X7.8366Y-4.4803
X7.8386Y-3.6929
X7.8425Y-3.3287
X7.8445Y-3.1063
X7.8563Y-3.252
X7.887Y-3.3701
X7.8911Y-4.472
X7.8937Y-4.0079
X7.8937Y-4.1457
X7.8947Y-3.7776
X7.8947Y-4.2126
X7.8967Y-3.5571
X7.9016Y-3.9154
X7.9035Y-4.0591
X7.9055Y-3.6949
X7.9055Y-3.8287
X7.9075Y-3.6083
X7.9075Y-4.2638
X7.9075Y-4.3504
X7.9168Y-4.4901
X7.9528Y-3.6516
X7.9528Y-3.8642
X7.9528Y-4.0886
X7.9567Y-4.2992
X7.9823Y-4.0453
X7.9836Y-3.8088
X7.9862Y-4.2461
X7.9868Y-3.5892
X7.9902Y-3.2028
X7.9902Y-3.3726
X7.9902Y-3.4226
X7.9921Y-3.1535
X8.0118Y-4.0645
X8.0138Y-3.8303
X8.0138Y-4.2685
X8.0157Y-3.613
T2
X8.0807Y-3.3189
X8.0807Y-3.4764
X8.0827Y-3.5728
X8.0827Y-3.6909
X8.0827Y-4.0236
X8.0827Y-4.1417
X8.0827Y-4.2283
X8.0827Y-4.3465
X8.0846Y-3.7933
X8.0846Y-3.9114
X8.0846Y-4.4055
X8.0846Y-4.563
X8.0854Y-3.0984
X8.0854Y-3.2559
T3
X7.2805Y-4.0778
X7.2825Y-3.562
X7.2825Y-4.1388
X7.2844Y-3.501
T5
X7.4114Y-3.3622
X7.5098Y-3.3622
T4
G00X5.935Y-3.7323
M15
G01X5.935Y-3.748
M16
G05
G00X5.935Y-3.8898
M15
G01X5.935Y-3.9055
M16
G05
G00X5.9753Y-3.5351
M15
G01X5.9696Y-3.5204
M16
G05
G00X5.9753Y-4.1027
M15
G01X5.9696Y-4.1174
M16
G05
G00X6.0186Y-3.6449
M15
G01X6.0129Y-3.6303
M16
G05
G00X6.0186Y-3.9928
M15
G01X6.0129Y-4.0075
M16
G05
G00X6.0618Y-3.3769
M15
G01X6.0463Y-3.3742
M16
G05
G00X6.0638Y-4.2609
M15
G01X6.0483Y-4.2636
M16
G05
G00X6.1781Y-3.3974
M15
G01X6.1626Y-3.3947
M16
G05
G00X6.1801Y-4.2403
M15
G01X6.1646Y-4.2431
M16
G05
G00X6.7795Y-3.622
M15
G01X6.7638Y-3.622
M16
G05
G00X6.7638Y-4.0157
M15
G01X6.7795Y-4.0157
M16
G05
G00X6.937Y-3.622
M15
G01X6.9213Y-3.622
M16
G05
G00X6.9213Y-4.0157
M15
G01X6.937Y-4.0157
M16
G05
T0
M30
