%TF.GenerationSoftware,KiCad,Pcbnew,6.0.11-2627ca5db0~126~ubuntu22.04.1*%
%TF.CreationDate,2023-03-12T15:28:39+05:30*%
%TF.ProjectId,mushak_pcb,6d757368-616b-45f7-9063-622e6b696361,rev?*%
%TF.SameCoordinates,Original*%
%TF.FileFunction,Paste,Bot*%
%TF.FilePolarity,Positive*%
%FSLAX46Y46*%
G04 Gerber Fmt 4.6, Leading zero omitted, Abs format (unit mm)*
G04 Created by KiCad (PCBNEW 6.0.11-2627ca5db0~126~ubuntu22.04.1) date 2023-03-12 15:28:39*
%MOMM*%
%LPD*%
G01*
G04 APERTURE LIST*
G04 Aperture macros list*
%AMRoundRect*
0 Rectangle with rounded corners*
0 $1 Rounding radius*
0 $2 $3 $4 $5 $6 $7 $8 $9 X,Y pos of 4 corners*
0 Add a 4 corners polygon primitive as box body*
4,1,4,$2,$3,$4,$5,$6,$7,$8,$9,$2,$3,0*
0 Add four circle primitives for the rounded corners*
1,1,$1+$1,$2,$3*
1,1,$1+$1,$4,$5*
1,1,$1+$1,$6,$7*
1,1,$1+$1,$8,$9*
0 Add four rect primitives between the rounded corners*
20,1,$1+$1,$2,$3,$4,$5,0*
20,1,$1+$1,$4,$5,$6,$7,0*
20,1,$1+$1,$6,$7,$8,$9,0*
20,1,$1+$1,$8,$9,$2,$3,0*%
G04 Aperture macros list end*
%ADD10C,0.010000*%
%ADD11R,1.200000X0.400000*%
%ADD12RoundRect,0.135000X0.135000X0.185000X-0.135000X0.185000X-0.135000X-0.185000X0.135000X-0.185000X0*%
%ADD13RoundRect,0.135000X-0.135000X-0.185000X0.135000X-0.185000X0.135000X0.185000X-0.135000X0.185000X0*%
%ADD14RoundRect,0.140000X-0.170000X0.140000X-0.170000X-0.140000X0.170000X-0.140000X0.170000X0.140000X0*%
%ADD15R,0.900000X1.400000*%
%ADD16RoundRect,0.225000X0.225000X0.250000X-0.225000X0.250000X-0.225000X-0.250000X0.225000X-0.250000X0*%
%ADD17RoundRect,0.225000X0.250000X-0.225000X0.250000X0.225000X-0.250000X0.225000X-0.250000X-0.225000X0*%
%ADD18R,0.450000X0.700000*%
%ADD19RoundRect,0.200000X-0.200000X-0.275000X0.200000X-0.275000X0.200000X0.275000X-0.200000X0.275000X0*%
%ADD20RoundRect,0.140000X0.170000X-0.140000X0.170000X0.140000X-0.170000X0.140000X-0.170000X-0.140000X0*%
G04 APERTURE END LIST*
%TO.C,A2*%
G36*
X199700000Y-98300000D02*
G01*
X198950000Y-98300000D01*
X198950000Y-98100000D01*
X199150000Y-98100000D01*
X199150000Y-97100000D01*
X198950000Y-97100000D01*
X198950000Y-96900000D01*
X199700000Y-96900000D01*
X199700000Y-98300000D01*
G37*
D10*
X199700000Y-98300000D02*
X198950000Y-98300000D01*
X198950000Y-98100000D01*
X199150000Y-98100000D01*
X199150000Y-97100000D01*
X198950000Y-97100000D01*
X198950000Y-96900000D01*
X199700000Y-96900000D01*
X199700000Y-98300000D01*
G36*
X196350000Y-97100000D02*
G01*
X196150000Y-97100000D01*
X196150000Y-98100000D01*
X196350000Y-98100000D01*
X196350000Y-98300000D01*
X195600000Y-98300000D01*
X195600000Y-96900000D01*
X196350000Y-96900000D01*
X196350000Y-97100000D01*
G37*
X196350000Y-97100000D02*
X196150000Y-97100000D01*
X196150000Y-98100000D01*
X196350000Y-98100000D01*
X196350000Y-98300000D01*
X195600000Y-98300000D01*
X195600000Y-96900000D01*
X196350000Y-96900000D01*
X196350000Y-97100000D01*
%TO.C,A1*%
G36*
X199700000Y-92950000D02*
G01*
X198950000Y-92950000D01*
X198950000Y-92750000D01*
X199150000Y-92750000D01*
X199150000Y-91750000D01*
X198950000Y-91750000D01*
X198950000Y-91550000D01*
X199700000Y-91550000D01*
X199700000Y-92950000D01*
G37*
X199700000Y-92950000D02*
X198950000Y-92950000D01*
X198950000Y-92750000D01*
X199150000Y-92750000D01*
X199150000Y-91750000D01*
X198950000Y-91750000D01*
X198950000Y-91550000D01*
X199700000Y-91550000D01*
X199700000Y-92950000D01*
G36*
X196350000Y-91750000D02*
G01*
X196150000Y-91750000D01*
X196150000Y-92750000D01*
X196350000Y-92750000D01*
X196350000Y-92950000D01*
X195600000Y-92950000D01*
X195600000Y-91550000D01*
X196350000Y-91550000D01*
X196350000Y-91750000D01*
G37*
X196350000Y-91750000D02*
X196150000Y-91750000D01*
X196150000Y-92750000D01*
X196350000Y-92750000D01*
X196350000Y-92950000D01*
X195600000Y-92950000D01*
X195600000Y-91550000D01*
X196350000Y-91550000D01*
X196350000Y-91750000D01*
%TD*%
D11*
%TO.C,J8*%
X204300000Y-103200000D03*
%TD*%
%TO.C,J7*%
X204300000Y-97650000D03*
%TD*%
%TO.C,J6*%
X204300000Y-92250000D03*
%TD*%
%TO.C,J9*%
X204300000Y-109100000D03*
%TD*%
D12*
%TO.C,R15*%
X199860000Y-115450000D03*
X198840000Y-115450000D03*
%TD*%
D13*
%TO.C,R6*%
X197140000Y-90550000D03*
X198160000Y-90550000D03*
%TD*%
%TO.C,R10*%
X200590000Y-78975000D03*
X201610000Y-78975000D03*
%TD*%
D14*
%TO.C,C41*%
X200825000Y-81595000D03*
X200825000Y-82555000D03*
%TD*%
D15*
%TO.C,D4*%
X198900000Y-103050000D03*
X196200000Y-103050000D03*
%TD*%
D16*
%TO.C,C37*%
X201525000Y-107250000D03*
X199975000Y-107250000D03*
%TD*%
D12*
%TO.C,R14*%
X199860000Y-113550000D03*
X198840000Y-113550000D03*
%TD*%
D17*
%TO.C,C29*%
X204050000Y-115225000D03*
X204050000Y-113675000D03*
%TD*%
D14*
%TO.C,C40*%
X200825000Y-87045000D03*
X200825000Y-88005000D03*
%TD*%
D16*
%TO.C,C38*%
X201525000Y-101350000D03*
X199975000Y-101350000D03*
%TD*%
D18*
%TO.C,Q4*%
X200250000Y-102650000D03*
X201550000Y-102650000D03*
X200900000Y-104650000D03*
%TD*%
D13*
%TO.C,R9*%
X200590000Y-80000000D03*
X201610000Y-80000000D03*
%TD*%
%TO.C,R5*%
X200665000Y-84700000D03*
X201685000Y-84700000D03*
%TD*%
D17*
%TO.C,C23*%
X199600000Y-87725000D03*
X199600000Y-86175000D03*
%TD*%
D12*
%TO.C,R33*%
X201860000Y-115450000D03*
X200840000Y-115450000D03*
%TD*%
D15*
%TO.C,D5*%
X198900000Y-108950000D03*
X196200000Y-108950000D03*
%TD*%
D18*
%TO.C,Q5*%
X200250000Y-108550000D03*
X201550000Y-108550000D03*
X200900000Y-110550000D03*
%TD*%
D19*
%TO.C,R24*%
X196125000Y-107250000D03*
X197775000Y-107250000D03*
%TD*%
D12*
%TO.C,R32*%
X201860000Y-113550000D03*
X200840000Y-113550000D03*
%TD*%
D17*
%TO.C,C22*%
X199550000Y-82275000D03*
X199550000Y-80725000D03*
%TD*%
D20*
%TO.C,C30*%
X202850000Y-113930000D03*
X202850000Y-112970000D03*
%TD*%
D13*
%TO.C,R11*%
X197140000Y-95900000D03*
X198160000Y-95900000D03*
%TD*%
D19*
%TO.C,R23*%
X196275000Y-101350000D03*
X197925000Y-101350000D03*
%TD*%
D13*
%TO.C,R8*%
X200665000Y-85725000D03*
X201685000Y-85725000D03*
%TD*%
M02*
