%TF.GenerationSoftware,KiCad,Pcbnew,6.0.8-f2edbf62ab~116~ubuntu22.04.1*%
%TF.CreationDate,2022-10-15T20:56:30+05:30*%
%TF.ProjectId,mushak_pcb,6d757368-616b-45f7-9063-622e6b696361,rev?*%
%TF.SameCoordinates,Original*%
%TF.FileFunction,Legend,Top*%
%TF.FilePolarity,Positive*%
%FSLAX46Y46*%
G04 Gerber Fmt 4.6, Leading zero omitted, Abs format (unit mm)*
G04 Created by KiCad (PCBNEW 6.0.8-f2edbf62ab~116~ubuntu22.04.1) date 2022-10-15 20:56:30*
%MOMM*%
%LPD*%
G01*
G04 APERTURE LIST*
%ADD10C,0.375000*%
%ADD11C,0.100000*%
%ADD12C,0.012500*%
%ADD13C,0.128249*%
%ADD14C,0.120000*%
%ADD15C,0.127000*%
%ADD16C,0.200000*%
%ADD17C,0.240000*%
G04 APERTURE END LIST*
D10*
X169603571Y-112050000D02*
X168103571Y-112050000D01*
X169175000Y-111550000D01*
X168103571Y-111050000D01*
X169603571Y-111050000D01*
X168603571Y-109692857D02*
X169603571Y-109692857D01*
X168603571Y-110335714D02*
X169389285Y-110335714D01*
X169532142Y-110264285D01*
X169603571Y-110121428D01*
X169603571Y-109907142D01*
X169532142Y-109764285D01*
X169460714Y-109692857D01*
X169532142Y-109050000D02*
X169603571Y-108907142D01*
X169603571Y-108621428D01*
X169532142Y-108478571D01*
X169389285Y-108407142D01*
X169317857Y-108407142D01*
X169175000Y-108478571D01*
X169103571Y-108621428D01*
X169103571Y-108835714D01*
X169032142Y-108978571D01*
X168889285Y-109050000D01*
X168817857Y-109050000D01*
X168675000Y-108978571D01*
X168603571Y-108835714D01*
X168603571Y-108621428D01*
X168675000Y-108478571D01*
X169603571Y-107764285D02*
X168103571Y-107764285D01*
X169603571Y-107121428D02*
X168817857Y-107121428D01*
X168675000Y-107192857D01*
X168603571Y-107335714D01*
X168603571Y-107550000D01*
X168675000Y-107692857D01*
X168746428Y-107764285D01*
X169603571Y-105764285D02*
X168817857Y-105764285D01*
X168675000Y-105835714D01*
X168603571Y-105978571D01*
X168603571Y-106264285D01*
X168675000Y-106407142D01*
X169532142Y-105764285D02*
X169603571Y-105907142D01*
X169603571Y-106264285D01*
X169532142Y-106407142D01*
X169389285Y-106478571D01*
X169246428Y-106478571D01*
X169103571Y-106407142D01*
X169032142Y-106264285D01*
X169032142Y-105907142D01*
X168960714Y-105764285D01*
X169603571Y-105050000D02*
X168103571Y-105050000D01*
X169032142Y-104907142D02*
X169603571Y-104478571D01*
X168603571Y-104478571D02*
X169175000Y-105050000D01*
D11*
%TO.C,R26*%
X170342857Y-96330952D02*
X170209523Y-96140476D01*
X170114285Y-96330952D02*
X170114285Y-95930952D01*
X170266666Y-95930952D01*
X170304761Y-95950000D01*
X170323809Y-95969047D01*
X170342857Y-96007142D01*
X170342857Y-96064285D01*
X170323809Y-96102380D01*
X170304761Y-96121428D01*
X170266666Y-96140476D01*
X170114285Y-96140476D01*
X170495238Y-95969047D02*
X170514285Y-95950000D01*
X170552380Y-95930952D01*
X170647619Y-95930952D01*
X170685714Y-95950000D01*
X170704761Y-95969047D01*
X170723809Y-96007142D01*
X170723809Y-96045238D01*
X170704761Y-96102380D01*
X170476190Y-96330952D01*
X170723809Y-96330952D01*
X171066666Y-95930952D02*
X170990476Y-95930952D01*
X170952380Y-95950000D01*
X170933333Y-95969047D01*
X170895238Y-96026190D01*
X170876190Y-96102380D01*
X170876190Y-96254761D01*
X170895238Y-96292857D01*
X170914285Y-96311904D01*
X170952380Y-96330952D01*
X171028571Y-96330952D01*
X171066666Y-96311904D01*
X171085714Y-96292857D01*
X171104761Y-96254761D01*
X171104761Y-96159523D01*
X171085714Y-96121428D01*
X171066666Y-96102380D01*
X171028571Y-96083333D01*
X170952380Y-96083333D01*
X170914285Y-96102380D01*
X170895238Y-96121428D01*
X170876190Y-96159523D01*
%TO.C,C6*%
X203692857Y-111638480D02*
X203711904Y-111657528D01*
X203730952Y-111714671D01*
X203730952Y-111752766D01*
X203711904Y-111809909D01*
X203673809Y-111848004D01*
X203635714Y-111867052D01*
X203559523Y-111886099D01*
X203502380Y-111886099D01*
X203426190Y-111867052D01*
X203388095Y-111848004D01*
X203350000Y-111809909D01*
X203330952Y-111752766D01*
X203330952Y-111714671D01*
X203350000Y-111657528D01*
X203369047Y-111638480D01*
X203330952Y-111295623D02*
X203330952Y-111371814D01*
X203350000Y-111409909D01*
X203369047Y-111428956D01*
X203426190Y-111467052D01*
X203502380Y-111486099D01*
X203654761Y-111486099D01*
X203692857Y-111467052D01*
X203711904Y-111448004D01*
X203730952Y-111409909D01*
X203730952Y-111333718D01*
X203711904Y-111295623D01*
X203692857Y-111276575D01*
X203654761Y-111257528D01*
X203559523Y-111257528D01*
X203521428Y-111276575D01*
X203502380Y-111295623D01*
X203483333Y-111333718D01*
X203483333Y-111409909D01*
X203502380Y-111448004D01*
X203521428Y-111467052D01*
X203559523Y-111486099D01*
%TO.C,R15*%
X204280952Y-115057142D02*
X204090476Y-115190476D01*
X204280952Y-115285714D02*
X203880952Y-115285714D01*
X203880952Y-115133333D01*
X203900000Y-115095238D01*
X203919047Y-115076190D01*
X203957142Y-115057142D01*
X204014285Y-115057142D01*
X204052380Y-115076190D01*
X204071428Y-115095238D01*
X204090476Y-115133333D01*
X204090476Y-115285714D01*
X204280952Y-114676190D02*
X204280952Y-114904761D01*
X204280952Y-114790476D02*
X203880952Y-114790476D01*
X203938095Y-114828571D01*
X203976190Y-114866666D01*
X203995238Y-114904761D01*
X203880952Y-114314285D02*
X203880952Y-114504761D01*
X204071428Y-114523809D01*
X204052380Y-114504761D01*
X204033333Y-114466666D01*
X204033333Y-114371428D01*
X204052380Y-114333333D01*
X204071428Y-114314285D01*
X204109523Y-114295238D01*
X204204761Y-114295238D01*
X204242857Y-114314285D01*
X204261904Y-114333333D01*
X204280952Y-114371428D01*
X204280952Y-114466666D01*
X204261904Y-114504761D01*
X204242857Y-114523809D01*
%TO.C,C11*%
X162542857Y-84942857D02*
X162523809Y-84961904D01*
X162466666Y-84980952D01*
X162428571Y-84980952D01*
X162371428Y-84961904D01*
X162333333Y-84923809D01*
X162314285Y-84885714D01*
X162295238Y-84809523D01*
X162295238Y-84752380D01*
X162314285Y-84676190D01*
X162333333Y-84638095D01*
X162371428Y-84600000D01*
X162428571Y-84580952D01*
X162466666Y-84580952D01*
X162523809Y-84600000D01*
X162542857Y-84619047D01*
X162923809Y-84980952D02*
X162695238Y-84980952D01*
X162809523Y-84980952D02*
X162809523Y-84580952D01*
X162771428Y-84638095D01*
X162733333Y-84676190D01*
X162695238Y-84695238D01*
X163304761Y-84980952D02*
X163076190Y-84980952D01*
X163190476Y-84980952D02*
X163190476Y-84580952D01*
X163152380Y-84638095D01*
X163114285Y-84676190D01*
X163076190Y-84695238D01*
%TO.C,C2*%
X167292857Y-105716666D02*
X167311904Y-105735714D01*
X167330952Y-105792857D01*
X167330952Y-105830952D01*
X167311904Y-105888095D01*
X167273809Y-105926190D01*
X167235714Y-105945238D01*
X167159523Y-105964285D01*
X167102380Y-105964285D01*
X167026190Y-105945238D01*
X166988095Y-105926190D01*
X166950000Y-105888095D01*
X166930952Y-105830952D01*
X166930952Y-105792857D01*
X166950000Y-105735714D01*
X166969047Y-105716666D01*
X166969047Y-105564285D02*
X166950000Y-105545238D01*
X166930952Y-105507142D01*
X166930952Y-105411904D01*
X166950000Y-105373809D01*
X166969047Y-105354761D01*
X167007142Y-105335714D01*
X167045238Y-105335714D01*
X167102380Y-105354761D01*
X167330952Y-105583333D01*
X167330952Y-105335714D01*
%TO.C,Y2*%
X166509523Y-84940476D02*
X166509523Y-85130952D01*
X166376190Y-84730952D02*
X166509523Y-84940476D01*
X166642857Y-84730952D01*
X166757142Y-84769047D02*
X166776190Y-84750000D01*
X166814285Y-84730952D01*
X166909523Y-84730952D01*
X166947619Y-84750000D01*
X166966666Y-84769047D01*
X166985714Y-84807142D01*
X166985714Y-84845238D01*
X166966666Y-84902380D01*
X166738095Y-85130952D01*
X166985714Y-85130952D01*
%TO.C,R12*%
X199855952Y-107803956D02*
X199665476Y-107937290D01*
X199855952Y-108032528D02*
X199455952Y-108032528D01*
X199455952Y-107880147D01*
X199475000Y-107842052D01*
X199494047Y-107823004D01*
X199532142Y-107803956D01*
X199589285Y-107803956D01*
X199627380Y-107823004D01*
X199646428Y-107842052D01*
X199665476Y-107880147D01*
X199665476Y-108032528D01*
X199855952Y-107423004D02*
X199855952Y-107651575D01*
X199855952Y-107537290D02*
X199455952Y-107537290D01*
X199513095Y-107575385D01*
X199551190Y-107613480D01*
X199570238Y-107651575D01*
X199494047Y-107270623D02*
X199475000Y-107251575D01*
X199455952Y-107213480D01*
X199455952Y-107118242D01*
X199475000Y-107080147D01*
X199494047Y-107061099D01*
X199532142Y-107042052D01*
X199570238Y-107042052D01*
X199627380Y-107061099D01*
X199855952Y-107289671D01*
X199855952Y-107042052D01*
%TO.C,R20*%
X179030952Y-98457142D02*
X178840476Y-98590476D01*
X179030952Y-98685714D02*
X178630952Y-98685714D01*
X178630952Y-98533333D01*
X178650000Y-98495238D01*
X178669047Y-98476190D01*
X178707142Y-98457142D01*
X178764285Y-98457142D01*
X178802380Y-98476190D01*
X178821428Y-98495238D01*
X178840476Y-98533333D01*
X178840476Y-98685714D01*
X178669047Y-98304761D02*
X178650000Y-98285714D01*
X178630952Y-98247619D01*
X178630952Y-98152380D01*
X178650000Y-98114285D01*
X178669047Y-98095238D01*
X178707142Y-98076190D01*
X178745238Y-98076190D01*
X178802380Y-98095238D01*
X179030952Y-98323809D01*
X179030952Y-98076190D01*
X178630952Y-97828571D02*
X178630952Y-97790476D01*
X178650000Y-97752380D01*
X178669047Y-97733333D01*
X178707142Y-97714285D01*
X178783333Y-97695238D01*
X178878571Y-97695238D01*
X178954761Y-97714285D01*
X178992857Y-97733333D01*
X179011904Y-97752380D01*
X179030952Y-97790476D01*
X179030952Y-97828571D01*
X179011904Y-97866666D01*
X178992857Y-97885714D01*
X178954761Y-97904761D01*
X178878571Y-97923809D01*
X178783333Y-97923809D01*
X178707142Y-97904761D01*
X178669047Y-97885714D01*
X178650000Y-97866666D01*
X178630952Y-97828571D01*
%TO.C,SW2*%
X188766666Y-114361904D02*
X188823809Y-114380952D01*
X188919047Y-114380952D01*
X188957142Y-114361904D01*
X188976190Y-114342857D01*
X188995238Y-114304761D01*
X188995238Y-114266666D01*
X188976190Y-114228571D01*
X188957142Y-114209523D01*
X188919047Y-114190476D01*
X188842857Y-114171428D01*
X188804761Y-114152380D01*
X188785714Y-114133333D01*
X188766666Y-114095238D01*
X188766666Y-114057142D01*
X188785714Y-114019047D01*
X188804761Y-114000000D01*
X188842857Y-113980952D01*
X188938095Y-113980952D01*
X188995238Y-114000000D01*
X189128571Y-113980952D02*
X189223809Y-114380952D01*
X189300000Y-114095238D01*
X189376190Y-114380952D01*
X189471428Y-113980952D01*
X189604761Y-114019047D02*
X189623809Y-114000000D01*
X189661904Y-113980952D01*
X189757142Y-113980952D01*
X189795238Y-114000000D01*
X189814285Y-114019047D01*
X189833333Y-114057142D01*
X189833333Y-114095238D01*
X189814285Y-114152380D01*
X189585714Y-114380952D01*
X189833333Y-114380952D01*
%TO.C,C9*%
X154342857Y-101366666D02*
X154361904Y-101385714D01*
X154380952Y-101442857D01*
X154380952Y-101480952D01*
X154361904Y-101538095D01*
X154323809Y-101576190D01*
X154285714Y-101595238D01*
X154209523Y-101614285D01*
X154152380Y-101614285D01*
X154076190Y-101595238D01*
X154038095Y-101576190D01*
X154000000Y-101538095D01*
X153980952Y-101480952D01*
X153980952Y-101442857D01*
X154000000Y-101385714D01*
X154019047Y-101366666D01*
X154380952Y-101176190D02*
X154380952Y-101100000D01*
X154361904Y-101061904D01*
X154342857Y-101042857D01*
X154285714Y-101004761D01*
X154209523Y-100985714D01*
X154057142Y-100985714D01*
X154019047Y-101004761D01*
X154000000Y-101023809D01*
X153980952Y-101061904D01*
X153980952Y-101138095D01*
X154000000Y-101176190D01*
X154019047Y-101195238D01*
X154057142Y-101214285D01*
X154152380Y-101214285D01*
X154190476Y-101195238D01*
X154209523Y-101176190D01*
X154228571Y-101138095D01*
X154228571Y-101061904D01*
X154209523Y-101023809D01*
X154190476Y-101004761D01*
X154152380Y-100985714D01*
%TO.C,C8*%
X191233333Y-92692857D02*
X191214285Y-92711904D01*
X191157142Y-92730952D01*
X191119047Y-92730952D01*
X191061904Y-92711904D01*
X191023809Y-92673809D01*
X191004761Y-92635714D01*
X190985714Y-92559523D01*
X190985714Y-92502380D01*
X191004761Y-92426190D01*
X191023809Y-92388095D01*
X191061904Y-92350000D01*
X191119047Y-92330952D01*
X191157142Y-92330952D01*
X191214285Y-92350000D01*
X191233333Y-92369047D01*
X191461904Y-92502380D02*
X191423809Y-92483333D01*
X191404761Y-92464285D01*
X191385714Y-92426190D01*
X191385714Y-92407142D01*
X191404761Y-92369047D01*
X191423809Y-92350000D01*
X191461904Y-92330952D01*
X191538095Y-92330952D01*
X191576190Y-92350000D01*
X191595238Y-92369047D01*
X191614285Y-92407142D01*
X191614285Y-92426190D01*
X191595238Y-92464285D01*
X191576190Y-92483333D01*
X191538095Y-92502380D01*
X191461904Y-92502380D01*
X191423809Y-92521428D01*
X191404761Y-92540476D01*
X191385714Y-92578571D01*
X191385714Y-92654761D01*
X191404761Y-92692857D01*
X191423809Y-92711904D01*
X191461904Y-92730952D01*
X191538095Y-92730952D01*
X191576190Y-92711904D01*
X191595238Y-92692857D01*
X191614285Y-92654761D01*
X191614285Y-92578571D01*
X191595238Y-92540476D01*
X191576190Y-92521428D01*
X191538095Y-92502380D01*
%TO.C,Q1*%
X184944047Y-107738095D02*
X184925000Y-107776190D01*
X184886904Y-107814285D01*
X184829761Y-107871428D01*
X184810714Y-107909523D01*
X184810714Y-107947619D01*
X184905952Y-107928571D02*
X184886904Y-107966666D01*
X184848809Y-108004761D01*
X184772619Y-108023809D01*
X184639285Y-108023809D01*
X184563095Y-108004761D01*
X184525000Y-107966666D01*
X184505952Y-107928571D01*
X184505952Y-107852380D01*
X184525000Y-107814285D01*
X184563095Y-107776190D01*
X184639285Y-107757142D01*
X184772619Y-107757142D01*
X184848809Y-107776190D01*
X184886904Y-107814285D01*
X184905952Y-107852380D01*
X184905952Y-107928571D01*
X184905952Y-107376190D02*
X184905952Y-107604761D01*
X184905952Y-107490476D02*
X184505952Y-107490476D01*
X184563095Y-107528571D01*
X184601190Y-107566666D01*
X184620238Y-107604761D01*
%TO.C,C15*%
X159242857Y-88357142D02*
X159261904Y-88376190D01*
X159280952Y-88433333D01*
X159280952Y-88471428D01*
X159261904Y-88528571D01*
X159223809Y-88566666D01*
X159185714Y-88585714D01*
X159109523Y-88604761D01*
X159052380Y-88604761D01*
X158976190Y-88585714D01*
X158938095Y-88566666D01*
X158900000Y-88528571D01*
X158880952Y-88471428D01*
X158880952Y-88433333D01*
X158900000Y-88376190D01*
X158919047Y-88357142D01*
X159280952Y-87976190D02*
X159280952Y-88204761D01*
X159280952Y-88090476D02*
X158880952Y-88090476D01*
X158938095Y-88128571D01*
X158976190Y-88166666D01*
X158995238Y-88204761D01*
X158880952Y-87614285D02*
X158880952Y-87804761D01*
X159071428Y-87823809D01*
X159052380Y-87804761D01*
X159033333Y-87766666D01*
X159033333Y-87671428D01*
X159052380Y-87633333D01*
X159071428Y-87614285D01*
X159109523Y-87595238D01*
X159204761Y-87595238D01*
X159242857Y-87614285D01*
X159261904Y-87633333D01*
X159280952Y-87671428D01*
X159280952Y-87766666D01*
X159261904Y-87804761D01*
X159242857Y-87823809D01*
%TO.C,C37*%
X204317857Y-93532142D02*
X204336904Y-93551190D01*
X204355952Y-93608333D01*
X204355952Y-93646428D01*
X204336904Y-93703571D01*
X204298809Y-93741666D01*
X204260714Y-93760714D01*
X204184523Y-93779761D01*
X204127380Y-93779761D01*
X204051190Y-93760714D01*
X204013095Y-93741666D01*
X203975000Y-93703571D01*
X203955952Y-93646428D01*
X203955952Y-93608333D01*
X203975000Y-93551190D01*
X203994047Y-93532142D01*
X203955952Y-93398809D02*
X203955952Y-93151190D01*
X204108333Y-93284523D01*
X204108333Y-93227380D01*
X204127380Y-93189285D01*
X204146428Y-93170238D01*
X204184523Y-93151190D01*
X204279761Y-93151190D01*
X204317857Y-93170238D01*
X204336904Y-93189285D01*
X204355952Y-93227380D01*
X204355952Y-93341666D01*
X204336904Y-93379761D01*
X204317857Y-93398809D01*
X203955952Y-93017857D02*
X203955952Y-92751190D01*
X204355952Y-92922619D01*
%TO.C,C19*%
X158242857Y-90157142D02*
X158261904Y-90176190D01*
X158280952Y-90233333D01*
X158280952Y-90271428D01*
X158261904Y-90328571D01*
X158223809Y-90366666D01*
X158185714Y-90385714D01*
X158109523Y-90404761D01*
X158052380Y-90404761D01*
X157976190Y-90385714D01*
X157938095Y-90366666D01*
X157900000Y-90328571D01*
X157880952Y-90271428D01*
X157880952Y-90233333D01*
X157900000Y-90176190D01*
X157919047Y-90157142D01*
X158280952Y-89776190D02*
X158280952Y-90004761D01*
X158280952Y-89890476D02*
X157880952Y-89890476D01*
X157938095Y-89928571D01*
X157976190Y-89966666D01*
X157995238Y-90004761D01*
X158280952Y-89585714D02*
X158280952Y-89509523D01*
X158261904Y-89471428D01*
X158242857Y-89452380D01*
X158185714Y-89414285D01*
X158109523Y-89395238D01*
X157957142Y-89395238D01*
X157919047Y-89414285D01*
X157900000Y-89433333D01*
X157880952Y-89471428D01*
X157880952Y-89547619D01*
X157900000Y-89585714D01*
X157919047Y-89604761D01*
X157957142Y-89623809D01*
X158052380Y-89623809D01*
X158090476Y-89604761D01*
X158109523Y-89585714D01*
X158128571Y-89547619D01*
X158128571Y-89471428D01*
X158109523Y-89433333D01*
X158090476Y-89414285D01*
X158052380Y-89395238D01*
%TO.C,R14*%
X204330952Y-113607142D02*
X204140476Y-113740476D01*
X204330952Y-113835714D02*
X203930952Y-113835714D01*
X203930952Y-113683333D01*
X203950000Y-113645238D01*
X203969047Y-113626190D01*
X204007142Y-113607142D01*
X204064285Y-113607142D01*
X204102380Y-113626190D01*
X204121428Y-113645238D01*
X204140476Y-113683333D01*
X204140476Y-113835714D01*
X204330952Y-113226190D02*
X204330952Y-113454761D01*
X204330952Y-113340476D02*
X203930952Y-113340476D01*
X203988095Y-113378571D01*
X204026190Y-113416666D01*
X204045238Y-113454761D01*
X204064285Y-112883333D02*
X204330952Y-112883333D01*
X203911904Y-112978571D02*
X204197619Y-113073809D01*
X204197619Y-112826190D01*
%TO.C,Q3*%
X202261904Y-111090861D02*
X202223809Y-111071814D01*
X202185714Y-111033718D01*
X202128571Y-110976575D01*
X202090476Y-110957528D01*
X202052380Y-110957528D01*
X202071428Y-111052766D02*
X202033333Y-111033718D01*
X201995238Y-110995623D01*
X201976190Y-110919433D01*
X201976190Y-110786099D01*
X201995238Y-110709909D01*
X202033333Y-110671814D01*
X202071428Y-110652766D01*
X202147619Y-110652766D01*
X202185714Y-110671814D01*
X202223809Y-110709909D01*
X202242857Y-110786099D01*
X202242857Y-110919433D01*
X202223809Y-110995623D01*
X202185714Y-111033718D01*
X202147619Y-111052766D01*
X202071428Y-111052766D01*
X202376190Y-110652766D02*
X202623809Y-110652766D01*
X202490476Y-110805147D01*
X202547619Y-110805147D01*
X202585714Y-110824194D01*
X202604761Y-110843242D01*
X202623809Y-110881337D01*
X202623809Y-110976575D01*
X202604761Y-111014671D01*
X202585714Y-111033718D01*
X202547619Y-111052766D01*
X202433333Y-111052766D01*
X202395238Y-111033718D01*
X202376190Y-111014671D01*
%TO.C,R3*%
X190233333Y-83180952D02*
X190100000Y-82990476D01*
X190004761Y-83180952D02*
X190004761Y-82780952D01*
X190157142Y-82780952D01*
X190195238Y-82800000D01*
X190214285Y-82819047D01*
X190233333Y-82857142D01*
X190233333Y-82914285D01*
X190214285Y-82952380D01*
X190195238Y-82971428D01*
X190157142Y-82990476D01*
X190004761Y-82990476D01*
X190366666Y-82780952D02*
X190614285Y-82780952D01*
X190480952Y-82933333D01*
X190538095Y-82933333D01*
X190576190Y-82952380D01*
X190595238Y-82971428D01*
X190614285Y-83009523D01*
X190614285Y-83104761D01*
X190595238Y-83142857D01*
X190576190Y-83161904D01*
X190538095Y-83180952D01*
X190423809Y-83180952D01*
X190385714Y-83161904D01*
X190366666Y-83142857D01*
%TO.C,R2*%
X187633333Y-83180952D02*
X187500000Y-82990476D01*
X187404761Y-83180952D02*
X187404761Y-82780952D01*
X187557142Y-82780952D01*
X187595238Y-82800000D01*
X187614285Y-82819047D01*
X187633333Y-82857142D01*
X187633333Y-82914285D01*
X187614285Y-82952380D01*
X187595238Y-82971428D01*
X187557142Y-82990476D01*
X187404761Y-82990476D01*
X187785714Y-82819047D02*
X187804761Y-82800000D01*
X187842857Y-82780952D01*
X187938095Y-82780952D01*
X187976190Y-82800000D01*
X187995238Y-82819047D01*
X188014285Y-82857142D01*
X188014285Y-82895238D01*
X187995238Y-82952380D01*
X187766666Y-83180952D01*
X188014285Y-83180952D01*
%TO.C,C10*%
X168542857Y-103857142D02*
X168561904Y-103876190D01*
X168580952Y-103933333D01*
X168580952Y-103971428D01*
X168561904Y-104028571D01*
X168523809Y-104066666D01*
X168485714Y-104085714D01*
X168409523Y-104104761D01*
X168352380Y-104104761D01*
X168276190Y-104085714D01*
X168238095Y-104066666D01*
X168200000Y-104028571D01*
X168180952Y-103971428D01*
X168180952Y-103933333D01*
X168200000Y-103876190D01*
X168219047Y-103857142D01*
X168580952Y-103476190D02*
X168580952Y-103704761D01*
X168580952Y-103590476D02*
X168180952Y-103590476D01*
X168238095Y-103628571D01*
X168276190Y-103666666D01*
X168295238Y-103704761D01*
X168180952Y-103228571D02*
X168180952Y-103190476D01*
X168200000Y-103152380D01*
X168219047Y-103133333D01*
X168257142Y-103114285D01*
X168333333Y-103095238D01*
X168428571Y-103095238D01*
X168504761Y-103114285D01*
X168542857Y-103133333D01*
X168561904Y-103152380D01*
X168580952Y-103190476D01*
X168580952Y-103228571D01*
X168561904Y-103266666D01*
X168542857Y-103285714D01*
X168504761Y-103304761D01*
X168428571Y-103323809D01*
X168333333Y-103323809D01*
X168257142Y-103304761D01*
X168219047Y-103285714D01*
X168200000Y-103266666D01*
X168180952Y-103228571D01*
%TO.C,D6*%
X164780952Y-105495238D02*
X164380952Y-105495238D01*
X164380952Y-105400000D01*
X164400000Y-105342857D01*
X164438095Y-105304761D01*
X164476190Y-105285714D01*
X164552380Y-105266666D01*
X164609523Y-105266666D01*
X164685714Y-105285714D01*
X164723809Y-105304761D01*
X164761904Y-105342857D01*
X164780952Y-105400000D01*
X164780952Y-105495238D01*
X164380952Y-104923809D02*
X164380952Y-105000000D01*
X164400000Y-105038095D01*
X164419047Y-105057142D01*
X164476190Y-105095238D01*
X164552380Y-105114285D01*
X164704761Y-105114285D01*
X164742857Y-105095238D01*
X164761904Y-105076190D01*
X164780952Y-105038095D01*
X164780952Y-104961904D01*
X164761904Y-104923809D01*
X164742857Y-104904761D01*
X164704761Y-104885714D01*
X164609523Y-104885714D01*
X164571428Y-104904761D01*
X164552380Y-104923809D01*
X164533333Y-104961904D01*
X164533333Y-105038095D01*
X164552380Y-105076190D01*
X164571428Y-105095238D01*
X164609523Y-105114285D01*
%TO.C,R27*%
X202980952Y-102407142D02*
X202790476Y-102540476D01*
X202980952Y-102635714D02*
X202580952Y-102635714D01*
X202580952Y-102483333D01*
X202600000Y-102445238D01*
X202619047Y-102426190D01*
X202657142Y-102407142D01*
X202714285Y-102407142D01*
X202752380Y-102426190D01*
X202771428Y-102445238D01*
X202790476Y-102483333D01*
X202790476Y-102635714D01*
X202619047Y-102254761D02*
X202600000Y-102235714D01*
X202580952Y-102197619D01*
X202580952Y-102102380D01*
X202600000Y-102064285D01*
X202619047Y-102045238D01*
X202657142Y-102026190D01*
X202695238Y-102026190D01*
X202752380Y-102045238D01*
X202980952Y-102273809D01*
X202980952Y-102026190D01*
X202580952Y-101892857D02*
X202580952Y-101626190D01*
X202980952Y-101797619D01*
%TO.C,A4*%
X197659285Y-93212916D02*
X197849761Y-93212916D01*
X197621190Y-93327202D02*
X197754523Y-92927202D01*
X197887857Y-93327202D01*
X198192619Y-93060535D02*
X198192619Y-93327202D01*
X198097380Y-92908154D02*
X198002142Y-93193869D01*
X198249761Y-93193869D01*
%TO.C,C32*%
X178842857Y-96707142D02*
X178861904Y-96726190D01*
X178880952Y-96783333D01*
X178880952Y-96821428D01*
X178861904Y-96878571D01*
X178823809Y-96916666D01*
X178785714Y-96935714D01*
X178709523Y-96954761D01*
X178652380Y-96954761D01*
X178576190Y-96935714D01*
X178538095Y-96916666D01*
X178500000Y-96878571D01*
X178480952Y-96821428D01*
X178480952Y-96783333D01*
X178500000Y-96726190D01*
X178519047Y-96707142D01*
X178480952Y-96573809D02*
X178480952Y-96326190D01*
X178633333Y-96459523D01*
X178633333Y-96402380D01*
X178652380Y-96364285D01*
X178671428Y-96345238D01*
X178709523Y-96326190D01*
X178804761Y-96326190D01*
X178842857Y-96345238D01*
X178861904Y-96364285D01*
X178880952Y-96402380D01*
X178880952Y-96516666D01*
X178861904Y-96554761D01*
X178842857Y-96573809D01*
X178519047Y-96173809D02*
X178500000Y-96154761D01*
X178480952Y-96116666D01*
X178480952Y-96021428D01*
X178500000Y-95983333D01*
X178519047Y-95964285D01*
X178557142Y-95945238D01*
X178595238Y-95945238D01*
X178652380Y-95964285D01*
X178880952Y-96192857D01*
X178880952Y-95945238D01*
%TO.C,C16*%
X168592857Y-92357142D02*
X168611904Y-92376190D01*
X168630952Y-92433333D01*
X168630952Y-92471428D01*
X168611904Y-92528571D01*
X168573809Y-92566666D01*
X168535714Y-92585714D01*
X168459523Y-92604761D01*
X168402380Y-92604761D01*
X168326190Y-92585714D01*
X168288095Y-92566666D01*
X168250000Y-92528571D01*
X168230952Y-92471428D01*
X168230952Y-92433333D01*
X168250000Y-92376190D01*
X168269047Y-92357142D01*
X168630952Y-91976190D02*
X168630952Y-92204761D01*
X168630952Y-92090476D02*
X168230952Y-92090476D01*
X168288095Y-92128571D01*
X168326190Y-92166666D01*
X168345238Y-92204761D01*
X168230952Y-91633333D02*
X168230952Y-91709523D01*
X168250000Y-91747619D01*
X168269047Y-91766666D01*
X168326190Y-91804761D01*
X168402380Y-91823809D01*
X168554761Y-91823809D01*
X168592857Y-91804761D01*
X168611904Y-91785714D01*
X168630952Y-91747619D01*
X168630952Y-91671428D01*
X168611904Y-91633333D01*
X168592857Y-91614285D01*
X168554761Y-91595238D01*
X168459523Y-91595238D01*
X168421428Y-91614285D01*
X168402380Y-91633333D01*
X168383333Y-91671428D01*
X168383333Y-91747619D01*
X168402380Y-91785714D01*
X168421428Y-91804761D01*
X168459523Y-91823809D01*
D12*
%TO.C,G\u002A\u002A\u002A*%
X153620092Y-110791678D02*
X153617711Y-110796440D01*
X153617711Y-110803583D01*
X153620092Y-110810726D01*
X153624853Y-110815488D01*
X153629615Y-110817869D01*
X153639139Y-110820250D01*
X153646282Y-110820250D01*
X153655806Y-110817869D01*
X153660568Y-110815488D01*
X153665330Y-110810726D01*
X153667711Y-110803583D01*
X153667711Y-110798821D01*
X153665330Y-110791678D01*
X153662949Y-110789297D01*
X153646282Y-110789297D01*
X153646282Y-110798821D01*
X153617711Y-110760726D02*
X153629615Y-110760726D01*
X153624853Y-110772631D02*
X153629615Y-110760726D01*
X153624853Y-110748821D01*
X153639139Y-110767869D02*
X153629615Y-110760726D01*
X153639139Y-110753583D01*
X153617711Y-110722631D02*
X153629615Y-110722631D01*
X153624853Y-110734535D02*
X153629615Y-110722631D01*
X153624853Y-110710726D01*
X153639139Y-110729773D02*
X153629615Y-110722631D01*
X153639139Y-110715488D01*
X153617711Y-110684535D02*
X153629615Y-110684535D01*
X153624853Y-110696440D02*
X153629615Y-110684535D01*
X153624853Y-110672631D01*
X153639139Y-110691678D02*
X153629615Y-110684535D01*
X153639139Y-110677392D01*
D11*
%TO.C,J3*%
X162433333Y-78176190D02*
X162433333Y-78533333D01*
X162409523Y-78604761D01*
X162361904Y-78652380D01*
X162290476Y-78676190D01*
X162242857Y-78676190D01*
X162623809Y-78176190D02*
X162933333Y-78176190D01*
X162766666Y-78366666D01*
X162838095Y-78366666D01*
X162885714Y-78390476D01*
X162909523Y-78414285D01*
X162933333Y-78461904D01*
X162933333Y-78580952D01*
X162909523Y-78628571D01*
X162885714Y-78652380D01*
X162838095Y-78676190D01*
X162695238Y-78676190D01*
X162647619Y-78652380D01*
X162623809Y-78628571D01*
%TO.C,R17*%
X170130952Y-101057142D02*
X169940476Y-101190476D01*
X170130952Y-101285714D02*
X169730952Y-101285714D01*
X169730952Y-101133333D01*
X169750000Y-101095238D01*
X169769047Y-101076190D01*
X169807142Y-101057142D01*
X169864285Y-101057142D01*
X169902380Y-101076190D01*
X169921428Y-101095238D01*
X169940476Y-101133333D01*
X169940476Y-101285714D01*
X170130952Y-100676190D02*
X170130952Y-100904761D01*
X170130952Y-100790476D02*
X169730952Y-100790476D01*
X169788095Y-100828571D01*
X169826190Y-100866666D01*
X169845238Y-100904761D01*
X169730952Y-100542857D02*
X169730952Y-100276190D01*
X170130952Y-100447619D01*
%TO.C,Q2*%
X202111904Y-105469047D02*
X202073809Y-105450000D01*
X202035714Y-105411904D01*
X201978571Y-105354761D01*
X201940476Y-105335714D01*
X201902380Y-105335714D01*
X201921428Y-105430952D02*
X201883333Y-105411904D01*
X201845238Y-105373809D01*
X201826190Y-105297619D01*
X201826190Y-105164285D01*
X201845238Y-105088095D01*
X201883333Y-105050000D01*
X201921428Y-105030952D01*
X201997619Y-105030952D01*
X202035714Y-105050000D01*
X202073809Y-105088095D01*
X202092857Y-105164285D01*
X202092857Y-105297619D01*
X202073809Y-105373809D01*
X202035714Y-105411904D01*
X201997619Y-105430952D01*
X201921428Y-105430952D01*
X202245238Y-105069047D02*
X202264285Y-105050000D01*
X202302380Y-105030952D01*
X202397619Y-105030952D01*
X202435714Y-105050000D01*
X202454761Y-105069047D01*
X202473809Y-105107142D01*
X202473809Y-105145238D01*
X202454761Y-105202380D01*
X202226190Y-105430952D01*
X202473809Y-105430952D01*
%TO.C,A2*%
X197714285Y-110313480D02*
X197904761Y-110313480D01*
X197676190Y-110427766D02*
X197809523Y-110027766D01*
X197942857Y-110427766D01*
X198057142Y-110065861D02*
X198076190Y-110046814D01*
X198114285Y-110027766D01*
X198209523Y-110027766D01*
X198247619Y-110046814D01*
X198266666Y-110065861D01*
X198285714Y-110103956D01*
X198285714Y-110142052D01*
X198266666Y-110199194D01*
X198038095Y-110427766D01*
X198285714Y-110427766D01*
%TO.C,R7*%
X199780952Y-102041666D02*
X199590476Y-102175000D01*
X199780952Y-102270238D02*
X199380952Y-102270238D01*
X199380952Y-102117857D01*
X199400000Y-102079761D01*
X199419047Y-102060714D01*
X199457142Y-102041666D01*
X199514285Y-102041666D01*
X199552380Y-102060714D01*
X199571428Y-102079761D01*
X199590476Y-102117857D01*
X199590476Y-102270238D01*
X199380952Y-101908333D02*
X199380952Y-101641666D01*
X199780952Y-101813095D01*
D13*
%TO.C,U7*%
X200034147Y-82119074D02*
X200034147Y-82534355D01*
X200058575Y-82583212D01*
X200083004Y-82607640D01*
X200131860Y-82632068D01*
X200229573Y-82632068D01*
X200278430Y-82607640D01*
X200302858Y-82583212D01*
X200327286Y-82534355D01*
X200327286Y-82119074D01*
X200522713Y-82119074D02*
X200864709Y-82119074D01*
X200644854Y-82632068D01*
D11*
%TO.C,C3*%
X184692857Y-79966666D02*
X184711904Y-79985714D01*
X184730952Y-80042857D01*
X184730952Y-80080952D01*
X184711904Y-80138095D01*
X184673809Y-80176190D01*
X184635714Y-80195238D01*
X184559523Y-80214285D01*
X184502380Y-80214285D01*
X184426190Y-80195238D01*
X184388095Y-80176190D01*
X184350000Y-80138095D01*
X184330952Y-80080952D01*
X184330952Y-80042857D01*
X184350000Y-79985714D01*
X184369047Y-79966666D01*
X184330952Y-79833333D02*
X184330952Y-79585714D01*
X184483333Y-79719047D01*
X184483333Y-79661904D01*
X184502380Y-79623809D01*
X184521428Y-79604761D01*
X184559523Y-79585714D01*
X184654761Y-79585714D01*
X184692857Y-79604761D01*
X184711904Y-79623809D01*
X184730952Y-79661904D01*
X184730952Y-79776190D01*
X184711904Y-79814285D01*
X184692857Y-79833333D01*
%TO.C,Q4*%
X202161904Y-99619047D02*
X202123809Y-99600000D01*
X202085714Y-99561904D01*
X202028571Y-99504761D01*
X201990476Y-99485714D01*
X201952380Y-99485714D01*
X201971428Y-99580952D02*
X201933333Y-99561904D01*
X201895238Y-99523809D01*
X201876190Y-99447619D01*
X201876190Y-99314285D01*
X201895238Y-99238095D01*
X201933333Y-99200000D01*
X201971428Y-99180952D01*
X202047619Y-99180952D01*
X202085714Y-99200000D01*
X202123809Y-99238095D01*
X202142857Y-99314285D01*
X202142857Y-99447619D01*
X202123809Y-99523809D01*
X202085714Y-99561904D01*
X202047619Y-99580952D01*
X201971428Y-99580952D01*
X202485714Y-99314285D02*
X202485714Y-99580952D01*
X202390476Y-99161904D02*
X202295238Y-99447619D01*
X202542857Y-99447619D01*
%TO.C,U6*%
X156345238Y-92230952D02*
X156345238Y-92554761D01*
X156364285Y-92592857D01*
X156383333Y-92611904D01*
X156421428Y-92630952D01*
X156497619Y-92630952D01*
X156535714Y-92611904D01*
X156554761Y-92592857D01*
X156573809Y-92554761D01*
X156573809Y-92230952D01*
X156935714Y-92230952D02*
X156859523Y-92230952D01*
X156821428Y-92250000D01*
X156802380Y-92269047D01*
X156764285Y-92326190D01*
X156745238Y-92402380D01*
X156745238Y-92554761D01*
X156764285Y-92592857D01*
X156783333Y-92611904D01*
X156821428Y-92630952D01*
X156897619Y-92630952D01*
X156935714Y-92611904D01*
X156954761Y-92592857D01*
X156973809Y-92554761D01*
X156973809Y-92459523D01*
X156954761Y-92421428D01*
X156935714Y-92402380D01*
X156897619Y-92383333D01*
X156821428Y-92383333D01*
X156783333Y-92402380D01*
X156764285Y-92421428D01*
X156745238Y-92459523D01*
%TO.C,C21*%
X168942857Y-85542857D02*
X168923809Y-85561904D01*
X168866666Y-85580952D01*
X168828571Y-85580952D01*
X168771428Y-85561904D01*
X168733333Y-85523809D01*
X168714285Y-85485714D01*
X168695238Y-85409523D01*
X168695238Y-85352380D01*
X168714285Y-85276190D01*
X168733333Y-85238095D01*
X168771428Y-85200000D01*
X168828571Y-85180952D01*
X168866666Y-85180952D01*
X168923809Y-85200000D01*
X168942857Y-85219047D01*
X169095238Y-85219047D02*
X169114285Y-85200000D01*
X169152380Y-85180952D01*
X169247619Y-85180952D01*
X169285714Y-85200000D01*
X169304761Y-85219047D01*
X169323809Y-85257142D01*
X169323809Y-85295238D01*
X169304761Y-85352380D01*
X169076190Y-85580952D01*
X169323809Y-85580952D01*
X169704761Y-85580952D02*
X169476190Y-85580952D01*
X169590476Y-85580952D02*
X169590476Y-85180952D01*
X169552380Y-85238095D01*
X169514285Y-85276190D01*
X169476190Y-85295238D01*
%TO.C,C14*%
X170242857Y-94192857D02*
X170223809Y-94211904D01*
X170166666Y-94230952D01*
X170128571Y-94230952D01*
X170071428Y-94211904D01*
X170033333Y-94173809D01*
X170014285Y-94135714D01*
X169995238Y-94059523D01*
X169995238Y-94002380D01*
X170014285Y-93926190D01*
X170033333Y-93888095D01*
X170071428Y-93850000D01*
X170128571Y-93830952D01*
X170166666Y-93830952D01*
X170223809Y-93850000D01*
X170242857Y-93869047D01*
X170623809Y-94230952D02*
X170395238Y-94230952D01*
X170509523Y-94230952D02*
X170509523Y-93830952D01*
X170471428Y-93888095D01*
X170433333Y-93926190D01*
X170395238Y-93945238D01*
X170966666Y-93964285D02*
X170966666Y-94230952D01*
X170871428Y-93811904D02*
X170776190Y-94097619D01*
X171023809Y-94097619D01*
D13*
%TO.C,U2*%
X200034147Y-87819074D02*
X200034147Y-88234355D01*
X200058575Y-88283212D01*
X200083004Y-88307640D01*
X200131860Y-88332068D01*
X200229573Y-88332068D01*
X200278430Y-88307640D01*
X200302858Y-88283212D01*
X200327286Y-88234355D01*
X200327286Y-87819074D01*
X200547141Y-87867931D02*
X200571569Y-87843503D01*
X200620426Y-87819074D01*
X200742567Y-87819074D01*
X200791424Y-87843503D01*
X200815852Y-87867931D01*
X200840280Y-87916787D01*
X200840280Y-87965644D01*
X200815852Y-88038929D01*
X200522713Y-88332068D01*
X200840280Y-88332068D01*
D11*
%TO.C,U4*%
X198280952Y-114754761D02*
X198604761Y-114754761D01*
X198642857Y-114735714D01*
X198661904Y-114716666D01*
X198680952Y-114678571D01*
X198680952Y-114602380D01*
X198661904Y-114564285D01*
X198642857Y-114545238D01*
X198604761Y-114526190D01*
X198280952Y-114526190D01*
X198414285Y-114164285D02*
X198680952Y-114164285D01*
X198261904Y-114259523D02*
X198547619Y-114354761D01*
X198547619Y-114107142D01*
%TO.C,C33*%
X173742857Y-93542857D02*
X173723809Y-93561904D01*
X173666666Y-93580952D01*
X173628571Y-93580952D01*
X173571428Y-93561904D01*
X173533333Y-93523809D01*
X173514285Y-93485714D01*
X173495238Y-93409523D01*
X173495238Y-93352380D01*
X173514285Y-93276190D01*
X173533333Y-93238095D01*
X173571428Y-93200000D01*
X173628571Y-93180952D01*
X173666666Y-93180952D01*
X173723809Y-93200000D01*
X173742857Y-93219047D01*
X173876190Y-93180952D02*
X174123809Y-93180952D01*
X173990476Y-93333333D01*
X174047619Y-93333333D01*
X174085714Y-93352380D01*
X174104761Y-93371428D01*
X174123809Y-93409523D01*
X174123809Y-93504761D01*
X174104761Y-93542857D01*
X174085714Y-93561904D01*
X174047619Y-93580952D01*
X173933333Y-93580952D01*
X173895238Y-93561904D01*
X173876190Y-93542857D01*
X174257142Y-93180952D02*
X174504761Y-93180952D01*
X174371428Y-93333333D01*
X174428571Y-93333333D01*
X174466666Y-93352380D01*
X174485714Y-93371428D01*
X174504761Y-93409523D01*
X174504761Y-93504761D01*
X174485714Y-93542857D01*
X174466666Y-93561904D01*
X174428571Y-93580952D01*
X174314285Y-93580952D01*
X174276190Y-93561904D01*
X174257142Y-93542857D01*
%TO.C,U5*%
X171995238Y-94280952D02*
X171995238Y-94604761D01*
X172014285Y-94642857D01*
X172033333Y-94661904D01*
X172071428Y-94680952D01*
X172147619Y-94680952D01*
X172185714Y-94661904D01*
X172204761Y-94642857D01*
X172223809Y-94604761D01*
X172223809Y-94280952D01*
X172604761Y-94280952D02*
X172414285Y-94280952D01*
X172395238Y-94471428D01*
X172414285Y-94452380D01*
X172452380Y-94433333D01*
X172547619Y-94433333D01*
X172585714Y-94452380D01*
X172604761Y-94471428D01*
X172623809Y-94509523D01*
X172623809Y-94604761D01*
X172604761Y-94642857D01*
X172585714Y-94661904D01*
X172547619Y-94680952D01*
X172452380Y-94680952D01*
X172414285Y-94661904D01*
X172395238Y-94642857D01*
%TO.C,C24*%
X191642857Y-91142857D02*
X191623809Y-91161904D01*
X191566666Y-91180952D01*
X191528571Y-91180952D01*
X191471428Y-91161904D01*
X191433333Y-91123809D01*
X191414285Y-91085714D01*
X191395238Y-91009523D01*
X191395238Y-90952380D01*
X191414285Y-90876190D01*
X191433333Y-90838095D01*
X191471428Y-90800000D01*
X191528571Y-90780952D01*
X191566666Y-90780952D01*
X191623809Y-90800000D01*
X191642857Y-90819047D01*
X191795238Y-90819047D02*
X191814285Y-90800000D01*
X191852380Y-90780952D01*
X191947619Y-90780952D01*
X191985714Y-90800000D01*
X192004761Y-90819047D01*
X192023809Y-90857142D01*
X192023809Y-90895238D01*
X192004761Y-90952380D01*
X191776190Y-91180952D01*
X192023809Y-91180952D01*
X192366666Y-90914285D02*
X192366666Y-91180952D01*
X192271428Y-90761904D02*
X192176190Y-91047619D01*
X192423809Y-91047619D01*
%TO.C,R21*%
X161380952Y-106007142D02*
X161190476Y-106140476D01*
X161380952Y-106235714D02*
X160980952Y-106235714D01*
X160980952Y-106083333D01*
X161000000Y-106045238D01*
X161019047Y-106026190D01*
X161057142Y-106007142D01*
X161114285Y-106007142D01*
X161152380Y-106026190D01*
X161171428Y-106045238D01*
X161190476Y-106083333D01*
X161190476Y-106235714D01*
X161019047Y-105854761D02*
X161000000Y-105835714D01*
X160980952Y-105797619D01*
X160980952Y-105702380D01*
X161000000Y-105664285D01*
X161019047Y-105645238D01*
X161057142Y-105626190D01*
X161095238Y-105626190D01*
X161152380Y-105645238D01*
X161380952Y-105873809D01*
X161380952Y-105626190D01*
X161380952Y-105245238D02*
X161380952Y-105473809D01*
X161380952Y-105359523D02*
X160980952Y-105359523D01*
X161038095Y-105397619D01*
X161076190Y-105435714D01*
X161095238Y-105473809D01*
%TO.C,C12*%
X170042857Y-83757142D02*
X170061904Y-83776190D01*
X170080952Y-83833333D01*
X170080952Y-83871428D01*
X170061904Y-83928571D01*
X170023809Y-83966666D01*
X169985714Y-83985714D01*
X169909523Y-84004761D01*
X169852380Y-84004761D01*
X169776190Y-83985714D01*
X169738095Y-83966666D01*
X169700000Y-83928571D01*
X169680952Y-83871428D01*
X169680952Y-83833333D01*
X169700000Y-83776190D01*
X169719047Y-83757142D01*
X170080952Y-83376190D02*
X170080952Y-83604761D01*
X170080952Y-83490476D02*
X169680952Y-83490476D01*
X169738095Y-83528571D01*
X169776190Y-83566666D01*
X169795238Y-83604761D01*
X169719047Y-83223809D02*
X169700000Y-83204761D01*
X169680952Y-83166666D01*
X169680952Y-83071428D01*
X169700000Y-83033333D01*
X169719047Y-83014285D01*
X169757142Y-82995238D01*
X169795238Y-82995238D01*
X169852380Y-83014285D01*
X170080952Y-83242857D01*
X170080952Y-82995238D01*
%TO.C,C27*%
X185442857Y-98292857D02*
X185423809Y-98311904D01*
X185366666Y-98330952D01*
X185328571Y-98330952D01*
X185271428Y-98311904D01*
X185233333Y-98273809D01*
X185214285Y-98235714D01*
X185195238Y-98159523D01*
X185195238Y-98102380D01*
X185214285Y-98026190D01*
X185233333Y-97988095D01*
X185271428Y-97950000D01*
X185328571Y-97930952D01*
X185366666Y-97930952D01*
X185423809Y-97950000D01*
X185442857Y-97969047D01*
X185595238Y-97969047D02*
X185614285Y-97950000D01*
X185652380Y-97930952D01*
X185747619Y-97930952D01*
X185785714Y-97950000D01*
X185804761Y-97969047D01*
X185823809Y-98007142D01*
X185823809Y-98045238D01*
X185804761Y-98102380D01*
X185576190Y-98330952D01*
X185823809Y-98330952D01*
X185957142Y-97930952D02*
X186223809Y-97930952D01*
X186052380Y-98330952D01*
%TO.C,C4*%
X184542857Y-114066666D02*
X184561904Y-114085714D01*
X184580952Y-114142857D01*
X184580952Y-114180952D01*
X184561904Y-114238095D01*
X184523809Y-114276190D01*
X184485714Y-114295238D01*
X184409523Y-114314285D01*
X184352380Y-114314285D01*
X184276190Y-114295238D01*
X184238095Y-114276190D01*
X184200000Y-114238095D01*
X184180952Y-114180952D01*
X184180952Y-114142857D01*
X184200000Y-114085714D01*
X184219047Y-114066666D01*
X184314285Y-113723809D02*
X184580952Y-113723809D01*
X184161904Y-113819047D02*
X184447619Y-113914285D01*
X184447619Y-113666666D01*
%TO.C,C28*%
X182242857Y-102157142D02*
X182261904Y-102176190D01*
X182280952Y-102233333D01*
X182280952Y-102271428D01*
X182261904Y-102328571D01*
X182223809Y-102366666D01*
X182185714Y-102385714D01*
X182109523Y-102404761D01*
X182052380Y-102404761D01*
X181976190Y-102385714D01*
X181938095Y-102366666D01*
X181900000Y-102328571D01*
X181880952Y-102271428D01*
X181880952Y-102233333D01*
X181900000Y-102176190D01*
X181919047Y-102157142D01*
X181919047Y-102004761D02*
X181900000Y-101985714D01*
X181880952Y-101947619D01*
X181880952Y-101852380D01*
X181900000Y-101814285D01*
X181919047Y-101795238D01*
X181957142Y-101776190D01*
X181995238Y-101776190D01*
X182052380Y-101795238D01*
X182280952Y-102023809D01*
X182280952Y-101776190D01*
X182052380Y-101547619D02*
X182033333Y-101585714D01*
X182014285Y-101604761D01*
X181976190Y-101623809D01*
X181957142Y-101623809D01*
X181919047Y-101604761D01*
X181900000Y-101585714D01*
X181880952Y-101547619D01*
X181880952Y-101471428D01*
X181900000Y-101433333D01*
X181919047Y-101414285D01*
X181957142Y-101395238D01*
X181976190Y-101395238D01*
X182014285Y-101414285D01*
X182033333Y-101433333D01*
X182052380Y-101471428D01*
X182052380Y-101547619D01*
X182071428Y-101585714D01*
X182090476Y-101604761D01*
X182128571Y-101623809D01*
X182204761Y-101623809D01*
X182242857Y-101604761D01*
X182261904Y-101585714D01*
X182280952Y-101547619D01*
X182280952Y-101471428D01*
X182261904Y-101433333D01*
X182242857Y-101414285D01*
X182204761Y-101395238D01*
X182128571Y-101395238D01*
X182090476Y-101414285D01*
X182071428Y-101433333D01*
X182052380Y-101471428D01*
%TO.C,C17*%
X155417857Y-87842857D02*
X155398809Y-87861904D01*
X155341666Y-87880952D01*
X155303571Y-87880952D01*
X155246428Y-87861904D01*
X155208333Y-87823809D01*
X155189285Y-87785714D01*
X155170238Y-87709523D01*
X155170238Y-87652380D01*
X155189285Y-87576190D01*
X155208333Y-87538095D01*
X155246428Y-87500000D01*
X155303571Y-87480952D01*
X155341666Y-87480952D01*
X155398809Y-87500000D01*
X155417857Y-87519047D01*
X155798809Y-87880952D02*
X155570238Y-87880952D01*
X155684523Y-87880952D02*
X155684523Y-87480952D01*
X155646428Y-87538095D01*
X155608333Y-87576190D01*
X155570238Y-87595238D01*
X155932142Y-87480952D02*
X156198809Y-87480952D01*
X156027380Y-87880952D01*
%TO.C,C7*%
X154278571Y-93783333D02*
X154302380Y-93807142D01*
X154326190Y-93878571D01*
X154326190Y-93926190D01*
X154302380Y-93997619D01*
X154254761Y-94045238D01*
X154207142Y-94069047D01*
X154111904Y-94092857D01*
X154040476Y-94092857D01*
X153945238Y-94069047D01*
X153897619Y-94045238D01*
X153850000Y-93997619D01*
X153826190Y-93926190D01*
X153826190Y-93878571D01*
X153850000Y-93807142D01*
X153873809Y-93783333D01*
X153826190Y-93616666D02*
X153826190Y-93283333D01*
X154326190Y-93497619D01*
%TO.C,Q5*%
X202211904Y-94069047D02*
X202173809Y-94050000D01*
X202135714Y-94011904D01*
X202078571Y-93954761D01*
X202040476Y-93935714D01*
X202002380Y-93935714D01*
X202021428Y-94030952D02*
X201983333Y-94011904D01*
X201945238Y-93973809D01*
X201926190Y-93897619D01*
X201926190Y-93764285D01*
X201945238Y-93688095D01*
X201983333Y-93650000D01*
X202021428Y-93630952D01*
X202097619Y-93630952D01*
X202135714Y-93650000D01*
X202173809Y-93688095D01*
X202192857Y-93764285D01*
X202192857Y-93897619D01*
X202173809Y-93973809D01*
X202135714Y-94011904D01*
X202097619Y-94030952D01*
X202021428Y-94030952D01*
X202554761Y-93630952D02*
X202364285Y-93630952D01*
X202345238Y-93821428D01*
X202364285Y-93802380D01*
X202402380Y-93783333D01*
X202497619Y-93783333D01*
X202535714Y-93802380D01*
X202554761Y-93821428D01*
X202573809Y-93859523D01*
X202573809Y-93954761D01*
X202554761Y-93992857D01*
X202535714Y-94011904D01*
X202497619Y-94030952D01*
X202402380Y-94030952D01*
X202364285Y-94011904D01*
X202345238Y-93992857D01*
%TO.C,C25*%
X187142857Y-91192857D02*
X187123809Y-91211904D01*
X187066666Y-91230952D01*
X187028571Y-91230952D01*
X186971428Y-91211904D01*
X186933333Y-91173809D01*
X186914285Y-91135714D01*
X186895238Y-91059523D01*
X186895238Y-91002380D01*
X186914285Y-90926190D01*
X186933333Y-90888095D01*
X186971428Y-90850000D01*
X187028571Y-90830952D01*
X187066666Y-90830952D01*
X187123809Y-90850000D01*
X187142857Y-90869047D01*
X187295238Y-90869047D02*
X187314285Y-90850000D01*
X187352380Y-90830952D01*
X187447619Y-90830952D01*
X187485714Y-90850000D01*
X187504761Y-90869047D01*
X187523809Y-90907142D01*
X187523809Y-90945238D01*
X187504761Y-91002380D01*
X187276190Y-91230952D01*
X187523809Y-91230952D01*
X187885714Y-90830952D02*
X187695238Y-90830952D01*
X187676190Y-91021428D01*
X187695238Y-91002380D01*
X187733333Y-90983333D01*
X187828571Y-90983333D01*
X187866666Y-91002380D01*
X187885714Y-91021428D01*
X187904761Y-91059523D01*
X187904761Y-91154761D01*
X187885714Y-91192857D01*
X187866666Y-91211904D01*
X187828571Y-91230952D01*
X187733333Y-91230952D01*
X187695238Y-91211904D01*
X187676190Y-91192857D01*
%TO.C,C13*%
X187442857Y-92692857D02*
X187423809Y-92711904D01*
X187366666Y-92730952D01*
X187328571Y-92730952D01*
X187271428Y-92711904D01*
X187233333Y-92673809D01*
X187214285Y-92635714D01*
X187195238Y-92559523D01*
X187195238Y-92502380D01*
X187214285Y-92426190D01*
X187233333Y-92388095D01*
X187271428Y-92350000D01*
X187328571Y-92330952D01*
X187366666Y-92330952D01*
X187423809Y-92350000D01*
X187442857Y-92369047D01*
X187823809Y-92730952D02*
X187595238Y-92730952D01*
X187709523Y-92730952D02*
X187709523Y-92330952D01*
X187671428Y-92388095D01*
X187633333Y-92426190D01*
X187595238Y-92445238D01*
X187957142Y-92330952D02*
X188204761Y-92330952D01*
X188071428Y-92483333D01*
X188128571Y-92483333D01*
X188166666Y-92502380D01*
X188185714Y-92521428D01*
X188204761Y-92559523D01*
X188204761Y-92654761D01*
X188185714Y-92692857D01*
X188166666Y-92711904D01*
X188128571Y-92730952D01*
X188014285Y-92730952D01*
X187976190Y-92711904D01*
X187957142Y-92692857D01*
%TO.C,C18*%
X169042857Y-89642857D02*
X169023809Y-89661904D01*
X168966666Y-89680952D01*
X168928571Y-89680952D01*
X168871428Y-89661904D01*
X168833333Y-89623809D01*
X168814285Y-89585714D01*
X168795238Y-89509523D01*
X168795238Y-89452380D01*
X168814285Y-89376190D01*
X168833333Y-89338095D01*
X168871428Y-89300000D01*
X168928571Y-89280952D01*
X168966666Y-89280952D01*
X169023809Y-89300000D01*
X169042857Y-89319047D01*
X169423809Y-89680952D02*
X169195238Y-89680952D01*
X169309523Y-89680952D02*
X169309523Y-89280952D01*
X169271428Y-89338095D01*
X169233333Y-89376190D01*
X169195238Y-89395238D01*
X169652380Y-89452380D02*
X169614285Y-89433333D01*
X169595238Y-89414285D01*
X169576190Y-89376190D01*
X169576190Y-89357142D01*
X169595238Y-89319047D01*
X169614285Y-89300000D01*
X169652380Y-89280952D01*
X169728571Y-89280952D01*
X169766666Y-89300000D01*
X169785714Y-89319047D01*
X169804761Y-89357142D01*
X169804761Y-89376190D01*
X169785714Y-89414285D01*
X169766666Y-89433333D01*
X169728571Y-89452380D01*
X169652380Y-89452380D01*
X169614285Y-89471428D01*
X169595238Y-89490476D01*
X169576190Y-89528571D01*
X169576190Y-89604761D01*
X169595238Y-89642857D01*
X169614285Y-89661904D01*
X169652380Y-89680952D01*
X169728571Y-89680952D01*
X169766666Y-89661904D01*
X169785714Y-89642857D01*
X169804761Y-89604761D01*
X169804761Y-89528571D01*
X169785714Y-89490476D01*
X169766666Y-89471428D01*
X169728571Y-89452380D01*
%TO.C,C20*%
X168942857Y-87942857D02*
X168923809Y-87961904D01*
X168866666Y-87980952D01*
X168828571Y-87980952D01*
X168771428Y-87961904D01*
X168733333Y-87923809D01*
X168714285Y-87885714D01*
X168695238Y-87809523D01*
X168695238Y-87752380D01*
X168714285Y-87676190D01*
X168733333Y-87638095D01*
X168771428Y-87600000D01*
X168828571Y-87580952D01*
X168866666Y-87580952D01*
X168923809Y-87600000D01*
X168942857Y-87619047D01*
X169095238Y-87619047D02*
X169114285Y-87600000D01*
X169152380Y-87580952D01*
X169247619Y-87580952D01*
X169285714Y-87600000D01*
X169304761Y-87619047D01*
X169323809Y-87657142D01*
X169323809Y-87695238D01*
X169304761Y-87752380D01*
X169076190Y-87980952D01*
X169323809Y-87980952D01*
X169571428Y-87580952D02*
X169609523Y-87580952D01*
X169647619Y-87600000D01*
X169666666Y-87619047D01*
X169685714Y-87657142D01*
X169704761Y-87733333D01*
X169704761Y-87828571D01*
X169685714Y-87904761D01*
X169666666Y-87942857D01*
X169647619Y-87961904D01*
X169609523Y-87980952D01*
X169571428Y-87980952D01*
X169533333Y-87961904D01*
X169514285Y-87942857D01*
X169495238Y-87904761D01*
X169476190Y-87828571D01*
X169476190Y-87733333D01*
X169495238Y-87657142D01*
X169514285Y-87619047D01*
X169533333Y-87600000D01*
X169571428Y-87580952D01*
%TO.C,R24*%
X199830952Y-90782142D02*
X199640476Y-90915476D01*
X199830952Y-91010714D02*
X199430952Y-91010714D01*
X199430952Y-90858333D01*
X199450000Y-90820238D01*
X199469047Y-90801190D01*
X199507142Y-90782142D01*
X199564285Y-90782142D01*
X199602380Y-90801190D01*
X199621428Y-90820238D01*
X199640476Y-90858333D01*
X199640476Y-91010714D01*
X199469047Y-90629761D02*
X199450000Y-90610714D01*
X199430952Y-90572619D01*
X199430952Y-90477380D01*
X199450000Y-90439285D01*
X199469047Y-90420238D01*
X199507142Y-90401190D01*
X199545238Y-90401190D01*
X199602380Y-90420238D01*
X199830952Y-90648809D01*
X199830952Y-90401190D01*
X199564285Y-90058333D02*
X199830952Y-90058333D01*
X199411904Y-90153571D02*
X199697619Y-90248809D01*
X199697619Y-90001190D01*
%TO.C,U1*%
X189495238Y-95630952D02*
X189495238Y-95954761D01*
X189514285Y-95992857D01*
X189533333Y-96011904D01*
X189571428Y-96030952D01*
X189647619Y-96030952D01*
X189685714Y-96011904D01*
X189704761Y-95992857D01*
X189723809Y-95954761D01*
X189723809Y-95630952D01*
X190123809Y-96030952D02*
X189895238Y-96030952D01*
X190009523Y-96030952D02*
X190009523Y-95630952D01*
X189971428Y-95688095D01*
X189933333Y-95726190D01*
X189895238Y-95745238D01*
%TO.C,R25*%
X185242857Y-92230952D02*
X185109523Y-92040476D01*
X185014285Y-92230952D02*
X185014285Y-91830952D01*
X185166666Y-91830952D01*
X185204761Y-91850000D01*
X185223809Y-91869047D01*
X185242857Y-91907142D01*
X185242857Y-91964285D01*
X185223809Y-92002380D01*
X185204761Y-92021428D01*
X185166666Y-92040476D01*
X185014285Y-92040476D01*
X185395238Y-91869047D02*
X185414285Y-91850000D01*
X185452380Y-91830952D01*
X185547619Y-91830952D01*
X185585714Y-91850000D01*
X185604761Y-91869047D01*
X185623809Y-91907142D01*
X185623809Y-91945238D01*
X185604761Y-92002380D01*
X185376190Y-92230952D01*
X185623809Y-92230952D01*
X185985714Y-91830952D02*
X185795238Y-91830952D01*
X185776190Y-92021428D01*
X185795238Y-92002380D01*
X185833333Y-91983333D01*
X185928571Y-91983333D01*
X185966666Y-92002380D01*
X185985714Y-92021428D01*
X186004761Y-92059523D01*
X186004761Y-92154761D01*
X185985714Y-92192857D01*
X185966666Y-92211904D01*
X185928571Y-92230952D01*
X185833333Y-92230952D01*
X185795238Y-92211904D01*
X185776190Y-92192857D01*
%TO.C,J2*%
X184516666Y-85230952D02*
X184516666Y-85516666D01*
X184497619Y-85573809D01*
X184459523Y-85611904D01*
X184402380Y-85630952D01*
X184364285Y-85630952D01*
X184688095Y-85269047D02*
X184707142Y-85250000D01*
X184745238Y-85230952D01*
X184840476Y-85230952D01*
X184878571Y-85250000D01*
X184897619Y-85269047D01*
X184916666Y-85307142D01*
X184916666Y-85345238D01*
X184897619Y-85402380D01*
X184669047Y-85630952D01*
X184916666Y-85630952D01*
%TO.C,R28*%
X203080952Y-107978956D02*
X202890476Y-108112290D01*
X203080952Y-108207528D02*
X202680952Y-108207528D01*
X202680952Y-108055147D01*
X202700000Y-108017052D01*
X202719047Y-107998004D01*
X202757142Y-107978956D01*
X202814285Y-107978956D01*
X202852380Y-107998004D01*
X202871428Y-108017052D01*
X202890476Y-108055147D01*
X202890476Y-108207528D01*
X202719047Y-107826575D02*
X202700000Y-107807528D01*
X202680952Y-107769433D01*
X202680952Y-107674194D01*
X202700000Y-107636099D01*
X202719047Y-107617052D01*
X202757142Y-107598004D01*
X202795238Y-107598004D01*
X202852380Y-107617052D01*
X203080952Y-107845623D01*
X203080952Y-107598004D01*
X202852380Y-107369433D02*
X202833333Y-107407528D01*
X202814285Y-107426575D01*
X202776190Y-107445623D01*
X202757142Y-107445623D01*
X202719047Y-107426575D01*
X202700000Y-107407528D01*
X202680952Y-107369433D01*
X202680952Y-107293242D01*
X202700000Y-107255147D01*
X202719047Y-107236099D01*
X202757142Y-107217052D01*
X202776190Y-107217052D01*
X202814285Y-107236099D01*
X202833333Y-107255147D01*
X202852380Y-107293242D01*
X202852380Y-107369433D01*
X202871428Y-107407528D01*
X202890476Y-107426575D01*
X202928571Y-107445623D01*
X203004761Y-107445623D01*
X203042857Y-107426575D01*
X203061904Y-107407528D01*
X203080952Y-107369433D01*
X203080952Y-107293242D01*
X203061904Y-107255147D01*
X203042857Y-107236099D01*
X203004761Y-107217052D01*
X202928571Y-107217052D01*
X202890476Y-107236099D01*
X202871428Y-107255147D01*
X202852380Y-107293242D01*
%TO.C,C1*%
X153833333Y-98292857D02*
X153814285Y-98311904D01*
X153757142Y-98330952D01*
X153719047Y-98330952D01*
X153661904Y-98311904D01*
X153623809Y-98273809D01*
X153604761Y-98235714D01*
X153585714Y-98159523D01*
X153585714Y-98102380D01*
X153604761Y-98026190D01*
X153623809Y-97988095D01*
X153661904Y-97950000D01*
X153719047Y-97930952D01*
X153757142Y-97930952D01*
X153814285Y-97950000D01*
X153833333Y-97969047D01*
X154214285Y-98330952D02*
X153985714Y-98330952D01*
X154100000Y-98330952D02*
X154100000Y-97930952D01*
X154061904Y-97988095D01*
X154023809Y-98026190D01*
X153985714Y-98045238D01*
%TO.C,C5*%
X204267857Y-104816666D02*
X204286904Y-104835714D01*
X204305952Y-104892857D01*
X204305952Y-104930952D01*
X204286904Y-104988095D01*
X204248809Y-105026190D01*
X204210714Y-105045238D01*
X204134523Y-105064285D01*
X204077380Y-105064285D01*
X204001190Y-105045238D01*
X203963095Y-105026190D01*
X203925000Y-104988095D01*
X203905952Y-104930952D01*
X203905952Y-104892857D01*
X203925000Y-104835714D01*
X203944047Y-104816666D01*
X203905952Y-104454761D02*
X203905952Y-104645238D01*
X204096428Y-104664285D01*
X204077380Y-104645238D01*
X204058333Y-104607142D01*
X204058333Y-104511904D01*
X204077380Y-104473809D01*
X204096428Y-104454761D01*
X204134523Y-104435714D01*
X204229761Y-104435714D01*
X204267857Y-104454761D01*
X204286904Y-104473809D01*
X204305952Y-104511904D01*
X204305952Y-104607142D01*
X204286904Y-104645238D01*
X204267857Y-104664285D01*
%TO.C,BZ1*%
X190221428Y-109602380D02*
X190240476Y-109545238D01*
X190259523Y-109526190D01*
X190297619Y-109507142D01*
X190354761Y-109507142D01*
X190392857Y-109526190D01*
X190411904Y-109545238D01*
X190430952Y-109583333D01*
X190430952Y-109735714D01*
X190030952Y-109735714D01*
X190030952Y-109602380D01*
X190050000Y-109564285D01*
X190069047Y-109545238D01*
X190107142Y-109526190D01*
X190145238Y-109526190D01*
X190183333Y-109545238D01*
X190202380Y-109564285D01*
X190221428Y-109602380D01*
X190221428Y-109735714D01*
X190030952Y-109373809D02*
X190030952Y-109107142D01*
X190430952Y-109373809D01*
X190430952Y-109107142D01*
X190430952Y-108745238D02*
X190430952Y-108973809D01*
X190430952Y-108859523D02*
X190030952Y-108859523D01*
X190088095Y-108897619D01*
X190126190Y-108935714D01*
X190145238Y-108973809D01*
%TO.C,FB1*%
X153821428Y-90033333D02*
X153821428Y-90166666D01*
X154030952Y-90166666D02*
X153630952Y-90166666D01*
X153630952Y-89976190D01*
X153821428Y-89690476D02*
X153840476Y-89633333D01*
X153859523Y-89614285D01*
X153897619Y-89595238D01*
X153954761Y-89595238D01*
X153992857Y-89614285D01*
X154011904Y-89633333D01*
X154030952Y-89671428D01*
X154030952Y-89823809D01*
X153630952Y-89823809D01*
X153630952Y-89690476D01*
X153650000Y-89652380D01*
X153669047Y-89633333D01*
X153707142Y-89614285D01*
X153745238Y-89614285D01*
X153783333Y-89633333D01*
X153802380Y-89652380D01*
X153821428Y-89690476D01*
X153821428Y-89823809D01*
X154030952Y-89214285D02*
X154030952Y-89442857D01*
X154030952Y-89328571D02*
X153630952Y-89328571D01*
X153688095Y-89366666D01*
X153726190Y-89404761D01*
X153745238Y-89442857D01*
%TO.C,D1*%
X187104761Y-89730952D02*
X187104761Y-89330952D01*
X187200000Y-89330952D01*
X187257142Y-89350000D01*
X187295238Y-89388095D01*
X187314285Y-89426190D01*
X187333333Y-89502380D01*
X187333333Y-89559523D01*
X187314285Y-89635714D01*
X187295238Y-89673809D01*
X187257142Y-89711904D01*
X187200000Y-89730952D01*
X187104761Y-89730952D01*
X187714285Y-89730952D02*
X187485714Y-89730952D01*
X187600000Y-89730952D02*
X187600000Y-89330952D01*
X187561904Y-89388095D01*
X187523809Y-89426190D01*
X187485714Y-89445238D01*
%TO.C,R4*%
X188980952Y-91066666D02*
X188790476Y-91200000D01*
X188980952Y-91295238D02*
X188580952Y-91295238D01*
X188580952Y-91142857D01*
X188600000Y-91104761D01*
X188619047Y-91085714D01*
X188657142Y-91066666D01*
X188714285Y-91066666D01*
X188752380Y-91085714D01*
X188771428Y-91104761D01*
X188790476Y-91142857D01*
X188790476Y-91295238D01*
X188714285Y-90723809D02*
X188980952Y-90723809D01*
X188561904Y-90819047D02*
X188847619Y-90914285D01*
X188847619Y-90666666D01*
%TO.C,Y1*%
X160159523Y-86540476D02*
X160159523Y-86730952D01*
X160026190Y-86330952D02*
X160159523Y-86540476D01*
X160292857Y-86330952D01*
X160635714Y-86730952D02*
X160407142Y-86730952D01*
X160521428Y-86730952D02*
X160521428Y-86330952D01*
X160483333Y-86388095D01*
X160445238Y-86426190D01*
X160407142Y-86445238D01*
%TO.C,R23*%
X199780952Y-96382142D02*
X199590476Y-96515476D01*
X199780952Y-96610714D02*
X199380952Y-96610714D01*
X199380952Y-96458333D01*
X199400000Y-96420238D01*
X199419047Y-96401190D01*
X199457142Y-96382142D01*
X199514285Y-96382142D01*
X199552380Y-96401190D01*
X199571428Y-96420238D01*
X199590476Y-96458333D01*
X199590476Y-96610714D01*
X199419047Y-96229761D02*
X199400000Y-96210714D01*
X199380952Y-96172619D01*
X199380952Y-96077380D01*
X199400000Y-96039285D01*
X199419047Y-96020238D01*
X199457142Y-96001190D01*
X199495238Y-96001190D01*
X199552380Y-96020238D01*
X199780952Y-96248809D01*
X199780952Y-96001190D01*
X199380952Y-95867857D02*
X199380952Y-95620238D01*
X199533333Y-95753571D01*
X199533333Y-95696428D01*
X199552380Y-95658333D01*
X199571428Y-95639285D01*
X199609523Y-95620238D01*
X199704761Y-95620238D01*
X199742857Y-95639285D01*
X199761904Y-95658333D01*
X199780952Y-95696428D01*
X199780952Y-95810714D01*
X199761904Y-95848809D01*
X199742857Y-95867857D01*
%TO.C,A3*%
X197689285Y-98791666D02*
X197879761Y-98791666D01*
X197651190Y-98905952D02*
X197784523Y-98505952D01*
X197917857Y-98905952D01*
X198013095Y-98505952D02*
X198260714Y-98505952D01*
X198127380Y-98658333D01*
X198184523Y-98658333D01*
X198222619Y-98677380D01*
X198241666Y-98696428D01*
X198260714Y-98734523D01*
X198260714Y-98829761D01*
X198241666Y-98867857D01*
X198222619Y-98886904D01*
X198184523Y-98905952D01*
X198070238Y-98905952D01*
X198032142Y-98886904D01*
X198013095Y-98867857D01*
%TO.C,SW1*%
X188754166Y-79961904D02*
X188811309Y-79980952D01*
X188906547Y-79980952D01*
X188944642Y-79961904D01*
X188963690Y-79942857D01*
X188982738Y-79904761D01*
X188982738Y-79866666D01*
X188963690Y-79828571D01*
X188944642Y-79809523D01*
X188906547Y-79790476D01*
X188830357Y-79771428D01*
X188792261Y-79752380D01*
X188773214Y-79733333D01*
X188754166Y-79695238D01*
X188754166Y-79657142D01*
X188773214Y-79619047D01*
X188792261Y-79600000D01*
X188830357Y-79580952D01*
X188925595Y-79580952D01*
X188982738Y-79600000D01*
X189116071Y-79580952D02*
X189211309Y-79980952D01*
X189287500Y-79695238D01*
X189363690Y-79980952D01*
X189458928Y-79580952D01*
X189820833Y-79980952D02*
X189592261Y-79980952D01*
X189706547Y-79980952D02*
X189706547Y-79580952D01*
X189668452Y-79638095D01*
X189630357Y-79676190D01*
X189592261Y-79695238D01*
%TO.C,M1*%
X177976190Y-112730952D02*
X177976190Y-112330952D01*
X178109523Y-112616666D01*
X178242857Y-112330952D01*
X178242857Y-112730952D01*
X178642857Y-112730952D02*
X178414285Y-112730952D01*
X178528571Y-112730952D02*
X178528571Y-112330952D01*
X178490476Y-112388095D01*
X178452380Y-112426190D01*
X178414285Y-112445238D01*
%TO.C,R18*%
X177142857Y-94630952D02*
X177009523Y-94440476D01*
X176914285Y-94630952D02*
X176914285Y-94230952D01*
X177066666Y-94230952D01*
X177104761Y-94250000D01*
X177123809Y-94269047D01*
X177142857Y-94307142D01*
X177142857Y-94364285D01*
X177123809Y-94402380D01*
X177104761Y-94421428D01*
X177066666Y-94440476D01*
X176914285Y-94440476D01*
X177523809Y-94630952D02*
X177295238Y-94630952D01*
X177409523Y-94630952D02*
X177409523Y-94230952D01*
X177371428Y-94288095D01*
X177333333Y-94326190D01*
X177295238Y-94345238D01*
X177752380Y-94402380D02*
X177714285Y-94383333D01*
X177695238Y-94364285D01*
X177676190Y-94326190D01*
X177676190Y-94307142D01*
X177695238Y-94269047D01*
X177714285Y-94250000D01*
X177752380Y-94230952D01*
X177828571Y-94230952D01*
X177866666Y-94250000D01*
X177885714Y-94269047D01*
X177904761Y-94307142D01*
X177904761Y-94326190D01*
X177885714Y-94364285D01*
X177866666Y-94383333D01*
X177828571Y-94402380D01*
X177752380Y-94402380D01*
X177714285Y-94421428D01*
X177695238Y-94440476D01*
X177676190Y-94478571D01*
X177676190Y-94554761D01*
X177695238Y-94592857D01*
X177714285Y-94611904D01*
X177752380Y-94630952D01*
X177828571Y-94630952D01*
X177866666Y-94611904D01*
X177885714Y-94592857D01*
X177904761Y-94554761D01*
X177904761Y-94478571D01*
X177885714Y-94440476D01*
X177866666Y-94421428D01*
X177828571Y-94402380D01*
%TO.C,A1*%
X197614285Y-104966666D02*
X197804761Y-104966666D01*
X197576190Y-105080952D02*
X197709523Y-104680952D01*
X197842857Y-105080952D01*
X198185714Y-105080952D02*
X197957142Y-105080952D01*
X198071428Y-105080952D02*
X198071428Y-104680952D01*
X198033333Y-104738095D01*
X197995238Y-104776190D01*
X197957142Y-104795238D01*
%TO.C,C36*%
X204292857Y-99007142D02*
X204311904Y-99026190D01*
X204330952Y-99083333D01*
X204330952Y-99121428D01*
X204311904Y-99178571D01*
X204273809Y-99216666D01*
X204235714Y-99235714D01*
X204159523Y-99254761D01*
X204102380Y-99254761D01*
X204026190Y-99235714D01*
X203988095Y-99216666D01*
X203950000Y-99178571D01*
X203930952Y-99121428D01*
X203930952Y-99083333D01*
X203950000Y-99026190D01*
X203969047Y-99007142D01*
X203930952Y-98873809D02*
X203930952Y-98626190D01*
X204083333Y-98759523D01*
X204083333Y-98702380D01*
X204102380Y-98664285D01*
X204121428Y-98645238D01*
X204159523Y-98626190D01*
X204254761Y-98626190D01*
X204292857Y-98645238D01*
X204311904Y-98664285D01*
X204330952Y-98702380D01*
X204330952Y-98816666D01*
X204311904Y-98854761D01*
X204292857Y-98873809D01*
X203930952Y-98283333D02*
X203930952Y-98359523D01*
X203950000Y-98397619D01*
X203969047Y-98416666D01*
X204026190Y-98454761D01*
X204102380Y-98473809D01*
X204254761Y-98473809D01*
X204292857Y-98454761D01*
X204311904Y-98435714D01*
X204330952Y-98397619D01*
X204330952Y-98321428D01*
X204311904Y-98283333D01*
X204292857Y-98264285D01*
X204254761Y-98245238D01*
X204159523Y-98245238D01*
X204121428Y-98264285D01*
X204102380Y-98283333D01*
X204083333Y-98321428D01*
X204083333Y-98397619D01*
X204102380Y-98435714D01*
X204121428Y-98454761D01*
X204159523Y-98473809D01*
%TO.C,R29*%
X203080952Y-96507142D02*
X202890476Y-96640476D01*
X203080952Y-96735714D02*
X202680952Y-96735714D01*
X202680952Y-96583333D01*
X202700000Y-96545238D01*
X202719047Y-96526190D01*
X202757142Y-96507142D01*
X202814285Y-96507142D01*
X202852380Y-96526190D01*
X202871428Y-96545238D01*
X202890476Y-96583333D01*
X202890476Y-96735714D01*
X202719047Y-96354761D02*
X202700000Y-96335714D01*
X202680952Y-96297619D01*
X202680952Y-96202380D01*
X202700000Y-96164285D01*
X202719047Y-96145238D01*
X202757142Y-96126190D01*
X202795238Y-96126190D01*
X202852380Y-96145238D01*
X203080952Y-96373809D01*
X203080952Y-96126190D01*
X203080952Y-95935714D02*
X203080952Y-95859523D01*
X203061904Y-95821428D01*
X203042857Y-95802380D01*
X202985714Y-95764285D01*
X202909523Y-95745238D01*
X202757142Y-95745238D01*
X202719047Y-95764285D01*
X202700000Y-95783333D01*
X202680952Y-95821428D01*
X202680952Y-95897619D01*
X202700000Y-95935714D01*
X202719047Y-95954761D01*
X202757142Y-95973809D01*
X202852380Y-95973809D01*
X202890476Y-95954761D01*
X202909523Y-95935714D01*
X202928571Y-95897619D01*
X202928571Y-95821428D01*
X202909523Y-95783333D01*
X202890476Y-95764285D01*
X202852380Y-95745238D01*
%TO.C,R1*%
X186033333Y-110430952D02*
X185900000Y-110240476D01*
X185804761Y-110430952D02*
X185804761Y-110030952D01*
X185957142Y-110030952D01*
X185995238Y-110050000D01*
X186014285Y-110069047D01*
X186033333Y-110107142D01*
X186033333Y-110164285D01*
X186014285Y-110202380D01*
X185995238Y-110221428D01*
X185957142Y-110240476D01*
X185804761Y-110240476D01*
X186414285Y-110430952D02*
X186185714Y-110430952D01*
X186300000Y-110430952D02*
X186300000Y-110030952D01*
X186261904Y-110088095D01*
X186223809Y-110126190D01*
X186185714Y-110145238D01*
%TO.C,J1*%
X162566666Y-115280952D02*
X162566666Y-115566666D01*
X162547619Y-115623809D01*
X162509523Y-115661904D01*
X162452380Y-115680952D01*
X162414285Y-115680952D01*
X162966666Y-115680952D02*
X162738095Y-115680952D01*
X162852380Y-115680952D02*
X162852380Y-115280952D01*
X162814285Y-115338095D01*
X162776190Y-115376190D01*
X162738095Y-115395238D01*
%TO.C,C26*%
X176542857Y-100942857D02*
X176523809Y-100961904D01*
X176466666Y-100980952D01*
X176428571Y-100980952D01*
X176371428Y-100961904D01*
X176333333Y-100923809D01*
X176314285Y-100885714D01*
X176295238Y-100809523D01*
X176295238Y-100752380D01*
X176314285Y-100676190D01*
X176333333Y-100638095D01*
X176371428Y-100600000D01*
X176428571Y-100580952D01*
X176466666Y-100580952D01*
X176523809Y-100600000D01*
X176542857Y-100619047D01*
X176695238Y-100619047D02*
X176714285Y-100600000D01*
X176752380Y-100580952D01*
X176847619Y-100580952D01*
X176885714Y-100600000D01*
X176904761Y-100619047D01*
X176923809Y-100657142D01*
X176923809Y-100695238D01*
X176904761Y-100752380D01*
X176676190Y-100980952D01*
X176923809Y-100980952D01*
X177266666Y-100580952D02*
X177190476Y-100580952D01*
X177152380Y-100600000D01*
X177133333Y-100619047D01*
X177095238Y-100676190D01*
X177076190Y-100752380D01*
X177076190Y-100904761D01*
X177095238Y-100942857D01*
X177114285Y-100961904D01*
X177152380Y-100980952D01*
X177228571Y-100980952D01*
X177266666Y-100961904D01*
X177285714Y-100942857D01*
X177304761Y-100904761D01*
X177304761Y-100809523D01*
X177285714Y-100771428D01*
X177266666Y-100752380D01*
X177228571Y-100733333D01*
X177152380Y-100733333D01*
X177114285Y-100752380D01*
X177095238Y-100771428D01*
X177076190Y-100809523D01*
%TO.C,C31*%
X176242857Y-98957142D02*
X176261904Y-98976190D01*
X176280952Y-99033333D01*
X176280952Y-99071428D01*
X176261904Y-99128571D01*
X176223809Y-99166666D01*
X176185714Y-99185714D01*
X176109523Y-99204761D01*
X176052380Y-99204761D01*
X175976190Y-99185714D01*
X175938095Y-99166666D01*
X175900000Y-99128571D01*
X175880952Y-99071428D01*
X175880952Y-99033333D01*
X175900000Y-98976190D01*
X175919047Y-98957142D01*
X175880952Y-98823809D02*
X175880952Y-98576190D01*
X176033333Y-98709523D01*
X176033333Y-98652380D01*
X176052380Y-98614285D01*
X176071428Y-98595238D01*
X176109523Y-98576190D01*
X176204761Y-98576190D01*
X176242857Y-98595238D01*
X176261904Y-98614285D01*
X176280952Y-98652380D01*
X176280952Y-98766666D01*
X176261904Y-98804761D01*
X176242857Y-98823809D01*
X176280952Y-98195238D02*
X176280952Y-98423809D01*
X176280952Y-98309523D02*
X175880952Y-98309523D01*
X175938095Y-98347619D01*
X175976190Y-98385714D01*
X175995238Y-98423809D01*
%TO.C,R30*%
X203005952Y-90922142D02*
X202815476Y-91055476D01*
X203005952Y-91150714D02*
X202605952Y-91150714D01*
X202605952Y-90998333D01*
X202625000Y-90960238D01*
X202644047Y-90941190D01*
X202682142Y-90922142D01*
X202739285Y-90922142D01*
X202777380Y-90941190D01*
X202796428Y-90960238D01*
X202815476Y-90998333D01*
X202815476Y-91150714D01*
X202605952Y-90788809D02*
X202605952Y-90541190D01*
X202758333Y-90674523D01*
X202758333Y-90617380D01*
X202777380Y-90579285D01*
X202796428Y-90560238D01*
X202834523Y-90541190D01*
X202929761Y-90541190D01*
X202967857Y-90560238D01*
X202986904Y-90579285D01*
X203005952Y-90617380D01*
X203005952Y-90731666D01*
X202986904Y-90769761D01*
X202967857Y-90788809D01*
X202605952Y-90293571D02*
X202605952Y-90255476D01*
X202625000Y-90217380D01*
X202644047Y-90198333D01*
X202682142Y-90179285D01*
X202758333Y-90160238D01*
X202853571Y-90160238D01*
X202929761Y-90179285D01*
X202967857Y-90198333D01*
X202986904Y-90217380D01*
X203005952Y-90255476D01*
X203005952Y-90293571D01*
X202986904Y-90331666D01*
X202967857Y-90350714D01*
X202929761Y-90369761D01*
X202853571Y-90388809D01*
X202758333Y-90388809D01*
X202682142Y-90369761D01*
X202644047Y-90350714D01*
X202625000Y-90331666D01*
X202605952Y-90293571D01*
%TO.C,R19*%
X169242857Y-102980952D02*
X169109523Y-102790476D01*
X169014285Y-102980952D02*
X169014285Y-102580952D01*
X169166666Y-102580952D01*
X169204761Y-102600000D01*
X169223809Y-102619047D01*
X169242857Y-102657142D01*
X169242857Y-102714285D01*
X169223809Y-102752380D01*
X169204761Y-102771428D01*
X169166666Y-102790476D01*
X169014285Y-102790476D01*
X169623809Y-102980952D02*
X169395238Y-102980952D01*
X169509523Y-102980952D02*
X169509523Y-102580952D01*
X169471428Y-102638095D01*
X169433333Y-102676190D01*
X169395238Y-102695238D01*
X169814285Y-102980952D02*
X169890476Y-102980952D01*
X169928571Y-102961904D01*
X169947619Y-102942857D01*
X169985714Y-102885714D01*
X170004761Y-102809523D01*
X170004761Y-102657142D01*
X169985714Y-102619047D01*
X169966666Y-102600000D01*
X169928571Y-102580952D01*
X169852380Y-102580952D01*
X169814285Y-102600000D01*
X169795238Y-102619047D01*
X169776190Y-102657142D01*
X169776190Y-102752380D01*
X169795238Y-102790476D01*
X169814285Y-102809523D01*
X169852380Y-102828571D01*
X169928571Y-102828571D01*
X169966666Y-102809523D01*
X169985714Y-102790476D01*
X170004761Y-102752380D01*
%TO.C,U3*%
X182480952Y-97304761D02*
X182804761Y-97304761D01*
X182842857Y-97285714D01*
X182861904Y-97266666D01*
X182880952Y-97228571D01*
X182880952Y-97152380D01*
X182861904Y-97114285D01*
X182842857Y-97095238D01*
X182804761Y-97076190D01*
X182480952Y-97076190D01*
X182480952Y-96923809D02*
X182480952Y-96676190D01*
X182633333Y-96809523D01*
X182633333Y-96752380D01*
X182652380Y-96714285D01*
X182671428Y-96695238D01*
X182709523Y-96676190D01*
X182804761Y-96676190D01*
X182842857Y-96695238D01*
X182861904Y-96714285D01*
X182880952Y-96752380D01*
X182880952Y-96866666D01*
X182861904Y-96904761D01*
X182842857Y-96923809D01*
%TO.C,R16*%
X171280952Y-101057142D02*
X171090476Y-101190476D01*
X171280952Y-101285714D02*
X170880952Y-101285714D01*
X170880952Y-101133333D01*
X170900000Y-101095238D01*
X170919047Y-101076190D01*
X170957142Y-101057142D01*
X171014285Y-101057142D01*
X171052380Y-101076190D01*
X171071428Y-101095238D01*
X171090476Y-101133333D01*
X171090476Y-101285714D01*
X171280952Y-100676190D02*
X171280952Y-100904761D01*
X171280952Y-100790476D02*
X170880952Y-100790476D01*
X170938095Y-100828571D01*
X170976190Y-100866666D01*
X170995238Y-100904761D01*
X170880952Y-100333333D02*
X170880952Y-100409523D01*
X170900000Y-100447619D01*
X170919047Y-100466666D01*
X170976190Y-100504761D01*
X171052380Y-100523809D01*
X171204761Y-100523809D01*
X171242857Y-100504761D01*
X171261904Y-100485714D01*
X171280952Y-100447619D01*
X171280952Y-100371428D01*
X171261904Y-100333333D01*
X171242857Y-100314285D01*
X171204761Y-100295238D01*
X171109523Y-100295238D01*
X171071428Y-100314285D01*
X171052380Y-100333333D01*
X171033333Y-100371428D01*
X171033333Y-100447619D01*
X171052380Y-100485714D01*
X171071428Y-100504761D01*
X171109523Y-100523809D01*
%TO.C,R31*%
X186767857Y-106755952D02*
X186634523Y-106565476D01*
X186539285Y-106755952D02*
X186539285Y-106355952D01*
X186691666Y-106355952D01*
X186729761Y-106375000D01*
X186748809Y-106394047D01*
X186767857Y-106432142D01*
X186767857Y-106489285D01*
X186748809Y-106527380D01*
X186729761Y-106546428D01*
X186691666Y-106565476D01*
X186539285Y-106565476D01*
X186901190Y-106355952D02*
X187148809Y-106355952D01*
X187015476Y-106508333D01*
X187072619Y-106508333D01*
X187110714Y-106527380D01*
X187129761Y-106546428D01*
X187148809Y-106584523D01*
X187148809Y-106679761D01*
X187129761Y-106717857D01*
X187110714Y-106736904D01*
X187072619Y-106755952D01*
X186958333Y-106755952D01*
X186920238Y-106736904D01*
X186901190Y-106717857D01*
X187529761Y-106755952D02*
X187301190Y-106755952D01*
X187415476Y-106755952D02*
X187415476Y-106355952D01*
X187377380Y-106413095D01*
X187339285Y-106451190D01*
X187301190Y-106470238D01*
%TO.C,M2*%
X178854761Y-81423809D02*
X178854761Y-81923809D01*
X178688095Y-81566666D01*
X178521428Y-81923809D01*
X178521428Y-81423809D01*
X178307142Y-81876190D02*
X178283333Y-81900000D01*
X178235714Y-81923809D01*
X178116666Y-81923809D01*
X178069047Y-81900000D01*
X178045238Y-81876190D01*
X178021428Y-81828571D01*
X178021428Y-81780952D01*
X178045238Y-81709523D01*
X178330952Y-81423809D01*
X178021428Y-81423809D01*
D14*
%TO.C,R26*%
X170753641Y-95630000D02*
X170446359Y-95630000D01*
X170753641Y-94870000D02*
X170446359Y-94870000D01*
%TO.C,C6*%
X203910000Y-110329650D02*
X203910000Y-110113978D01*
X203190000Y-110329650D02*
X203190000Y-110113978D01*
%TO.C,R15*%
X202870000Y-115196359D02*
X202870000Y-115503641D01*
X203630000Y-115196359D02*
X203630000Y-115503641D01*
%TO.C,C11*%
X162907836Y-85960000D02*
X162692164Y-85960000D01*
X162907836Y-85240000D02*
X162692164Y-85240000D01*
%TO.C,C2*%
X165490000Y-105559420D02*
X165490000Y-105840580D01*
X166510000Y-105559420D02*
X166510000Y-105840580D01*
%TO.C,J8*%
X204950000Y-98650000D02*
G75*
G03*
X204950000Y-98650000I-200000J0D01*
G01*
D15*
%TO.C,Y2*%
X165950000Y-87780000D02*
X165950000Y-87020000D01*
X167450000Y-87780000D02*
X167450000Y-87020000D01*
D14*
%TO.C,R12*%
X201587258Y-107894314D02*
X201112742Y-107894314D01*
X201587258Y-106849314D02*
X201112742Y-106849314D01*
%TO.C,R20*%
X177720000Y-98046359D02*
X177720000Y-98353641D01*
X178480000Y-98046359D02*
X178480000Y-98353641D01*
D15*
%TO.C,SW2*%
X191250000Y-115550000D02*
X187350000Y-115550000D01*
X187350000Y-113086500D02*
X187350000Y-112650000D01*
X191250000Y-115113500D02*
X191250000Y-115550000D01*
X187350000Y-115550000D02*
X187350000Y-115113500D01*
X191250000Y-112650000D02*
X191250000Y-113086500D01*
X187350000Y-112650000D02*
X191250000Y-112650000D01*
D16*
X186150000Y-114100000D02*
G75*
G03*
X186150000Y-114100000I-100000J0D01*
G01*
D14*
%TO.C,J7*%
X204900000Y-110021814D02*
G75*
G03*
X204900000Y-110021814I-200000J0D01*
G01*
%TO.C,C9*%
X154540000Y-101192164D02*
X154540000Y-101407836D01*
X155260000Y-101192164D02*
X155260000Y-101407836D01*
%TO.C,C8*%
X191440580Y-93910000D02*
X191159420Y-93910000D01*
X191440580Y-92890000D02*
X191159420Y-92890000D01*
%TO.C,Q1*%
X186680000Y-107340000D02*
X185270000Y-107340000D01*
X185270000Y-109660000D02*
X187300000Y-109660000D01*
X185270000Y-108000000D02*
X185270000Y-107340000D01*
X185270000Y-109660000D02*
X185270000Y-109000000D01*
%TO.C,C15*%
X159540000Y-88207836D02*
X159540000Y-87992164D01*
X160260000Y-88207836D02*
X160260000Y-87992164D01*
%TO.C,C37*%
X203935000Y-93332836D02*
X203935000Y-93117164D01*
X203215000Y-93332836D02*
X203215000Y-93117164D01*
%TO.C,C19*%
X157510000Y-89759420D02*
X157510000Y-90040580D01*
X156490000Y-89759420D02*
X156490000Y-90040580D01*
%TO.C,R14*%
X203630000Y-113703641D02*
X203630000Y-113396359D01*
X202870000Y-113703641D02*
X202870000Y-113396359D01*
%TO.C,Q3*%
X201000000Y-110401814D02*
X200340000Y-110401814D01*
X202660000Y-110401814D02*
X202000000Y-110401814D01*
X202660000Y-110401814D02*
X202660000Y-108371814D01*
X200340000Y-108991814D02*
X200340000Y-110401814D01*
%TO.C,R3*%
X190146359Y-81820000D02*
X190453641Y-81820000D01*
X190146359Y-82580000D02*
X190453641Y-82580000D01*
%TO.C,R2*%
X187853641Y-81820000D02*
X187546359Y-81820000D01*
X187853641Y-82580000D02*
X187546359Y-82580000D01*
%TO.C,C10*%
X167960000Y-103492164D02*
X167960000Y-103707836D01*
X167240000Y-103492164D02*
X167240000Y-103707836D01*
D11*
%TO.C,D6*%
X163850000Y-106290000D02*
G75*
G03*
X163850000Y-106290000I-50000J0D01*
G01*
D14*
%TO.C,R27*%
X203195000Y-102303641D02*
X203195000Y-101996359D01*
X203955000Y-102303641D02*
X203955000Y-101996359D01*
D15*
%TO.C,A4*%
X198800000Y-91417500D02*
X198980000Y-91417500D01*
X198800000Y-89972500D02*
X198800000Y-91417500D01*
X197200000Y-91417500D02*
X197020000Y-91417500D01*
X197200000Y-89972500D02*
X198800000Y-89972500D01*
X197200000Y-91417500D02*
X197200000Y-89972500D01*
X197020000Y-92482500D02*
X198980000Y-92482500D01*
D16*
X196450000Y-90400000D02*
G75*
G03*
X196450000Y-90400000I-100000J0D01*
G01*
D14*
%TO.C,C32*%
X177507836Y-96040000D02*
X177292164Y-96040000D01*
X177507836Y-96760000D02*
X177292164Y-96760000D01*
%TO.C,J6*%
X204900000Y-104450000D02*
G75*
G03*
X204900000Y-104450000I-200000J0D01*
G01*
%TO.C,C16*%
X169592164Y-91740000D02*
X169807836Y-91740000D01*
X169592164Y-92460000D02*
X169807836Y-92460000D01*
%TO.C,G\u002A\u002A\u002A*%
G36*
X157605953Y-111915424D02*
G01*
X157606372Y-111916641D01*
X157601786Y-111917105D01*
X157597053Y-111916581D01*
X157597619Y-111915424D01*
X157604444Y-111914984D01*
X157605953Y-111915424D01*
G37*
G36*
X157890169Y-111609422D02*
G01*
X157877661Y-111606042D01*
X157866944Y-111602305D01*
X157860777Y-111599276D01*
X157852343Y-111595396D01*
X157852260Y-111595358D01*
X157846076Y-111594298D01*
X157842750Y-111594563D01*
X157840572Y-111596134D01*
X157839300Y-111600176D01*
X157838689Y-111607852D01*
X157838498Y-111620326D01*
X157838483Y-111630692D01*
X157838633Y-111645943D01*
X157839037Y-111658928D01*
X157839629Y-111668068D01*
X157840186Y-111671526D01*
X157841977Y-111672970D01*
X157846562Y-111674049D01*
X157854646Y-111674797D01*
X157866930Y-111675245D01*
X157884116Y-111675427D01*
X157906908Y-111675374D01*
X157920852Y-111675268D01*
X157950499Y-111675166D01*
X157973739Y-111675440D01*
X157990506Y-111676085D01*
X158000734Y-111677101D01*
X158004122Y-111678143D01*
X158008142Y-111679478D01*
X158010625Y-111675507D01*
X158023530Y-111647858D01*
X158041221Y-111624724D01*
X158043724Y-111622631D01*
X158058512Y-111622631D01*
X158060179Y-111624298D01*
X158061846Y-111622631D01*
X158060179Y-111620965D01*
X158058512Y-111622631D01*
X158043724Y-111622631D01*
X158064097Y-111605598D01*
X158067609Y-111603293D01*
X158077846Y-111597146D01*
X158084037Y-111594844D01*
X158087508Y-111596282D01*
X158089584Y-111601355D01*
X158089634Y-111601543D01*
X158090166Y-111610151D01*
X158086009Y-111614042D01*
X158083597Y-111614298D01*
X158078720Y-111615851D01*
X158077959Y-111616798D01*
X158074934Y-111620097D01*
X158068267Y-111626033D01*
X158061750Y-111631417D01*
X158060179Y-111633003D01*
X158047151Y-111646153D01*
X158035876Y-111663546D01*
X158028950Y-111681710D01*
X158027226Y-111694948D01*
X158028594Y-111708750D01*
X158032279Y-111719674D01*
X158037651Y-111726300D01*
X158041740Y-111727631D01*
X158048812Y-111729803D01*
X158051595Y-111731798D01*
X158055551Y-111734293D01*
X158057540Y-111731798D01*
X158061749Y-111728184D01*
X158064791Y-111727631D01*
X158073037Y-111725005D01*
X158077531Y-111718205D01*
X158077820Y-111708852D01*
X158073451Y-111698564D01*
X158073071Y-111698010D01*
X158069654Y-111692002D01*
X158070585Y-111688562D01*
X158072238Y-111687320D01*
X158080197Y-111684561D01*
X158086913Y-111687941D01*
X158089994Y-111691707D01*
X158094665Y-111703954D01*
X158093190Y-111718186D01*
X158090012Y-111726136D01*
X158080927Y-111737924D01*
X158068667Y-111744998D01*
X158054786Y-111747345D01*
X158040836Y-111744953D01*
X158028372Y-111737807D01*
X158019397Y-111726742D01*
X158014746Y-111715700D01*
X158011840Y-111704298D01*
X158010173Y-111692631D01*
X157920161Y-111692631D01*
X157917181Y-111710198D01*
X157915633Y-111724898D01*
X157917318Y-111734512D01*
X157922779Y-111740052D01*
X157932559Y-111742531D01*
X157934615Y-111742715D01*
X157956073Y-111746854D01*
X157973348Y-111755468D01*
X157985932Y-111768087D01*
X157993319Y-111784238D01*
X157995149Y-111799132D01*
X157992599Y-111815581D01*
X157985633Y-111829316D01*
X157975204Y-111839178D01*
X157963777Y-111843441D01*
X157962266Y-111844005D01*
X157958011Y-111844298D01*
X157947940Y-111842405D01*
X157936758Y-111837447D01*
X157925916Y-111830511D01*
X157916865Y-111822681D01*
X157911057Y-111815042D01*
X157909944Y-111808680D01*
X157910033Y-111808426D01*
X157910101Y-111805412D01*
X157908949Y-111805683D01*
X157906463Y-111803989D01*
X157903503Y-111797762D01*
X157900754Y-111789036D01*
X157898897Y-111779844D01*
X157898491Y-111774526D01*
X157897569Y-111768945D01*
X157915443Y-111768945D01*
X157916477Y-111778645D01*
X157920370Y-111789606D01*
X157926590Y-111800593D01*
X157934607Y-111810372D01*
X157943890Y-111817709D01*
X157950929Y-111820750D01*
X157963777Y-111822242D01*
X157972581Y-111818449D01*
X157977422Y-111809304D01*
X157978502Y-111798892D01*
X157977630Y-111788032D01*
X157974079Y-111780332D01*
X157968198Y-111774016D01*
X157956403Y-111765919D01*
X157942150Y-111760233D01*
X157928389Y-111758009D01*
X157924070Y-111758267D01*
X157917797Y-111761741D01*
X157915443Y-111768945D01*
X157897569Y-111768945D01*
X157897017Y-111765607D01*
X157895287Y-111761207D01*
X157893138Y-111758160D01*
X157889835Y-111756880D01*
X157883749Y-111757305D01*
X157873249Y-111759369D01*
X157869450Y-111760199D01*
X157857452Y-111763167D01*
X157850072Y-111765450D01*
X157847814Y-111766148D01*
X157842651Y-111768480D01*
X157840948Y-111772005D01*
X157839727Y-111779896D01*
X157838943Y-111792784D01*
X157838550Y-111811298D01*
X157838483Y-111826373D01*
X157838429Y-111846670D01*
X157838197Y-111861237D01*
X157837690Y-111871009D01*
X157836806Y-111876922D01*
X157835445Y-111879910D01*
X157833508Y-111880911D01*
X157832649Y-111880965D01*
X157831730Y-111880707D01*
X157830914Y-111879686D01*
X157830197Y-111877535D01*
X157829574Y-111873885D01*
X157829038Y-111868368D01*
X157828586Y-111860617D01*
X157828212Y-111850263D01*
X157827911Y-111836939D01*
X157827678Y-111820275D01*
X157827508Y-111799905D01*
X157827396Y-111775459D01*
X157827336Y-111746570D01*
X157827327Y-111720965D01*
X157840150Y-111720965D01*
X157840178Y-111734844D01*
X157841051Y-111743574D01*
X157843953Y-111747982D01*
X157850072Y-111748897D01*
X157860590Y-111747147D01*
X157873488Y-111744270D01*
X157885627Y-111741405D01*
X157892781Y-111738882D01*
X157896492Y-111735685D01*
X157898305Y-111730800D01*
X157898961Y-111727518D01*
X157900363Y-111715502D01*
X157900628Y-111704298D01*
X157900158Y-111692631D01*
X157840150Y-111692631D01*
X157840150Y-111720965D01*
X157827327Y-111720965D01*
X157827324Y-111712871D01*
X157827354Y-111673992D01*
X157827422Y-111629565D01*
X157827515Y-111582958D01*
X157871821Y-111582958D01*
X157874832Y-111586807D01*
X157882609Y-111590511D01*
X157893269Y-111593442D01*
X157904929Y-111594966D01*
X157907936Y-111595055D01*
X157929470Y-111592604D01*
X157946848Y-111585103D01*
X157959877Y-111572658D01*
X157965482Y-111562961D01*
X157969874Y-111549903D01*
X157971563Y-111537207D01*
X157970465Y-111526841D01*
X157967256Y-111521315D01*
X157961413Y-111519288D01*
X157955233Y-111520413D01*
X157951892Y-111524001D01*
X157951832Y-111524655D01*
X157949146Y-111527339D01*
X157947109Y-111527631D01*
X157942124Y-111529125D01*
X157941275Y-111530131D01*
X157938231Y-111532858D01*
X157930739Y-111538470D01*
X157919906Y-111546167D01*
X157906837Y-111555146D01*
X157905992Y-111555717D01*
X157892909Y-111564874D01*
X157882141Y-111573018D01*
X157874758Y-111579294D01*
X157871832Y-111582848D01*
X157871821Y-111582958D01*
X157827515Y-111582958D01*
X157827522Y-111579224D01*
X157827649Y-111522599D01*
X157827650Y-111522168D01*
X157838470Y-111522168D01*
X157838827Y-111536705D01*
X157839705Y-111550423D01*
X157841055Y-111561468D01*
X157842824Y-111567989D01*
X157843124Y-111568465D01*
X157847343Y-111572561D01*
X157852343Y-111573485D01*
X157859334Y-111570909D01*
X157869526Y-111564505D01*
X157876822Y-111559314D01*
X157888604Y-111551067D01*
X157903671Y-111540968D01*
X157919607Y-111530620D01*
X157927662Y-111525532D01*
X157943420Y-111515129D01*
X157953449Y-111506991D01*
X157958094Y-111500640D01*
X157957702Y-111495598D01*
X157952622Y-111491388D01*
X157952506Y-111491325D01*
X157946788Y-111490006D01*
X157936187Y-111489050D01*
X157922088Y-111488448D01*
X157905879Y-111488190D01*
X157888945Y-111488264D01*
X157872675Y-111488660D01*
X157858453Y-111489369D01*
X157847668Y-111490379D01*
X157841704Y-111491680D01*
X157841035Y-111492166D01*
X157839523Y-111498046D01*
X157838685Y-111508664D01*
X157838470Y-111522168D01*
X157827650Y-111522168D01*
X157827655Y-111520132D01*
X157827782Y-111471590D01*
X157827934Y-111424888D01*
X157828107Y-111380462D01*
X157828297Y-111338749D01*
X157828503Y-111300183D01*
X157828720Y-111265201D01*
X157828947Y-111234239D01*
X157829180Y-111207733D01*
X157829417Y-111186118D01*
X157829653Y-111169830D01*
X157829887Y-111159306D01*
X157830115Y-111154981D01*
X157830131Y-111154920D01*
X157833452Y-111152154D01*
X157835126Y-111152617D01*
X157836369Y-111156677D01*
X157837358Y-111166738D01*
X157838057Y-111182136D01*
X157838430Y-111202210D01*
X157838483Y-111214600D01*
X157838607Y-111237446D01*
X157839007Y-111254302D01*
X157839731Y-111265837D01*
X157840823Y-111272725D01*
X157842329Y-111275637D01*
X157842651Y-111275791D01*
X157851253Y-111277544D01*
X157862480Y-111278723D01*
X157873974Y-111279219D01*
X157883380Y-111278925D01*
X157888142Y-111277877D01*
X157890763Y-111275289D01*
X157890687Y-111272631D01*
X157898491Y-111272631D01*
X157900158Y-111274298D01*
X157901825Y-111272631D01*
X157900158Y-111270965D01*
X157898491Y-111272631D01*
X157890687Y-111272631D01*
X157890651Y-111271372D01*
X157887404Y-111264679D01*
X157882029Y-111255965D01*
X157877001Y-111246347D01*
X157875792Y-111237564D01*
X157878285Y-111226951D01*
X157880492Y-111221096D01*
X157889350Y-111207359D01*
X157902754Y-111197463D01*
X157919668Y-111191603D01*
X157939057Y-111189973D01*
X157959884Y-111192768D01*
X157981115Y-111200183D01*
X157984124Y-111201632D01*
X157993460Y-111207127D01*
X157997506Y-111212056D01*
X157997805Y-111215795D01*
X157995165Y-111220954D01*
X157988638Y-111221716D01*
X157981664Y-111220055D01*
X157978648Y-111218193D01*
X157971725Y-111213225D01*
X157959772Y-111209746D01*
X157944327Y-111208082D01*
X157931779Y-111208200D01*
X157918929Y-111209215D01*
X157910693Y-111210937D01*
X157905019Y-111214072D01*
X157900048Y-111219098D01*
X157893148Y-111230887D01*
X157892875Y-111242789D01*
X157898551Y-111254382D01*
X157906694Y-111264094D01*
X157915849Y-111270824D01*
X157927387Y-111275062D01*
X157942680Y-111277298D01*
X157963103Y-111278023D01*
X157964707Y-111278030D01*
X157981986Y-111278297D01*
X157993519Y-111279060D01*
X158000218Y-111280428D01*
X158002993Y-111282511D01*
X158003046Y-111282637D01*
X158002222Y-111288512D01*
X157995028Y-111293291D01*
X157987648Y-111295574D01*
X157978459Y-111297769D01*
X157986815Y-111314256D01*
X157993577Y-111332806D01*
X157995171Y-111348970D01*
X157994213Y-111365174D01*
X157990823Y-111377145D01*
X157984230Y-111387106D01*
X157980585Y-111390965D01*
X157970749Y-111400163D01*
X157962811Y-111405589D01*
X157954231Y-111408448D01*
X157942472Y-111409947D01*
X157940252Y-111410131D01*
X157933535Y-111410390D01*
X157926776Y-111410650D01*
X157916583Y-111409245D01*
X157906434Y-111405374D01*
X157903610Y-111404000D01*
X157885898Y-111392381D01*
X157872248Y-111377815D01*
X157863088Y-111361381D01*
X157858849Y-111344154D01*
X157859439Y-111335169D01*
X157876227Y-111335169D01*
X157877036Y-111352186D01*
X157883803Y-111367894D01*
X157896192Y-111381284D01*
X157904838Y-111387051D01*
X157918244Y-111392121D01*
X157933535Y-111394244D01*
X157947926Y-111393236D01*
X157956218Y-111390441D01*
X157968328Y-111381600D01*
X157975483Y-111369923D01*
X157978364Y-111354138D01*
X157978498Y-111348872D01*
X157977672Y-111335571D01*
X157975543Y-111323056D01*
X157973595Y-111316704D01*
X157968854Y-111306669D01*
X157963691Y-111300164D01*
X157956589Y-111296438D01*
X157946031Y-111294735D01*
X157930498Y-111294301D01*
X157928495Y-111294298D01*
X157912665Y-111294586D01*
X157901849Y-111296004D01*
X157900158Y-111296770D01*
X157894399Y-111299379D01*
X157888669Y-111305542D01*
X157883012Y-111315321D01*
X157881713Y-111317846D01*
X157876227Y-111335169D01*
X157859439Y-111335169D01*
X157859961Y-111327213D01*
X157866796Y-111311716D01*
X157871972Y-111301736D01*
X157871505Y-111295276D01*
X157865364Y-111292294D01*
X157853518Y-111292753D01*
X157852400Y-111292925D01*
X157838483Y-111295150D01*
X157838483Y-111382861D01*
X157838588Y-111406371D01*
X157838882Y-111427635D01*
X157839337Y-111445759D01*
X157839924Y-111459848D01*
X157840616Y-111469011D01*
X157841340Y-111472337D01*
X157845352Y-111472847D01*
X157855067Y-111473327D01*
X157869525Y-111473750D01*
X157887762Y-111474094D01*
X157908815Y-111474333D01*
X157923018Y-111474418D01*
X157947918Y-111474541D01*
X157966940Y-111474729D01*
X157980873Y-111475050D01*
X157990507Y-111475572D01*
X157996631Y-111476362D01*
X158000034Y-111477489D01*
X158001507Y-111479020D01*
X158001837Y-111481022D01*
X158001838Y-111481183D01*
X157998985Y-111486494D01*
X157990506Y-111488383D01*
X157982277Y-111487790D01*
X157979610Y-111489440D01*
X157979185Y-111495788D01*
X157981040Y-111507361D01*
X157984786Y-111523054D01*
X157986558Y-111533978D01*
X157985754Y-111545546D01*
X157983415Y-111556388D01*
X157975224Y-111575751D01*
X157961681Y-111591991D01*
X157943736Y-111604162D01*
X157930152Y-111609445D01*
X157919755Y-111612101D01*
X157911256Y-111612918D01*
X157907936Y-111612559D01*
X157901783Y-111611893D01*
X157890169Y-111609422D01*
G37*
G36*
X157543766Y-111994907D02*
G01*
X157544004Y-112003117D01*
X157544018Y-112005965D01*
X157543871Y-112015695D01*
X157543457Y-112020509D01*
X157542859Y-112019621D01*
X157542706Y-112018539D01*
X157542146Y-112007516D01*
X157542634Y-111995651D01*
X157542679Y-111995206D01*
X157543297Y-111992052D01*
X157543766Y-111994907D01*
G37*
G36*
X157724024Y-111835409D02*
G01*
X157723566Y-111837391D01*
X157721801Y-111837631D01*
X157719057Y-111836412D01*
X157719579Y-111835409D01*
X157723535Y-111835010D01*
X157724024Y-111835409D01*
G37*
G36*
X157751805Y-112075965D02*
G01*
X157750139Y-112077631D01*
X157748472Y-112075965D01*
X157750139Y-112074298D01*
X157751805Y-112075965D01*
G37*
G36*
X157615121Y-111975965D02*
G01*
X157613454Y-111977631D01*
X157611787Y-111975965D01*
X157613454Y-111974298D01*
X157615121Y-111975965D01*
G37*
G36*
X157609267Y-112107280D02*
G01*
X157611030Y-112107867D01*
X157618537Y-112110994D01*
X157621641Y-112113221D01*
X157619801Y-112113783D01*
X157614287Y-112112481D01*
X157606949Y-112109428D01*
X157603529Y-112107166D01*
X157603995Y-112106090D01*
X157609267Y-112107280D01*
G37*
G36*
X157741704Y-112085880D02*
G01*
X157738634Y-112089174D01*
X157737955Y-112089616D01*
X157735674Y-112090009D01*
X157736485Y-112088147D01*
X157739584Y-112084596D01*
X157740334Y-112084298D01*
X157741704Y-112085880D01*
G37*
G36*
X157685130Y-112029298D02*
G01*
X157683463Y-112030965D01*
X157681796Y-112029298D01*
X157683463Y-112027631D01*
X157685130Y-112029298D01*
G37*
G36*
X157758473Y-112069298D02*
G01*
X157756806Y-112070965D01*
X157755139Y-112069298D01*
X157756806Y-112067631D01*
X157758473Y-112069298D01*
G37*
G36*
X157578449Y-112085965D02*
G01*
X157576782Y-112087631D01*
X157575116Y-112085965D01*
X157576782Y-112084298D01*
X157578449Y-112085965D01*
G37*
G36*
X157688464Y-111939298D02*
G01*
X157686797Y-111940965D01*
X157685130Y-111939298D01*
X157686797Y-111937631D01*
X157688464Y-111939298D01*
G37*
G36*
X157632749Y-111965466D02*
G01*
X157634875Y-111966978D01*
X157632896Y-111967368D01*
X157626508Y-111968547D01*
X157622894Y-111969550D01*
X157618677Y-111970714D01*
X157620191Y-111969307D01*
X157622747Y-111967647D01*
X157629349Y-111965221D01*
X157632749Y-111965466D01*
G37*
G36*
X157606270Y-111988056D02*
G01*
X157607036Y-111994487D01*
X157607029Y-111996123D01*
X157606230Y-112003772D01*
X157604584Y-112007540D01*
X157604286Y-112007622D01*
X157602462Y-112004848D01*
X157601841Y-111998473D01*
X157602390Y-111991450D01*
X157604075Y-111986728D01*
X157604529Y-111986330D01*
X157606270Y-111988056D01*
G37*
G36*
X157784858Y-112017631D02*
G01*
X157783284Y-112024747D01*
X157781809Y-112027631D01*
X157779309Y-112030249D01*
X157778994Y-112027826D01*
X157780862Y-112021618D01*
X157781809Y-112019298D01*
X157784083Y-112015541D01*
X157784858Y-112017631D01*
G37*
G36*
X156910588Y-111730639D02*
G01*
X156887617Y-111726557D01*
X156874117Y-111721313D01*
X156852248Y-111708857D01*
X156834337Y-111693138D01*
X156818540Y-111672513D01*
X156817435Y-111670795D01*
X156807610Y-111654285D01*
X156800528Y-111639263D01*
X156795226Y-111623215D01*
X156790742Y-111603621D01*
X156789696Y-111598193D01*
X156786940Y-111580478D01*
X156785938Y-111564299D01*
X156786667Y-111546992D01*
X156789096Y-111525965D01*
X156788835Y-111522202D01*
X156785819Y-111519870D01*
X156778629Y-111518343D01*
X156769570Y-111517342D01*
X156766585Y-111516783D01*
X156885025Y-111516783D01*
X156886362Y-111534799D01*
X156890894Y-111548577D01*
X156899405Y-111560093D01*
X156903859Y-111564298D01*
X156918801Y-111575156D01*
X156932758Y-111580017D01*
X156947102Y-111579121D01*
X156960293Y-111574173D01*
X156970947Y-111566805D01*
X156979078Y-111557044D01*
X156984000Y-111546437D01*
X156985025Y-111536532D01*
X156981467Y-111528875D01*
X156980717Y-111528196D01*
X156972395Y-111524567D01*
X156964812Y-111527023D01*
X156959249Y-111535003D01*
X156958268Y-111538003D01*
X156953034Y-111549022D01*
X156945013Y-111554031D01*
X156936698Y-111553203D01*
X156934411Y-111552975D01*
X156923195Y-111547048D01*
X156918563Y-111542631D01*
X156935032Y-111542631D01*
X156936698Y-111544298D01*
X156938365Y-111542631D01*
X156936698Y-111540965D01*
X156935032Y-111542631D01*
X156918563Y-111542631D01*
X156914917Y-111539155D01*
X156908973Y-111529675D01*
X156908652Y-111528847D01*
X156906756Y-111521940D01*
X156907082Y-111515534D01*
X156910036Y-111507274D01*
X156913684Y-111499535D01*
X156922168Y-111485779D01*
X156934315Y-111470513D01*
X156948221Y-111455888D01*
X156961978Y-111444055D01*
X156964392Y-111442318D01*
X156970271Y-111435422D01*
X156971433Y-111427689D01*
X156968141Y-111421249D01*
X156961448Y-111418299D01*
X156956135Y-111418867D01*
X156949650Y-111422246D01*
X156940901Y-111429170D01*
X156929218Y-111439966D01*
X156914837Y-111454576D01*
X156911700Y-111457763D01*
X156899170Y-111473122D01*
X156890980Y-111487167D01*
X156886482Y-111501025D01*
X156885029Y-111515820D01*
X156885025Y-111516783D01*
X156766585Y-111516783D01*
X156749232Y-111513533D01*
X156731714Y-111506628D01*
X156718316Y-111497287D01*
X156710996Y-111487631D01*
X156705686Y-111469748D01*
X156705335Y-111449796D01*
X156709820Y-111430021D01*
X156714740Y-111419250D01*
X156728404Y-111398433D01*
X156742665Y-111383798D01*
X156758185Y-111374861D01*
X156775627Y-111371139D01*
X156780823Y-111370965D01*
X156788973Y-111370215D01*
X156791098Y-111367265D01*
X156787740Y-111361070D01*
X156786682Y-111359644D01*
X156783186Y-111353319D01*
X156778703Y-111342930D01*
X156774410Y-111331311D01*
X156770469Y-111315394D01*
X156767796Y-111295711D01*
X156766416Y-111274083D01*
X156766355Y-111252335D01*
X156767637Y-111232289D01*
X156770287Y-111215770D01*
X156771370Y-111212253D01*
X156845590Y-111212253D01*
X156846236Y-111223035D01*
X156847928Y-111230340D01*
X156850808Y-111239776D01*
X156853425Y-111246189D01*
X156854376Y-111247551D01*
X156857719Y-111251634D01*
X156860280Y-111255798D01*
X156869566Y-111266292D01*
X156883087Y-111273882D01*
X156898844Y-111278028D01*
X156914837Y-111278188D01*
X156928364Y-111274191D01*
X156945511Y-111262692D01*
X156956925Y-111248203D01*
X156962924Y-111230163D01*
X156963975Y-111210965D01*
X156962653Y-111196438D01*
X156959533Y-111185567D01*
X156954164Y-111175965D01*
X156946345Y-111166837D01*
X156940032Y-111161890D01*
X156937359Y-111159795D01*
X156934294Y-111158247D01*
X156925233Y-111154415D01*
X156918228Y-111151130D01*
X156917980Y-111151000D01*
X156910753Y-111149889D01*
X156899904Y-111151135D01*
X156887838Y-111154249D01*
X156876961Y-111158739D01*
X156875245Y-111159698D01*
X156864556Y-111169161D01*
X156855073Y-111183475D01*
X156848012Y-111200792D01*
X156845590Y-111212253D01*
X156771370Y-111212253D01*
X156772713Y-111207891D01*
X156786020Y-111182838D01*
X156804820Y-111158277D01*
X156827987Y-111135497D01*
X156851567Y-111117631D01*
X156873325Y-111101806D01*
X156888911Y-111087095D01*
X156898627Y-111073026D01*
X156902779Y-111059129D01*
X156901669Y-111044933D01*
X156900675Y-111041496D01*
X156897226Y-111033382D01*
X156892265Y-111029448D01*
X156883390Y-111027631D01*
X156873569Y-111025249D01*
X156869223Y-111020961D01*
X156868927Y-111019868D01*
X156869745Y-111006601D01*
X156870091Y-111005965D01*
X156938365Y-111005965D01*
X156940032Y-111007631D01*
X156941699Y-111005965D01*
X156940032Y-111004298D01*
X156938365Y-111005965D01*
X156870091Y-111005965D01*
X156877087Y-110993100D01*
X156880556Y-110989038D01*
X156885799Y-110983954D01*
X156891085Y-110981033D01*
X156898439Y-110979681D01*
X156909891Y-110979308D01*
X156913890Y-110979298D01*
X156927020Y-110979563D01*
X156935504Y-110980701D01*
X156941353Y-110983231D01*
X156946579Y-110987671D01*
X156946637Y-110987729D01*
X156955442Y-110999454D01*
X156958961Y-111011109D01*
X156956923Y-111021440D01*
X156954672Y-111024716D01*
X156949842Y-111032172D01*
X156951008Y-111037359D01*
X156958481Y-111041227D01*
X156960243Y-111041775D01*
X156991588Y-111052499D01*
X157019174Y-111064895D01*
X157042352Y-111078551D01*
X157060472Y-111093060D01*
X157072882Y-111108009D01*
X157076567Y-111115093D01*
X157081131Y-111131034D01*
X157080232Y-111145740D01*
X157076147Y-111157128D01*
X157071399Y-111164997D01*
X157064236Y-111174206D01*
X157056118Y-111183174D01*
X157048505Y-111190323D01*
X157042858Y-111194072D01*
X157041789Y-111194298D01*
X157038103Y-111197044D01*
X157036717Y-111203401D01*
X157038179Y-111210548D01*
X157038508Y-111211206D01*
X157044606Y-111217123D01*
X157053209Y-111216954D01*
X157064184Y-111210739D01*
X157075362Y-111200644D01*
X157088924Y-111184938D01*
X157098805Y-111169765D01*
X157104270Y-111156370D01*
X157105128Y-111150264D01*
X157105202Y-111142631D01*
X157111721Y-111150965D01*
X157116382Y-111158438D01*
X157118315Y-111164465D01*
X157120388Y-111171206D01*
X157121724Y-111172966D01*
X157123800Y-111177670D01*
X157126293Y-111187128D01*
X157128731Y-111199486D01*
X157129210Y-111202385D01*
X157131636Y-111214831D01*
X157134355Y-111224481D01*
X157136862Y-111229632D01*
X157137380Y-111230011D01*
X157142359Y-111229138D01*
X157149884Y-111225078D01*
X157152397Y-111223304D01*
X157159862Y-111218465D01*
X157171612Y-111211712D01*
X157185919Y-111204008D01*
X157198399Y-111197632D01*
X157212774Y-111190472D01*
X157225358Y-111184192D01*
X157234712Y-111179511D01*
X157239193Y-111177254D01*
X157247594Y-111174691D01*
X157251695Y-111174298D01*
X157257140Y-111173160D01*
X157258407Y-111171568D01*
X157261478Y-111169889D01*
X157269718Y-111167715D01*
X157281670Y-111165288D01*
X157295877Y-111162845D01*
X157310881Y-111160628D01*
X157325224Y-111158874D01*
X157337449Y-111157824D01*
X157343231Y-111157631D01*
X157355004Y-111158152D01*
X157368355Y-111159531D01*
X157381662Y-111161489D01*
X157393301Y-111163750D01*
X157401647Y-111166037D01*
X157405079Y-111168073D01*
X157405093Y-111168191D01*
X157403423Y-111172565D01*
X157399221Y-111180128D01*
X157397096Y-111183536D01*
X157390973Y-111194714D01*
X157386079Y-111206421D01*
X157385428Y-111208465D01*
X157381964Y-111220183D01*
X157378581Y-111231509D01*
X157378423Y-111232035D01*
X157376894Y-111240976D01*
X157375853Y-111254890D01*
X157375295Y-111272102D01*
X157375213Y-111290938D01*
X157375600Y-111309721D01*
X157376450Y-111326778D01*
X157377757Y-111340432D01*
X157378862Y-111346750D01*
X157389690Y-111386170D01*
X157402244Y-111419806D01*
X157416971Y-111448418D01*
X157434315Y-111472765D01*
X157454722Y-111493606D01*
X157473542Y-111508258D01*
X157487134Y-111516785D01*
X157499541Y-111521974D01*
X157513413Y-111524637D01*
X157530110Y-111525559D01*
X157541283Y-111525549D01*
X157547348Y-111524620D01*
X157549850Y-111522295D01*
X157550320Y-111519298D01*
X157548948Y-111511306D01*
X157543485Y-111506149D01*
X157532815Y-111502937D01*
X157529004Y-111502304D01*
X157514367Y-111498994D01*
X157499091Y-111493751D01*
X157485905Y-111487612D01*
X157479670Y-111483572D01*
X157455779Y-111460551D01*
X157435904Y-111432556D01*
X157419938Y-111399403D01*
X157407779Y-111360907D01*
X157406193Y-111354298D01*
X157403050Y-111335804D01*
X157401095Y-111313997D01*
X157400330Y-111290757D01*
X157400757Y-111267961D01*
X157402376Y-111247489D01*
X157405189Y-111231221D01*
X157406092Y-111227991D01*
X157414980Y-111205530D01*
X157426245Y-111186749D01*
X157439124Y-111172754D01*
X157448577Y-111166455D01*
X157455053Y-111163002D01*
X157461767Y-111159217D01*
X157473230Y-111155566D01*
X157489000Y-111154561D01*
X157507378Y-111155952D01*
X157526665Y-111159490D01*
X157545162Y-111164925D01*
X157561170Y-111172010D01*
X157565176Y-111174383D01*
X157577177Y-111182741D01*
X157589438Y-111192312D01*
X157593307Y-111195627D01*
X157601168Y-111201838D01*
X157607237Y-111205234D01*
X157609351Y-111205410D01*
X157610755Y-111201230D01*
X157609905Y-111194162D01*
X157607453Y-111187316D01*
X157604884Y-111184153D01*
X157602276Y-111179248D01*
X157601061Y-111170251D01*
X157601186Y-111159575D01*
X157602597Y-111149635D01*
X157605243Y-111142845D01*
X157605803Y-111142186D01*
X157612810Y-111138444D01*
X157619026Y-111140782D01*
X157623165Y-111148632D01*
X157623476Y-111149989D01*
X157626692Y-111163797D01*
X157630402Y-111176612D01*
X157634083Y-111186902D01*
X157637212Y-111193138D01*
X157638628Y-111194298D01*
X157640118Y-111191233D01*
X157641232Y-111183106D01*
X157641773Y-111171519D01*
X157641796Y-111168465D01*
X157642979Y-111149227D01*
X157646188Y-111134360D01*
X157650926Y-111124210D01*
X157656696Y-111119120D01*
X157663001Y-111119434D01*
X157669345Y-111125498D01*
X157675231Y-111137656D01*
X157677232Y-111143901D01*
X157681303Y-111156765D01*
X157687142Y-111173559D01*
X157693926Y-111192067D01*
X157700832Y-111210076D01*
X157707037Y-111225372D01*
X157710220Y-111232631D01*
X157713838Y-111240982D01*
X157718697Y-111252846D01*
X157723216Y-111264298D01*
X157727388Y-111274855D01*
X157733477Y-111289960D01*
X157740830Y-111308012D01*
X157748796Y-111327408D01*
X157753712Y-111339298D01*
X157762897Y-111361486D01*
X157769700Y-111378263D01*
X157774274Y-111390385D01*
X157776769Y-111398608D01*
X157777340Y-111403689D01*
X157776137Y-111406383D01*
X157773313Y-111407446D01*
X157769020Y-111407633D01*
X157767469Y-111407631D01*
X157754431Y-111408684D01*
X157747181Y-111412001D01*
X157745138Y-111417231D01*
X157745927Y-111422693D01*
X157748052Y-111432929D01*
X157751150Y-111446263D01*
X157753472Y-111455635D01*
X157757056Y-111470796D01*
X157759868Y-111484656D01*
X157761525Y-111495227D01*
X157761807Y-111499059D01*
X157762833Y-111507566D01*
X157765287Y-111513111D01*
X157766620Y-111517949D01*
X157767488Y-111529145D01*
X157767880Y-111546402D01*
X157767785Y-111569427D01*
X157767650Y-111577944D01*
X157766496Y-111612390D01*
X157764206Y-111641410D01*
X157760493Y-111666187D01*
X157755070Y-111687909D01*
X157747647Y-111707760D01*
X157737937Y-111726927D01*
X157727266Y-111744178D01*
X157717890Y-111757612D01*
X157707310Y-111771651D01*
X157696887Y-111784584D01*
X157687981Y-111794700D01*
X157683939Y-111798697D01*
X157679402Y-111803978D01*
X157679915Y-111808946D01*
X157681386Y-111811546D01*
X157683538Y-111816058D01*
X157681853Y-111816000D01*
X157674003Y-111814973D01*
X157663331Y-111819475D01*
X157650374Y-111829278D01*
X157650125Y-111829500D01*
X157623663Y-111848799D01*
X157592936Y-111863518D01*
X157558781Y-111873371D01*
X157522032Y-111878073D01*
X157506773Y-111878448D01*
X157483641Y-111877500D01*
X157461653Y-111874598D01*
X157438920Y-111869341D01*
X157413554Y-111861323D01*
X157395185Y-111854603D01*
X157377041Y-111846330D01*
X157355920Y-111834509D01*
X157333563Y-111820301D01*
X157311714Y-111804865D01*
X157292115Y-111789362D01*
X157278410Y-111776881D01*
X157262106Y-111760207D01*
X157246995Y-111743980D01*
X157233752Y-111728993D01*
X157223048Y-111716040D01*
X157215559Y-111705915D01*
X157211957Y-111699412D01*
X157211735Y-111698263D01*
X157209400Y-111694037D01*
X157208811Y-111693743D01*
X157205913Y-111690617D01*
X157200394Y-111683091D01*
X157193105Y-111672455D01*
X157184896Y-111660002D01*
X157176617Y-111647023D01*
X157169120Y-111634808D01*
X157163255Y-111624650D01*
X157163073Y-111624316D01*
X157147012Y-111599370D01*
X157125844Y-111573557D01*
X157100757Y-111548207D01*
X157076934Y-111527777D01*
X157067014Y-111520633D01*
X157060324Y-111518076D01*
X157056337Y-111520575D01*
X157054526Y-111528600D01*
X157054363Y-111542618D01*
X157054543Y-111547708D01*
X157054404Y-111568461D01*
X157052534Y-111589289D01*
X157049223Y-111608209D01*
X157044763Y-111623241D01*
X157042822Y-111627531D01*
X157039583Y-111634705D01*
X157038399Y-111639006D01*
X157036477Y-111644160D01*
X157031543Y-111652733D01*
X157024787Y-111662969D01*
X157017398Y-111673110D01*
X157010565Y-111681401D01*
X157007734Y-111684298D01*
X156982063Y-111705448D01*
X156957514Y-111720167D01*
X156933788Y-111728536D01*
X156932758Y-111728629D01*
X156910588Y-111730639D01*
G37*
G36*
X157561540Y-111949200D02*
G01*
X157561780Y-111950965D01*
X157560561Y-111953709D01*
X157559558Y-111953187D01*
X157559159Y-111949231D01*
X157559558Y-111948743D01*
X157561540Y-111949200D01*
G37*
G36*
X157676114Y-111923397D02*
G01*
X157676796Y-111924298D01*
X157676643Y-111927375D01*
X157675522Y-111927631D01*
X157670809Y-111925199D01*
X157670128Y-111924298D01*
X157670280Y-111921222D01*
X157671401Y-111920965D01*
X157676114Y-111923397D01*
G37*
G36*
X157701799Y-112005965D02*
G01*
X157700132Y-112007631D01*
X157698465Y-112005965D01*
X157700132Y-112004298D01*
X157701799Y-112005965D01*
G37*
G36*
X157685130Y-111932631D02*
G01*
X157683463Y-111934298D01*
X157681796Y-111932631D01*
X157683463Y-111930965D01*
X157685130Y-111932631D01*
G37*
G36*
X157684227Y-112115618D02*
G01*
X157683233Y-112117133D01*
X157679852Y-112117368D01*
X157676294Y-112116554D01*
X157677837Y-112115354D01*
X157683048Y-112114957D01*
X157684227Y-112115618D01*
G37*
G36*
X157768234Y-111885867D02*
G01*
X157768474Y-111887631D01*
X157767254Y-111890375D01*
X157766252Y-111889854D01*
X157765853Y-111885898D01*
X157766252Y-111885409D01*
X157768234Y-111885867D01*
G37*
G36*
X157551779Y-112042631D02*
G01*
X157554279Y-112049699D01*
X157554595Y-112053345D01*
X157552726Y-112052313D01*
X157551779Y-112050965D01*
X157549015Y-112043849D01*
X157548731Y-112040965D01*
X157549683Y-112038971D01*
X157551779Y-112042631D01*
G37*
G36*
X157695099Y-112018635D02*
G01*
X157695131Y-112019101D01*
X157692763Y-112021921D01*
X157691282Y-112022950D01*
X157689001Y-112023343D01*
X157689812Y-112021480D01*
X157693169Y-112017901D01*
X157695099Y-112018635D01*
G37*
G36*
X157784903Y-111925867D02*
G01*
X157785143Y-111927631D01*
X157783923Y-111930375D01*
X157782921Y-111929854D01*
X157782522Y-111925898D01*
X157782921Y-111925409D01*
X157784903Y-111925867D01*
G37*
G36*
X157695251Y-111819398D02*
G01*
X157701799Y-111822631D01*
X157706655Y-111825948D01*
X157706896Y-111827393D01*
X157706800Y-111827395D01*
X157701679Y-111825865D01*
X157695131Y-111822631D01*
X157690275Y-111819315D01*
X157690034Y-111817870D01*
X157690131Y-111817868D01*
X157695251Y-111819398D01*
G37*
G36*
X157578449Y-111932631D02*
G01*
X157576782Y-111934298D01*
X157575116Y-111932631D01*
X157576782Y-111930965D01*
X157578449Y-111932631D01*
G37*
G36*
X157593556Y-112098649D02*
G01*
X157596007Y-112100551D01*
X157598114Y-112103354D01*
X157594773Y-112102654D01*
X157594141Y-112102417D01*
X157590059Y-112099777D01*
X157590029Y-112098275D01*
X157593556Y-112098649D01*
G37*
G36*
X157616873Y-112028678D02*
G01*
X157619288Y-112030540D01*
X157624471Y-112035405D01*
X157624448Y-112037577D01*
X157623863Y-112037631D01*
X157621081Y-112035354D01*
X157618029Y-112031798D01*
X157615146Y-112027850D01*
X157616873Y-112028678D01*
G37*
G36*
X157655126Y-111969298D02*
G01*
X157653459Y-111970965D01*
X157651792Y-111969298D01*
X157653459Y-111967631D01*
X157655126Y-111969298D01*
G37*
G36*
X157561540Y-112062534D02*
G01*
X157561780Y-112064298D01*
X157560561Y-112067042D01*
X157559558Y-112066520D01*
X157559159Y-112062565D01*
X157559558Y-112062076D01*
X157561540Y-112062534D01*
G37*
G36*
X157658413Y-111977631D02*
G01*
X157660216Y-111982343D01*
X157661484Y-111988846D01*
X157661952Y-111994761D01*
X157661357Y-111997706D01*
X157660606Y-111997354D01*
X157659270Y-111993458D01*
X157657542Y-111985707D01*
X157657276Y-111984298D01*
X157656362Y-111977261D01*
X157657393Y-111976303D01*
X157658413Y-111977631D01*
G37*
G36*
X157662627Y-111915424D02*
G01*
X157663046Y-111916641D01*
X157658460Y-111917105D01*
X157653727Y-111916581D01*
X157654293Y-111915424D01*
X157661118Y-111914984D01*
X157662627Y-111915424D01*
G37*
G36*
X157638457Y-111992631D02*
G01*
X157636790Y-111994298D01*
X157635123Y-111992631D01*
X157636790Y-111990965D01*
X157638457Y-111992631D01*
G37*
G36*
X157565253Y-112072519D02*
G01*
X157566310Y-112072912D01*
X157570406Y-112075910D01*
X157572142Y-112079460D01*
X157570523Y-112080965D01*
X157567650Y-112078753D01*
X157565051Y-112075889D01*
X157562619Y-112072275D01*
X157565253Y-112072519D01*
G37*
G36*
X157791165Y-111971842D02*
G01*
X157791161Y-111972631D01*
X157790680Y-111977801D01*
X157789665Y-111977308D01*
X157789500Y-111976735D01*
X157789012Y-111969474D01*
X157789624Y-111966735D01*
X157790718Y-111966624D01*
X157791165Y-111971842D01*
G37*
G36*
X157731675Y-111843527D02*
G01*
X157731803Y-111844495D01*
X157729760Y-111846486D01*
X157728469Y-111845965D01*
X157725289Y-111842969D01*
X157725135Y-111842435D01*
X157727715Y-111841003D01*
X157728469Y-111840965D01*
X157731675Y-111843527D01*
G37*
G36*
X157631790Y-112039298D02*
G01*
X157630123Y-112040965D01*
X157628456Y-112039298D01*
X157630123Y-112037631D01*
X157631790Y-112039298D01*
G37*
G36*
X157647347Y-111912076D02*
G01*
X157646890Y-111914058D01*
X157645125Y-111914298D01*
X157642381Y-111913079D01*
X157642902Y-111912076D01*
X157646859Y-111911677D01*
X157647347Y-111912076D01*
G37*
G36*
X157723862Y-112098581D02*
G01*
X157722674Y-112100855D01*
X157720006Y-112102220D01*
X157713675Y-112104108D01*
X157712413Y-112103333D01*
X157716217Y-112100558D01*
X157721742Y-112098350D01*
X157723862Y-112098581D01*
G37*
G36*
X156917097Y-111161249D02*
G01*
X156920723Y-111163392D01*
X156927154Y-111170456D01*
X156927674Y-111178403D01*
X156924363Y-111183631D01*
X156918130Y-111186712D01*
X156911695Y-111187631D01*
X156901826Y-111185409D01*
X156896239Y-111179884D01*
X156895467Y-111172773D01*
X156900045Y-111165790D01*
X156904054Y-111163115D01*
X156911356Y-111160186D01*
X156917097Y-111161249D01*
G37*
G36*
X157624219Y-111912284D02*
G01*
X157623225Y-111913799D01*
X157619844Y-111914035D01*
X157616286Y-111913221D01*
X157617830Y-111912021D01*
X157623040Y-111911624D01*
X157624219Y-111912284D01*
G37*
G36*
X157767010Y-112057945D02*
G01*
X157765141Y-112060965D01*
X157762464Y-112063527D01*
X157761858Y-112061995D01*
X157764233Y-112056678D01*
X157765141Y-112055965D01*
X157768139Y-112054792D01*
X157767010Y-112057945D01*
G37*
G36*
X157637554Y-112115618D02*
G01*
X157636560Y-112117133D01*
X157633179Y-112117368D01*
X157629621Y-112116554D01*
X157631165Y-112115354D01*
X157636375Y-112114957D01*
X157637554Y-112115618D01*
G37*
G36*
X157781809Y-111915965D02*
G01*
X157780142Y-111917631D01*
X157778476Y-111915965D01*
X157780142Y-111914298D01*
X157781809Y-111915965D01*
G37*
G36*
X157775142Y-112045965D02*
G01*
X157773475Y-112047631D01*
X157771808Y-112045965D01*
X157773475Y-112044298D01*
X157775142Y-112045965D01*
G37*
G36*
X157554937Y-111958899D02*
G01*
X157555113Y-111960768D01*
X157552692Y-111965288D01*
X157551817Y-111965941D01*
X157549923Y-111965405D01*
X157550507Y-111962805D01*
X157553197Y-111958113D01*
X157554937Y-111958899D01*
G37*
G36*
X157758473Y-111872631D02*
G01*
X157756806Y-111874298D01*
X157755139Y-111872631D01*
X157756806Y-111870965D01*
X157758473Y-111872631D01*
G37*
G36*
X157638457Y-111999298D02*
G01*
X157641641Y-112002439D01*
X157641791Y-112003025D01*
X157639638Y-112003252D01*
X157638457Y-112002631D01*
X157635273Y-111999491D01*
X157635123Y-111998905D01*
X157637277Y-111998677D01*
X157638457Y-111999298D01*
G37*
G36*
X157748472Y-111859298D02*
G01*
X157751655Y-111862439D01*
X157751805Y-111863025D01*
X157749652Y-111863252D01*
X157748472Y-111862631D01*
X157745288Y-111859491D01*
X157745138Y-111858905D01*
X157747291Y-111858677D01*
X157748472Y-111859298D01*
G37*
G36*
X157738230Y-111849200D02*
G01*
X157738470Y-111850965D01*
X157737251Y-111853709D01*
X157736248Y-111853187D01*
X157735849Y-111849231D01*
X157736248Y-111848743D01*
X157738230Y-111849200D01*
G37*
G36*
X157774932Y-111900210D02*
G01*
X157776594Y-111903321D01*
X157777609Y-111907215D01*
X157775167Y-111905618D01*
X157774728Y-111905187D01*
X157772095Y-111900817D01*
X157772452Y-111899210D01*
X157774932Y-111900210D01*
G37*
G36*
X157788477Y-111939298D02*
G01*
X157786810Y-111940965D01*
X157785143Y-111939298D01*
X157786810Y-111937631D01*
X157788477Y-111939298D01*
G37*
G36*
X157699044Y-111957532D02*
G01*
X157699931Y-111959298D01*
X157703158Y-111969510D01*
X157704569Y-111981264D01*
X157704566Y-111982631D01*
X157704357Y-111990098D01*
X157703950Y-111991909D01*
X157703063Y-111987738D01*
X157701731Y-111979298D01*
X157699809Y-111968146D01*
X157697867Y-111958872D01*
X157697096Y-111955965D01*
X157696916Y-111954029D01*
X157699044Y-111957532D01*
G37*
G36*
X157715134Y-111832631D02*
G01*
X157713467Y-111834298D01*
X157711800Y-111832631D01*
X157713467Y-111830965D01*
X157715134Y-111832631D01*
G37*
G36*
X157673770Y-112037867D02*
G01*
X157671573Y-112039435D01*
X157667210Y-112040460D01*
X157666429Y-112040044D01*
X157667554Y-112037733D01*
X157669984Y-112036481D01*
X157674682Y-112035628D01*
X157673770Y-112037867D01*
G37*
G36*
X157615121Y-112022631D02*
G01*
X157613454Y-112024298D01*
X157611787Y-112022631D01*
X157613454Y-112020965D01*
X157615121Y-112022631D01*
G37*
G36*
X157570671Y-111938743D02*
G01*
X157570213Y-111940724D01*
X157568448Y-111940965D01*
X157565704Y-111939745D01*
X157566226Y-111938743D01*
X157570182Y-111938344D01*
X157570671Y-111938743D01*
G37*
G36*
X157660891Y-112118951D02*
G01*
X157659896Y-112120466D01*
X157656515Y-112120702D01*
X157652958Y-112119888D01*
X157654501Y-112118688D01*
X157659711Y-112118290D01*
X157660891Y-112118951D01*
G37*
G36*
X157703554Y-112108275D02*
G01*
X157702554Y-112110755D01*
X157699442Y-112112417D01*
X157695548Y-112113432D01*
X157697145Y-112110990D01*
X157697576Y-112110551D01*
X157701947Y-112107918D01*
X157703554Y-112108275D01*
G37*
G36*
X157647347Y-111965409D02*
G01*
X157646890Y-111967391D01*
X157645125Y-111967631D01*
X157642381Y-111966412D01*
X157642902Y-111965409D01*
X157646859Y-111965010D01*
X157647347Y-111965409D01*
G37*
G36*
X157590673Y-111922076D02*
G01*
X157590216Y-111924058D01*
X157588451Y-111924298D01*
X157585707Y-111923079D01*
X157586228Y-111922076D01*
X157590185Y-111921677D01*
X157590673Y-111922076D01*
G37*
%TO.C,J3*%
X159590000Y-82610000D02*
X160640000Y-82610000D01*
X160760000Y-79490000D02*
X164640000Y-79490000D01*
X165810000Y-82610000D02*
X164760000Y-82610000D01*
X165810000Y-81460000D02*
X165810000Y-82610000D01*
X160640000Y-82610000D02*
X160640000Y-83600000D01*
X159590000Y-81460000D02*
X159590000Y-82610000D01*
%TO.C,R17*%
X170380000Y-99046359D02*
X170380000Y-99353641D01*
X169620000Y-99046359D02*
X169620000Y-99353641D01*
%TO.C,Q2*%
X200240000Y-103420000D02*
X200240000Y-104830000D01*
X202560000Y-104830000D02*
X201900000Y-104830000D01*
X202560000Y-104830000D02*
X202560000Y-102800000D01*
X200900000Y-104830000D02*
X200240000Y-104830000D01*
D15*
%TO.C,A2*%
X197200000Y-108439314D02*
X197200000Y-106994314D01*
X197200000Y-108439314D02*
X197020000Y-108439314D01*
X198800000Y-108439314D02*
X198980000Y-108439314D01*
X198800000Y-106994314D02*
X198800000Y-108439314D01*
X197200000Y-106994314D02*
X198800000Y-106994314D01*
X197020000Y-109504314D02*
X198980000Y-109504314D01*
D16*
X196250000Y-107421814D02*
G75*
G03*
X196250000Y-107421814I-100000J0D01*
G01*
D14*
%TO.C,R7*%
X201537258Y-102322500D02*
X201062742Y-102322500D01*
X201537258Y-101277500D02*
X201062742Y-101277500D01*
D15*
%TO.C,U7*%
X202625000Y-78400000D02*
X198225000Y-78400000D01*
X202625000Y-83000000D02*
X198225000Y-83000000D01*
D16*
X202125000Y-82600000D02*
G75*
G03*
X202125000Y-82600000I-100000J0D01*
G01*
D14*
%TO.C,C3*%
X185760000Y-80007836D02*
X185760000Y-79792164D01*
X185040000Y-80007836D02*
X185040000Y-79792164D01*
%TO.C,Q4*%
X200950000Y-98980000D02*
X200290000Y-98980000D01*
X202610000Y-98980000D02*
X201950000Y-98980000D01*
X200290000Y-97570000D02*
X200290000Y-98980000D01*
X202610000Y-98980000D02*
X202610000Y-96950000D01*
%TO.C,U6*%
X167660000Y-101160000D02*
X167660000Y-102110000D01*
X167660000Y-92840000D02*
X167660000Y-91890000D01*
X167660000Y-91890000D02*
X166710000Y-91890000D01*
X157440000Y-101160000D02*
X157440000Y-102110000D01*
X157440000Y-102110000D02*
X158390000Y-102110000D01*
X157440000Y-92840000D02*
X157440000Y-91890000D01*
X167660000Y-102110000D02*
X166710000Y-102110000D01*
X166710000Y-91890000D02*
X166710000Y-90550000D01*
X157440000Y-91890000D02*
X158390000Y-91890000D01*
%TO.C,C21*%
X169072164Y-86510000D02*
X169287836Y-86510000D01*
X169072164Y-85790000D02*
X169287836Y-85790000D01*
%TO.C,C14*%
X170392164Y-92940000D02*
X170607836Y-92940000D01*
X170392164Y-93660000D02*
X170607836Y-93660000D01*
D15*
%TO.C,U2*%
X202625000Y-88600000D02*
X198225000Y-88600000D01*
X202625000Y-84000000D02*
X198225000Y-84000000D01*
D16*
X202125000Y-88200000D02*
G75*
G03*
X202125000Y-88200000I-100000J0D01*
G01*
%TO.C,U4*%
X202550000Y-113050000D02*
X202550000Y-115850000D01*
X197750000Y-115850000D02*
X197750000Y-113050000D01*
D14*
X197870711Y-116200000D02*
G75*
G03*
X197870711Y-116200000I-70711J0D01*
G01*
%TO.C,C33*%
X174107836Y-94560000D02*
X173892164Y-94560000D01*
X174107836Y-93840000D02*
X173892164Y-93840000D01*
D15*
%TO.C,U5*%
X175500000Y-98500000D02*
X175500000Y-98430000D01*
X172500000Y-95500000D02*
X172570000Y-95500000D01*
X175500000Y-95500000D02*
X175430000Y-95500000D01*
X175500000Y-98500000D02*
X175430000Y-98500000D01*
X172500000Y-98500000D02*
X172570000Y-98500000D01*
X175500000Y-95500000D02*
X175500000Y-95570000D01*
X172500000Y-98500000D02*
X172500000Y-98430000D01*
X172500000Y-95500000D02*
X172500000Y-95570000D01*
D16*
X173100000Y-99385000D02*
G75*
G03*
X173100000Y-99385000I-100000J0D01*
G01*
D14*
%TO.C,C24*%
X192007836Y-92160000D02*
X191792164Y-92160000D01*
X192007836Y-91440000D02*
X191792164Y-91440000D01*
%TO.C,R21*%
X162822500Y-105512742D02*
X162822500Y-105987258D01*
X161777500Y-105512742D02*
X161777500Y-105987258D01*
%TO.C,C12*%
X169310000Y-83359420D02*
X169310000Y-83640580D01*
X168290000Y-83359420D02*
X168290000Y-83640580D01*
%TO.C,C27*%
X186210000Y-96159420D02*
X186210000Y-96440580D01*
X185190000Y-96159420D02*
X185190000Y-96440580D01*
%TO.C,C4*%
X185560000Y-114107836D02*
X185560000Y-113892164D01*
X184840000Y-114107836D02*
X184840000Y-113892164D01*
%TO.C,C28*%
X183859420Y-101390000D02*
X184140580Y-101390000D01*
X183859420Y-102410000D02*
X184140580Y-102410000D01*
%TO.C,C17*%
X157282836Y-87515000D02*
X157067164Y-87515000D01*
X157282836Y-88235000D02*
X157067164Y-88235000D01*
%TO.C,C7*%
X155260000Y-94107836D02*
X155260000Y-93892164D01*
X154540000Y-94107836D02*
X154540000Y-93892164D01*
%TO.C,Q5*%
X200340000Y-91970000D02*
X200340000Y-93380000D01*
X202660000Y-93380000D02*
X202000000Y-93380000D01*
X201000000Y-93380000D02*
X200340000Y-93380000D01*
X202660000Y-93380000D02*
X202660000Y-91350000D01*
%TO.C,C25*%
X187292164Y-92160000D02*
X187507836Y-92160000D01*
X187292164Y-91440000D02*
X187507836Y-91440000D01*
%TO.C,C13*%
X187559420Y-93910000D02*
X187840580Y-93910000D01*
X187559420Y-92890000D02*
X187840580Y-92890000D01*
%TO.C,C18*%
X169159420Y-90090000D02*
X169440580Y-90090000D01*
X169159420Y-91110000D02*
X169440580Y-91110000D01*
%TO.C,C20*%
X169082164Y-88280000D02*
X169297836Y-88280000D01*
X169082164Y-89000000D02*
X169297836Y-89000000D01*
%TO.C,R24*%
X201637258Y-89827500D02*
X201162742Y-89827500D01*
X201637258Y-90872500D02*
X201162742Y-90872500D01*
D15*
%TO.C,U1*%
X186470000Y-98380000D02*
X186470000Y-104600000D01*
X186470000Y-104600000D02*
X186700000Y-104600000D01*
X193130000Y-98380000D02*
X186470000Y-98380000D01*
X193130000Y-104600000D02*
X193130000Y-98380000D01*
X192900000Y-104600000D02*
X193130000Y-104600000D01*
D17*
X193320000Y-96100000D02*
G75*
G03*
X193320000Y-96100000I-120000J0D01*
G01*
D14*
%TO.C,R25*%
X185120000Y-93553641D02*
X185120000Y-93246359D01*
X185880000Y-93553641D02*
X185880000Y-93246359D01*
%TO.C,J2*%
X193360000Y-87710000D02*
X193360000Y-83690000D01*
X185340000Y-85510000D02*
X185340000Y-88010000D01*
X192360000Y-86210000D02*
X192360000Y-87710000D01*
X185640000Y-87710000D02*
X193360000Y-87710000D01*
X185640000Y-86210000D02*
X186640000Y-86210000D01*
X193360000Y-86210000D02*
X192360000Y-86210000D01*
X185640000Y-83690000D02*
X185640000Y-87710000D01*
X185340000Y-88010000D02*
X187840000Y-88010000D01*
X192860000Y-85400000D02*
X193360000Y-85400000D01*
X186640000Y-86210000D02*
X186640000Y-87710000D01*
X185640000Y-85400000D02*
X186140000Y-85400000D01*
X193360000Y-83690000D02*
X185640000Y-83690000D01*
X192860000Y-84190000D02*
X192860000Y-85400000D01*
X186140000Y-84190000D02*
X192860000Y-84190000D01*
X186140000Y-85400000D02*
X186140000Y-84190000D01*
%TO.C,R28*%
X204030000Y-107875455D02*
X204030000Y-107568173D01*
X203270000Y-107875455D02*
X203270000Y-107568173D01*
%TO.C,C1*%
X154040580Y-98890000D02*
X153759420Y-98890000D01*
X154040580Y-99910000D02*
X153759420Y-99910000D01*
%TO.C,C5*%
X203165000Y-104657836D02*
X203165000Y-104442164D01*
X203885000Y-104657836D02*
X203885000Y-104442164D01*
D15*
%TO.C,BZ1*%
X188200000Y-107300000D02*
X189400000Y-107300000D01*
X192200000Y-111300000D02*
X191000000Y-111300000D01*
X188200000Y-111300000D02*
X188200000Y-107300000D01*
X192200000Y-107300000D02*
X192200000Y-111300000D01*
X189400000Y-111300000D02*
X188200000Y-111300000D01*
X191000000Y-107300000D02*
X192200000Y-107300000D01*
D16*
X189000000Y-111680000D02*
G75*
G03*
X189000000Y-111680000I-100000J0D01*
G01*
D14*
%TO.C,FB1*%
X154540000Y-90099622D02*
X154540000Y-89300378D01*
X155660000Y-90099622D02*
X155660000Y-89300378D01*
D11*
%TO.C,D1*%
X188540000Y-90400000D02*
G75*
G03*
X188540000Y-90400000I-50000J0D01*
G01*
D14*
%TO.C,R4*%
X190322500Y-91237258D02*
X190322500Y-90762742D01*
X189277500Y-91237258D02*
X189277500Y-90762742D01*
%TO.C,Y1*%
X164800000Y-89650000D02*
X164800000Y-86350000D01*
X164800000Y-86350000D02*
X160800000Y-86350000D01*
%TO.C,R23*%
X201587258Y-96472500D02*
X201112742Y-96472500D01*
X201587258Y-95427500D02*
X201112742Y-95427500D01*
D15*
%TO.C,A3*%
X197150000Y-97017500D02*
X196970000Y-97017500D01*
X196970000Y-98082500D02*
X198930000Y-98082500D01*
X197150000Y-95572500D02*
X198750000Y-95572500D01*
X198750000Y-95572500D02*
X198750000Y-97017500D01*
X198750000Y-97017500D02*
X198930000Y-97017500D01*
X197150000Y-97017500D02*
X197150000Y-95572500D01*
D16*
X196350000Y-96100000D02*
G75*
G03*
X196350000Y-96100000I-100000J0D01*
G01*
D15*
%TO.C,SW1*%
X191250000Y-78350000D02*
X191250000Y-78786500D01*
X191250000Y-80813500D02*
X191250000Y-81250000D01*
X191250000Y-81250000D02*
X187350000Y-81250000D01*
X187350000Y-78786500D02*
X187350000Y-78350000D01*
X187350000Y-78350000D02*
X191250000Y-78350000D01*
X187350000Y-81250000D02*
X187350000Y-80813500D01*
D16*
X186150000Y-79800000D02*
G75*
G03*
X186150000Y-79800000I-100000J0D01*
G01*
D14*
%TO.C,M1*%
X177675000Y-112875000D02*
X177675000Y-110375000D01*
X170475000Y-112875000D02*
X177675000Y-112875000D01*
X170475000Y-112875000D02*
X170475000Y-104375000D01*
X175775000Y-103375000D02*
X183975000Y-103375000D01*
X170475000Y-104375000D02*
X175775000Y-104375000D01*
X183975000Y-110375000D02*
X183975000Y-103375000D01*
X177675000Y-110375000D02*
X183975000Y-110375000D01*
X175775000Y-104375000D02*
X175775000Y-103375000D01*
%TO.C,R18*%
X177246359Y-94920000D02*
X177553641Y-94920000D01*
X177246359Y-95680000D02*
X177553641Y-95680000D01*
D15*
%TO.C,A1*%
X197100000Y-102867500D02*
X197100000Y-101422500D01*
X198700000Y-102867500D02*
X198880000Y-102867500D01*
X198700000Y-101422500D02*
X198700000Y-102867500D01*
X197100000Y-101422500D02*
X198700000Y-101422500D01*
X196920000Y-103932500D02*
X198880000Y-103932500D01*
X197100000Y-102867500D02*
X196920000Y-102867500D01*
D16*
X196250000Y-101700000D02*
G75*
G03*
X196250000Y-101700000I-100000J0D01*
G01*
D14*
%TO.C,C36*%
X203910000Y-98857836D02*
X203910000Y-98642164D01*
X203190000Y-98857836D02*
X203190000Y-98642164D01*
%TO.C,R29*%
X203170000Y-96403641D02*
X203170000Y-96096359D01*
X203930000Y-96403641D02*
X203930000Y-96096359D01*
%TO.C,R1*%
X185862742Y-111822500D02*
X186337258Y-111822500D01*
X185862742Y-110777500D02*
X186337258Y-110777500D01*
%TO.C,J1*%
X165810000Y-111290000D02*
X164760000Y-111290000D01*
X159590000Y-111290000D02*
X160640000Y-111290000D01*
X165810000Y-112440000D02*
X165810000Y-111290000D01*
X164640000Y-114410000D02*
X160760000Y-114410000D01*
X159590000Y-112440000D02*
X159590000Y-111290000D01*
X164760000Y-111290000D02*
X164760000Y-110300000D01*
%TO.C,C26*%
X176907836Y-100360000D02*
X176692164Y-100360000D01*
X176907836Y-99640000D02*
X176692164Y-99640000D01*
%TO.C,C31*%
X177260000Y-98092164D02*
X177260000Y-98307836D01*
X176540000Y-98092164D02*
X176540000Y-98307836D01*
%TO.C,R30*%
X203980000Y-90818641D02*
X203980000Y-90511359D01*
X203220000Y-90818641D02*
X203220000Y-90511359D01*
%TO.C,R19*%
X169346359Y-102380000D02*
X169653641Y-102380000D01*
X169346359Y-101620000D02*
X169653641Y-101620000D01*
%TO.C,U3*%
X179165000Y-97000000D02*
X179165000Y-94800000D01*
X184635000Y-97000000D02*
X184635000Y-93400000D01*
X179165000Y-97000000D02*
X179165000Y-99200000D01*
X184635000Y-97000000D02*
X184635000Y-99200000D01*
%TO.C,R16*%
X170720000Y-99046359D02*
X170720000Y-99353641D01*
X171480000Y-99046359D02*
X171480000Y-99353641D01*
%TO.C,R31*%
X185653641Y-106170000D02*
X185346359Y-106170000D01*
X185653641Y-106930000D02*
X185346359Y-106930000D01*
%TO.C,J9*%
X204950000Y-93100000D02*
G75*
G03*
X204950000Y-93100000I-200000J0D01*
G01*
%TO.C,M2*%
X175825000Y-90675000D02*
X184025000Y-90675000D01*
X175825000Y-89675000D02*
X175825000Y-90675000D01*
X170525000Y-81175000D02*
X177725000Y-81175000D01*
X184025000Y-83675000D02*
X184025000Y-90675000D01*
X177725000Y-81175000D02*
X177725000Y-83675000D01*
X177725000Y-83675000D02*
X184025000Y-83675000D01*
X170525000Y-81175000D02*
X170525000Y-89675000D01*
X170525000Y-89675000D02*
X175825000Y-89675000D01*
%TD*%
M02*
