M48
; DRILL file {KiCad 6.0.11-2627ca5db0~126~ubuntu22.04.1} date Sun 12 Mar 2023 03:28:44 PM IST
; FORMAT={-:-/ absolute / inch / decimal}
; #@! TF.CreationDate,2023-03-12T15:28:44+05:30
; #@! TF.GenerationSoftware,Kicad,Pcbnew,6.0.11-2627ca5db0~126~ubuntu22.04.1
; #@! TF.FileFunction,Plated,1,2,PTH
FMAT,2
INCH
; #@! TA.AperFunction,Plated,PTH,ViaDrill
T1C0.0079
; #@! TA.AperFunction,Plated,PTH,ViaDrill
T2C0.0118
; #@! TA.AperFunction,Plated,PTH,ComponentDrill
T3C0.0118
; #@! TA.AperFunction,Plated,PTH,ComponentDrill
T4C0.0197
; #@! TA.AperFunction,Plated,PTH,ComponentDrill
T5C0.0394
%
G90
G05
T1
X7.0354Y-3.9341
X7.0974Y-3.9114
X7.123Y-3.9114
X7.1486Y-3.9114
X7.1742Y-3.6437
X7.1742Y-3.6683
X7.1998Y-3.9114
X7.2254Y-3.6427
X7.2254Y-3.6683
X7.2254Y-3.9537
X7.251Y-3.9114
X7.3061Y-3.8848
X7.3061Y-3.9134
X7.3317Y-3.8819
X7.3317Y-3.9055
X7.7913Y-4.4803
X7.7913Y-4.5059
X7.7913Y-4.5315
X7.8716Y-4.5
X7.8905Y-4.5152
X7.9272Y-4.4419
X7.9508Y-4.4764
X7.9508Y-4.5413
X7.9675Y-4.4419
X7.9744Y-4.5463
X7.998Y-4.5413
T2
X5.9302Y-3.6683
X5.9538Y-3.6361
X6.0453Y-3.7256
X6.0512Y-3.561
X6.0551Y-3.5068
X6.0591Y-3.9547
X6.0728Y-4.0945
X6.0748Y-3.7894
X6.0787Y-3.7559
X6.0984Y-4.0689
X6.1142Y-3.3189
X6.1417Y-3.624
X6.1693Y-4.0394
X6.1693Y-4.0748
X6.1693Y-4.1102
X6.1811Y-3.622
X6.2461Y-3.9449
X6.2499Y-3.9133
X6.2589Y-4.3484
X6.2776Y-3.8524
X6.2815Y-3.7323
X6.2815Y-3.8228
X6.2835Y-3.7697
X6.2871Y-3.9729
X6.2874Y-4.3484
X6.2972Y-3.5236
X6.311Y-3.3839
X6.311Y-3.6772
X6.311Y-3.9449
X6.3189Y-3.7382
X6.3504Y-3.9744
X6.3583Y-3.6772
X6.3898Y-3.9724
X6.3937Y-4.2402
X6.4085Y-3.4626
X6.4094Y-3.9449
X6.4222Y-3.3219
X6.4291Y-3.6673
X6.4311Y-3.9724
X6.4311Y-4.2579
X6.4606Y-4.2008
X6.4606Y-4.2343
X6.4882Y-3.7874
X6.4902Y-3.7323
X6.501Y-4.2913
X6.5059Y-3.9311
X6.5197Y-3.8583
X6.5276Y-3.8091
X6.5335Y-3.9508
X6.5472Y-3.6457
X6.5551Y-3.7205
X6.5748Y-3.9508
X6.5748Y-4.189
X6.5754Y-3.637
X6.5984Y-4.126
X6.6752Y-4.0945
X6.6811Y-3.3543
X6.6811Y-3.4409
X6.7126Y-3.815
X6.7254Y-3.6447
X6.7421Y-3.8071
X6.7421Y-4.1398
X6.7776Y-3.8858
X6.7933Y-4.0965
X6.7953Y-3.502
X6.7972Y-3.9626
X6.8143Y-3.6692
X6.8297Y-4.0984
X6.8337Y-4.2274
X6.8583Y-3.6476
X6.8622Y-4.2008
X6.8701Y-3.4626
X6.9035Y-3.3445
X6.9075Y-4.1388
X6.9547Y-3.6654
X7.0039Y-4.0246
X7.0276Y-3.8209
X7.0315Y-3.7205
X7.0325Y-3.7805
X7.0364Y-3.875
X7.0433Y-3.9843
X7.1024Y-4.0118
X7.1043Y-3.815
X7.1644Y-3.7756
X7.1644Y-3.8543
X7.2254Y-3.812
X7.2264Y-4.2234
X7.2402Y-4.4449
X7.2441Y-3.1083
X7.25Y-4.0463
X7.2579Y-4.1949
X7.3012Y-3.7264
X7.3209Y-3.628
X7.3346Y-3.7185
X7.3534Y-3.8109
X7.3602Y-3.4961
X7.4409Y-3.2362
X7.4469Y-3.7205
X7.4705Y-3.8051
X7.498Y-4.1811
X7.5059Y-3.8051
X7.5177Y-4.1614
X7.5394Y-3.8051
X7.5571Y-3.5217
X7.5748Y-3.5492
X7.8199Y-3.3976
X7.8199Y-3.4488
X7.8219Y-3.2018
X7.8238Y-3.2303
X7.8287Y-3.9902
X7.8287Y-4.2224
X7.8307Y-3.7717
X7.8327Y-3.561
X7.8839Y-4.3209
X7.8858Y-4.0886
X7.9154Y-3.8524
X7.9193Y-3.6437
X7.938Y-3.4134
X7.9469Y-3.2077
X7.9498Y-3.1772
X7.9557Y-3.437
X7.9803Y-4.2717
X7.9803Y-4.315
X7.9843Y-4.0453
X7.9862Y-4.0827
X8.0602Y-3.3524
X8.062Y-3.1329
T3
X8.0591Y-3.5728
X8.0591Y-3.6909
X8.0591Y-3.7854
X8.0591Y-3.9035
X8.0591Y-4.0039
X8.0591Y-4.122
X8.0591Y-4.2362
X8.0591Y-4.3543
X8.0709Y-3.3189
X8.0709Y-3.4764
X8.0736Y-3.0984
X8.0736Y-3.2559
X8.0748Y-4.4272
X8.0748Y-4.5846
T4
X7.2805Y-4.0778
X7.2825Y-3.562
X7.2825Y-4.1388
X7.2844Y-3.501
T5
X7.4114Y-3.3622
X7.5098Y-3.3622
T5
G00X5.935Y-3.7343
M15
G01X5.935Y-3.7461
M16
G05
G00X5.935Y-3.8917
M15
G01X5.935Y-3.9035
M16
G05
G00X5.9746Y-3.5332
M15
G01X5.9703Y-3.5222
M16
G05
G00X5.9746Y-4.1046
M15
G01X5.9703Y-4.1156
M16
G05
G00X6.0179Y-3.6431
M15
G01X6.0136Y-3.6321
M16
G05
G00X6.0179Y-3.9947
M15
G01X6.0136Y-4.0057
M16
G05
G00X6.0599Y-3.3766
M15
G01X6.0482Y-3.3745
M16
G05
G00X6.0618Y-4.2612
M15
G01X6.0502Y-4.2632
M16
G05
G00X6.1762Y-3.3971
M15
G01X6.1645Y-3.3951
M16
G05
G00X6.1781Y-4.2407
M15
G01X6.1665Y-4.2427
M16
G05
G00X6.7776Y-3.622
M15
G01X6.7657Y-3.622
M16
G05
G00X6.7657Y-4.0157
M15
G01X6.7776Y-4.0157
M16
G05
G00X6.935Y-3.622
M15
G01X6.9232Y-3.622
M16
G05
G00X6.9232Y-4.0157
M15
G01X6.935Y-4.0157
M16
G05
T0
M30
