%TF.GenerationSoftware,KiCad,Pcbnew,6.0.7-f9a2dced07~116~ubuntu20.04.1*%
%TF.CreationDate,2022-08-30T23:17:40+05:30*%
%TF.ProjectId,mushak_pcb,6d757368-616b-45f7-9063-622e6b696361,rev?*%
%TF.SameCoordinates,Original*%
%TF.FileFunction,Profile,NP*%
%FSLAX46Y46*%
G04 Gerber Fmt 4.6, Leading zero omitted, Abs format (unit mm)*
G04 Created by KiCad (PCBNEW 6.0.7-f9a2dced07~116~ubuntu20.04.1) date 2022-08-30 23:17:40*
%MOMM*%
%LPD*%
G01*
G04 APERTURE LIST*
%TA.AperFunction,Profile*%
%ADD10C,0.100000*%
%TD*%
%TA.AperFunction,Profile*%
%ADD11C,0.120000*%
%TD*%
G04 APERTURE END LIST*
D10*
X194000000Y-91000000D02*
X195500000Y-91000000D01*
X194000000Y-86000000D02*
X194000000Y-82000000D01*
X204050000Y-83800000D02*
X205750000Y-83800000D01*
X195450000Y-99900000D02*
X197550000Y-99900000D01*
X195500000Y-109000000D02*
X195500000Y-110950000D01*
X204850000Y-115800000D02*
X197350000Y-115800000D01*
X195500000Y-94300000D02*
X197550000Y-94300000D01*
X204800000Y-95800000D02*
X204800000Y-95250000D01*
X194000000Y-108000000D02*
X195500000Y-108000000D01*
X190000000Y-117000000D02*
X182000000Y-117000000D01*
X168000000Y-81000000D02*
X180000000Y-81000000D01*
X205350000Y-107950000D02*
X205350000Y-109850000D01*
X194000000Y-103000000D02*
X194000000Y-98000000D01*
X205350000Y-109850000D02*
X205850000Y-109850000D01*
X194000000Y-81000000D02*
X196650000Y-81000000D01*
X197350000Y-112000000D02*
X197550000Y-112000000D01*
X205850000Y-102750000D02*
X205850000Y-101650000D01*
X197550000Y-99900000D02*
X197550000Y-101150000D01*
X205850000Y-91300000D02*
X205850000Y-90200000D01*
X205350000Y-82200000D02*
X205350000Y-79200000D01*
X166750000Y-116150000D02*
X166750000Y-114200000D01*
X204050000Y-88800000D02*
X204050000Y-89650000D01*
X205850000Y-83200000D02*
X205850000Y-82200000D01*
X204750000Y-90200000D02*
X204750000Y-89700000D01*
X194000000Y-108000000D02*
X194000000Y-104000000D01*
X198050000Y-106350000D02*
X203550000Y-106350000D01*
X182000000Y-77000000D02*
G75*
G03*
X181250000Y-77750000I0J-750000D01*
G01*
X205900000Y-99900000D02*
X205900000Y-98800000D01*
X204750000Y-106850000D02*
X204750000Y-106350000D01*
X205850000Y-107950000D02*
X205350000Y-107950000D01*
X204050000Y-101150000D02*
X204750000Y-101150000D01*
X205350000Y-79200000D02*
X205850000Y-79200000D01*
X181250000Y-79750000D02*
X181250000Y-77750000D01*
X190000000Y-117000000D02*
G75*
G03*
X194000000Y-113000000I0J4000000D01*
G01*
X194000000Y-91975000D02*
X195500000Y-91975000D01*
X198050000Y-83200000D02*
X198050000Y-83800000D01*
X195450000Y-105750000D02*
X197550000Y-105750000D01*
X181250000Y-114250000D02*
G75*
G03*
X180000000Y-113000000I-1250000J0D01*
G01*
X196650000Y-88800000D02*
X197550000Y-88800000D01*
X204800000Y-99900000D02*
X205900000Y-99900000D01*
X204050000Y-95250000D02*
X204800000Y-95250000D01*
X204750000Y-101150000D02*
X204750000Y-101200000D01*
X203550000Y-88800000D02*
X198050000Y-88800000D01*
X205900000Y-95800000D02*
X204800000Y-95800000D01*
X197550000Y-88800000D02*
X197550000Y-89650000D01*
X205350000Y-104650000D02*
X205350000Y-102750000D01*
X205850000Y-79200000D02*
X205850000Y-78200000D01*
X194000000Y-81000000D02*
G75*
G03*
X190000000Y-77000000I-4000000J0D01*
G01*
X205850000Y-104650000D02*
X205350000Y-104650000D01*
X194000000Y-112000000D02*
X197350000Y-112000000D01*
X204050000Y-105750000D02*
X204050000Y-106350000D01*
X205850000Y-90200000D02*
X204750000Y-90200000D01*
X180000000Y-81000000D02*
G75*
G03*
X181250000Y-79750000I0J1250000D01*
G01*
X195450000Y-98000000D02*
X195450000Y-99900000D01*
X198050000Y-112000000D02*
X203550000Y-112000000D01*
X197550000Y-110950000D02*
X197550000Y-112000000D01*
X194000000Y-97000000D02*
X195450000Y-97000000D01*
X196650000Y-83800000D02*
X196650000Y-86000000D01*
X204050000Y-110950000D02*
X205850000Y-110950000D01*
X203550000Y-99900000D02*
X203550000Y-101150000D01*
X195500000Y-91975000D02*
X195500000Y-94300000D01*
X166750000Y-79750000D02*
X166750000Y-77880330D01*
X195500000Y-106350000D02*
X197550000Y-106350000D01*
X196650000Y-82000000D02*
X196650000Y-83200000D01*
X194000000Y-97000000D02*
X194000000Y-91975000D01*
X205850000Y-106850000D02*
X204750000Y-106850000D01*
X204850000Y-112000000D02*
X204850000Y-111400000D01*
X165900000Y-77130331D02*
G75*
G03*
X166000000Y-116900000I2350750J-19879049D01*
G01*
X205350000Y-112400000D02*
X205350000Y-115200000D01*
X205400000Y-98800000D02*
X205400000Y-96900000D01*
X195500000Y-106350000D02*
X195500000Y-108000000D01*
X181250000Y-116250000D02*
G75*
G03*
X182000000Y-117000000I750000J0D01*
G01*
X204850000Y-111400000D02*
X205850000Y-111400000D01*
X205850000Y-78200000D02*
X196650000Y-78200000D01*
X198050000Y-94300000D02*
X198050000Y-95250000D01*
X198050000Y-101150000D02*
X203550000Y-101150000D01*
X205900000Y-96900000D02*
X205900000Y-95800000D01*
X204050000Y-99900000D02*
X204050000Y-101150000D01*
X204050000Y-94300000D02*
X205850000Y-94300000D01*
X197550000Y-105750000D02*
X197550000Y-106350000D01*
X203550000Y-83200000D02*
X203550000Y-83800000D01*
X203550000Y-95250000D02*
X198050000Y-95250000D01*
X197550000Y-95250000D02*
X195450000Y-95250000D01*
X194000000Y-109000000D02*
X195500000Y-109000000D01*
X205350000Y-93200000D02*
X205850000Y-93200000D01*
X205850000Y-111400000D02*
X205850000Y-112400000D01*
X205850000Y-105750000D02*
X205850000Y-104650000D01*
X204050000Y-94300000D02*
X204050000Y-95250000D01*
X204850000Y-116400000D02*
X204850000Y-115800000D01*
X194000000Y-82000000D02*
X196650000Y-82000000D01*
X205250000Y-87700000D02*
X205250000Y-84800000D01*
X204050000Y-99900000D02*
X204800000Y-99900000D01*
X182000000Y-77000000D02*
X190000000Y-77000000D01*
X205850000Y-116400000D02*
X204850000Y-116400000D01*
X198050000Y-94300000D02*
X203550000Y-94300000D01*
X204050000Y-105750000D02*
X204750000Y-105750000D01*
X194000000Y-91000000D02*
X194000000Y-87000000D01*
X195450000Y-104000000D02*
X195450000Y-105750000D01*
X205750000Y-88800000D02*
X205750000Y-87800000D01*
X204050000Y-88800000D02*
X205750000Y-88800000D01*
X204750000Y-105750000D02*
X205850000Y-105750000D01*
X197350000Y-113000000D02*
X197350000Y-115800000D01*
X198050000Y-105750000D02*
X203550000Y-105750000D01*
X205850000Y-93200000D02*
X205850000Y-94300000D01*
X197550000Y-89650000D02*
X195500000Y-89650000D01*
X198050000Y-110950000D02*
X203550000Y-110950000D01*
X194000000Y-103000000D02*
X195450000Y-103000000D01*
X196650000Y-83200000D02*
X197550000Y-83200000D01*
X204050000Y-83200000D02*
X204050000Y-83800000D01*
X198050000Y-99900000D02*
X203550000Y-99900000D01*
X195450000Y-101150000D02*
X195450000Y-103000000D01*
X204750000Y-89700000D02*
X204750000Y-89650000D01*
X205350000Y-115200000D02*
X205350000Y-115400000D01*
X203550000Y-83800000D02*
X198050000Y-83800000D01*
X198050000Y-110950000D02*
X198050000Y-112000000D01*
X205900000Y-98800000D02*
X205400000Y-98800000D01*
X166000000Y-116900000D02*
G75*
G03*
X166750000Y-116150000I0J750000D01*
G01*
X205350000Y-115400000D02*
X205850000Y-115400000D01*
X205850000Y-112400000D02*
X205350000Y-112400000D01*
X204050000Y-112000000D02*
X204850000Y-112000000D01*
X203550000Y-88800000D02*
X203550000Y-89650000D01*
X194000000Y-113000000D02*
X197350000Y-113000000D01*
X203550000Y-110950000D02*
X203550000Y-112000000D01*
X204050000Y-83200000D02*
X205850000Y-83200000D01*
X203550000Y-94300000D02*
X203550000Y-95250000D01*
X198050000Y-105750000D02*
X198050000Y-106350000D01*
X204050000Y-110950000D02*
X204050000Y-112000000D01*
X205850000Y-82200000D02*
X205350000Y-82200000D01*
X205850000Y-109850000D02*
X205850000Y-110950000D01*
X195450000Y-95250000D02*
X195450000Y-97000000D01*
X204050000Y-89650000D02*
X204750000Y-89650000D01*
X204750000Y-101650000D02*
X204750000Y-101200000D01*
X198050000Y-83200000D02*
X203550000Y-83200000D01*
X194000000Y-98000000D02*
X195450000Y-98000000D01*
X194000000Y-87000000D02*
X196650000Y-87000000D01*
X204050000Y-106350000D02*
X204750000Y-106350000D01*
X205250000Y-87700000D02*
X205250000Y-87800000D01*
X197550000Y-83200000D02*
X197550000Y-83800000D01*
X205850000Y-101650000D02*
X204750000Y-101650000D01*
X181250000Y-114250000D02*
X181250000Y-116250000D01*
X197550000Y-94300000D02*
X197550000Y-95250000D01*
X205350000Y-91300000D02*
X205850000Y-91300000D01*
X203550000Y-105750000D02*
X203550000Y-106350000D01*
X196650000Y-78200000D02*
X196650000Y-81000000D01*
X195500000Y-89650000D02*
X195500000Y-91000000D01*
X205350000Y-93200000D02*
X205350000Y-91300000D01*
X197550000Y-83800000D02*
X196650000Y-83800000D01*
X205250000Y-87800000D02*
X205750000Y-87800000D01*
X195450000Y-101150000D02*
X197550000Y-101150000D01*
X198050000Y-99900000D02*
X198050000Y-101150000D01*
X205750000Y-83800000D02*
X205750000Y-84800000D01*
X168000000Y-112999960D02*
G75*
G03*
X166750000Y-114200000I0J-1251040D01*
G01*
X198050000Y-88800000D02*
X198050000Y-89650000D01*
X205250000Y-84800000D02*
X205750000Y-84800000D01*
X205850000Y-115400000D02*
X205850000Y-116400000D01*
X166749950Y-77880330D02*
G75*
G03*
X165900000Y-77130330I-755850J30D01*
G01*
X194000000Y-86000000D02*
X196650000Y-86000000D01*
X168000000Y-113000000D02*
X180000000Y-113000000D01*
X194000000Y-112000000D02*
X194000000Y-109000000D01*
X205400000Y-96900000D02*
X205900000Y-96900000D01*
X166750000Y-79750000D02*
G75*
G03*
X168000000Y-81000000I1250000J0D01*
G01*
X205350000Y-102750000D02*
X205850000Y-102750000D01*
X194000000Y-104000000D02*
X195450000Y-104000000D01*
X196650000Y-87000000D02*
X196650000Y-88800000D01*
X203550000Y-89650000D02*
X198050000Y-89650000D01*
X195500000Y-110950000D02*
X197550000Y-110950000D01*
X205850000Y-106850000D02*
X205850000Y-107950000D01*
D11*
%TO.C,M1*%
X177025000Y-110375000D02*
X177025000Y-102875000D01*
X182525000Y-102875000D02*
X182525000Y-110375000D01*
X177025000Y-102875000D02*
X182525000Y-102875000D01*
X182525000Y-110375000D02*
X177025000Y-110375000D01*
X176725000Y-111625000D02*
G75*
G03*
X176725000Y-111625000I-750000J0D01*
G01*
X172725000Y-109125000D02*
G75*
G03*
X172725000Y-109125000I-750000J0D01*
G01*
X172725000Y-111625000D02*
G75*
G03*
X172725000Y-111625000I-750000J0D01*
G01*
%TO.C,M2*%
X177075000Y-83675000D02*
X177075000Y-91175000D01*
X182575000Y-83675000D02*
X177075000Y-83675000D01*
X182575000Y-91175000D02*
X182575000Y-83675000D01*
X177075000Y-91175000D02*
X182575000Y-91175000D01*
X176775000Y-82425000D02*
G75*
G03*
X176775000Y-82425000I-750000J0D01*
G01*
X172775000Y-82425000D02*
G75*
G03*
X172775000Y-82425000I-750000J0D01*
G01*
X172775000Y-84925000D02*
G75*
G03*
X172775000Y-84925000I-750000J0D01*
G01*
%TD*%
M02*
