%TF.GenerationSoftware,KiCad,Pcbnew,6.0.8-f2edbf62ab~116~ubuntu22.04.1*%
%TF.CreationDate,2022-10-15T20:56:30+05:30*%
%TF.ProjectId,mushak_pcb,6d757368-616b-45f7-9063-622e6b696361,rev?*%
%TF.SameCoordinates,Original*%
%TF.FileFunction,Paste,Bot*%
%TF.FilePolarity,Positive*%
%FSLAX46Y46*%
G04 Gerber Fmt 4.6, Leading zero omitted, Abs format (unit mm)*
G04 Created by KiCad (PCBNEW 6.0.8-f2edbf62ab~116~ubuntu22.04.1) date 2022-10-15 20:56:30*
%MOMM*%
%LPD*%
G01*
G04 APERTURE LIST*
G04 Aperture macros list*
%AMRoundRect*
0 Rectangle with rounded corners*
0 $1 Rounding radius*
0 $2 $3 $4 $5 $6 $7 $8 $9 X,Y pos of 4 corners*
0 Add a 4 corners polygon primitive as box body*
4,1,4,$2,$3,$4,$5,$6,$7,$8,$9,$2,$3,0*
0 Add four circle primitives for the rounded corners*
1,1,$1+$1,$2,$3*
1,1,$1+$1,$4,$5*
1,1,$1+$1,$6,$7*
1,1,$1+$1,$8,$9*
0 Add four rect primitives between the rounded corners*
20,1,$1+$1,$2,$3,$4,$5,0*
20,1,$1+$1,$4,$5,$6,$7,0*
20,1,$1+$1,$6,$7,$8,$9,0*
20,1,$1+$1,$8,$9,$2,$3,0*%
G04 Aperture macros list end*
%ADD10R,0.800000X0.400000*%
%ADD11RoundRect,0.135000X0.185000X-0.135000X0.185000X0.135000X-0.185000X0.135000X-0.185000X-0.135000X0*%
%ADD12RoundRect,0.135000X-0.135000X-0.185000X0.135000X-0.185000X0.135000X0.185000X-0.135000X0.185000X0*%
%ADD13RoundRect,0.140000X-0.170000X0.140000X-0.170000X-0.140000X0.170000X-0.140000X0.170000X0.140000X0*%
%ADD14R,0.900000X1.400000*%
%ADD15RoundRect,0.225000X0.250000X-0.225000X0.250000X0.225000X-0.250000X0.225000X-0.250000X-0.225000X0*%
%ADD16RoundRect,0.225000X-0.225000X-0.250000X0.225000X-0.250000X0.225000X0.250000X-0.225000X0.250000X0*%
%ADD17RoundRect,0.140000X0.170000X-0.140000X0.170000X0.140000X-0.170000X0.140000X-0.170000X-0.140000X0*%
G04 APERTURE END LIST*
D10*
%TO.C,J8*%
X204700000Y-97850000D03*
%TD*%
%TO.C,J7*%
X204650000Y-109271814D03*
%TD*%
%TO.C,J6*%
X204650000Y-103700000D03*
%TD*%
%TO.C,J9*%
X204650000Y-92250000D03*
%TD*%
D11*
%TO.C,R6*%
X203500000Y-104210000D03*
X203500000Y-103190000D03*
%TD*%
D12*
%TO.C,R10*%
X200590000Y-78975000D03*
X201610000Y-78975000D03*
%TD*%
D13*
%TO.C,C41*%
X200825000Y-81595000D03*
X200825000Y-82555000D03*
%TD*%
D14*
%TO.C,D4*%
X196602500Y-97550000D03*
X199302500Y-97550000D03*
%TD*%
D15*
%TO.C,C29*%
X204050000Y-115225000D03*
X204050000Y-113675000D03*
%TD*%
D13*
%TO.C,C40*%
X200825000Y-87045000D03*
X200825000Y-88005000D03*
%TD*%
D16*
%TO.C,C38*%
X202175000Y-96000000D03*
X203725000Y-96000000D03*
%TD*%
D14*
%TO.C,D2*%
X196550000Y-103400000D03*
X199250000Y-103400000D03*
%TD*%
D12*
%TO.C,R9*%
X200590000Y-80000000D03*
X201610000Y-80000000D03*
%TD*%
%TO.C,R5*%
X200665000Y-84700000D03*
X201685000Y-84700000D03*
%TD*%
D15*
%TO.C,C23*%
X199600000Y-87725000D03*
X199600000Y-86175000D03*
%TD*%
D14*
%TO.C,D5*%
X196650000Y-91950000D03*
X199350000Y-91950000D03*
%TD*%
D11*
%TO.C,R13*%
X203550000Y-98310000D03*
X203550000Y-97290000D03*
%TD*%
%TO.C,R22*%
X203600000Y-92760000D03*
X203600000Y-91740000D03*
%TD*%
D14*
%TO.C,D3*%
X196652500Y-108971814D03*
X199352500Y-108971814D03*
%TD*%
D15*
%TO.C,C22*%
X199550000Y-82275000D03*
X199550000Y-80725000D03*
%TD*%
D17*
%TO.C,C30*%
X202050000Y-114930000D03*
X202050000Y-113970000D03*
%TD*%
D11*
%TO.C,R11*%
X203525000Y-109981814D03*
X203525000Y-108961814D03*
%TD*%
D16*
%TO.C,C34*%
X202125000Y-101900000D03*
X203675000Y-101900000D03*
%TD*%
%TO.C,C39*%
X202225000Y-90450000D03*
X203775000Y-90450000D03*
%TD*%
D12*
%TO.C,R8*%
X200665000Y-85725000D03*
X201685000Y-85725000D03*
%TD*%
D16*
%TO.C,C35*%
X202175000Y-107471814D03*
X203725000Y-107471814D03*
%TD*%
M02*
