%TF.GenerationSoftware,KiCad,Pcbnew,6.0.11-2627ca5db0~126~ubuntu22.04.1*%
%TF.CreationDate,2023-03-01T18:32:34+05:30*%
%TF.ProjectId,mushak_pcb,6d757368-616b-45f7-9063-622e6b696361,rev?*%
%TF.SameCoordinates,Original*%
%TF.FileFunction,Copper,L1,Top*%
%TF.FilePolarity,Positive*%
%FSLAX46Y46*%
G04 Gerber Fmt 4.6, Leading zero omitted, Abs format (unit mm)*
G04 Created by KiCad (PCBNEW 6.0.11-2627ca5db0~126~ubuntu22.04.1) date 2023-03-01 18:32:34*
%MOMM*%
%LPD*%
G01*
G04 APERTURE LIST*
G04 Aperture macros list*
%AMRoundRect*
0 Rectangle with rounded corners*
0 $1 Rounding radius*
0 $2 $3 $4 $5 $6 $7 $8 $9 X,Y pos of 4 corners*
0 Add a 4 corners polygon primitive as box body*
4,1,4,$2,$3,$4,$5,$6,$7,$8,$9,$2,$3,0*
0 Add four circle primitives for the rounded corners*
1,1,$1+$1,$2,$3*
1,1,$1+$1,$4,$5*
1,1,$1+$1,$6,$7*
1,1,$1+$1,$8,$9*
0 Add four rect primitives between the rounded corners*
20,1,$1+$1,$2,$3,$4,$5,0*
20,1,$1+$1,$4,$5,$6,$7,0*
20,1,$1+$1,$6,$7,$8,$9,0*
20,1,$1+$1,$8,$9,$2,$3,0*%
%AMHorizOval*
0 Thick line with rounded ends*
0 $1 width*
0 $2 $3 position (X,Y) of the first rounded end (center of the circle)*
0 $4 $5 position (X,Y) of the second rounded end (center of the circle)*
0 Add line between two ends*
20,1,$1,$2,$3,$4,$5,0*
0 Add two circle primitives to create the rounded ends*
1,1,$1,$2,$3*
1,1,$1,$4,$5*%
%AMRotRect*
0 Rectangle, with rotation*
0 The origin of the aperture is its center*
0 $1 length*
0 $2 width*
0 $3 Rotation angle, in degrees counterclockwise*
0 Add horizontal line*
21,1,$1,$2,0,0,$3*%
G04 Aperture macros list end*
%TA.AperFunction,ComponentPad*%
%ADD10R,1.000000X0.500000*%
%TD*%
%TA.AperFunction,SMDPad,CuDef*%
%ADD11R,0.600000X0.500000*%
%TD*%
%TA.AperFunction,SMDPad,CuDef*%
%ADD12RoundRect,0.135000X0.135000X0.185000X-0.135000X0.185000X-0.135000X-0.185000X0.135000X-0.185000X0*%
%TD*%
%TA.AperFunction,SMDPad,CuDef*%
%ADD13RoundRect,0.225000X-0.225000X-0.250000X0.225000X-0.250000X0.225000X0.250000X-0.225000X0.250000X0*%
%TD*%
%TA.AperFunction,SMDPad,CuDef*%
%ADD14RoundRect,0.140000X0.140000X0.170000X-0.140000X0.170000X-0.140000X-0.170000X0.140000X-0.170000X0*%
%TD*%
%TA.AperFunction,SMDPad,CuDef*%
%ADD15RoundRect,0.225000X-0.250000X0.225000X-0.250000X-0.225000X0.250000X-0.225000X0.250000X0.225000X0*%
%TD*%
%TA.AperFunction,ComponentPad*%
%ADD16O,1.800000X1.400000*%
%TD*%
%TA.AperFunction,SMDPad,CuDef*%
%ADD17R,0.800000X0.700000*%
%TD*%
%TA.AperFunction,ComponentPad*%
%ADD18R,2.000000X0.800000*%
%TD*%
%TA.AperFunction,SMDPad,CuDef*%
%ADD19R,1.200000X0.400000*%
%TD*%
%TA.AperFunction,SMDPad,CuDef*%
%ADD20R,1.900000X1.100000*%
%TD*%
%TA.AperFunction,ComponentPad*%
%ADD21HorizOval,1.400000X-0.196962X0.034730X0.196962X-0.034730X0*%
%TD*%
%TA.AperFunction,SMDPad,CuDef*%
%ADD22RotRect,0.800000X0.800000X260.000000*%
%TD*%
%TA.AperFunction,SMDPad,CuDef*%
%ADD23RoundRect,0.200000X-0.200000X-0.275000X0.200000X-0.275000X0.200000X0.275000X-0.200000X0.275000X0*%
%TD*%
%TA.AperFunction,SMDPad,CuDef*%
%ADD24RoundRect,0.135000X-0.185000X0.135000X-0.185000X-0.135000X0.185000X-0.135000X0.185000X0.135000X0*%
%TD*%
%TA.AperFunction,SMDPad,CuDef*%
%ADD25R,0.950000X1.400000*%
%TD*%
%TA.AperFunction,SMDPad,CuDef*%
%ADD26RoundRect,0.140000X-0.170000X0.140000X-0.170000X-0.140000X0.170000X-0.140000X0.170000X0.140000X0*%
%TD*%
%TA.AperFunction,SMDPad,CuDef*%
%ADD27R,0.700000X0.450000*%
%TD*%
%TA.AperFunction,SMDPad,CuDef*%
%ADD28RoundRect,0.140000X0.170000X-0.140000X0.170000X0.140000X-0.170000X0.140000X-0.170000X-0.140000X0*%
%TD*%
%TA.AperFunction,SMDPad,CuDef*%
%ADD29R,0.450000X0.700000*%
%TD*%
%TA.AperFunction,SMDPad,CuDef*%
%ADD30RoundRect,0.135000X-0.135000X-0.185000X0.135000X-0.185000X0.135000X0.185000X-0.135000X0.185000X0*%
%TD*%
%TA.AperFunction,SMDPad,CuDef*%
%ADD31RoundRect,0.147500X0.172500X-0.147500X0.172500X0.147500X-0.172500X0.147500X-0.172500X-0.147500X0*%
%TD*%
%TA.AperFunction,SMDPad,CuDef*%
%ADD32R,0.900000X1.700000*%
%TD*%
%TA.AperFunction,SMDPad,CuDef*%
%ADD33RoundRect,0.140000X-0.140000X-0.170000X0.140000X-0.170000X0.140000X0.170000X-0.140000X0.170000X0*%
%TD*%
%TA.AperFunction,SMDPad,CuDef*%
%ADD34RoundRect,0.150000X-0.150000X-0.625000X0.150000X-0.625000X0.150000X0.625000X-0.150000X0.625000X0*%
%TD*%
%TA.AperFunction,SMDPad,CuDef*%
%ADD35RoundRect,0.250000X-0.350000X-0.650000X0.350000X-0.650000X0.350000X0.650000X-0.350000X0.650000X0*%
%TD*%
%TA.AperFunction,SMDPad,CuDef*%
%ADD36R,1.470000X0.410000*%
%TD*%
%TA.AperFunction,SMDPad,CuDef*%
%ADD37RoundRect,0.075000X-0.075000X0.700000X-0.075000X-0.700000X0.075000X-0.700000X0.075000X0.700000X0*%
%TD*%
%TA.AperFunction,SMDPad,CuDef*%
%ADD38RoundRect,0.075000X-0.700000X0.075000X-0.700000X-0.075000X0.700000X-0.075000X0.700000X0.075000X0*%
%TD*%
%TA.AperFunction,SMDPad,CuDef*%
%ADD39R,0.900000X1.400000*%
%TD*%
%TA.AperFunction,SMDPad,CuDef*%
%ADD40R,0.500000X0.500000*%
%TD*%
%TA.AperFunction,SMDPad,CuDef*%
%ADD41R,0.080000X0.250000*%
%TD*%
%TA.AperFunction,SMDPad,CuDef*%
%ADD42RoundRect,0.006600X0.103400X-0.313400X0.103400X0.313400X-0.103400X0.313400X-0.103400X-0.313400X0*%
%TD*%
%TA.AperFunction,SMDPad,CuDef*%
%ADD43RoundRect,0.006600X0.313400X0.103400X-0.313400X0.103400X-0.313400X-0.103400X0.313400X-0.103400X0*%
%TD*%
%TA.AperFunction,SMDPad,CuDef*%
%ADD44R,1.700000X1.540000*%
%TD*%
%TA.AperFunction,SMDPad,CuDef*%
%ADD45RoundRect,0.200000X-0.275000X0.200000X-0.275000X-0.200000X0.275000X-0.200000X0.275000X0.200000X0*%
%TD*%
%TA.AperFunction,SMDPad,CuDef*%
%ADD46RoundRect,0.225000X0.225000X0.250000X-0.225000X0.250000X-0.225000X-0.250000X0.225000X-0.250000X0*%
%TD*%
%TA.AperFunction,SMDPad,CuDef*%
%ADD47RoundRect,0.065100X-0.399900X0.589900X-0.399900X-0.589900X0.399900X-0.589900X0.399900X0.589900X0*%
%TD*%
%TA.AperFunction,SMDPad,CuDef*%
%ADD48RoundRect,0.314400X-1.305600X0.340600X-1.305600X-0.340600X1.305600X-0.340600X1.305600X0.340600X0*%
%TD*%
%TA.AperFunction,SMDPad,CuDef*%
%ADD49RoundRect,0.135000X0.185000X-0.135000X0.185000X0.135000X-0.185000X0.135000X-0.185000X-0.135000X0*%
%TD*%
%TA.AperFunction,ComponentPad*%
%ADD50RoundRect,0.250000X-0.600000X-0.750000X0.600000X-0.750000X0.600000X0.750000X-0.600000X0.750000X0*%
%TD*%
%TA.AperFunction,ComponentPad*%
%ADD51O,1.700000X2.000000*%
%TD*%
%TA.AperFunction,SMDPad,CuDef*%
%ADD52R,1.410000X1.260000*%
%TD*%
%TA.AperFunction,ComponentPad*%
%ADD53O,1.400000X1.800000*%
%TD*%
%TA.AperFunction,SMDPad,CuDef*%
%ADD54R,0.700000X0.800000*%
%TD*%
%TA.AperFunction,SMDPad,CuDef*%
%ADD55RoundRect,0.218750X0.381250X-0.218750X0.381250X0.218750X-0.381250X0.218750X-0.381250X-0.218750X0*%
%TD*%
%TA.AperFunction,SMDPad,CuDef*%
%ADD56RoundRect,0.147500X0.147500X0.172500X-0.147500X0.172500X-0.147500X-0.172500X0.147500X-0.172500X0*%
%TD*%
%TA.AperFunction,SMDPad,CuDef*%
%ADD57RoundRect,0.200000X0.275000X-0.200000X0.275000X0.200000X-0.275000X0.200000X-0.275000X-0.200000X0*%
%TD*%
%TA.AperFunction,SMDPad,CuDef*%
%ADD58R,1.400000X1.200000*%
%TD*%
%TA.AperFunction,ComponentPad*%
%ADD59C,1.000000*%
%TD*%
%TA.AperFunction,SMDPad,CuDef*%
%ADD60RoundRect,0.027000X-0.198000X0.723000X-0.198000X-0.723000X0.198000X-0.723000X0.198000X0.723000X0*%
%TD*%
%TA.AperFunction,SMDPad,CuDef*%
%ADD61R,5.000000X3.400000*%
%TD*%
%TA.AperFunction,ComponentPad*%
%ADD62HorizOval,1.400000X-0.073300X0.186084X0.073300X-0.186084X0*%
%TD*%
%TA.AperFunction,SMDPad,CuDef*%
%ADD63RotRect,0.800000X0.800000X201.500000*%
%TD*%
%TA.AperFunction,SMDPad,CuDef*%
%ADD64RoundRect,0.150000X0.150000X0.625000X-0.150000X0.625000X-0.150000X-0.625000X0.150000X-0.625000X0*%
%TD*%
%TA.AperFunction,SMDPad,CuDef*%
%ADD65RoundRect,0.250000X0.350000X0.650000X-0.350000X0.650000X-0.350000X-0.650000X0.350000X-0.650000X0*%
%TD*%
%TA.AperFunction,ComponentPad*%
%ADD66HorizOval,1.400000X-0.196962X-0.034730X0.196962X0.034730X0*%
%TD*%
%TA.AperFunction,SMDPad,CuDef*%
%ADD67RotRect,0.800000X0.800000X280.000000*%
%TD*%
%TA.AperFunction,ComponentPad*%
%ADD68HorizOval,1.400000X-0.073300X-0.186084X0.073300X0.186084X0*%
%TD*%
%TA.AperFunction,SMDPad,CuDef*%
%ADD69RotRect,0.800000X0.800000X338.500000*%
%TD*%
%TA.AperFunction,ViaPad*%
%ADD70C,0.600000*%
%TD*%
%TA.AperFunction,ViaPad*%
%ADD71C,0.400000*%
%TD*%
%TA.AperFunction,ViaPad*%
%ADD72C,0.200000*%
%TD*%
%TA.AperFunction,Conductor*%
%ADD73C,0.400000*%
%TD*%
%TA.AperFunction,Conductor*%
%ADD74C,0.300000*%
%TD*%
%TA.AperFunction,Conductor*%
%ADD75C,0.200000*%
%TD*%
G04 APERTURE END LIST*
D10*
%TO.P,J17,4,Pin_4*%
%TO.N,/VL6180x/GND_s*%
X205100000Y-112450000D03*
D11*
%TO.P,J17,3,Pin_3*%
%TO.N,/VL6180x/SCL_s*%
X204800000Y-114050000D03*
%TO.P,J17,2,Pin_2*%
%TO.N,/VL6180x/SDA_s*%
X204800000Y-114850000D03*
D10*
%TO.P,J17,1,Pin_1*%
%TO.N,/VL6180x/3V3_s*%
X205100000Y-116450000D03*
%TD*%
D12*
%TO.P,R26,1*%
%TO.N,POW_GND*%
X171110000Y-95250000D03*
%TO.P,R26,2*%
%TO.N,Net-(R26-Pad2)*%
X170090000Y-95250000D03*
%TD*%
D10*
%TO.P,J4,1,Pin_1*%
%TO.N,/AS5048_Left/+3V3_s*%
X205000000Y-88300000D03*
D11*
%TO.P,J4,2,Pin_2*%
%TO.N,/AS5048_Left/SDA_s*%
X204700000Y-86700000D03*
%TO.P,J4,3,Pin_3*%
%TO.N,/AS5048_Left/SCL_s*%
X204700000Y-85900000D03*
D10*
%TO.P,J4,4,Pin_4*%
%TO.N,/AS5048_Left/GND_s*%
X205000000Y-84300000D03*
%TD*%
D13*
%TO.P,C6,1*%
%TO.N,Net-(C6-Pad1)*%
X200075000Y-95800000D03*
%TO.P,C6,2*%
%TO.N,/IR_sensor/GND_2*%
X201625000Y-95800000D03*
%TD*%
D14*
%TO.P,C11,1*%
%TO.N,RCC_OSC_IN*%
X163280000Y-85600000D03*
%TO.P,C11,2*%
%TO.N,POW_GND*%
X162320000Y-85600000D03*
%TD*%
D15*
%TO.P,C2,1*%
%TO.N,Net-(C2-Pad1)*%
X166000000Y-104925000D03*
%TO.P,C2,2*%
%TO.N,POW_GND*%
X166000000Y-106475000D03*
%TD*%
D16*
%TO.P,J11,1,Pin_1*%
%TO.N,+3.3V*%
X176000000Y-92000000D03*
D17*
%TO.P,J11,2,Pin_2*%
%TO.N,SDA_1*%
X174550000Y-91650000D03*
%TO.P,J11,3,Pin_3*%
%TO.N,SCL_1*%
X173450000Y-91650000D03*
D16*
%TO.P,J11,4,Pin_4*%
%TO.N,POW_GND*%
X172000000Y-92000000D03*
%TD*%
D18*
%TO.P,J8,1,Pin_1*%
%TO.N,/IR_sensor/+3V3_4*%
X204700000Y-104700000D03*
D19*
%TO.P,J8,2,Pin_2*%
%TO.N,/IR_sensor/IR_POW_4*%
X204300000Y-103200000D03*
D18*
%TO.P,J8,4,Pin_4*%
%TO.N,/IR_sensor/GND_4*%
X204700000Y-101700000D03*
%TD*%
D20*
%TO.P,Y2,1,1*%
%TO.N,Net-(C20-Pad1)*%
X166700000Y-88650000D03*
%TO.P,Y2,2,2*%
%TO.N,Net-(C21-Pad1)*%
X166700000Y-86150000D03*
%TD*%
D21*
%TO.P,J16,1,Pin_1*%
%TO.N,+3.3V*%
X153772788Y-85739528D03*
D22*
%TO.P,J16,2,Pin_2*%
%TO.N,IR_LED_4*%
X155163176Y-86492404D03*
%TO.P,J16,3,Pin_3*%
%TO.N,IR_RES_4*%
X155336824Y-85507596D03*
D21*
%TO.P,J16,4,Pin_4*%
%TO.N,POW_GND*%
X156727212Y-86260472D03*
%TD*%
D23*
%TO.P,R12,1*%
%TO.N,Net-(D3-Pad1)*%
X196275000Y-95750000D03*
%TO.P,R12,2*%
%TO.N,/IR_sensor/GND_2*%
X197925000Y-95750000D03*
%TD*%
D24*
%TO.P,R20,1*%
%TO.N,/MPU6500/MISO*%
X178100000Y-97690000D03*
%TO.P,R20,2*%
%TO.N,POW_GND*%
X178100000Y-98710000D03*
%TD*%
D25*
%TO.P,SW2,1,1*%
%TO.N,DEBUG*%
X187225000Y-114100000D03*
%TO.P,SW2,2,2*%
%TO.N,POW_GND*%
X191375000Y-114100000D03*
%TD*%
D18*
%TO.P,J7,1,Pin_1*%
%TO.N,/IR_sensor/+3V3_2*%
X204700000Y-99150000D03*
D19*
%TO.P,J7,2,Pin_2*%
%TO.N,/IR_sensor/IR_POW_2*%
X204300000Y-97650000D03*
D18*
%TO.P,J7,4,Pin_4*%
%TO.N,/IR_sensor/GND_2*%
X204700000Y-96150000D03*
%TD*%
D26*
%TO.P,C9,1*%
%TO.N,+3.3V*%
X154900000Y-100820000D03*
%TO.P,C9,2*%
%TO.N,POW_GND*%
X154900000Y-101780000D03*
%TD*%
D15*
%TO.P,C8,1*%
%TO.N,POW_IN*%
X191924000Y-90225000D03*
%TO.P,C8,2*%
%TO.N,POW_GND*%
X191924000Y-91775000D03*
%TD*%
D16*
%TO.P,J13,1,Pin_1*%
%TO.N,+3.3V*%
X172000000Y-102000000D03*
D17*
%TO.P,J13,2,Pin_2*%
%TO.N,SDA_2*%
X173450000Y-102350000D03*
%TO.P,J13,3,Pin_3*%
%TO.N,SCL_2*%
X174550000Y-102350000D03*
D16*
%TO.P,J13,4,Pin_4*%
%TO.N,POW_GND*%
X176000000Y-102000000D03*
%TD*%
D27*
%TO.P,Q1,1,D*%
%TO.N,Net-(BZ1-Pad2)*%
X187000000Y-109150000D03*
%TO.P,Q1,2,G*%
%TO.N,Net-(Q1-Pad2)*%
X187000000Y-107850000D03*
%TO.P,Q1,3,S*%
%TO.N,POW_GND*%
X185000000Y-108500000D03*
%TD*%
D28*
%TO.P,C15,1*%
%TO.N,RCC_OSC_OUT*%
X159900000Y-88580000D03*
%TO.P,C15,2*%
%TO.N,POW_GND*%
X159900000Y-87620000D03*
%TD*%
D15*
%TO.P,C19,1*%
%TO.N,3V3A*%
X157000000Y-89125000D03*
%TO.P,C19,2*%
%TO.N,POW_GND*%
X157000000Y-90675000D03*
%TD*%
D29*
%TO.P,Q3,1,D*%
%TO.N,/IR_sensor/+3V3_2*%
X201650000Y-97100000D03*
%TO.P,Q3,2,G*%
%TO.N,/IR_sensor/IR_POW_2*%
X200350000Y-97100000D03*
%TO.P,Q3,3,S*%
%TO.N,Net-(C6-Pad1)*%
X201000000Y-99100000D03*
%TD*%
D30*
%TO.P,R3,1*%
%TO.N,BAT_VOL*%
X189790000Y-82200000D03*
%TO.P,R3,2*%
%TO.N,POW_GND*%
X190810000Y-82200000D03*
%TD*%
D12*
%TO.P,R2,1*%
%TO.N,BAT_VOL*%
X188210000Y-82200000D03*
%TO.P,R2,2*%
%TO.N,POW_IN*%
X187190000Y-82200000D03*
%TD*%
D26*
%TO.P,C10,1*%
%TO.N,+3.3V*%
X167600000Y-103120000D03*
%TO.P,C10,2*%
%TO.N,POW_GND*%
X167600000Y-104080000D03*
%TD*%
D31*
%TO.P,D6,1,K*%
%TO.N,Net-(D6-Pad1)*%
X163800000Y-105685000D03*
%TO.P,D6,2,A*%
%TO.N,DEB_LED*%
X163800000Y-104715000D03*
%TD*%
D32*
%TO.P,A4,1*%
%TO.N,/IR_sensor/IR_REC_3*%
X199300000Y-109100000D03*
%TO.P,A4,2*%
%TO.N,/IR_sensor/+3V3_3*%
X195800000Y-109100000D03*
%TD*%
D14*
%TO.P,C32,1*%
%TO.N,POW_GND*%
X177880000Y-96400000D03*
%TO.P,C32,2*%
%TO.N,Net-(C32-Pad2)*%
X176920000Y-96400000D03*
%TD*%
D18*
%TO.P,J6,1,Pin_1*%
%TO.N,/IR_sensor/+3V3_1*%
X204700000Y-93750000D03*
D19*
%TO.P,J6,2,Pin_2*%
%TO.N,/IR_sensor/IR_POW_1*%
X204300000Y-92250000D03*
D18*
%TO.P,J6,4,Pin_4*%
%TO.N,/IR_sensor/GND_1*%
X204700000Y-90750000D03*
%TD*%
D33*
%TO.P,C16,1*%
%TO.N,+3.3V*%
X169220000Y-92100000D03*
%TO.P,C16,2*%
%TO.N,POW_GND*%
X170180000Y-92100000D03*
%TD*%
D34*
%TO.P,J3,1,Pin_1*%
%TO.N,TXD*%
X161200000Y-82825000D03*
%TO.P,J3,2,Pin_2*%
%TO.N,RXD*%
X162200000Y-82825000D03*
%TO.P,J3,3,Pin_3*%
%TO.N,POW_GND*%
X163200000Y-82825000D03*
%TO.P,J3,4,Pin_4*%
%TO.N,+3.3V*%
X164200000Y-82825000D03*
D35*
%TO.P,J3,MP*%
%TO.N,N/C*%
X165500000Y-80300000D03*
X159900000Y-80300000D03*
%TD*%
D24*
%TO.P,R17,1*%
%TO.N,/MPU6500/SCLK*%
X170000000Y-98690000D03*
%TO.P,R17,2*%
%TO.N,+3.3V*%
X170000000Y-99710000D03*
%TD*%
D29*
%TO.P,Q2,1,D*%
%TO.N,/IR_sensor/+3V3_1*%
X201650000Y-91700000D03*
%TO.P,Q2,2,G*%
%TO.N,/IR_sensor/IR_POW_1*%
X200350000Y-91700000D03*
%TO.P,Q2,3,S*%
%TO.N,Net-(C34-Pad1)*%
X201000000Y-93700000D03*
%TD*%
D23*
%TO.P,R7,1*%
%TO.N,Net-(D2-Pad1)*%
X196275000Y-90400000D03*
%TO.P,R7,2*%
%TO.N,/IR_sensor/GND_1*%
X197925000Y-90400000D03*
%TD*%
D36*
%TO.P,U7,1,SDA*%
%TO.N,/AS5048_Right/SDA_s*%
X203295000Y-82650000D03*
%TO.P,U7,2,SCL*%
%TO.N,/AS5048_Right/SCL_s*%
X203295000Y-82000000D03*
%TO.P,U7,3,A2*%
%TO.N,/AS5048_Right/GND_s*%
X203295000Y-81350000D03*
%TO.P,U7,4,A1*%
X203295000Y-80700000D03*
%TO.P,U7,5,TEST_5*%
X203295000Y-80050000D03*
%TO.P,U7,6,TEST_6*%
%TO.N,unconnected-(U7-Pad6)*%
X203295000Y-79400000D03*
%TO.P,U7,7,TEST_7*%
%TO.N,unconnected-(U7-Pad7)*%
X203295000Y-78750000D03*
%TO.P,U7,8,TEST_8*%
%TO.N,unconnected-(U7-Pad8)*%
X197555000Y-78750000D03*
%TO.P,U7,9,TEST_9*%
%TO.N,unconnected-(U7-Pad9)*%
X197555000Y-79400000D03*
%TO.P,U7,10,TEST_10*%
%TO.N,unconnected-(U7-Pad10)*%
X197555000Y-80050000D03*
%TO.P,U7,11,VDD5V*%
%TO.N,/AS5048_Right/+3V3_s*%
X197555000Y-80700000D03*
%TO.P,U7,12,VDD3V*%
X197555000Y-81350000D03*
%TO.P,U7,13,GND*%
%TO.N,/AS5048_Right/GND_s*%
X197555000Y-82000000D03*
%TO.P,U7,14,PWM*%
%TO.N,unconnected-(U7-Pad14)*%
X197555000Y-82650000D03*
%TD*%
D28*
%TO.P,C3,1*%
%TO.N,NRST*%
X185400000Y-80380000D03*
%TO.P,C3,2*%
%TO.N,POW_GND*%
X185400000Y-79420000D03*
%TD*%
D37*
%TO.P,U6,1,VBAT*%
%TO.N,+3.3V*%
X166300000Y-91325000D03*
%TO.P,U6,2,PC13*%
%TO.N,unconnected-(U6-Pad2)*%
X165800000Y-91325000D03*
%TO.P,U6,3,PC14*%
%TO.N,Net-(C20-Pad1)*%
X165300000Y-91325000D03*
%TO.P,U6,4,PC15*%
%TO.N,Net-(C21-Pad1)*%
X164800000Y-91325000D03*
%TO.P,U6,5,PH0*%
%TO.N,RCC_OSC_IN*%
X164300000Y-91325000D03*
%TO.P,U6,6,PH1*%
%TO.N,RCC_OSC_OUT*%
X163800000Y-91325000D03*
%TO.P,U6,7,NRST*%
%TO.N,NRST*%
X163300000Y-91325000D03*
%TO.P,U6,8,PC0*%
%TO.N,unconnected-(U6-Pad8)*%
X162800000Y-91325000D03*
%TO.P,U6,9,PC1*%
%TO.N,unconnected-(U6-Pad9)*%
X162300000Y-91325000D03*
%TO.P,U6,10,PC2*%
%TO.N,unconnected-(U6-Pad10)*%
X161800000Y-91325000D03*
%TO.P,U6,11,PC3*%
%TO.N,unconnected-(U6-Pad11)*%
X161300000Y-91325000D03*
%TO.P,U6,12,VSSA*%
%TO.N,POW_GND*%
X160800000Y-91325000D03*
%TO.P,U6,13,VDDA*%
%TO.N,3V3A*%
X160300000Y-91325000D03*
%TO.P,U6,14,PA0*%
%TO.N,BAT_VOL*%
X159800000Y-91325000D03*
%TO.P,U6,15,PA1*%
%TO.N,IR_RES_1*%
X159300000Y-91325000D03*
%TO.P,U6,16,PA2*%
%TO.N,RXD*%
X158800000Y-91325000D03*
D38*
%TO.P,U6,17,PA3*%
%TO.N,TXD*%
X156875000Y-93250000D03*
%TO.P,U6,18,VSS*%
%TO.N,POW_GND*%
X156875000Y-93750000D03*
%TO.P,U6,19,VDD*%
%TO.N,+3.3V*%
X156875000Y-94250000D03*
%TO.P,U6,20,PA4*%
%TO.N,IR_RES_2*%
X156875000Y-94750000D03*
%TO.P,U6,21,PA5*%
%TO.N,IR_RES_3*%
X156875000Y-95250000D03*
%TO.P,U6,22,PA6*%
%TO.N,/DRV8833_Motor_Driver/BIN2*%
X156875000Y-95750000D03*
%TO.P,U6,23,PA7*%
%TO.N,IR_RES_4*%
X156875000Y-96250000D03*
%TO.P,U6,24,PC4*%
%TO.N,unconnected-(U6-Pad24)*%
X156875000Y-96750000D03*
%TO.P,U6,25,PC5*%
%TO.N,unconnected-(U6-Pad25)*%
X156875000Y-97250000D03*
%TO.P,U6,26,PB0*%
%TO.N,/DRV8833_Motor_Driver/AIN2*%
X156875000Y-97750000D03*
%TO.P,U6,27,PB1*%
%TO.N,/DRV8833_Motor_Driver/BIN1*%
X156875000Y-98250000D03*
%TO.P,U6,28,PB2*%
%TO.N,/DRV8833_Motor_Driver/EN*%
X156875000Y-98750000D03*
%TO.P,U6,29,PB10*%
%TO.N,SCL_2*%
X156875000Y-99250000D03*
%TO.P,U6,30,PB11*%
%TO.N,SDA_2*%
X156875000Y-99750000D03*
%TO.P,U6,31,VCAP_1*%
%TO.N,Net-(C1-Pad1)*%
X156875000Y-100250000D03*
%TO.P,U6,32,VDD*%
%TO.N,+3.3V*%
X156875000Y-100750000D03*
D37*
%TO.P,U6,33,PB12*%
%TO.N,unconnected-(U6-Pad33)*%
X158800000Y-102675000D03*
%TO.P,U6,34,PB13*%
%TO.N,unconnected-(U6-Pad34)*%
X159300000Y-102675000D03*
%TO.P,U6,35,PB14*%
%TO.N,IR_LED_4*%
X159800000Y-102675000D03*
%TO.P,U6,36,PB15*%
%TO.N,IR_LED_3*%
X160300000Y-102675000D03*
%TO.P,U6,37,PC6*%
%TO.N,IR_LED_1*%
X160800000Y-102675000D03*
%TO.P,U6,38,PC7*%
%TO.N,IR_LED_2*%
X161300000Y-102675000D03*
%TO.P,U6,39,PC8*%
%TO.N,unconnected-(U6-Pad39)*%
X161800000Y-102675000D03*
%TO.P,U6,40,PC9*%
%TO.N,SDA_3*%
X162300000Y-102675000D03*
%TO.P,U6,41,PA8*%
%TO.N,SCL_3*%
X162800000Y-102675000D03*
%TO.P,U6,42,PA9*%
%TO.N,unconnected-(U6-Pad42)*%
X163300000Y-102675000D03*
%TO.P,U6,43,PA10*%
%TO.N,DEB_LED*%
X163800000Y-102675000D03*
%TO.P,U6,44,PA11*%
%TO.N,/MPU6500/nCS*%
X164300000Y-102675000D03*
%TO.P,U6,45,PA12*%
%TO.N,DEBUG*%
X164800000Y-102675000D03*
%TO.P,U6,46,PA13*%
%TO.N,SYS_JTMS-SWDIO*%
X165300000Y-102675000D03*
%TO.P,U6,47,VCAP_2*%
%TO.N,Net-(C2-Pad1)*%
X165800000Y-102675000D03*
%TO.P,U6,48,VDD*%
%TO.N,+3.3V*%
X166300000Y-102675000D03*
D38*
%TO.P,U6,49,PA14*%
%TO.N,SYS_JTCK-SWCLK*%
X168225000Y-100750000D03*
%TO.P,U6,50,PA15*%
%TO.N,unconnected-(U6-Pad50)*%
X168225000Y-100250000D03*
%TO.P,U6,51,PC10*%
%TO.N,unconnected-(U6-Pad51)*%
X168225000Y-99750000D03*
%TO.P,U6,52,PC11*%
%TO.N,unconnected-(U6-Pad52)*%
X168225000Y-99250000D03*
%TO.P,U6,53,PC12*%
%TO.N,unconnected-(U6-Pad53)*%
X168225000Y-98750000D03*
%TO.P,U6,54,PD2*%
%TO.N,unconnected-(U6-Pad54)*%
X168225000Y-98250000D03*
%TO.P,U6,55,PB3*%
%TO.N,/MPU6500/SCLK*%
X168225000Y-97750000D03*
%TO.P,U6,56,PB4*%
%TO.N,/MPU6500/MISO*%
X168225000Y-97250000D03*
%TO.P,U6,57,PB5*%
%TO.N,/MPU6500/MOSI*%
X168225000Y-96750000D03*
%TO.P,U6,58,PB6*%
%TO.N,SCL_1*%
X168225000Y-96250000D03*
%TO.P,U6,59,PB7*%
%TO.N,SDA_1*%
X168225000Y-95750000D03*
%TO.P,U6,60,BOOT0*%
%TO.N,Net-(R26-Pad2)*%
X168225000Y-95250000D03*
%TO.P,U6,61,PB8*%
%TO.N,/DRV8833_Motor_Driver/AIN1*%
X168225000Y-94750000D03*
%TO.P,U6,62,PB9*%
%TO.N,BUZZER_OP*%
X168225000Y-94250000D03*
%TO.P,U6,63,VSS*%
%TO.N,POW_GND*%
X168225000Y-93750000D03*
%TO.P,U6,64,VDD*%
%TO.N,+3.3V*%
X168225000Y-93250000D03*
%TD*%
D39*
%TO.P,D2,1*%
%TO.N,Net-(D2-Pad1)*%
X196300000Y-92100000D03*
%TO.P,D2,2*%
%TO.N,Net-(C34-Pad1)*%
X199000000Y-92100000D03*
%TD*%
D33*
%TO.P,C21,1*%
%TO.N,Net-(C21-Pad1)*%
X168700000Y-86150000D03*
%TO.P,C21,2*%
%TO.N,POW_GND*%
X169660000Y-86150000D03*
%TD*%
%TO.P,C14,1*%
%TO.N,+3.3V*%
X170020000Y-93300000D03*
%TO.P,C14,2*%
%TO.N,POW_GND*%
X170980000Y-93300000D03*
%TD*%
D36*
%TO.P,U2,1,SDA*%
%TO.N,/AS5048_Left/SDA_s*%
X203295000Y-88250000D03*
%TO.P,U2,2,SCL*%
%TO.N,/AS5048_Left/SCL_s*%
X203295000Y-87600000D03*
%TO.P,U2,3,A2*%
%TO.N,/AS5048_Left/GND_s*%
X203295000Y-86950000D03*
%TO.P,U2,4,A1*%
X203295000Y-86300000D03*
%TO.P,U2,5,TEST_5*%
X203295000Y-85650000D03*
%TO.P,U2,6,TEST_6*%
%TO.N,unconnected-(U2-Pad6)*%
X203295000Y-85000000D03*
%TO.P,U2,7,TEST_7*%
%TO.N,unconnected-(U2-Pad7)*%
X203295000Y-84350000D03*
%TO.P,U2,8,TEST_8*%
%TO.N,unconnected-(U2-Pad8)*%
X197555000Y-84350000D03*
%TO.P,U2,9,TEST_9*%
%TO.N,unconnected-(U2-Pad9)*%
X197555000Y-85000000D03*
%TO.P,U2,10,TEST_10*%
%TO.N,unconnected-(U2-Pad10)*%
X197555000Y-85650000D03*
%TO.P,U2,11,VDD5V*%
%TO.N,/AS5048_Left/+3V3_s*%
X197555000Y-86300000D03*
%TO.P,U2,12,VDD3V*%
X197555000Y-86950000D03*
%TO.P,U2,13,GND*%
%TO.N,/AS5048_Left/GND_s*%
X197555000Y-87600000D03*
%TO.P,U2,14,PWM*%
%TO.N,unconnected-(U2-Pad14)*%
X197555000Y-88250000D03*
%TD*%
D40*
%TO.P,U4,1,AVDDVCSEL*%
%TO.N,/VL6180x/3V3_s*%
X198550000Y-113650000D03*
D41*
%TO.P,U4,1.1,AVDDVCSEL*%
X198260000Y-113775000D03*
D40*
%TO.P,U4,2,AVSSVCSEL*%
%TO.N,/VL6180x/GND_s*%
X199350000Y-113650000D03*
%TO.P,U4,3,GND*%
X200150000Y-113650000D03*
%TO.P,U4,4,GND*%
X200950000Y-113650000D03*
%TO.P,U4,5,XSHUT*%
%TO.N,Net-(R32-Pad1)*%
X201750000Y-113650000D03*
%TO.P,U4,6,GND*%
%TO.N,/VL6180x/GND_s*%
X201750000Y-114450000D03*
%TO.P,U4,7,GPIO1*%
%TO.N,Net-(R33-Pad1)*%
X201750000Y-115250000D03*
%TO.P,U4,8*%
%TO.N,N/C*%
X200950000Y-115250000D03*
%TO.P,U4,9,SDA*%
%TO.N,/VL6180x/SDA_s*%
X200150000Y-115250000D03*
%TO.P,U4,10,SCL*%
%TO.N,/VL6180x/SCL_s*%
X199350000Y-115250000D03*
%TO.P,U4,11,AVDD*%
%TO.N,/VL6180x/3V3_s*%
X198550000Y-115250000D03*
%TO.P,U4,12,GND*%
%TO.N,/VL6180x/GND_s*%
X198550000Y-114450000D03*
%TD*%
D14*
%TO.P,C33,1*%
%TO.N,+3.3V*%
X174480000Y-94200000D03*
%TO.P,C33,2*%
%TO.N,POW_GND*%
X173520000Y-94200000D03*
%TD*%
D42*
%TO.P,U5,1*%
%TO.N,N/C*%
X173000000Y-98545000D03*
%TO.P,U5,2*%
X173400000Y-98545000D03*
%TO.P,U5,3*%
X173800000Y-98545000D03*
%TO.P,U5,4*%
X174200000Y-98545000D03*
%TO.P,U5,5*%
X174600000Y-98545000D03*
%TO.P,U5,6*%
X175000000Y-98545000D03*
D43*
%TO.P,U5,7,AUX_CL*%
%TO.N,unconnected-(U5-Pad7)*%
X175545000Y-98000000D03*
%TO.P,U5,8,VDDIO*%
%TO.N,+3.3V*%
X175545000Y-97600000D03*
%TO.P,U5,9,AD0/SDO*%
%TO.N,/MPU6500/MISO*%
X175545000Y-97200000D03*
%TO.P,U5,10,REGOUT*%
%TO.N,Net-(C32-Pad2)*%
X175545000Y-96800000D03*
%TO.P,U5,11,FSYNC*%
%TO.N,Net-(R18-Pad1)*%
X175545000Y-96400000D03*
%TO.P,U5,12,INT*%
%TO.N,unconnected-(U5-Pad12)*%
X175545000Y-96000000D03*
D42*
%TO.P,U5,13,VDD*%
%TO.N,+3.3V*%
X175000000Y-95455000D03*
%TO.P,U5,14*%
%TO.N,N/C*%
X174600000Y-95455000D03*
%TO.P,U5,15*%
X174200000Y-95455000D03*
%TO.P,U5,16*%
X173800000Y-95455000D03*
%TO.P,U5,17*%
X173400000Y-95455000D03*
%TO.P,U5,18,GND*%
%TO.N,POW_GND*%
X173000000Y-95455000D03*
D43*
%TO.P,U5,19,RESV_1*%
%TO.N,unconnected-(U5-Pad19)*%
X172455000Y-96000000D03*
%TO.P,U5,20,RESV_2*%
%TO.N,POW_GND*%
X172455000Y-96400000D03*
%TO.P,U5,21,AUX_DA*%
%TO.N,unconnected-(U5-Pad21)*%
X172455000Y-96800000D03*
%TO.P,U5,22,NCS*%
%TO.N,/MPU6500/nCS*%
X172455000Y-97200000D03*
%TO.P,U5,23,SCL/SCLK*%
%TO.N,/MPU6500/SCLK*%
X172455000Y-97600000D03*
%TO.P,U5,24,SDA/SDI*%
%TO.N,/MPU6500/MOSI*%
X172455000Y-98000000D03*
D44*
%TO.P,U5,25,EXP*%
%TO.N,unconnected-(U5-Pad25)*%
X174000000Y-97000000D03*
%TD*%
D45*
%TO.P,R21,1*%
%TO.N,Net-(D6-Pad1)*%
X162300000Y-104925000D03*
%TO.P,R21,2*%
%TO.N,POW_GND*%
X162300000Y-106575000D03*
%TD*%
D15*
%TO.P,C12,1*%
%TO.N,+3.3V*%
X168800000Y-82725000D03*
%TO.P,C12,2*%
%TO.N,POW_GND*%
X168800000Y-84275000D03*
%TD*%
%TO.P,C27,1*%
%TO.N,POW_GND*%
X185700000Y-95525000D03*
%TO.P,C27,2*%
%TO.N,POW_IN*%
X185700000Y-97075000D03*
%TD*%
D39*
%TO.P,D3,1*%
%TO.N,Net-(D3-Pad1)*%
X196300000Y-97450000D03*
%TO.P,D3,2*%
%TO.N,Net-(C6-Pad1)*%
X199000000Y-97450000D03*
%TD*%
D28*
%TO.P,C4,1*%
%TO.N,DEBUG*%
X185200000Y-114480000D03*
%TO.P,C4,2*%
%TO.N,POW_GND*%
X185200000Y-113520000D03*
%TD*%
D46*
%TO.P,C28,1*%
%TO.N,POW_GND*%
X184775000Y-101900000D03*
%TO.P,C28,2*%
%TO.N,POW_IN*%
X183225000Y-101900000D03*
%TD*%
D14*
%TO.P,C17,1*%
%TO.N,3V3A*%
X157655000Y-87875000D03*
%TO.P,C17,2*%
%TO.N,POW_GND*%
X156695000Y-87875000D03*
%TD*%
D28*
%TO.P,C7,1*%
%TO.N,+3.3V*%
X154900000Y-94480000D03*
%TO.P,C7,2*%
%TO.N,POW_GND*%
X154900000Y-93520000D03*
%TD*%
D30*
%TO.P,R13,1*%
%TO.N,/IR_sensor/IR_REC_4*%
X196990000Y-101500000D03*
%TO.P,R13,2*%
%TO.N,/IR_sensor/GND_4*%
X198010000Y-101500000D03*
%TD*%
D13*
%TO.P,C13,1*%
%TO.N,+3.3V*%
X186831000Y-92988000D03*
%TO.P,C13,2*%
%TO.N,POW_GND*%
X188381000Y-92988000D03*
%TD*%
D30*
%TO.P,R22,1*%
%TO.N,/IR_sensor/IR_REC_3*%
X196940000Y-107350000D03*
%TO.P,R22,2*%
%TO.N,/IR_sensor/GND_3*%
X197960000Y-107350000D03*
%TD*%
D13*
%TO.P,C18,1*%
%TO.N,+3.3V*%
X168525000Y-90600000D03*
%TO.P,C18,2*%
%TO.N,POW_GND*%
X170075000Y-90600000D03*
%TD*%
D33*
%TO.P,C20,1*%
%TO.N,Net-(C20-Pad1)*%
X168710000Y-88640000D03*
%TO.P,C20,2*%
%TO.N,POW_GND*%
X169670000Y-88640000D03*
%TD*%
D47*
%TO.P,U1,1,GND/ADJ*%
%TO.N,POW_GND*%
X192540000Y-95367500D03*
%TO.P,U1,2,VOUT*%
%TO.N,+3.3V*%
X190250000Y-95367500D03*
%TO.P,U1,3,VIN*%
%TO.N,POW_IN*%
X187960000Y-95367500D03*
D48*
%TO.P,U1,4*%
%TO.N,N/C*%
X190250000Y-102057500D03*
%TD*%
D49*
%TO.P,R25,1*%
%TO.N,Net-(R25-Pad1)*%
X185500000Y-93910000D03*
%TO.P,R25,2*%
%TO.N,/DRV8833_Motor_Driver/EN*%
X185500000Y-92890000D03*
%TD*%
D50*
%TO.P,J2,1,Pin_1*%
%TO.N,POW_GND*%
X188250000Y-85400000D03*
D51*
%TO.P,J2,2,Pin_2*%
%TO.N,POW_IN*%
X190750000Y-85400000D03*
%TD*%
D46*
%TO.P,C1,1*%
%TO.N,Net-(C1-Pad1)*%
X154675000Y-99400000D03*
%TO.P,C1,2*%
%TO.N,POW_GND*%
X153125000Y-99400000D03*
%TD*%
D52*
%TO.P,BZ1,1,-*%
%TO.N,Net-(BZ1-Pad1)*%
X190200000Y-111225000D03*
%TO.P,BZ1,2,+*%
%TO.N,Net-(BZ1-Pad2)*%
X190200000Y-107375000D03*
%TD*%
D53*
%TO.P,J15,1,Pin_1*%
%TO.N,+3.3V*%
X150750000Y-95000000D03*
D54*
%TO.P,J15,2,Pin_2*%
%TO.N,SDA_3*%
X150400000Y-96450000D03*
%TO.P,J15,3,Pin_3*%
%TO.N,SCL_3*%
X150400000Y-97550000D03*
D53*
%TO.P,J15,4,Pin_4*%
%TO.N,POW_GND*%
X150750000Y-99000000D03*
%TD*%
D55*
%TO.P,FB1,1*%
%TO.N,+3.3V*%
X155100000Y-90762500D03*
%TO.P,FB1,2*%
%TO.N,3V3A*%
X155100000Y-88637500D03*
%TD*%
D56*
%TO.P,D1,1,K*%
%TO.N,Net-(D1-Pad1)*%
X187885000Y-90400000D03*
%TO.P,D1,2,A*%
%TO.N,+3.3V*%
X186915000Y-90400000D03*
%TD*%
D57*
%TO.P,R4,1*%
%TO.N,Net-(D1-Pad1)*%
X189800000Y-91825000D03*
%TO.P,R4,2*%
%TO.N,POW_GND*%
X189800000Y-90175000D03*
%TD*%
D13*
%TO.P,C34,1*%
%TO.N,Net-(C34-Pad1)*%
X200075000Y-90400000D03*
%TO.P,C34,2*%
%TO.N,/IR_sensor/GND_1*%
X201625000Y-90400000D03*
%TD*%
D58*
%TO.P,Y1,1,1*%
%TO.N,RCC_OSC_IN*%
X163900000Y-87150000D03*
%TO.P,Y1,2,2*%
%TO.N,POW_GND*%
X161700000Y-87150000D03*
%TO.P,Y1,3,3*%
%TO.N,RCC_OSC_OUT*%
X161700000Y-88850000D03*
%TO.P,Y1,4,4*%
%TO.N,POW_GND*%
X163900000Y-88850000D03*
%TD*%
D28*
%TO.P,C39,1*%
%TO.N,/IR_sensor/+3V3_3*%
X201900000Y-109580000D03*
%TO.P,C39,2*%
%TO.N,/IR_sensor/GND_3*%
X201900000Y-108620000D03*
%TD*%
D32*
%TO.P,A3,1*%
%TO.N,/IR_sensor/IR_REC_4*%
X199300000Y-103200000D03*
%TO.P,A3,2*%
%TO.N,/IR_sensor/+3V3_4*%
X195800000Y-103200000D03*
%TD*%
D25*
%TO.P,SW1,1,1*%
%TO.N,NRST*%
X187225000Y-79800000D03*
%TO.P,SW1,2,2*%
%TO.N,POW_GND*%
X191375000Y-79800000D03*
%TD*%
D10*
%TO.P,J5,1,Pin_1*%
%TO.N,/AS5048_Right/+3V3_s*%
X205070000Y-82700000D03*
D11*
%TO.P,J5,2,Pin_2*%
%TO.N,/AS5048_Right/SDA_s*%
X204770000Y-81100000D03*
%TO.P,J5,3,Pin_3*%
%TO.N,/AS5048_Right/SCL_s*%
X204770000Y-80300000D03*
D10*
%TO.P,J5,4,Pin_4*%
%TO.N,/AS5048_Right/GND_s*%
X205070000Y-78700000D03*
%TD*%
D59*
%TO.P,M1,1,VMOT+*%
%TO.N,Net-(M1-Pad1)*%
X184925000Y-103575000D03*
%TO.P,M1,2,VMOT-*%
%TO.N,Net-(M1-Pad2)*%
X184975000Y-105125000D03*
%TD*%
D30*
%TO.P,R18,1*%
%TO.N,Net-(R18-Pad1)*%
X176890000Y-95300000D03*
%TO.P,R18,2*%
%TO.N,POW_GND*%
X177910000Y-95300000D03*
%TD*%
D60*
%TO.P,U3,1,NSLEEP*%
%TO.N,Net-(R25-Pad1)*%
X184175000Y-94100000D03*
%TO.P,U3,2,AOUT1*%
%TO.N,Net-(M1-Pad2)*%
X183525000Y-94100000D03*
%TO.P,U3,3,AISEN*%
%TO.N,POW_GND*%
X182875000Y-94100000D03*
%TO.P,U3,4,AOUT2*%
%TO.N,Net-(M1-Pad1)*%
X182225000Y-94100000D03*
%TO.P,U3,5,BOUT2*%
%TO.N,Net-(M2-Pad1)*%
X181575000Y-94100000D03*
%TO.P,U3,6,BISEN*%
%TO.N,POW_GND*%
X180925000Y-94100000D03*
%TO.P,U3,7,BOUT1*%
%TO.N,Net-(M2-Pad2)*%
X180275000Y-94100000D03*
%TO.P,U3,8,~{NFAULT}*%
%TO.N,unconnected-(U3-Pad8)*%
X179625000Y-94100000D03*
%TO.P,U3,9,BIN1*%
%TO.N,/DRV8833_Motor_Driver/BIN1*%
X179625000Y-99900000D03*
%TO.P,U3,10,BIN2*%
%TO.N,/DRV8833_Motor_Driver/BIN2*%
X180275000Y-99900000D03*
%TO.P,U3,11,VCP*%
%TO.N,Net-(C26-Pad2)*%
X180925000Y-99900000D03*
%TO.P,U3,12,VM*%
%TO.N,POW_IN*%
X181575000Y-99900000D03*
%TO.P,U3,13,GND*%
%TO.N,POW_GND*%
X182225000Y-99900000D03*
%TO.P,U3,14,VINT*%
%TO.N,POW_IN*%
X182875000Y-99900000D03*
%TO.P,U3,15,AIN2*%
%TO.N,/DRV8833_Motor_Driver/AIN2*%
X183525000Y-99900000D03*
%TO.P,U3,16,AIN1*%
%TO.N,/DRV8833_Motor_Driver/AIN1*%
X184175000Y-99900000D03*
D61*
%TO.P,U3,17,EXP*%
%TO.N,POW_GND*%
X181900000Y-97000000D03*
%TD*%
D28*
%TO.P,C36,1*%
%TO.N,/IR_sensor/+3V3_4*%
X201900000Y-103680000D03*
%TO.P,C36,2*%
%TO.N,/IR_sensor/GND_4*%
X201900000Y-102720000D03*
%TD*%
D23*
%TO.P,R1,1*%
%TO.N,POW_IN*%
X185275000Y-111300000D03*
%TO.P,R1,2*%
%TO.N,Net-(BZ1-Pad1)*%
X186925000Y-111300000D03*
%TD*%
D62*
%TO.P,J14,1,Pin_1*%
%TO.N,+3.3V*%
X151700248Y-89604374D03*
D63*
%TO.P,J14,2,Pin_2*%
%TO.N,IR_LED_3*%
X151784791Y-91183251D03*
%TO.P,J14,3,Pin_3*%
%TO.N,IR_RES_3*%
X152715209Y-90816749D03*
D62*
%TO.P,J14,4,Pin_4*%
%TO.N,POW_GND*%
X152799752Y-92395626D03*
%TD*%
D64*
%TO.P,J1,1,Pin_1*%
%TO.N,+3.3V*%
X164200000Y-111075000D03*
%TO.P,J1,2,Pin_2*%
%TO.N,SYS_JTMS-SWDIO*%
X163200000Y-111075000D03*
%TO.P,J1,3,Pin_3*%
%TO.N,SYS_JTCK-SWCLK*%
X162200000Y-111075000D03*
%TO.P,J1,4,Pin_4*%
%TO.N,POW_GND*%
X161200000Y-111075000D03*
D65*
%TO.P,J1,MP*%
%TO.N,N/C*%
X165500000Y-113600000D03*
X159900000Y-113600000D03*
%TD*%
D14*
%TO.P,C26,1*%
%TO.N,POW_IN*%
X177280000Y-100000000D03*
%TO.P,C26,2*%
%TO.N,Net-(C26-Pad2)*%
X176320000Y-100000000D03*
%TD*%
D26*
%TO.P,C31,1*%
%TO.N,+3.3V*%
X176900000Y-97720000D03*
%TO.P,C31,2*%
%TO.N,POW_GND*%
X176900000Y-98680000D03*
%TD*%
D66*
%TO.P,J10,1,Pin_1*%
%TO.N,+3.3V*%
X153822788Y-108260472D03*
D67*
%TO.P,J10,2,Pin_2*%
%TO.N,IR_LED_1*%
X155386824Y-108492404D03*
%TO.P,J10,3,Pin_3*%
%TO.N,IR_RES_1*%
X155213176Y-107507596D03*
D66*
%TO.P,J10,4,Pin_4*%
%TO.N,POW_GND*%
X156777212Y-107739528D03*
%TD*%
D30*
%TO.P,R19,1*%
%TO.N,/MPU6500/nCS*%
X168990000Y-102000000D03*
%TO.P,R19,2*%
%TO.N,+3.3V*%
X170010000Y-102000000D03*
%TD*%
D24*
%TO.P,R16,1*%
%TO.N,/MPU6500/MOSI*%
X171100000Y-98690000D03*
%TO.P,R16,2*%
%TO.N,+3.3V*%
X171100000Y-99710000D03*
%TD*%
D12*
%TO.P,R31,1*%
%TO.N,Net-(Q1-Pad2)*%
X186010000Y-106550000D03*
%TO.P,R31,2*%
%TO.N,BUZZER_OP*%
X184990000Y-106550000D03*
%TD*%
D18*
%TO.P,J9,1,Pin_1*%
%TO.N,/IR_sensor/+3V3_3*%
X204700000Y-110600000D03*
D19*
%TO.P,J9,2,Pin_2*%
%TO.N,/IR_sensor/IR_POW_3*%
X204300000Y-109100000D03*
D18*
%TO.P,J9,4,Pin_4*%
%TO.N,/IR_sensor/GND_3*%
X204700000Y-107600000D03*
%TD*%
D68*
%TO.P,J12,1,Pin_1*%
%TO.N,+3.3V*%
X151700248Y-104395626D03*
D69*
%TO.P,J12,2,Pin_2*%
%TO.N,IR_LED_2*%
X152715209Y-103183251D03*
%TO.P,J12,3,Pin_3*%
%TO.N,IR_RES_2*%
X151784791Y-102816749D03*
D68*
%TO.P,J12,4,Pin_4*%
%TO.N,POW_GND*%
X152799752Y-101604374D03*
%TD*%
D59*
%TO.P,M2,1,VMOT+*%
%TO.N,Net-(M2-Pad1)*%
X184975000Y-90475000D03*
%TO.P,M2,2,VMOT-*%
%TO.N,Net-(M2-Pad2)*%
X185025000Y-88925000D03*
%TD*%
D70*
%TO.N,/IR_sensor/+3V3_1*%
X201150000Y-92550000D03*
%TO.N,POW_GND*%
X183525000Y-96825000D03*
X161500000Y-93400000D03*
X171250000Y-96700500D03*
X180450000Y-96900000D03*
X154900000Y-103350000D03*
X181975000Y-95900000D03*
X184000000Y-78950000D03*
X164100000Y-106700000D03*
X178625000Y-96025000D03*
X172600000Y-88950000D03*
X170825000Y-92575000D03*
X177899500Y-102225000D03*
X178725000Y-98425000D03*
X184700000Y-109400000D03*
X156000000Y-92050000D03*
X167600000Y-104800000D03*
X154250000Y-104000000D03*
X169700000Y-87400000D03*
X162400000Y-107700000D03*
X173082809Y-93198935D03*
X185450000Y-94650000D03*
X162775000Y-87950000D03*
X157000000Y-92000000D03*
X183900000Y-112900000D03*
X167000000Y-106400000D03*
X186300000Y-94450000D03*
X169700000Y-85200000D03*
X174500000Y-87950000D03*
X189662000Y-92988000D03*
X184150000Y-102775000D03*
X173575000Y-107375000D03*
X164100000Y-107550000D03*
X159700000Y-110450000D03*
X181975000Y-97900000D03*
X174300000Y-106700000D03*
X163125000Y-84375000D03*
X158975000Y-110450000D03*
X190400000Y-93000000D03*
X191200000Y-93000000D03*
X160300000Y-85950000D03*
%TO.N,NRST*%
X163300000Y-93150000D03*
X175350000Y-84950000D03*
%TO.N,DEBUG*%
X169550000Y-104000000D03*
X171250000Y-105150000D03*
%TO.N,POW_IN*%
X193150000Y-92500000D03*
X186775500Y-96798000D03*
X193150000Y-90800000D03*
X193150000Y-91600000D03*
X191500000Y-96650000D03*
X190650000Y-96650000D03*
D71*
X182875000Y-99350000D03*
D70*
X189750000Y-96650000D03*
D71*
X181575000Y-99350000D03*
D70*
X183550000Y-107275000D03*
X180400000Y-101900000D03*
%TO.N,/IR_sensor/+3V3_2*%
X201050000Y-97850000D03*
D71*
%TO.N,Net-(C26-Pad2)*%
X180925000Y-99350000D03*
X178700000Y-99925000D03*
D70*
%TO.N,SYS_JTCK-SWCLK*%
X165950000Y-100350000D03*
X167000000Y-100350000D03*
X163350000Y-108150000D03*
X163350000Y-100900000D03*
%TO.N,BAT_VOL*%
X189000000Y-82200000D03*
X159950000Y-89500000D03*
%TO.N,BUZZER_OP*%
X175450000Y-105125000D03*
X172650000Y-100650000D03*
X184350000Y-106550000D03*
X165250000Y-99849500D03*
%TO.N,/MPU6500/MOSI*%
X172150000Y-98700000D03*
X165800000Y-96750000D03*
%TO.N,/MPU6500/nCS*%
X165600000Y-98000000D03*
X170500000Y-96900000D03*
%TO.N,/MPU6500/MISO*%
X164800000Y-96200000D03*
X178500000Y-97050000D03*
%TO.N,SDA_1*%
X174200000Y-92650000D03*
X164850000Y-94800000D03*
%TO.N,IR_LED_2*%
X161300000Y-100950000D03*
X156700000Y-102600000D03*
%TO.N,IR_RES_2*%
X159550000Y-94800000D03*
X153550000Y-94630000D03*
%TO.N,SDA_2*%
X172550000Y-104050000D03*
X158650000Y-100200000D03*
%TO.N,SCL_2*%
X158746800Y-99396800D03*
X173475000Y-104100000D03*
%TO.N,IR_LED_3*%
X151225500Y-92357959D03*
X160300000Y-100200000D03*
%TO.N,IR_RES_3*%
X154400000Y-95400000D03*
X153700000Y-90450000D03*
%TO.N,SDA_3*%
X156700000Y-103500000D03*
X162300000Y-100900000D03*
%TO.N,IR_LED_4*%
X159691707Y-100911629D03*
X150626000Y-93175000D03*
%TO.N,SCL_3*%
X162800000Y-100200000D03*
X156700000Y-104400000D03*
%TO.N,IR_RES_4*%
X154300000Y-96250000D03*
X155300000Y-84300000D03*
D71*
%TO.N,/DRV8833_Motor_Driver/BIN2*%
X180275000Y-99350000D03*
D70*
X159600000Y-95750000D03*
%TO.N,/DRV8833_Motor_Driver/AIN2*%
X159550000Y-97100000D03*
D71*
X183525000Y-100425000D03*
D70*
%TO.N,/DRV8833_Motor_Driver/BIN1*%
X159450000Y-97850000D03*
X178900000Y-101200000D03*
%TO.N,/DRV8833_Motor_Driver/AIN1*%
X178600000Y-94500000D03*
D71*
X184175000Y-99350000D03*
D70*
X176650000Y-93100000D03*
X166500000Y-94500000D03*
D71*
%TO.N,/VL6180x/GND_s*%
X201349765Y-112824500D03*
X202375500Y-112824500D03*
D70*
%TO.N,/AS5048_Right/GND_s*%
X198725000Y-82050000D03*
%TO.N,/DRV8833_Motor_Driver/EN*%
X185950000Y-92150000D03*
X160500000Y-94950000D03*
%TO.N,/IR_sensor/+3V3_4*%
X200300500Y-103850000D03*
D71*
%TO.N,Net-(M1-Pad1)*%
X182225000Y-92550000D03*
X185575000Y-99400000D03*
X182225000Y-93175000D03*
X185575000Y-98675000D03*
%TO.N,Net-(M1-Pad2)*%
X186225000Y-98600000D03*
X183525000Y-92525000D03*
X186225000Y-99200000D03*
X183525000Y-93175000D03*
D70*
%TO.N,/AS5048_Left/GND_s*%
X198625000Y-87600000D03*
%TO.N,/IR_sensor/+3V3_3*%
X200250000Y-109750000D03*
D71*
%TO.N,/VL6180x/SDA_s*%
X202550000Y-115475500D03*
X200419592Y-114685084D03*
%TO.N,/VL6180x/SCL_s*%
X199938539Y-114299502D03*
X203150000Y-115350000D03*
D70*
%TO.N,/IR_sensor/IR_REC_4*%
X202850000Y-103700000D03*
%TO.N,/IR_sensor/IR_REC_3*%
X202700000Y-109600000D03*
%TO.N,/IR_sensor/GND_1*%
X198950000Y-90450000D03*
%TO.N,/IR_sensor/GND_2*%
X198900000Y-95800000D03*
%TO.N,/IR_sensor/GND_4*%
X198850000Y-101350000D03*
%TO.N,/IR_sensor/GND_3*%
X198850000Y-107250000D03*
%TO.N,/IR_sensor/IR_POW_4*%
X202800000Y-102750000D03*
%TO.N,/IR_sensor/IR_POW_3*%
X202700000Y-108500000D03*
%TO.N,/AS5048_Left/SDA_s*%
X201625000Y-86700000D03*
%TO.N,/AS5048_Left/SCL_s*%
X202075000Y-87300000D03*
X204729500Y-85150000D03*
%TO.N,/AS5048_Right/SDA_s*%
X201850500Y-81475000D03*
%TO.N,/AS5048_Right/SCL_s*%
X204774500Y-79575000D03*
X201925000Y-80700000D03*
%TO.N,+3.3V*%
X186950000Y-88800000D03*
X165125000Y-109000000D03*
X153900000Y-100450000D03*
X167015413Y-92378853D03*
X166300000Y-92600000D03*
%TO.N,3V3A*%
X153800000Y-89071772D03*
X160300000Y-93400000D03*
%TO.N,/AS5048_Right/+3V3_s*%
X198675000Y-81325000D03*
%TO.N,/AS5048_Left/+3V3_s*%
X198625000Y-86300000D03*
D71*
%TO.N,/VL6180x/3V3_s*%
X197900000Y-114450000D03*
X197900000Y-113800000D03*
X197900000Y-115100000D03*
D72*
%TO.N,Net-(R32-Pad1)*%
X201900000Y-113650000D03*
%TO.N,Net-(R33-Pad1)*%
X201900000Y-115300000D03*
%TD*%
D73*
%TO.N,/VL6180x/GND_s*%
X201349765Y-112824500D02*
X201850000Y-112824500D01*
X201349765Y-112824500D02*
X200950000Y-113224265D01*
X200950000Y-113224265D02*
X200950000Y-113650000D01*
%TO.N,/IR_sensor/+3V3_1*%
X201650000Y-92050000D02*
X201150000Y-92550000D01*
X201650000Y-91700000D02*
X201650000Y-92050000D01*
D74*
%TO.N,Net-(BZ1-Pad2)*%
X189250000Y-109150000D02*
X190200000Y-108200000D01*
X190200000Y-108200000D02*
X190200000Y-107375000D01*
X187000000Y-109150000D02*
X189250000Y-109150000D01*
%TO.N,Net-(C1-Pad1)*%
X154675000Y-99400000D02*
X155525000Y-100250000D01*
X155525000Y-100250000D02*
X156875000Y-100250000D01*
D73*
%TO.N,POW_GND*%
X182225000Y-100675000D02*
X182675000Y-101125000D01*
X153125000Y-99400000D02*
X152800000Y-99725000D01*
D74*
X186320000Y-78500000D02*
X190200000Y-78500000D01*
D73*
X169660000Y-87360000D02*
X169700000Y-87400000D01*
X169700000Y-84825000D02*
X169150000Y-84275000D01*
X159900000Y-86350000D02*
X160300000Y-85950000D01*
D74*
X154900000Y-93520000D02*
X155130000Y-93750000D01*
D73*
X185450000Y-95275000D02*
X185700000Y-95525000D01*
X191375000Y-81635000D02*
X190810000Y-82200000D01*
D74*
X190075000Y-112800000D02*
X191375000Y-114100000D01*
D73*
X173625000Y-107375000D02*
X174600000Y-106400000D01*
D74*
X169450000Y-93750000D02*
X169560000Y-93860000D01*
X171550500Y-96400000D02*
X171250000Y-96700500D01*
X173000000Y-94720000D02*
X173520000Y-94200000D01*
D73*
X163125000Y-84475000D02*
X162320000Y-85280000D01*
X162400000Y-107350000D02*
X162400000Y-106675000D01*
X185700000Y-95050000D02*
X185700000Y-95525000D01*
X160325000Y-111075000D02*
X159700000Y-110450000D01*
X167600000Y-105800000D02*
X167600000Y-104875000D01*
X162320000Y-85280000D02*
X162320000Y-85600000D01*
X157000000Y-90675000D02*
X157000000Y-92000000D01*
X182225000Y-99862500D02*
X182225000Y-100675000D01*
X189879000Y-92988000D02*
X189891000Y-93000000D01*
X154900000Y-93150000D02*
X156000000Y-92050000D01*
X184775000Y-102150000D02*
X184150000Y-102775000D01*
X171050000Y-87400000D02*
X172600000Y-88950000D01*
X177880000Y-95330000D02*
X177910000Y-95300000D01*
X188381000Y-92988000D02*
X189662000Y-92988000D01*
X176000000Y-102625000D02*
X174600000Y-104025000D01*
D74*
X161230000Y-87620000D02*
X161700000Y-87150000D01*
D73*
X177899500Y-102225000D02*
X178299500Y-102625000D01*
X163675000Y-88850000D02*
X162775000Y-87950000D01*
D74*
X184470000Y-79420000D02*
X184000000Y-78950000D01*
D73*
X156695000Y-86292684D02*
X156727212Y-86260472D01*
X162400000Y-107700000D02*
X162400000Y-107350000D01*
D74*
X171110000Y-95960000D02*
X171110000Y-95250000D01*
D75*
X160800000Y-91325000D02*
X160800000Y-92700000D01*
D74*
X171700000Y-96400000D02*
X171550500Y-96400000D01*
X190200000Y-78500000D02*
X191375000Y-79675000D01*
X155130000Y-93750000D02*
X156875000Y-93750000D01*
D73*
X163400000Y-106700000D02*
X164100000Y-106700000D01*
X189662000Y-92988000D02*
X189879000Y-92988000D01*
D74*
X171110000Y-95250000D02*
X171110000Y-95090000D01*
D73*
X172000000Y-89550000D02*
X172600000Y-88950000D01*
D74*
X172455000Y-96400000D02*
X171700000Y-96400000D01*
D73*
X182600000Y-102775000D02*
X184150000Y-102775000D01*
X186300000Y-94450000D02*
X185700000Y-95050000D01*
X162400000Y-107700000D02*
X162400000Y-108100000D01*
D74*
X172980000Y-94700000D02*
X173000000Y-94720000D01*
D73*
X184520000Y-113520000D02*
X183900000Y-112900000D01*
X174600000Y-104025000D02*
X174600000Y-106400000D01*
D74*
X173000000Y-95455000D02*
X173000000Y-94720000D01*
D73*
X170180000Y-90705000D02*
X170075000Y-90600000D01*
X173575000Y-107375000D02*
X173625000Y-107375000D01*
D75*
X160800000Y-92700000D02*
X161500000Y-93400000D01*
D73*
X189891000Y-93000000D02*
X190400000Y-93000000D01*
D74*
X169560000Y-93860000D02*
X170420000Y-93860000D01*
D73*
X152799752Y-101604374D02*
X154724374Y-101604374D01*
X166925000Y-106475000D02*
X167000000Y-106400000D01*
X191375000Y-79800000D02*
X191375000Y-81635000D01*
D74*
X173082809Y-93198935D02*
X173520000Y-93636126D01*
X185400000Y-79420000D02*
X186320000Y-78500000D01*
D73*
X188250000Y-85400000D02*
X188250000Y-88625000D01*
X178625000Y-96025000D02*
X178250000Y-96400000D01*
X190400000Y-93000000D02*
X191200000Y-93000000D01*
X183525000Y-96825000D02*
X183070001Y-96370001D01*
X167600000Y-104080000D02*
X167600000Y-104875000D01*
X169700000Y-85200000D02*
X169700000Y-84825000D01*
X184775000Y-101900000D02*
X184775000Y-102150000D01*
X177880000Y-96400000D02*
X177880000Y-95330000D01*
X183070001Y-95763897D02*
X182875000Y-95568896D01*
X182675000Y-101125000D02*
X184000000Y-101125000D01*
X178100000Y-98710000D02*
X176930000Y-98710000D01*
X169670000Y-87430000D02*
X169700000Y-87400000D01*
X156695000Y-87875000D02*
X156695000Y-86292684D01*
D74*
X170655000Y-92575000D02*
X170180000Y-92100000D01*
D73*
X176930000Y-98710000D02*
X176900000Y-98680000D01*
X180925000Y-95568896D02*
X180925000Y-94137500D01*
X182450000Y-102625000D02*
X182600000Y-102775000D01*
X178385000Y-98425000D02*
X178100000Y-98710000D01*
X180450000Y-96900000D02*
X180729999Y-96620001D01*
D74*
X171550000Y-96400000D02*
X171110000Y-95960000D01*
D73*
X154900000Y-103350000D02*
X154900000Y-101780000D01*
X191924000Y-92874000D02*
X192050000Y-93000000D01*
D74*
X191375000Y-79675000D02*
X191375000Y-79800000D01*
X171500000Y-94700000D02*
X172980000Y-94700000D01*
D73*
X154724374Y-101604374D02*
X154900000Y-101780000D01*
D74*
X170825000Y-92575000D02*
X170655000Y-92575000D01*
D73*
X191924000Y-91775000D02*
X191924000Y-92874000D01*
X169670000Y-88640000D02*
X169670000Y-87430000D01*
D74*
X170980000Y-92730000D02*
X170825000Y-92575000D01*
D73*
X180729999Y-95763897D02*
X180925000Y-95568896D01*
X158975000Y-110450000D02*
X159700000Y-110450000D01*
D74*
X159900000Y-87620000D02*
X161230000Y-87620000D01*
D73*
X191200000Y-93000000D02*
X192050000Y-93000000D01*
X192050000Y-93000000D02*
X192540000Y-93490000D01*
X152800000Y-101604126D02*
X152799752Y-101604374D01*
X172000000Y-92000000D02*
X172000000Y-89550000D01*
D74*
X171110000Y-95090000D02*
X171500000Y-94700000D01*
D73*
X154250000Y-104000000D02*
X154900000Y-103350000D01*
X163900000Y-88850000D02*
X163675000Y-88850000D01*
X169700000Y-87400000D02*
X171050000Y-87400000D01*
X164100000Y-106700000D02*
X164100000Y-107550000D01*
D74*
X162320000Y-86530000D02*
X161700000Y-87150000D01*
D73*
X152800000Y-99725000D02*
X152800000Y-101604126D01*
X161200000Y-109300000D02*
X161200000Y-111075000D01*
X169660000Y-86150000D02*
X169660000Y-85240000D01*
X174600000Y-106400000D02*
X174300000Y-106700000D01*
X163125000Y-84375000D02*
X163125000Y-84475000D01*
X162400000Y-108100000D02*
X161200000Y-109300000D01*
X169660000Y-86150000D02*
X169660000Y-87360000D01*
X182875000Y-95568896D02*
X182875000Y-94137500D01*
X185000000Y-108500000D02*
X185000000Y-109100000D01*
X167000000Y-106400000D02*
X167600000Y-105800000D01*
D74*
X185400000Y-79420000D02*
X184470000Y-79420000D01*
X171700000Y-96400000D02*
X171550000Y-96400000D01*
D73*
X159900000Y-87620000D02*
X159900000Y-86350000D01*
X162400000Y-106675000D02*
X162300000Y-106575000D01*
X180729999Y-96620001D02*
X180729999Y-95763897D01*
X192540000Y-93490000D02*
X192540000Y-95367500D01*
X154900000Y-93520000D02*
X154900000Y-93150000D01*
X161200000Y-111075000D02*
X160325000Y-111075000D01*
X178299500Y-102625000D02*
X182450000Y-102625000D01*
D74*
X170420000Y-93860000D02*
X170980000Y-93300000D01*
X173520000Y-93636126D02*
X173520000Y-94200000D01*
D73*
X185450000Y-94650000D02*
X185450000Y-95275000D01*
X176000000Y-102000000D02*
X176000000Y-102625000D01*
D74*
X185200000Y-113520000D02*
X185920000Y-112800000D01*
D73*
X185000000Y-109100000D02*
X184700000Y-109400000D01*
X178725000Y-98425000D02*
X178385000Y-98425000D01*
X162400000Y-107700000D02*
X163400000Y-106700000D01*
X167600000Y-104800000D02*
X167600000Y-104875000D01*
X163125000Y-84375000D02*
X163200000Y-84300000D01*
X184000000Y-101125000D02*
X184775000Y-101900000D01*
D74*
X162320000Y-85600000D02*
X162320000Y-86530000D01*
D73*
X188250000Y-88625000D02*
X189800000Y-90175000D01*
X163200000Y-84300000D02*
X163200000Y-82825000D01*
X178250000Y-96400000D02*
X177880000Y-96400000D01*
X169150000Y-84275000D02*
X168800000Y-84275000D01*
D74*
X185920000Y-112800000D02*
X190075000Y-112800000D01*
X170980000Y-93300000D02*
X170980000Y-92730000D01*
D73*
X166000000Y-106475000D02*
X166925000Y-106475000D01*
X169660000Y-85240000D02*
X169700000Y-85200000D01*
X185200000Y-113520000D02*
X184520000Y-113520000D01*
X183070001Y-96370001D02*
X183070001Y-95763897D01*
D74*
X168225000Y-93750000D02*
X169450000Y-93750000D01*
D73*
X170180000Y-92100000D02*
X170180000Y-90705000D01*
D75*
%TO.N,Net-(C2-Pad1)*%
X165800000Y-102675000D02*
X165800000Y-104725000D01*
X165800000Y-104725000D02*
X166000000Y-104925000D01*
%TO.N,NRST*%
X177400000Y-82850000D02*
X182930000Y-82850000D01*
X175350000Y-84950000D02*
X175350000Y-84900000D01*
X175350000Y-84900000D02*
X177400000Y-82850000D01*
X163300000Y-93150000D02*
X163300000Y-91325000D01*
D74*
X185400000Y-80380000D02*
X186645000Y-80380000D01*
X186645000Y-80380000D02*
X187225000Y-79800000D01*
D75*
X182930000Y-82850000D02*
X185400000Y-80380000D01*
%TO.N,DEBUG*%
X168300000Y-102800000D02*
X169000000Y-102800000D01*
X181100000Y-111700000D02*
X183880000Y-114480000D01*
X176442190Y-110507984D02*
X177634206Y-111700000D01*
X164800000Y-102675000D02*
X164800000Y-101869670D01*
X169000000Y-102800000D02*
X169550000Y-103350000D01*
X167100000Y-101600000D02*
X168300000Y-102800000D01*
D74*
X185200000Y-114480000D02*
X186845000Y-114480000D01*
X186845000Y-114480000D02*
X187225000Y-114100000D01*
D75*
X164800000Y-101869670D02*
X165069670Y-101600000D01*
X177634206Y-111700000D02*
X181100000Y-111700000D01*
X169550000Y-103350000D02*
X169550000Y-104000000D01*
X171250000Y-105150000D02*
X171250000Y-106150000D01*
X175607984Y-110507984D02*
X176442190Y-110507984D01*
X165069670Y-101600000D02*
X167100000Y-101600000D01*
X171250000Y-106150000D02*
X175607984Y-110507984D01*
X183880000Y-114480000D02*
X185200000Y-114480000D01*
D73*
%TO.N,POW_IN*%
X187960000Y-95367500D02*
X187960000Y-95682000D01*
X189242500Y-96650000D02*
X187960000Y-95367500D01*
X190750000Y-85400000D02*
X190750000Y-88450000D01*
X190750000Y-85400000D02*
X190750000Y-84650000D01*
X186567000Y-97075000D02*
X185700000Y-97075000D01*
X191924000Y-90225000D02*
X192575000Y-90225000D01*
X184650000Y-111300000D02*
X185275000Y-111300000D01*
X187190000Y-82590000D02*
X187190000Y-82200000D01*
X181575000Y-99900000D02*
X181575000Y-99350000D01*
X181575000Y-101300000D02*
X181575000Y-99862500D01*
X187960000Y-95682000D02*
X186567000Y-97075000D01*
X183225000Y-101900000D02*
X182175000Y-101900000D01*
X192575000Y-90225000D02*
X193150000Y-90800000D01*
X183225000Y-101900000D02*
X180400000Y-101900000D01*
X190750000Y-84650000D02*
X189700000Y-83600000D01*
X182175000Y-101900000D02*
X181575000Y-101300000D01*
X183550000Y-107275000D02*
X183550000Y-110200000D01*
X182875000Y-99350000D02*
X182875000Y-99900000D01*
X193150000Y-90800000D02*
X193150000Y-92500000D01*
X189750000Y-96650000D02*
X189242500Y-96650000D01*
X191924000Y-89624000D02*
X190750000Y-88450000D01*
X188200000Y-83600000D02*
X187190000Y-82590000D01*
X177280000Y-100505000D02*
X177280000Y-100000000D01*
X183550000Y-110200000D02*
X184650000Y-111300000D01*
X178675000Y-101900000D02*
X177280000Y-100505000D01*
X180400000Y-101900000D02*
X178675000Y-101900000D01*
X191924000Y-90225000D02*
X191924000Y-89624000D01*
X189700000Y-83600000D02*
X188200000Y-83600000D01*
D75*
%TO.N,RCC_OSC_IN*%
X164900000Y-89700000D02*
X164900000Y-87600000D01*
X164300000Y-90300000D02*
X164900000Y-89700000D01*
D74*
X163280000Y-85600000D02*
X163280000Y-86530000D01*
X163280000Y-86530000D02*
X163900000Y-87150000D01*
D75*
X164900000Y-87600000D02*
X164450000Y-87150000D01*
X164450000Y-87150000D02*
X163900000Y-87150000D01*
X164300000Y-91325000D02*
X164300000Y-90300000D01*
D74*
%TO.N,RCC_OSC_OUT*%
X159900000Y-88580000D02*
X161430000Y-88580000D01*
D75*
X163800000Y-91325000D02*
X163800000Y-90300000D01*
X161700000Y-89600000D02*
X161700000Y-88850000D01*
X163800000Y-90300000D02*
X163400000Y-89900000D01*
X162000000Y-89900000D02*
X161700000Y-89600000D01*
D74*
X161430000Y-88580000D02*
X161700000Y-88850000D01*
D75*
X163400000Y-89900000D02*
X162000000Y-89900000D01*
D73*
%TO.N,/IR_sensor/+3V3_2*%
X201650000Y-97250000D02*
X201050000Y-97850000D01*
X201650000Y-97100000D02*
X201650000Y-97250000D01*
D74*
%TO.N,Net-(BZ1-Pad1)*%
X186925000Y-111300000D02*
X187000000Y-111225000D01*
X187000000Y-111225000D02*
X190200000Y-111225000D01*
%TO.N,Net-(C20-Pad1)*%
X168700000Y-88650000D02*
X168710000Y-88640000D01*
D75*
X165300000Y-91325000D02*
X165300000Y-90300000D01*
X165300000Y-90300000D02*
X166700000Y-88900000D01*
X166700000Y-88900000D02*
X166700000Y-88650000D01*
D74*
X166700000Y-88650000D02*
X168700000Y-88650000D01*
D75*
%TO.N,Net-(C26-Pad2)*%
X178700000Y-99925000D02*
X178075000Y-99300000D01*
X178075000Y-99300000D02*
X176800000Y-99300000D01*
X180925000Y-99350000D02*
X180925000Y-99862500D01*
X176320000Y-99780000D02*
X176320000Y-100000000D01*
X176800000Y-99300000D02*
X176320000Y-99780000D01*
%TO.N,Net-(C32-Pad2)*%
X176920000Y-96400000D02*
X176520000Y-96800000D01*
X176520000Y-96800000D02*
X175545000Y-96800000D01*
D73*
%TO.N,Net-(D1-Pad1)*%
X187885000Y-90400000D02*
X188375000Y-90400000D01*
X188375000Y-90400000D02*
X189800000Y-91825000D01*
%TO.N,Net-(C34-Pad1)*%
X199900000Y-93700000D02*
X201000000Y-93700000D01*
X199000000Y-92100000D02*
X199000000Y-92800000D01*
X199000000Y-92800000D02*
X199900000Y-93700000D01*
X199000000Y-92100000D02*
X199000000Y-92550000D01*
X199000000Y-91475000D02*
X200075000Y-90400000D01*
X199000000Y-92100000D02*
X199000000Y-91475000D01*
%TO.N,Net-(D3-Pad1)*%
X196300000Y-97450000D02*
X196300000Y-95775000D01*
X196300000Y-95775000D02*
X196275000Y-95750000D01*
D74*
%TO.N,Net-(D6-Pad1)*%
X163060000Y-105685000D02*
X162300000Y-104925000D01*
X163800000Y-105685000D02*
X163060000Y-105685000D01*
%TO.N,DEB_LED*%
X163800000Y-102675000D02*
X163800000Y-104715000D01*
D75*
%TO.N,SYS_JTMS-SWDIO*%
X164650000Y-104350000D02*
X165300000Y-103700000D01*
X164400000Y-108650000D02*
X163950000Y-108650000D01*
X164400000Y-108650000D02*
X164650000Y-108400000D01*
X163200000Y-109400000D02*
X163200000Y-111075000D01*
X165300000Y-103700000D02*
X165300000Y-102675000D01*
X163950000Y-108650000D02*
X163200000Y-109400000D01*
X164650000Y-108400000D02*
X164650000Y-104350000D01*
%TO.N,SYS_JTCK-SWCLK*%
X163350000Y-108150000D02*
X162200000Y-109300000D01*
X162200000Y-109300000D02*
X162200000Y-111075000D01*
X163350000Y-100900000D02*
X165400000Y-100900000D01*
X167000000Y-100350000D02*
X167400000Y-100750000D01*
X165400000Y-100900000D02*
X165950000Y-100350000D01*
X167400000Y-100750000D02*
X168225000Y-100750000D01*
%TO.N,TXD*%
X160900000Y-84600000D02*
X160175736Y-84600000D01*
X161200000Y-82825000D02*
X161200000Y-84300000D01*
X158400000Y-86375736D02*
X158400000Y-91725000D01*
X161200000Y-84300000D02*
X160900000Y-84600000D01*
X158400000Y-91725000D02*
X156875000Y-93250000D01*
X160175736Y-84600000D02*
X158400000Y-86375736D01*
%TO.N,RXD*%
X158800000Y-86400000D02*
X158800000Y-91325000D01*
X162200000Y-84300000D02*
X161600000Y-84900000D01*
X161600000Y-84900000D02*
X160300000Y-84900000D01*
X162200000Y-82825000D02*
X162200000Y-84300000D01*
X160300000Y-84900000D02*
X158800000Y-86400000D01*
D73*
%TO.N,BAT_VOL*%
X188210000Y-82200000D02*
X189790000Y-82200000D01*
X189000000Y-82200000D02*
X188210000Y-82200000D01*
D75*
X159950000Y-89500000D02*
X159800000Y-89650000D01*
X159800000Y-89650000D02*
X159800000Y-91325000D01*
%TO.N,BUZZER_OP*%
X176500000Y-100650000D02*
X172650000Y-100650000D01*
X177300000Y-102350000D02*
X177300000Y-101450000D01*
X163650000Y-98249500D02*
X163650000Y-94800000D01*
X164600000Y-93850000D02*
X166800000Y-93850000D01*
X167200000Y-94250000D02*
X168225000Y-94250000D01*
X163650000Y-94800000D02*
X164600000Y-93850000D01*
X166800000Y-93850000D02*
X167200000Y-94250000D01*
X175450000Y-104200000D02*
X177300000Y-102350000D01*
X165250000Y-99849500D02*
X163650000Y-98249500D01*
X175450000Y-105125000D02*
X175450000Y-104200000D01*
X184350000Y-106550000D02*
X184990000Y-106550000D01*
X177300000Y-101450000D02*
X176500000Y-100650000D01*
D73*
%TO.N,Net-(D2-Pad1)*%
X196275000Y-90400000D02*
X196275000Y-92075000D01*
X196275000Y-92075000D02*
X196300000Y-92100000D01*
D75*
%TO.N,/MPU6500/MOSI*%
X171100000Y-98395000D02*
X171100000Y-98690000D01*
X171495000Y-98000000D02*
X171100000Y-98395000D01*
X172455000Y-98000000D02*
X171495000Y-98000000D01*
X172150000Y-98700000D02*
X171110000Y-98700000D01*
X171110000Y-98700000D02*
X171100000Y-98690000D01*
X165800000Y-96750000D02*
X168225000Y-96750000D01*
%TO.N,/MPU6500/SCLK*%
X169550000Y-97750000D02*
X170000000Y-98200000D01*
X168225000Y-97750000D02*
X169550000Y-97750000D01*
X170600000Y-97600000D02*
X170000000Y-98200000D01*
X172455000Y-97600000D02*
X170600000Y-97600000D01*
X170000000Y-98200000D02*
X170000000Y-98690000D01*
%TO.N,Net-(R18-Pad1)*%
X176890000Y-95410000D02*
X176890000Y-95300000D01*
X175545000Y-96400000D02*
X175900000Y-96400000D01*
X175900000Y-96400000D02*
X176890000Y-95410000D01*
%TO.N,/MPU6500/nCS*%
X165600000Y-98000000D02*
X166500000Y-98900000D01*
X164300000Y-101700000D02*
X164800000Y-101200000D01*
X164300000Y-102675000D02*
X164300000Y-101700000D01*
X166500000Y-98900000D02*
X166500000Y-101000000D01*
X170500000Y-96900000D02*
X170800000Y-97200000D01*
X165450000Y-101200000D02*
X167265686Y-101200000D01*
X166500000Y-101000000D02*
X166300000Y-101200000D01*
X168065686Y-102000000D02*
X168990000Y-102000000D01*
X166300000Y-101200000D02*
X165450000Y-101200000D01*
X167265686Y-101200000D02*
X168065686Y-102000000D01*
X170800000Y-97200000D02*
X172455000Y-97200000D01*
X164800000Y-101200000D02*
X165450000Y-101200000D01*
%TO.N,/MPU6500/MISO*%
X175545000Y-97200000D02*
X177610000Y-97200000D01*
X177610000Y-97200000D02*
X178100000Y-97690000D01*
X178500000Y-97050000D02*
X178500000Y-97290000D01*
X168205000Y-97270000D02*
X168225000Y-97250000D01*
X165170000Y-97270000D02*
X168205000Y-97270000D01*
X178500000Y-97290000D02*
X178100000Y-97690000D01*
X164800000Y-96900000D02*
X165170000Y-97270000D01*
X164800000Y-96200000D02*
X164800000Y-96900000D01*
%TO.N,SDA_1*%
X165650000Y-95750000D02*
X168225000Y-95750000D01*
X164850000Y-94800000D02*
X164850000Y-94950000D01*
X164850000Y-94950000D02*
X165650000Y-95750000D01*
X174600000Y-92250000D02*
X174600000Y-91650000D01*
X174200000Y-92650000D02*
X174600000Y-92250000D01*
%TO.N,IR_LED_1*%
X155386824Y-108686824D02*
X156000000Y-109300000D01*
X160800000Y-105800000D02*
X157300000Y-109300000D01*
X155386824Y-108492404D02*
X155386824Y-108686824D01*
X160800000Y-102675000D02*
X160800000Y-105800000D01*
X157300000Y-109300000D02*
X156000000Y-109300000D01*
%TO.N,SCL_1*%
X173400000Y-92166238D02*
X170600000Y-94966238D01*
X170100000Y-96250000D02*
X168225000Y-96250000D01*
X170600000Y-95750000D02*
X170100000Y-96250000D01*
X173400000Y-91650000D02*
X173400000Y-92166238D01*
X170600000Y-94966238D02*
X170600000Y-95750000D01*
%TO.N,IR_RES_1*%
X160700000Y-94200000D02*
X159850000Y-94200000D01*
X155100000Y-106400000D02*
X155800000Y-105700000D01*
X155213176Y-107507596D02*
X155100000Y-107394420D01*
X157500000Y-105200000D02*
X157500000Y-102100000D01*
X157500000Y-102100000D02*
X161100000Y-98500000D01*
X161100000Y-94600000D02*
X160700000Y-94200000D01*
X159850000Y-94200000D02*
X159300000Y-93650000D01*
X155800000Y-105700000D02*
X157000000Y-105700000D01*
X155100000Y-107394420D02*
X155100000Y-106400000D01*
X159300000Y-93650000D02*
X159300000Y-91325000D01*
X161100000Y-98500000D02*
X161100000Y-94600000D01*
X157000000Y-105700000D02*
X157500000Y-105200000D01*
%TO.N,IR_LED_2*%
X156700000Y-102600000D02*
X156600000Y-102600000D01*
X153037868Y-105087868D02*
X152875000Y-104925000D01*
X156600000Y-102600000D02*
X154112132Y-105087868D01*
X152875000Y-103343042D02*
X152715209Y-103183251D01*
X161300000Y-100950000D02*
X161300000Y-102675000D01*
X152875000Y-104925000D02*
X152875000Y-103343042D01*
X154112132Y-105087868D02*
X153037868Y-105087868D01*
%TO.N,IR_RES_2*%
X152100000Y-99775000D02*
X150700000Y-101175000D01*
X152100000Y-96080000D02*
X152100000Y-99775000D01*
X150700000Y-101175000D02*
X150700000Y-101731958D01*
X153550000Y-94630000D02*
X152100000Y-96080000D01*
X159550000Y-94800000D02*
X156925000Y-94800000D01*
X150700000Y-101731958D02*
X151784791Y-102816749D01*
X156925000Y-94800000D02*
X156875000Y-94750000D01*
%TO.N,SDA_2*%
X158200000Y-99750000D02*
X156875000Y-99750000D01*
X158650000Y-100200000D02*
X158200000Y-99750000D01*
X172550000Y-104050000D02*
X173400000Y-103200000D01*
X173400000Y-103200000D02*
X173400000Y-102350000D01*
%TO.N,SCL_2*%
X158600000Y-99250000D02*
X156875000Y-99250000D01*
X173475000Y-104100000D02*
X174600000Y-102975000D01*
X158746800Y-99396800D02*
X158600000Y-99250000D01*
X174600000Y-102975000D02*
X174600000Y-102350000D01*
%TO.N,IR_LED_3*%
X151225500Y-91549500D02*
X151591749Y-91183251D01*
X160300000Y-100200000D02*
X160300000Y-102675000D01*
X151591749Y-91183251D02*
X151784791Y-91183251D01*
X151225500Y-92357959D02*
X151225500Y-91549500D01*
%TO.N,IR_RES_3*%
X152715209Y-90816749D02*
X153333251Y-90816749D01*
X153700000Y-90450000D02*
X153333251Y-90816749D01*
X154550000Y-95250000D02*
X154400000Y-95400000D01*
X156875000Y-95250000D02*
X154550000Y-95250000D01*
%TO.N,SDA_3*%
X150400000Y-100950000D02*
X151775000Y-99575000D01*
X150650000Y-104925000D02*
X150650000Y-102106222D01*
X151212868Y-105487868D02*
X150650000Y-104925000D01*
X156700000Y-103500000D02*
X156275736Y-103500000D01*
X162300000Y-100900000D02*
X162300000Y-102675000D01*
X150400000Y-101856222D02*
X150400000Y-100950000D01*
X151775000Y-99575000D02*
X151775000Y-97775000D01*
X154287868Y-105487868D02*
X151212868Y-105487868D01*
X150650000Y-102106222D02*
X150400000Y-101856222D01*
X151775000Y-97775000D02*
X150400000Y-96400000D01*
X156275736Y-103500000D02*
X154287868Y-105487868D01*
%TO.N,IR_LED_4*%
X155033885Y-86492404D02*
X155163176Y-86492404D01*
X150400000Y-89100000D02*
X151100000Y-88400000D01*
X159691707Y-100911629D02*
X159800000Y-101019922D01*
X153126289Y-88400000D02*
X155033885Y-86492404D01*
X150400000Y-92949000D02*
X150400000Y-89100000D01*
X150626000Y-93175000D02*
X150400000Y-92949000D01*
X159800000Y-101019922D02*
X159800000Y-102675000D01*
X151100000Y-88400000D02*
X153126289Y-88400000D01*
%TO.N,SCL_3*%
X150100000Y-101980486D02*
X150350000Y-102230486D01*
X151100736Y-105800000D02*
X154400000Y-105800000D01*
X155800000Y-104400000D02*
X156700000Y-104400000D01*
X150100000Y-100825736D02*
X150100000Y-101980486D01*
X150400000Y-97600000D02*
X150000000Y-97600000D01*
X162800000Y-100200000D02*
X162800000Y-102675000D01*
X150350000Y-105049264D02*
X151100736Y-105800000D01*
X150112868Y-100812868D02*
X150100000Y-100825736D01*
X149700000Y-97900000D02*
X149700000Y-100400000D01*
X149700000Y-100400000D02*
X150112868Y-100812868D01*
X150000000Y-97600000D02*
X149700000Y-97900000D01*
X150350000Y-102230486D02*
X150350000Y-105049264D01*
X154400000Y-105800000D02*
X155800000Y-104400000D01*
%TO.N,IR_RES_4*%
X155550000Y-85294420D02*
X155336824Y-85507596D01*
X154300000Y-96250000D02*
X156875000Y-96250000D01*
X155550000Y-84550000D02*
X155550000Y-85294420D01*
X155550000Y-84550000D02*
X155300000Y-84300000D01*
%TO.N,/DRV8833_Motor_Driver/BIN2*%
X180275000Y-99350000D02*
X180275000Y-99862500D01*
X159600000Y-95750000D02*
X156875000Y-95750000D01*
%TO.N,/DRV8833_Motor_Driver/AIN2*%
X159550000Y-97100000D02*
X158914608Y-97100000D01*
X183525000Y-100425000D02*
X183525000Y-99862500D01*
X158914608Y-97100000D02*
X158264608Y-97750000D01*
X158264608Y-97750000D02*
X156875000Y-97750000D01*
%TO.N,/DRV8833_Motor_Driver/BIN1*%
X159450000Y-97850000D02*
X159050000Y-98250000D01*
X159050000Y-98250000D02*
X156875000Y-98250000D01*
X179625000Y-100475000D02*
X178900000Y-101200000D01*
X179625000Y-99862500D02*
X179625000Y-100475000D01*
%TO.N,/DRV8833_Motor_Driver/AIN1*%
X176650000Y-93100000D02*
X177200000Y-93100000D01*
X184175000Y-99350000D02*
X184175000Y-99862500D01*
X177200000Y-93100000D02*
X178600000Y-94500000D01*
X168225000Y-94750000D02*
X166750000Y-94750000D01*
X166750000Y-94750000D02*
X166500000Y-94500000D01*
D73*
%TO.N,/VL6180x/GND_s*%
X200950000Y-113650000D02*
X200150000Y-113650000D01*
X201850000Y-112824500D02*
X202375500Y-112824500D01*
X201100000Y-113800000D02*
X201100000Y-114300000D01*
X199200000Y-114300000D02*
X199350000Y-114150000D01*
X198700000Y-114300000D02*
X199200000Y-114300000D01*
X201250000Y-114450000D02*
X201750000Y-114450000D01*
X199350000Y-114150000D02*
X199350000Y-113650000D01*
X198550000Y-114450000D02*
X198700000Y-114300000D01*
X200950000Y-113650000D02*
X201100000Y-113800000D01*
X201100000Y-114300000D02*
X201250000Y-114450000D01*
X200150000Y-113650000D02*
X199350000Y-113650000D01*
D75*
%TO.N,/AS5048_Right/GND_s*%
X203985000Y-80050000D02*
X203295000Y-80050000D01*
D73*
X198826813Y-82050000D02*
X200826813Y-80050000D01*
X198725000Y-82050000D02*
X198675000Y-82000000D01*
X198675000Y-82000000D02*
X197555000Y-82000000D01*
X200826813Y-80050000D02*
X203295000Y-80050000D01*
D75*
X204275000Y-79275000D02*
X204275000Y-79760000D01*
X205070000Y-78700000D02*
X204850000Y-78700000D01*
X204850000Y-78700000D02*
X204275000Y-79275000D01*
D73*
X198725000Y-82050000D02*
X198826813Y-82050000D01*
X203295000Y-80700000D02*
X203295000Y-81350000D01*
D75*
X204275000Y-79760000D02*
X203985000Y-80050000D01*
D73*
X203295000Y-80050000D02*
X203295000Y-80700000D01*
D75*
%TO.N,/DRV8833_Motor_Driver/EN*%
X159700000Y-98750000D02*
X160500000Y-97950000D01*
X156875000Y-98750000D02*
X159700000Y-98750000D01*
X185950000Y-92150000D02*
X185950000Y-92440000D01*
X185950000Y-92440000D02*
X185500000Y-92890000D01*
X160500000Y-97950000D02*
X160500000Y-94950000D01*
%TO.N,Net-(R26-Pad2)*%
X170090000Y-95250000D02*
X168225000Y-95250000D01*
D73*
%TO.N,/IR_sensor/+3V3_4*%
X202920000Y-104700000D02*
X201900000Y-103680000D01*
X204700000Y-104700000D02*
X202920000Y-104700000D01*
X201150500Y-104700000D02*
X201900000Y-104700000D01*
X200300500Y-103850000D02*
X201150500Y-104700000D01*
X201900000Y-104700000D02*
X204700000Y-104700000D01*
X195800000Y-103200000D02*
X197300000Y-104700000D01*
X197300000Y-104700000D02*
X201900000Y-104700000D01*
D75*
%TO.N,Net-(C21-Pad1)*%
X165300000Y-89800000D02*
X165300000Y-86700000D01*
D74*
X166700000Y-86150000D02*
X168700000Y-86150000D01*
D75*
X165850000Y-86150000D02*
X166700000Y-86150000D01*
X164800000Y-91325000D02*
X164800000Y-90300000D01*
X164800000Y-90300000D02*
X165300000Y-89800000D01*
X165300000Y-86700000D02*
X165850000Y-86150000D01*
D73*
%TO.N,Net-(M1-Pad1)*%
X185575000Y-98675000D02*
X185575000Y-99925000D01*
X182225000Y-94137500D02*
X182225000Y-93175000D01*
X185575000Y-99400000D02*
X185575000Y-99925000D01*
X185575000Y-99925000D02*
X185575000Y-102925000D01*
X185575000Y-102925000D02*
X184925000Y-103575000D01*
X182225000Y-92550000D02*
X182225000Y-94100000D01*
%TO.N,Net-(M1-Pad2)*%
X183525000Y-92525000D02*
X183525000Y-94100000D01*
X186225000Y-98600000D02*
X186225000Y-99200000D01*
X183525000Y-93175000D02*
X183525000Y-94137500D01*
X186225000Y-103875000D02*
X184975000Y-105125000D01*
X183525000Y-93175000D02*
X183525000Y-94100000D01*
X186225000Y-99200000D02*
X186225000Y-103875000D01*
%TO.N,Net-(M2-Pad1)*%
X183432106Y-91675000D02*
X182050000Y-91675000D01*
X184975000Y-90475000D02*
X184632106Y-90475000D01*
X181575000Y-92150000D02*
X181575000Y-94137500D01*
X184632106Y-90475000D02*
X183432106Y-91675000D01*
X182050000Y-91675000D02*
X181575000Y-92150000D01*
%TO.N,Net-(M2-Pad2)*%
X183900000Y-89500000D02*
X184475000Y-88925000D01*
X183900000Y-90050000D02*
X183900000Y-89500000D01*
X184475000Y-88925000D02*
X185025000Y-88925000D01*
X182825000Y-91125000D02*
X183900000Y-90050000D01*
X180275000Y-94137500D02*
X180275000Y-92300000D01*
X181450000Y-91125000D02*
X182825000Y-91125000D01*
X180275000Y-92300000D02*
X181450000Y-91125000D01*
D75*
%TO.N,/AS5048_Left/GND_s*%
X204230000Y-84595000D02*
X204230000Y-85405000D01*
X203950000Y-85650000D02*
X203295000Y-85650000D01*
X204195000Y-85405000D02*
X203950000Y-85650000D01*
D73*
X200025000Y-86200000D02*
X200575000Y-85650000D01*
X199375000Y-87600000D02*
X200025000Y-86950000D01*
D75*
X204230000Y-85405000D02*
X204195000Y-85405000D01*
X205000000Y-84300000D02*
X204525000Y-84300000D01*
D73*
X203295000Y-85650000D02*
X203295000Y-86300000D01*
X197555000Y-87600000D02*
X198625000Y-87600000D01*
D75*
X204525000Y-84300000D02*
X204230000Y-84595000D01*
D73*
X198625000Y-87600000D02*
X199375000Y-87600000D01*
X200575000Y-85650000D02*
X203295000Y-85650000D01*
X200025000Y-86950000D02*
X200025000Y-86200000D01*
X203295000Y-86950000D02*
X203295000Y-86300000D01*
%TO.N,/IR_sensor/+3V3_3*%
X200250000Y-109750000D02*
X200250000Y-110000000D01*
X200850000Y-110600000D02*
X202750000Y-110600000D01*
X197300000Y-110600000D02*
X200850000Y-110600000D01*
X202750000Y-110600000D02*
X204700000Y-110600000D01*
X201900000Y-109750000D02*
X202750000Y-110600000D01*
X201900000Y-109580000D02*
X201900000Y-109750000D01*
X200250000Y-110000000D02*
X200850000Y-110600000D01*
X195800000Y-109100000D02*
X197300000Y-110600000D01*
D75*
%TO.N,/VL6180x/SDA_s*%
X200397279Y-114662771D02*
X200365724Y-114662771D01*
X202550000Y-115475500D02*
X203024500Y-115950000D01*
X204790000Y-114840000D02*
X204800000Y-114850000D01*
X200365724Y-114662771D02*
X200150000Y-114878495D01*
X204050000Y-115950000D02*
X204800000Y-115200000D01*
X200150000Y-114878495D02*
X200150000Y-115250000D01*
X203024500Y-115950000D02*
X204050000Y-115950000D01*
X200419592Y-114685084D02*
X200397279Y-114662771D01*
X204800000Y-115200000D02*
X204800000Y-114850000D01*
%TO.N,/VL6180x/SCL_s*%
X203750000Y-115350000D02*
X203150000Y-115350000D01*
X204790000Y-114060000D02*
X204800000Y-114050000D01*
X199350000Y-114888041D02*
X199350000Y-115250000D01*
X199938539Y-114299502D02*
X199350000Y-114888041D01*
X204050000Y-115050000D02*
X203750000Y-115350000D01*
X204050000Y-114450000D02*
X204050000Y-115050000D01*
X204450000Y-114050000D02*
X204050000Y-114450000D01*
X204800000Y-114050000D02*
X204450000Y-114050000D01*
%TO.N,Net-(R25-Pad1)*%
X185500000Y-93910000D02*
X184402500Y-93910000D01*
X184402500Y-93910000D02*
X184175000Y-94137500D01*
%TO.N,/IR_sensor/IR_REC_4*%
X202350000Y-103200000D02*
X199300000Y-103200000D01*
X202850000Y-103700000D02*
X202350000Y-103200000D01*
D73*
X199300000Y-103200000D02*
X198150000Y-103200000D01*
X198150000Y-103200000D02*
X196990000Y-102040000D01*
X196990000Y-102040000D02*
X196990000Y-101500000D01*
%TO.N,Net-(C6-Pad1)*%
X201000000Y-99100000D02*
X199950000Y-99100000D01*
X199000000Y-96875000D02*
X200075000Y-95800000D01*
X199000000Y-98150000D02*
X199000000Y-97450000D01*
X199000000Y-97450000D02*
X199000000Y-96875000D01*
X199950000Y-99100000D02*
X199000000Y-98150000D01*
%TO.N,/IR_sensor/IR_REC_3*%
X198150000Y-109100000D02*
X196940000Y-107890000D01*
D75*
X202700000Y-109600000D02*
X202700000Y-109589167D01*
D73*
X196940000Y-107890000D02*
X196940000Y-107350000D01*
D75*
X202210833Y-109100000D02*
X199300000Y-109100000D01*
D73*
X199300000Y-109100000D02*
X198150000Y-109100000D01*
D75*
X202700000Y-109589167D02*
X202210833Y-109100000D01*
D73*
%TO.N,/IR_sensor/GND_1*%
X198900000Y-90400000D02*
X197925000Y-90400000D01*
X201975000Y-90750000D02*
X204700000Y-90750000D01*
X198950000Y-90450000D02*
X198900000Y-90400000D01*
X201625000Y-90400000D02*
X201975000Y-90750000D01*
%TO.N,/IR_sensor/GND_2*%
X198900000Y-95800000D02*
X197975000Y-95800000D01*
X197975000Y-95800000D02*
X197925000Y-95750000D01*
X201975000Y-96150000D02*
X201625000Y-95800000D01*
X204700000Y-96150000D02*
X201975000Y-96150000D01*
%TO.N,/IR_sensor/GND_4*%
X198010000Y-101500000D02*
X198700000Y-101500000D01*
X204700000Y-101700000D02*
X202920000Y-101700000D01*
X198210000Y-101700000D02*
X198010000Y-101500000D01*
X204700000Y-101700000D02*
X198210000Y-101700000D01*
X202920000Y-101700000D02*
X201900000Y-102720000D01*
X198700000Y-101500000D02*
X198850000Y-101350000D01*
%TO.N,/IR_sensor/GND_3*%
X201900000Y-108350000D02*
X202650000Y-107600000D01*
X204700000Y-107600000D02*
X198210000Y-107600000D01*
X201900000Y-108620000D02*
X201900000Y-108350000D01*
X198750000Y-107350000D02*
X198850000Y-107250000D01*
X197960000Y-107350000D02*
X198750000Y-107350000D01*
X202650000Y-107600000D02*
X204700000Y-107600000D01*
X198210000Y-107600000D02*
X197960000Y-107350000D01*
D75*
%TO.N,/IR_sensor/IR_POW_1*%
X200750000Y-93050000D02*
X201750000Y-93050000D01*
X200350000Y-92650000D02*
X200750000Y-93050000D01*
X201750000Y-93050000D02*
X202550000Y-92250000D01*
X200350000Y-91700000D02*
X200350000Y-92650000D01*
X202550000Y-92250000D02*
X204300000Y-92250000D01*
%TO.N,/IR_sensor/IR_POW_2*%
X204300000Y-97650000D02*
X202900000Y-97650000D01*
X200350000Y-98150000D02*
X200350000Y-97100000D01*
X202100000Y-98450000D02*
X200650000Y-98450000D01*
X202900000Y-97650000D02*
X202100000Y-98450000D01*
X200650000Y-98450000D02*
X200350000Y-98150000D01*
%TO.N,/IR_sensor/IR_POW_4*%
X203250000Y-103200000D02*
X202800000Y-102750000D01*
X204300000Y-103200000D02*
X203250000Y-103200000D01*
%TO.N,/IR_sensor/IR_POW_3*%
X203300000Y-109100000D02*
X204300000Y-109100000D01*
X202700000Y-108500000D02*
X203300000Y-109100000D01*
%TO.N,/AS5048_Left/SDA_s*%
X204250000Y-87700000D02*
X204250000Y-88200000D01*
X202000000Y-88250000D02*
X203295000Y-88250000D01*
X201625000Y-86700000D02*
X201300000Y-87025000D01*
X201300000Y-87025000D02*
X201300000Y-87550000D01*
X204700000Y-86700000D02*
X204700000Y-87250000D01*
X201300000Y-87550000D02*
X202000000Y-88250000D01*
X204700000Y-87250000D02*
X204250000Y-87700000D01*
X204250000Y-88200000D02*
X204200000Y-88250000D01*
X204200000Y-88250000D02*
X203295000Y-88250000D01*
%TO.N,/AS5048_Left/SCL_s*%
X202605000Y-87600000D02*
X203295000Y-87600000D01*
X204700000Y-85179500D02*
X204729500Y-85150000D01*
X204700000Y-85900000D02*
X204700000Y-85179500D01*
X202305000Y-87300000D02*
X202605000Y-87600000D01*
X202075000Y-87300000D02*
X202305000Y-87300000D01*
%TO.N,/AS5048_Right/SDA_s*%
X203295000Y-82650000D02*
X204000000Y-82650000D01*
X201850500Y-81475000D02*
X201850500Y-82149764D01*
X204000000Y-82650000D02*
X204700000Y-81950000D01*
X204700000Y-81170000D02*
X204770000Y-81100000D01*
X201850500Y-82149764D02*
X202350736Y-82650000D01*
X202350736Y-82650000D02*
X203295000Y-82650000D01*
X204700000Y-81950000D02*
X204700000Y-81170000D01*
%TO.N,/AS5048_Right/SCL_s*%
X204774500Y-79575000D02*
X204774500Y-80295500D01*
X201925000Y-80700000D02*
X202350000Y-81125000D01*
X204774500Y-80295500D02*
X204770000Y-80300000D01*
X203270000Y-82025000D02*
X203295000Y-82000000D01*
X202350000Y-81125000D02*
X202350000Y-81875000D01*
X202500000Y-82025000D02*
X203270000Y-82025000D01*
X202350000Y-81875000D02*
X202500000Y-82025000D01*
%TO.N,Net-(Q1-Pad2)*%
X186010000Y-107335000D02*
X186525000Y-107850000D01*
X186010000Y-106550000D02*
X186010000Y-107335000D01*
X186525000Y-107850000D02*
X187000000Y-107850000D01*
D73*
%TO.N,+3.3V*%
X172000000Y-103000000D02*
X169875000Y-105125000D01*
D74*
X176000000Y-92100000D02*
X176000000Y-92000000D01*
D73*
X167600000Y-103120000D02*
X167780000Y-103300000D01*
X164200000Y-109900000D02*
X166100000Y-108000000D01*
X153900000Y-100450000D02*
X154270000Y-100820000D01*
X166300000Y-92600000D02*
X166300000Y-91325000D01*
X172000000Y-102000000D02*
X172000000Y-103000000D01*
X154108772Y-89771272D02*
X151867146Y-89771272D01*
X166300000Y-102675000D02*
X167155000Y-102675000D01*
X189638000Y-94004000D02*
X190250000Y-94616000D01*
X168075000Y-82725000D02*
X168800000Y-82725000D01*
X169220000Y-92100000D02*
X169247746Y-92100000D01*
X166100000Y-108000000D02*
X167000000Y-108000000D01*
X170020000Y-92872254D02*
X170020000Y-93300000D01*
D74*
X174920000Y-99700000D02*
X171110000Y-99700000D01*
D73*
X155100000Y-92050000D02*
X154050000Y-93100000D01*
X167155000Y-102675000D02*
X167600000Y-103120000D01*
X156875000Y-100750000D02*
X154970000Y-100750000D01*
X170000000Y-101990000D02*
X170010000Y-102000000D01*
X170775000Y-86075000D02*
X176000000Y-91300000D01*
X170000000Y-99710000D02*
X171100000Y-99710000D01*
D74*
X154900000Y-94480000D02*
X155130000Y-94250000D01*
D73*
X151867146Y-89771272D02*
X151700248Y-89604374D01*
X155100000Y-90762500D02*
X155100000Y-92050000D01*
D74*
X155130000Y-94250000D02*
X156875000Y-94250000D01*
D73*
X167800000Y-91325000D02*
X168525000Y-90600000D01*
X186831000Y-92988000D02*
X186831000Y-93483000D01*
X170010000Y-102000000D02*
X172000000Y-102000000D01*
X168225000Y-93250000D02*
X168225000Y-93095000D01*
X166794266Y-92600000D02*
X166300000Y-92600000D01*
X154050000Y-93950000D02*
X154580000Y-94480000D01*
D74*
X175545000Y-97600000D02*
X176780000Y-97600000D01*
D73*
X164900000Y-84600000D02*
X166200000Y-84600000D01*
X164200000Y-83900000D02*
X164900000Y-84600000D01*
X167780000Y-103300000D02*
X168450000Y-103300000D01*
X176000000Y-91300000D02*
X176000000Y-92000000D01*
D74*
X176900000Y-97720000D02*
X174920000Y-99700000D01*
X171110000Y-99700000D02*
X171100000Y-99710000D01*
X174480000Y-93620000D02*
X176000000Y-92100000D01*
D73*
X164200000Y-82825000D02*
X164200000Y-83900000D01*
X186920000Y-92899000D02*
X186831000Y-92988000D01*
D74*
X176780000Y-97600000D02*
X176900000Y-97720000D01*
X175000000Y-95455000D02*
X175000000Y-94720000D01*
D73*
X170775000Y-83375000D02*
X170775000Y-86075000D01*
D74*
X174480000Y-94200000D02*
X174480000Y-93620000D01*
D73*
X168450000Y-104100000D02*
X169475000Y-105125000D01*
X154108772Y-89771272D02*
X155100000Y-90762500D01*
X168800000Y-82725000D02*
X170125000Y-82725000D01*
X190250000Y-94616000D02*
X190250000Y-95367500D01*
X168225000Y-93095000D02*
X169220000Y-92100000D01*
X154970000Y-100750000D02*
X154900000Y-100820000D01*
X186950000Y-88800000D02*
X186950000Y-90365000D01*
X169220000Y-91295000D02*
X168525000Y-90600000D01*
X187352000Y-94004000D02*
X189638000Y-94004000D01*
X154270000Y-100820000D02*
X154900000Y-100820000D01*
X154050000Y-93100000D02*
X154050000Y-93950000D01*
X169475000Y-105125000D02*
X169875000Y-105125000D01*
X170125000Y-82725000D02*
X170775000Y-83375000D01*
X169220000Y-92100000D02*
X169220000Y-91295000D01*
X186920000Y-91800000D02*
X186920000Y-92899000D01*
X186950000Y-90365000D02*
X186915000Y-90400000D01*
X168450000Y-103300000D02*
X168450000Y-104100000D01*
D74*
X175000000Y-94720000D02*
X174480000Y-94200000D01*
D73*
X186915000Y-90400000D02*
X186915000Y-91795000D01*
X167015413Y-92378853D02*
X166794266Y-92600000D01*
X186915000Y-91795000D02*
X186920000Y-91800000D01*
X166300000Y-91325000D02*
X167800000Y-91325000D01*
X167000000Y-108000000D02*
X169875000Y-105125000D01*
X154580000Y-94480000D02*
X154900000Y-94480000D01*
X166200000Y-84600000D02*
X168075000Y-82725000D01*
X164200000Y-111075000D02*
X164200000Y-109900000D01*
X186831000Y-93483000D02*
X187352000Y-94004000D01*
X169247746Y-92100000D02*
X170020000Y-92872254D01*
X170000000Y-99710000D02*
X170000000Y-101990000D01*
%TO.N,3V3A*%
X157655000Y-87875000D02*
X157655000Y-88470000D01*
D75*
X153800000Y-89071772D02*
X154234272Y-88637500D01*
D73*
X156512500Y-88637500D02*
X157000000Y-89125000D01*
D75*
X154234272Y-88637500D02*
X155100000Y-88637500D01*
D73*
X157655000Y-88470000D02*
X157000000Y-89125000D01*
X156720000Y-88845000D02*
X157000000Y-89125000D01*
D75*
X160300000Y-93400000D02*
X160300000Y-91325000D01*
D73*
X155100000Y-88637500D02*
X156512500Y-88637500D01*
%TO.N,/AS5048_Right/+3V3_s*%
X198675000Y-81325000D02*
X197580000Y-81325000D01*
X197555000Y-81350000D02*
X197555000Y-80700000D01*
X197580000Y-81325000D02*
X197555000Y-81350000D01*
%TO.N,/AS5048_Left/+3V3_s*%
X197555000Y-86300000D02*
X198625000Y-86300000D01*
X197555000Y-86950000D02*
X197555000Y-86300000D01*
%TO.N,/VL6180x/3V3_s*%
X198050000Y-115250000D02*
X197900000Y-115100000D01*
X197900000Y-114450000D02*
X197900000Y-115100000D01*
X197900000Y-113800000D02*
X197900000Y-114450000D01*
X198550000Y-115250000D02*
X198050000Y-115250000D01*
X205100000Y-116450000D02*
X204910000Y-116450000D01*
X198550000Y-113650000D02*
X198050000Y-113650000D01*
X198050000Y-113650000D02*
X197900000Y-113800000D01*
%TD*%
M02*
